G04 #@! TF.GenerationSoftware,KiCad,Pcbnew,8.0.3*
G04 #@! TF.CreationDate,2024-08-06T18:59:45+01:00*
G04 #@! TF.ProjectId,Tesla Small Drive,5465736c-6120-4536-9d61-6c6c20447269,rev?*
G04 #@! TF.SameCoordinates,Original*
G04 #@! TF.FileFunction,Legend,Bot*
G04 #@! TF.FilePolarity,Positive*
%FSLAX46Y46*%
G04 Gerber Fmt 4.6, Leading zero omitted, Abs format (unit mm)*
G04 Created by KiCad (PCBNEW 8.0.3) date 2024-08-06 18:59:45*
%MOMM*%
%LPD*%
G01*
G04 APERTURE LIST*
G04 Aperture macros list*
%AMFreePoly0*
4,1,19,0.550000,-0.750000,0.000000,-0.750000,0.000000,-0.744911,-0.071157,-0.744911,-0.207708,-0.704816,-0.327430,-0.627875,-0.420627,-0.520320,-0.479746,-0.390866,-0.500000,-0.250000,-0.500000,0.250000,-0.479746,0.390866,-0.420627,0.520320,-0.327430,0.627875,-0.207708,0.704816,-0.071157,0.744911,0.000000,0.744911,0.000000,0.750000,0.550000,0.750000,0.550000,-0.750000,0.550000,-0.750000,
$1*%
%AMFreePoly1*
4,1,19,0.000000,0.744911,0.071157,0.744911,0.207708,0.704816,0.327430,0.627875,0.420627,0.520320,0.479746,0.390866,0.500000,0.250000,0.500000,-0.250000,0.479746,-0.390866,0.420627,-0.520320,0.327430,-0.627875,0.207708,-0.704816,0.071157,-0.744911,0.000000,-0.744911,0.000000,-0.750000,-0.550000,-0.750000,-0.550000,0.750000,0.000000,0.750000,0.000000,0.744911,0.000000,0.744911,
$1*%
G04 Aperture macros list end*
%ADD10C,0.150000*%
%ADD11C,0.254000*%
%ADD12C,0.120000*%
%ADD13C,0.000000*%
%ADD14C,0.200000*%
%ADD15C,3.400000*%
%ADD16C,1.524000*%
%ADD17C,13.000000*%
%ADD18C,8.000000*%
%ADD19R,1.200000X1.200000*%
%ADD20C,1.200000*%
%ADD21R,1.000000X1.000000*%
%ADD22C,1.000000*%
%ADD23R,1.700000X1.700000*%
%ADD24O,1.700000X1.700000*%
%ADD25C,2.374900*%
%ADD26C,0.990600*%
%ADD27FreePoly0,270.000000*%
%ADD28R,1.500000X1.000000*%
%ADD29FreePoly1,270.000000*%
%ADD30C,3.500000*%
%ADD31C,12.800000*%
%ADD32R,2.100000X2.100000*%
%ADD33C,2.100000*%
G04 APERTURE END LIST*
D10*
G36*
X198989357Y-70730000D02*
G01*
X198856245Y-70730000D01*
X198856245Y-70280593D01*
X198701639Y-70280593D01*
X198677673Y-70280898D01*
X198627390Y-70285478D01*
X198611956Y-70289996D01*
X198566573Y-70312344D01*
X198532638Y-70341048D01*
X198498918Y-70380000D01*
X198489133Y-70392757D01*
X198458918Y-70434729D01*
X198430591Y-70476582D01*
X198402686Y-70519462D01*
X198269574Y-70730000D01*
X198101779Y-70730000D01*
X198277145Y-70454738D01*
X198286956Y-70439859D01*
X198317056Y-70398031D01*
X198351679Y-70356496D01*
X198387543Y-70320160D01*
X198423967Y-70293674D01*
X198467899Y-70269846D01*
X198441406Y-70265571D01*
X198392399Y-70254173D01*
X198341931Y-70236079D01*
X198293097Y-70209075D01*
X198253698Y-70175324D01*
X198226670Y-70141097D01*
X198201674Y-70092281D01*
X198188668Y-70044349D01*
X198184495Y-69994096D01*
X198321598Y-69994096D01*
X198327501Y-70039197D01*
X198348464Y-70086420D01*
X198381498Y-70122934D01*
X198426866Y-70147969D01*
X198467001Y-70158954D01*
X198516544Y-70165380D01*
X198569748Y-70167264D01*
X198856245Y-70167264D01*
X198856245Y-69827278D01*
X198537508Y-69827278D01*
X198517018Y-69827692D01*
X198467563Y-69832848D01*
X198416348Y-69847579D01*
X198373621Y-69874417D01*
X198350861Y-69899482D01*
X198328913Y-69943148D01*
X198321598Y-69994096D01*
X198184495Y-69994096D01*
X198184333Y-69992142D01*
X198184497Y-69981696D01*
X198190241Y-69931154D01*
X198204189Y-69883426D01*
X198226343Y-69838513D01*
X198255213Y-69799134D01*
X198293362Y-69765348D01*
X198338206Y-69741549D01*
X198388314Y-69726994D01*
X198437468Y-69719232D01*
X198487089Y-69715270D01*
X198542882Y-69713949D01*
X198989357Y-69713949D01*
X198989357Y-70730000D01*
G37*
G36*
X198026552Y-70397341D02*
G01*
X197901011Y-70386106D01*
X197892028Y-70436995D01*
X197875908Y-70484874D01*
X197859490Y-70515554D01*
X197826973Y-70553448D01*
X197786438Y-70582775D01*
X197758129Y-70597376D01*
X197708785Y-70615036D01*
X197660471Y-70624729D01*
X197608865Y-70628364D01*
X197603524Y-70628394D01*
X197553240Y-70625710D01*
X197503192Y-70616660D01*
X197468946Y-70605680D01*
X197423452Y-70582365D01*
X197385655Y-70547820D01*
X197381995Y-70542909D01*
X197359698Y-70498351D01*
X197353419Y-70455715D01*
X197362152Y-70405921D01*
X197381018Y-70372428D01*
X197417349Y-70339455D01*
X197463865Y-70315413D01*
X197471632Y-70312344D01*
X197520779Y-70296543D01*
X197573789Y-70282203D01*
X197625758Y-70269127D01*
X197650907Y-70263007D01*
X197700011Y-70250505D01*
X197749919Y-70236266D01*
X197797226Y-70220452D01*
X197845324Y-70199504D01*
X197890530Y-70171005D01*
X197927079Y-70138235D01*
X197952791Y-70104738D01*
X197974372Y-70060499D01*
X197985993Y-70012414D01*
X197988206Y-69978220D01*
X197983098Y-69926538D01*
X197967773Y-69877281D01*
X197944975Y-69834605D01*
X197913939Y-69795927D01*
X197875175Y-69763546D01*
X197828683Y-69737461D01*
X197818457Y-69733000D01*
X197770258Y-69716235D01*
X197719084Y-69704956D01*
X197664934Y-69699164D01*
X197633565Y-69698318D01*
X197579282Y-69700592D01*
X197528297Y-69707416D01*
X197480608Y-69718788D01*
X197436217Y-69734710D01*
X197391262Y-69757767D01*
X197348653Y-69789776D01*
X197313772Y-69828512D01*
X197304815Y-69841444D01*
X197280137Y-69887373D01*
X197263808Y-69936928D01*
X197255828Y-69990108D01*
X197255233Y-70001179D01*
X197382972Y-70010949D01*
X197392645Y-69960292D01*
X197412547Y-69912798D01*
X197445569Y-69871244D01*
X197452826Y-69864891D01*
X197495454Y-69838874D01*
X197543281Y-69823697D01*
X197593321Y-69816759D01*
X197628192Y-69815554D01*
X197677954Y-69817693D01*
X197727153Y-69825375D01*
X197777147Y-69842835D01*
X197804535Y-69860251D01*
X197838172Y-69896200D01*
X197857794Y-69944740D01*
X197859734Y-69967718D01*
X197849904Y-70017543D01*
X197820411Y-70057599D01*
X197774204Y-70084252D01*
X197724012Y-70102326D01*
X197676190Y-70116042D01*
X197619644Y-70129895D01*
X197571373Y-70141199D01*
X197520014Y-70154182D01*
X197469145Y-70168526D01*
X197418065Y-70185697D01*
X197396650Y-70194619D01*
X197350842Y-70219282D01*
X197308510Y-70250719D01*
X197272358Y-70290203D01*
X197266957Y-70297934D01*
X197243039Y-70343172D01*
X197229050Y-70392912D01*
X197224947Y-70442037D01*
X197229455Y-70491659D01*
X197242979Y-70539467D01*
X197265519Y-70585463D01*
X197271109Y-70594445D01*
X197303743Y-70636071D01*
X197344248Y-70671496D01*
X197387433Y-70698076D01*
X197403244Y-70705819D01*
X197453442Y-70725064D01*
X197500917Y-70736883D01*
X197551078Y-70743726D01*
X197597173Y-70745631D01*
X197646910Y-70744197D01*
X197701008Y-70738899D01*
X197750875Y-70729698D01*
X197802685Y-70714402D01*
X197826517Y-70704842D01*
X197870191Y-70681899D01*
X197913375Y-70649993D01*
X197950262Y-70611634D01*
X197971353Y-70582477D01*
X197996950Y-70534752D01*
X198014664Y-70483627D01*
X198023793Y-70435328D01*
X198026552Y-70397341D01*
G37*
G36*
X196448499Y-70612763D02*
G01*
X196448499Y-70730000D01*
X197114305Y-70730000D01*
X197110347Y-70680798D01*
X197099895Y-70644026D01*
X197078685Y-70597437D01*
X197053192Y-70555534D01*
X197021784Y-70514060D01*
X197018318Y-70509937D01*
X196982915Y-70471082D01*
X196944828Y-70433820D01*
X196906393Y-70399112D01*
X196863190Y-70362440D01*
X196856629Y-70357041D01*
X196817260Y-70323972D01*
X196772729Y-70285117D01*
X196733397Y-70249016D01*
X196693063Y-70209331D01*
X196655469Y-70168046D01*
X196634856Y-70141863D01*
X196606875Y-70097888D01*
X196586524Y-70050614D01*
X196577197Y-70000541D01*
X196576971Y-69991653D01*
X196584390Y-69939263D01*
X196606646Y-69893468D01*
X196629727Y-69866601D01*
X196669581Y-69837538D01*
X196716939Y-69820539D01*
X196766503Y-69815554D01*
X196818892Y-69821016D01*
X196868474Y-69839642D01*
X196909630Y-69871486D01*
X196940170Y-69915047D01*
X196957114Y-69963514D01*
X196963554Y-70014354D01*
X196963852Y-70026580D01*
X197090858Y-70013147D01*
X197083462Y-69960822D01*
X197070983Y-69913393D01*
X197049999Y-69864244D01*
X197022096Y-69821757D01*
X196992672Y-69790642D01*
X196952586Y-69760758D01*
X196906913Y-69738215D01*
X196855654Y-69723012D01*
X196807271Y-69715822D01*
X196763817Y-69713949D01*
X196711624Y-69716791D01*
X196656094Y-69727292D01*
X196606337Y-69745529D01*
X196562354Y-69771504D01*
X196534473Y-69794794D01*
X196501544Y-69832010D01*
X196473815Y-69879065D01*
X196456649Y-69930943D01*
X196450295Y-69980294D01*
X196449965Y-69995073D01*
X196454036Y-70044164D01*
X196466250Y-70092610D01*
X196474633Y-70114752D01*
X196497737Y-70159608D01*
X196527002Y-70202296D01*
X196556699Y-70238339D01*
X196594993Y-70278709D01*
X196633086Y-70315397D01*
X196671522Y-70350528D01*
X196715300Y-70389059D01*
X196747452Y-70416636D01*
X196786336Y-70449944D01*
X196824645Y-70483398D01*
X196862738Y-70517858D01*
X196890334Y-70544863D01*
X196922303Y-70582937D01*
X196942358Y-70612763D01*
X196448499Y-70612763D01*
G37*
G36*
X196319050Y-70465240D02*
G01*
X196195464Y-70448632D01*
X196182977Y-70496915D01*
X196164477Y-70542586D01*
X196135464Y-70585969D01*
X196123168Y-70598353D01*
X196081574Y-70626185D01*
X196033729Y-70641171D01*
X195998360Y-70644026D01*
X195946382Y-70638111D01*
X195899747Y-70620365D01*
X195858454Y-70590789D01*
X195850837Y-70583454D01*
X195819152Y-70542782D01*
X195799202Y-70496480D01*
X195790988Y-70444550D01*
X195790753Y-70433489D01*
X195796191Y-70383147D01*
X195814736Y-70334548D01*
X195846441Y-70293049D01*
X195888275Y-70261483D01*
X195937210Y-70243020D01*
X195987857Y-70237606D01*
X196038499Y-70242949D01*
X196075296Y-70251284D01*
X196061374Y-70134780D01*
X196041591Y-70136001D01*
X195989090Y-70131210D01*
X195940400Y-70116837D01*
X195899441Y-70095457D01*
X195863426Y-70062387D01*
X195841186Y-70014462D01*
X195836182Y-69970404D01*
X195843801Y-69919819D01*
X195869046Y-69873817D01*
X195882344Y-69859518D01*
X195924086Y-69831053D01*
X195974697Y-69817100D01*
X196001046Y-69815554D01*
X196051719Y-69821874D01*
X196099018Y-69842984D01*
X196121214Y-69860495D01*
X196152458Y-69900520D01*
X196172589Y-69948314D01*
X196183007Y-69995317D01*
X196306594Y-69973335D01*
X196293993Y-69921931D01*
X196275853Y-69875856D01*
X196248337Y-69829724D01*
X196213586Y-69790554D01*
X196203768Y-69781849D01*
X196161132Y-69752143D01*
X196113581Y-69730924D01*
X196061115Y-69718193D01*
X196011174Y-69714016D01*
X196003733Y-69713949D01*
X195953553Y-69717384D01*
X195901276Y-69729096D01*
X195852058Y-69749120D01*
X195808237Y-69776360D01*
X195772151Y-69809717D01*
X195746057Y-69845352D01*
X195723583Y-69892029D01*
X195711481Y-69940836D01*
X195709176Y-69974556D01*
X195714940Y-70025449D01*
X195732233Y-70072552D01*
X195744103Y-70093014D01*
X195778084Y-70132688D01*
X195819397Y-70162942D01*
X195847906Y-70177766D01*
X195800791Y-70192980D01*
X195755873Y-70218177D01*
X195718779Y-70252104D01*
X195709176Y-70263984D01*
X195683030Y-70308115D01*
X195666567Y-70358685D01*
X195660031Y-70409705D01*
X195659595Y-70427871D01*
X195664200Y-70484072D01*
X195678014Y-70536417D01*
X195701038Y-70584905D01*
X195733272Y-70629536D01*
X195755826Y-70653307D01*
X195793691Y-70684683D01*
X195842359Y-70713083D01*
X195895865Y-70732648D01*
X195945579Y-70742385D01*
X195998848Y-70745631D01*
X196054721Y-70741903D01*
X196106292Y-70730718D01*
X196153563Y-70712077D01*
X196196532Y-70685979D01*
X196219155Y-70667718D01*
X196253822Y-70631315D01*
X196281312Y-70590494D01*
X196301626Y-70545255D01*
X196314765Y-70495599D01*
X196319050Y-70465240D01*
G37*
G36*
X194891207Y-70612763D02*
G01*
X194891207Y-70730000D01*
X195557013Y-70730000D01*
X195553054Y-70680798D01*
X195542602Y-70644026D01*
X195521392Y-70597437D01*
X195495900Y-70555534D01*
X195464491Y-70514060D01*
X195461025Y-70509937D01*
X195425623Y-70471082D01*
X195387536Y-70433820D01*
X195349101Y-70399112D01*
X195305898Y-70362440D01*
X195299337Y-70357041D01*
X195259968Y-70323972D01*
X195215436Y-70285117D01*
X195176105Y-70249016D01*
X195135770Y-70209331D01*
X195098177Y-70168046D01*
X195077564Y-70141863D01*
X195049582Y-70097888D01*
X195029232Y-70050614D01*
X195019905Y-70000541D01*
X195019678Y-69991653D01*
X195027097Y-69939263D01*
X195049354Y-69893468D01*
X195072435Y-69866601D01*
X195112289Y-69837538D01*
X195159647Y-69820539D01*
X195209211Y-69815554D01*
X195261599Y-69821016D01*
X195311182Y-69839642D01*
X195352337Y-69871486D01*
X195382877Y-69915047D01*
X195399821Y-69963514D01*
X195406261Y-70014354D01*
X195406559Y-70026580D01*
X195533565Y-70013147D01*
X195526169Y-69960822D01*
X195513690Y-69913393D01*
X195492706Y-69864244D01*
X195464803Y-69821757D01*
X195435380Y-69790642D01*
X195395294Y-69760758D01*
X195349621Y-69738215D01*
X195298362Y-69723012D01*
X195249979Y-69715822D01*
X195206524Y-69713949D01*
X195154332Y-69716791D01*
X195098801Y-69727292D01*
X195049045Y-69745529D01*
X195005062Y-69771504D01*
X194977180Y-69794794D01*
X194944252Y-69832010D01*
X194916523Y-69879065D01*
X194899357Y-69930943D01*
X194893002Y-69980294D01*
X194892672Y-69995073D01*
X194896743Y-70044164D01*
X194908957Y-70092610D01*
X194917341Y-70114752D01*
X194940445Y-70159608D01*
X194969709Y-70202296D01*
X194999406Y-70238339D01*
X195037701Y-70278709D01*
X195075793Y-70315397D01*
X195114230Y-70350528D01*
X195158008Y-70389059D01*
X195190160Y-70416636D01*
X195229043Y-70449944D01*
X195267353Y-70483398D01*
X195305445Y-70517858D01*
X195333042Y-70544863D01*
X195365010Y-70582937D01*
X195385066Y-70612763D01*
X194891207Y-70612763D01*
G37*
G36*
X194320655Y-70730000D02*
G01*
X194320655Y-69713949D01*
X193592568Y-69713949D01*
X193592568Y-69831186D01*
X194187543Y-69831186D01*
X194187543Y-70151632D01*
X193630425Y-70151632D01*
X193630425Y-70268869D01*
X194187543Y-70268869D01*
X194187543Y-70612763D01*
X193569120Y-70612763D01*
X193569120Y-70730000D01*
X194320655Y-70730000D01*
G37*
G36*
X193492916Y-70730000D02*
G01*
X193103349Y-70200481D01*
X193446755Y-69713949D01*
X193288241Y-69713949D01*
X193105303Y-69972114D01*
X193075900Y-70014397D01*
X193047047Y-70058152D01*
X193024459Y-70095945D01*
X192997428Y-70054042D01*
X192966894Y-70010765D01*
X192944591Y-69981151D01*
X192742114Y-69713949D01*
X192597034Y-69713949D01*
X192950942Y-70192909D01*
X192569678Y-70730000D01*
X192734542Y-70730000D01*
X192987822Y-70370718D01*
X193015071Y-70329846D01*
X193031786Y-70303307D01*
X193057585Y-70344848D01*
X193079902Y-70379023D01*
X193332693Y-70730000D01*
X193492916Y-70730000D01*
G37*
G36*
X192201360Y-70730000D02*
G01*
X192201360Y-69831186D01*
X192533042Y-69831186D01*
X192533042Y-69713949D01*
X191734856Y-69713949D01*
X191734856Y-69831186D01*
X192068004Y-69831186D01*
X192068004Y-70730000D01*
X192201360Y-70730000D01*
G37*
G36*
X191008478Y-70730000D02*
G01*
X191008478Y-69831186D01*
X191340160Y-69831186D01*
X191340160Y-69713949D01*
X190541974Y-69713949D01*
X190541974Y-69831186D01*
X190875122Y-69831186D01*
X190875122Y-70730000D01*
X191008478Y-70730000D01*
G37*
G36*
X190512177Y-70730000D02*
G01*
X190122609Y-70200481D01*
X190466015Y-69713949D01*
X190307501Y-69713949D01*
X190124563Y-69972114D01*
X190095160Y-70014397D01*
X190066308Y-70058152D01*
X190043719Y-70095945D01*
X190016688Y-70054042D01*
X189986154Y-70010765D01*
X189963852Y-69981151D01*
X189761374Y-69713949D01*
X189616294Y-69713949D01*
X189970202Y-70192909D01*
X189588939Y-70730000D01*
X189753803Y-70730000D01*
X190007083Y-70370718D01*
X190034331Y-70329846D01*
X190051046Y-70303307D01*
X190076845Y-70344848D01*
X190099162Y-70379023D01*
X190351953Y-70730000D01*
X190512177Y-70730000D01*
G37*
G36*
X131670690Y-29700000D02*
G01*
X131670690Y-27902372D01*
X132334054Y-27902372D01*
X132334054Y-27667899D01*
X130737683Y-27667899D01*
X130737683Y-27902372D01*
X131403977Y-27902372D01*
X131403977Y-29700000D01*
X131670690Y-29700000D01*
G37*
G36*
X130467550Y-29700000D02*
G01*
X130467550Y-27667899D01*
X129011374Y-27667899D01*
X129011374Y-27902372D01*
X130201325Y-27902372D01*
X130201325Y-28543265D01*
X129087090Y-28543265D01*
X129087090Y-28777739D01*
X130201325Y-28777739D01*
X130201325Y-29465526D01*
X128964480Y-29465526D01*
X128964480Y-29700000D01*
X130467550Y-29700000D01*
G37*
G36*
X128697766Y-29034682D02*
G01*
X128446685Y-29012212D01*
X128428718Y-29113990D01*
X128396478Y-29209749D01*
X128363642Y-29271109D01*
X128298607Y-29346897D01*
X128217538Y-29405550D01*
X128160921Y-29434752D01*
X128062233Y-29470072D01*
X127965604Y-29489459D01*
X127862392Y-29496729D01*
X127851709Y-29496789D01*
X127751143Y-29491421D01*
X127651045Y-29473321D01*
X127582554Y-29451360D01*
X127491565Y-29404731D01*
X127415972Y-29335641D01*
X127408653Y-29325819D01*
X127364058Y-29236703D01*
X127351500Y-29151430D01*
X127368965Y-29051842D01*
X127406699Y-28984856D01*
X127479361Y-28918911D01*
X127572393Y-28870826D01*
X127587927Y-28864689D01*
X127686220Y-28833086D01*
X127792240Y-28804407D01*
X127896178Y-28778254D01*
X127946475Y-28766015D01*
X128044684Y-28741010D01*
X128144501Y-28712533D01*
X128239115Y-28680904D01*
X128335310Y-28639009D01*
X128425723Y-28582011D01*
X128498819Y-28516471D01*
X128550244Y-28449476D01*
X128593406Y-28360999D01*
X128616647Y-28264829D01*
X128621074Y-28196441D01*
X128610857Y-28093077D01*
X128580207Y-27994562D01*
X128534612Y-27909211D01*
X128472540Y-27831855D01*
X128395012Y-27767092D01*
X128302028Y-27714923D01*
X128281577Y-27706001D01*
X128185178Y-27672470D01*
X128082830Y-27649913D01*
X127974530Y-27638329D01*
X127911793Y-27636636D01*
X127803227Y-27641185D01*
X127701256Y-27654832D01*
X127605879Y-27677577D01*
X127517096Y-27709420D01*
X127427186Y-27755535D01*
X127341968Y-27819553D01*
X127272206Y-27897024D01*
X127254291Y-27922889D01*
X127204937Y-28014747D01*
X127172279Y-28113856D01*
X127156317Y-28220216D01*
X127155129Y-28242358D01*
X127410607Y-28261898D01*
X127429952Y-28160584D01*
X127469756Y-28065596D01*
X127535800Y-27982488D01*
X127550314Y-27969783D01*
X127635570Y-27917748D01*
X127731225Y-27887394D01*
X127831303Y-27873518D01*
X127901046Y-27871109D01*
X128000569Y-27875387D01*
X128098969Y-27890751D01*
X128198956Y-27925670D01*
X128253733Y-27960502D01*
X128321007Y-28032401D01*
X128360250Y-28129480D01*
X128364131Y-28175436D01*
X128344469Y-28275087D01*
X128285484Y-28355198D01*
X128193069Y-28408504D01*
X128092685Y-28444652D01*
X127997041Y-28472084D01*
X127883949Y-28499790D01*
X127787409Y-28522399D01*
X127684690Y-28548365D01*
X127582952Y-28577053D01*
X127480793Y-28611395D01*
X127437962Y-28629239D01*
X127346346Y-28678565D01*
X127261682Y-28741438D01*
X127189378Y-28820407D01*
X127178576Y-28835868D01*
X127130741Y-28926344D01*
X127102761Y-29025824D01*
X127094556Y-29124075D01*
X127103572Y-29223318D01*
X127130620Y-29318935D01*
X127175700Y-29410927D01*
X127186880Y-29428890D01*
X127252148Y-29512142D01*
X127333159Y-29582992D01*
X127419528Y-29636152D01*
X127451151Y-29651639D01*
X127551546Y-29690129D01*
X127646496Y-29713767D01*
X127746818Y-29727452D01*
X127839009Y-29731263D01*
X127938482Y-29728395D01*
X128046677Y-29717799D01*
X128146411Y-29699397D01*
X128250031Y-29668805D01*
X128297697Y-29649685D01*
X128385044Y-29603798D01*
X128471413Y-29539987D01*
X128545185Y-29463269D01*
X128587369Y-29404954D01*
X128638562Y-29309505D01*
X128673991Y-29207255D01*
X128692248Y-29110657D01*
X128697766Y-29034682D01*
G37*
G36*
X126752128Y-29700000D02*
G01*
X126752128Y-27667899D01*
X126485415Y-27667899D01*
X126485415Y-29465526D01*
X125493789Y-29465526D01*
X125493789Y-29700000D01*
X126752128Y-29700000D01*
G37*
G36*
X125404884Y-29700000D02*
G01*
X125122051Y-29700000D01*
X124900767Y-29074738D01*
X124058618Y-29074738D01*
X123823656Y-29700000D01*
X123520307Y-29700000D01*
X123862615Y-28855896D01*
X124141172Y-28855896D01*
X124824075Y-28855896D01*
X124602791Y-28264340D01*
X124569635Y-28168658D01*
X124540509Y-28072609D01*
X124515413Y-27976195D01*
X124494347Y-27879413D01*
X124488292Y-27900224D01*
X124456277Y-28002654D01*
X124421266Y-28105770D01*
X124385573Y-28205313D01*
X124351221Y-28297557D01*
X124141172Y-28855896D01*
X123862615Y-28855896D01*
X124344382Y-27667899D01*
X124631612Y-27667899D01*
X125404884Y-29700000D01*
G37*
G36*
X122785136Y-29034682D02*
G01*
X122534054Y-29012212D01*
X122516087Y-29113990D01*
X122483847Y-29209749D01*
X122451011Y-29271109D01*
X122385976Y-29346897D01*
X122304907Y-29405550D01*
X122248290Y-29434752D01*
X122149602Y-29470072D01*
X122052973Y-29489459D01*
X121949762Y-29496729D01*
X121939078Y-29496789D01*
X121838512Y-29491421D01*
X121738414Y-29473321D01*
X121669923Y-29451360D01*
X121578935Y-29404731D01*
X121503341Y-29335641D01*
X121496022Y-29325819D01*
X121451427Y-29236703D01*
X121438869Y-29151430D01*
X121456334Y-29051842D01*
X121494068Y-28984856D01*
X121566730Y-28918911D01*
X121659762Y-28870826D01*
X121675296Y-28864689D01*
X121773590Y-28833086D01*
X121879609Y-28804407D01*
X121983547Y-28778254D01*
X122033845Y-28766015D01*
X122132053Y-28741010D01*
X122231870Y-28712533D01*
X122326484Y-28680904D01*
X122422679Y-28639009D01*
X122513092Y-28582011D01*
X122586188Y-28516471D01*
X122637613Y-28449476D01*
X122680775Y-28360999D01*
X122704016Y-28264829D01*
X122708443Y-28196441D01*
X122698227Y-28093077D01*
X122667577Y-27994562D01*
X122621981Y-27909211D01*
X122559909Y-27831855D01*
X122482381Y-27767092D01*
X122389397Y-27714923D01*
X122368946Y-27706001D01*
X122272548Y-27672470D01*
X122170199Y-27649913D01*
X122061900Y-27638329D01*
X121999162Y-27636636D01*
X121890596Y-27641185D01*
X121788625Y-27654832D01*
X121693248Y-27677577D01*
X121604466Y-27709420D01*
X121514555Y-27755535D01*
X121429337Y-27819553D01*
X121359575Y-27897024D01*
X121341660Y-27922889D01*
X121292306Y-28014747D01*
X121259648Y-28113856D01*
X121243687Y-28220216D01*
X121242498Y-28242358D01*
X121497976Y-28261898D01*
X121517322Y-28160584D01*
X121557125Y-28065596D01*
X121623169Y-27982488D01*
X121637683Y-27969783D01*
X121722939Y-27917748D01*
X121818594Y-27887394D01*
X121918673Y-27873518D01*
X121988415Y-27871109D01*
X122087939Y-27875387D01*
X122186338Y-27890751D01*
X122286325Y-27925670D01*
X122341102Y-27960502D01*
X122408376Y-28032401D01*
X122447619Y-28129480D01*
X122451500Y-28175436D01*
X122431838Y-28275087D01*
X122372854Y-28355198D01*
X122280438Y-28408504D01*
X122180054Y-28444652D01*
X122084410Y-28472084D01*
X121971318Y-28499790D01*
X121874778Y-28522399D01*
X121772059Y-28548365D01*
X121670322Y-28577053D01*
X121568162Y-28611395D01*
X121525331Y-28629239D01*
X121433716Y-28678565D01*
X121349051Y-28741438D01*
X121276747Y-28820407D01*
X121265945Y-28835868D01*
X121218110Y-28926344D01*
X121190131Y-29025824D01*
X121181926Y-29124075D01*
X121190942Y-29223318D01*
X121217990Y-29318935D01*
X121263069Y-29410927D01*
X121274249Y-29428890D01*
X121339518Y-29512142D01*
X121420528Y-29582992D01*
X121506897Y-29636152D01*
X121538520Y-29651639D01*
X121638915Y-29690129D01*
X121733865Y-29713767D01*
X121834188Y-29727452D01*
X121926378Y-29731263D01*
X122025851Y-29728395D01*
X122134047Y-29717799D01*
X122233780Y-29699397D01*
X122337400Y-29668805D01*
X122385066Y-29649685D01*
X122472413Y-29603798D01*
X122558782Y-29539987D01*
X122632554Y-29463269D01*
X122674738Y-29404954D01*
X122725931Y-29309505D01*
X122761360Y-29207255D01*
X122779617Y-29110657D01*
X122785136Y-29034682D01*
G37*
G36*
X120836566Y-29700000D02*
G01*
X120836566Y-27667899D01*
X120435519Y-27667899D01*
X119958757Y-29108932D01*
X119928013Y-29203240D01*
X119895851Y-29303351D01*
X119866451Y-29397415D01*
X119862526Y-29410327D01*
X119831453Y-29312462D01*
X119797269Y-29208449D01*
X119764495Y-29110538D01*
X119755547Y-29084019D01*
X119273412Y-27667899D01*
X118914863Y-27667899D01*
X118914863Y-29700000D01*
X119171807Y-29700000D01*
X119171807Y-27996161D01*
X119757013Y-29700000D01*
X119997348Y-29700000D01*
X120580111Y-27967341D01*
X120580111Y-29700000D01*
X120836566Y-29700000D01*
G37*
G36*
X118718492Y-29700000D02*
G01*
X118435659Y-29700000D01*
X118214375Y-29074738D01*
X117372226Y-29074738D01*
X117137264Y-29700000D01*
X116833914Y-29700000D01*
X117176223Y-28855896D01*
X117454780Y-28855896D01*
X118137683Y-28855896D01*
X117916399Y-28264340D01*
X117883243Y-28168658D01*
X117854117Y-28072609D01*
X117829021Y-27976195D01*
X117807955Y-27879413D01*
X117801900Y-27900224D01*
X117769885Y-28002654D01*
X117734874Y-28105770D01*
X117699181Y-28205313D01*
X117664829Y-28297557D01*
X117454780Y-28855896D01*
X117176223Y-28855896D01*
X117657990Y-27667899D01*
X117945219Y-27667899D01*
X118718492Y-29700000D01*
G37*
G36*
X116642428Y-29700000D02*
G01*
X116642428Y-27667899D01*
X116375715Y-27667899D01*
X116375715Y-29465526D01*
X115384089Y-29465526D01*
X115384089Y-29700000D01*
X116642428Y-29700000D01*
G37*
G36*
X115085136Y-29700000D02*
G01*
X115085136Y-27667899D01*
X114818422Y-27667899D01*
X114818422Y-29465526D01*
X113826796Y-29465526D01*
X113826796Y-29700000D01*
X115085136Y-29700000D01*
G37*
G36*
X112844940Y-29700000D02*
G01*
X112118073Y-29700000D01*
X112095401Y-29699864D01*
X111997436Y-29695901D01*
X111896380Y-29685063D01*
X111794696Y-29665317D01*
X111734920Y-29648601D01*
X111641692Y-29612766D01*
X111553872Y-29563712D01*
X111511047Y-29531835D01*
X111435606Y-29459985D01*
X111370690Y-29379064D01*
X111360308Y-29364169D01*
X111307503Y-29273652D01*
X111265810Y-29178740D01*
X111233426Y-29083042D01*
X111207451Y-28978302D01*
X111191499Y-28878193D01*
X111182264Y-28771489D01*
X111179692Y-28672714D01*
X111179764Y-28668806D01*
X111454221Y-28668806D01*
X111456093Y-28753213D01*
X111464413Y-28858222D01*
X111481728Y-28966066D01*
X111507466Y-29063014D01*
X111540465Y-29149259D01*
X111589822Y-29240396D01*
X111654989Y-29321912D01*
X111663595Y-29330340D01*
X111745355Y-29389111D01*
X111835729Y-29427913D01*
X111842896Y-29430227D01*
X111941997Y-29452266D01*
X112043053Y-29462551D01*
X112148360Y-29465526D01*
X112578227Y-29465526D01*
X112578227Y-27902372D01*
X112155198Y-27902372D01*
X112111744Y-27902741D01*
X112007117Y-27907336D01*
X111908971Y-27918782D01*
X111810327Y-27944382D01*
X111773905Y-27960815D01*
X111688992Y-28017458D01*
X111620076Y-28087444D01*
X111558269Y-28175436D01*
X111522909Y-28245171D01*
X111490902Y-28339812D01*
X111468853Y-28448759D01*
X111457879Y-28553527D01*
X111454221Y-28668806D01*
X111179764Y-28668806D01*
X111180929Y-28605761D01*
X111189043Y-28493148D01*
X111204731Y-28386332D01*
X111227992Y-28285312D01*
X111258827Y-28190090D01*
X111303218Y-28089065D01*
X111357745Y-27997505D01*
X111422409Y-27915409D01*
X111497208Y-27842777D01*
X111512672Y-27829843D01*
X111595943Y-27772847D01*
X111689137Y-27728635D01*
X111792254Y-27697208D01*
X111833594Y-27688765D01*
X111932588Y-27676171D01*
X112040282Y-27669731D01*
X112150802Y-27667899D01*
X112844940Y-27667899D01*
X112844940Y-29700000D01*
G37*
G36*
X110820167Y-29700000D02*
G01*
X110553942Y-29700000D01*
X110553942Y-28801186D01*
X110244731Y-28801186D01*
X110196798Y-28801796D01*
X110096231Y-28810956D01*
X110065365Y-28819993D01*
X109974598Y-28864689D01*
X109906729Y-28922097D01*
X109839288Y-29000000D01*
X109819718Y-29025515D01*
X109759289Y-29109458D01*
X109702634Y-29193165D01*
X109646824Y-29278925D01*
X109380600Y-29700000D01*
X109045010Y-29700000D01*
X109395743Y-29149476D01*
X109415363Y-29119719D01*
X109475564Y-29036063D01*
X109544811Y-28952992D01*
X109616538Y-28880321D01*
X109689387Y-28827348D01*
X109777250Y-28779692D01*
X109724263Y-28771142D01*
X109626249Y-28748347D01*
X109525314Y-28712159D01*
X109427647Y-28658151D01*
X109348848Y-28590648D01*
X109294792Y-28522194D01*
X109244801Y-28424563D01*
X109218789Y-28328698D01*
X109210443Y-28228192D01*
X109484647Y-28228192D01*
X109496454Y-28318395D01*
X109538381Y-28412840D01*
X109604448Y-28485868D01*
X109695184Y-28535938D01*
X109775454Y-28557909D01*
X109874541Y-28570760D01*
X109980949Y-28574528D01*
X110553942Y-28574528D01*
X110553942Y-27894556D01*
X109916468Y-27894556D01*
X109875489Y-27895385D01*
X109776578Y-27905697D01*
X109674149Y-27935158D01*
X109588695Y-27988834D01*
X109543174Y-28038965D01*
X109499279Y-28126297D01*
X109484647Y-28228192D01*
X109210443Y-28228192D01*
X109210118Y-28224284D01*
X109210446Y-28203392D01*
X109221933Y-28102308D01*
X109249830Y-28006853D01*
X109294138Y-27917027D01*
X109351878Y-27838268D01*
X109428175Y-27770697D01*
X109517864Y-27723098D01*
X109618080Y-27693989D01*
X109716388Y-27678464D01*
X109815630Y-27670540D01*
X109927215Y-27667899D01*
X110820167Y-27667899D01*
X110820167Y-29700000D01*
G37*
G36*
X108758757Y-29700000D02*
G01*
X108758757Y-27667899D01*
X108492044Y-27667899D01*
X108492044Y-29700000D01*
X108758757Y-29700000D01*
G37*
G36*
X107450593Y-29700000D02*
G01*
X108231193Y-27667899D01*
X107942498Y-27667899D01*
X107418841Y-29145568D01*
X107385018Y-29243808D01*
X107354441Y-29338493D01*
X107324273Y-29439530D01*
X107313328Y-29478715D01*
X107282588Y-29374607D01*
X107252475Y-29280909D01*
X107220043Y-29187212D01*
X107204884Y-29145568D01*
X106660711Y-27667899D01*
X106388625Y-27667899D01*
X107177041Y-29700000D01*
X107450593Y-29700000D01*
G37*
G36*
X106154640Y-29700000D02*
G01*
X106154640Y-27667899D01*
X104698464Y-27667899D01*
X104698464Y-27902372D01*
X105888415Y-27902372D01*
X105888415Y-28543265D01*
X104774180Y-28543265D01*
X104774180Y-28777739D01*
X105888415Y-28777739D01*
X105888415Y-29465526D01*
X104651570Y-29465526D01*
X104651570Y-29700000D01*
X106154640Y-29700000D01*
G37*
G36*
X103524633Y-29700000D02*
G01*
X103524633Y-27667899D01*
X103123586Y-27667899D01*
X102646824Y-29108932D01*
X102616080Y-29203240D01*
X102583918Y-29303351D01*
X102554518Y-29397415D01*
X102550593Y-29410327D01*
X102519520Y-29312462D01*
X102485336Y-29208449D01*
X102452562Y-29110538D01*
X102443614Y-29084019D01*
X101961479Y-27667899D01*
X101602930Y-27667899D01*
X101602930Y-29700000D01*
X101859874Y-29700000D01*
X101859874Y-27996161D01*
X102445080Y-29700000D01*
X102685415Y-29700000D01*
X103268178Y-27967341D01*
X103268178Y-29700000D01*
X103524633Y-29700000D01*
G37*
G36*
X100380587Y-27639143D02*
G01*
X100480970Y-27650287D01*
X100599581Y-27676753D01*
X100710559Y-27717148D01*
X100813904Y-27771473D01*
X100909617Y-27839728D01*
X100997697Y-27921912D01*
X101060780Y-27996535D01*
X101115452Y-28078013D01*
X101161713Y-28166345D01*
X101199563Y-28261531D01*
X101229002Y-28363571D01*
X101250030Y-28472465D01*
X101262647Y-28588214D01*
X101266852Y-28710816D01*
X101262799Y-28809855D01*
X101250641Y-28906935D01*
X101226211Y-29017722D01*
X101190748Y-29125844D01*
X101151570Y-29216399D01*
X101120940Y-29274544D01*
X101059221Y-29368731D01*
X100987169Y-29453288D01*
X100904787Y-29528214D01*
X100812072Y-29593510D01*
X100783811Y-29610191D01*
X100696209Y-29653777D01*
X100604384Y-29687677D01*
X100508333Y-29711891D01*
X100408058Y-29726420D01*
X100303558Y-29731263D01*
X100238536Y-29729309D01*
X100127429Y-29716486D01*
X100019735Y-29691695D01*
X99915453Y-29654937D01*
X99814584Y-29606210D01*
X99746270Y-29564257D01*
X99659086Y-29495866D01*
X99581765Y-29416208D01*
X99514309Y-29325283D01*
X99464340Y-29238381D01*
X99449315Y-29207720D01*
X99410057Y-29112718D01*
X99379523Y-29013181D01*
X99357713Y-28909111D01*
X99344627Y-28800507D01*
X99340265Y-28687369D01*
X99340289Y-28685415D01*
X99615282Y-28685415D01*
X99620029Y-28803629D01*
X99634268Y-28913114D01*
X99658001Y-29013869D01*
X99691226Y-29105894D01*
X99743628Y-29204801D01*
X99809699Y-29291137D01*
X99834418Y-29316987D01*
X99913564Y-29384529D01*
X100000197Y-29437063D01*
X100094319Y-29474586D01*
X100195928Y-29497100D01*
X100305024Y-29504605D01*
X100341517Y-29503779D01*
X100446349Y-29491386D01*
X100544208Y-29464120D01*
X100635095Y-29421982D01*
X100719010Y-29364973D01*
X100795952Y-29293091D01*
X100852383Y-29223188D01*
X100907475Y-29129262D01*
X100948794Y-29024378D01*
X100972706Y-28928606D01*
X100987053Y-28825225D01*
X100991835Y-28714235D01*
X100991039Y-28657926D01*
X100984674Y-28551467D01*
X100971942Y-28453220D01*
X100947077Y-28341961D01*
X100912265Y-28243534D01*
X100857362Y-28142360D01*
X100788136Y-28059665D01*
X100762304Y-28035885D01*
X100681097Y-27973752D01*
X100594326Y-27925426D01*
X100501991Y-27890908D01*
X100404091Y-27870197D01*
X100300628Y-27863293D01*
X100239440Y-27865786D01*
X100134052Y-27882835D01*
X100034769Y-27916035D01*
X99941591Y-27965387D01*
X99884220Y-28006425D01*
X99808340Y-28078996D01*
X99744670Y-28164781D01*
X99698325Y-28252128D01*
X99688269Y-28275516D01*
X99654533Y-28373992D01*
X99631177Y-28480344D01*
X99619256Y-28579864D01*
X99615282Y-28685415D01*
X99340289Y-28685415D01*
X99340725Y-28649641D01*
X99347622Y-28539480D01*
X99362798Y-28433852D01*
X99386251Y-28332759D01*
X99417982Y-28236199D01*
X99457990Y-28144173D01*
X99488970Y-28085867D01*
X99551231Y-27991804D01*
X99623729Y-27907885D01*
X99706466Y-27834111D01*
X99799441Y-27770481D01*
X99899963Y-27718328D01*
X100005767Y-27678985D01*
X100100661Y-27655458D01*
X100199437Y-27641341D01*
X100302093Y-27636636D01*
X100380587Y-27639143D01*
G37*
G36*
X98496650Y-29700000D02*
G01*
X98496650Y-27902372D01*
X99160013Y-27902372D01*
X99160013Y-27667899D01*
X97563642Y-27667899D01*
X97563642Y-27902372D01*
X98229937Y-27902372D01*
X98229937Y-29700000D01*
X98496650Y-29700000D01*
G37*
G36*
X96544997Y-27639143D02*
G01*
X96645381Y-27650287D01*
X96763991Y-27676753D01*
X96874969Y-27717148D01*
X96978314Y-27771473D01*
X97074027Y-27839728D01*
X97162107Y-27921912D01*
X97225190Y-27996535D01*
X97279863Y-28078013D01*
X97326124Y-28166345D01*
X97363974Y-28261531D01*
X97393413Y-28363571D01*
X97414440Y-28472465D01*
X97427057Y-28588214D01*
X97431263Y-28710816D01*
X97427210Y-28809855D01*
X97415051Y-28906935D01*
X97390621Y-29017722D01*
X97355158Y-29125844D01*
X97315980Y-29216399D01*
X97285350Y-29274544D01*
X97223631Y-29368731D01*
X97151580Y-29453288D01*
X97069197Y-29528214D01*
X96976482Y-29593510D01*
X96948221Y-29610191D01*
X96860620Y-29653777D01*
X96768794Y-29687677D01*
X96672744Y-29711891D01*
X96572468Y-29726420D01*
X96467969Y-29731263D01*
X96402947Y-29729309D01*
X96291840Y-29716486D01*
X96184145Y-29691695D01*
X96079864Y-29654937D01*
X95978995Y-29606210D01*
X95910681Y-29564257D01*
X95823496Y-29495866D01*
X95746175Y-29416208D01*
X95678719Y-29325283D01*
X95628750Y-29238381D01*
X95613726Y-29207720D01*
X95574467Y-29112718D01*
X95543933Y-29013181D01*
X95522123Y-28909111D01*
X95509037Y-28800507D01*
X95504675Y-28687369D01*
X95504699Y-28685415D01*
X95779692Y-28685415D01*
X95784439Y-28803629D01*
X95798679Y-28913114D01*
X95822411Y-29013869D01*
X95855637Y-29105894D01*
X95908038Y-29204801D01*
X95974110Y-29291137D01*
X95998828Y-29316987D01*
X96077974Y-29384529D01*
X96164608Y-29437063D01*
X96258729Y-29474586D01*
X96360338Y-29497100D01*
X96469434Y-29504605D01*
X96505928Y-29503779D01*
X96610759Y-29491386D01*
X96708619Y-29464120D01*
X96799506Y-29421982D01*
X96883420Y-29364973D01*
X96960362Y-29293091D01*
X97016793Y-29223188D01*
X97071885Y-29129262D01*
X97113204Y-29024378D01*
X97137116Y-28928606D01*
X97151463Y-28825225D01*
X97156245Y-28714235D01*
X97155449Y-28657926D01*
X97149084Y-28551467D01*
X97136353Y-28453220D01*
X97111487Y-28341961D01*
X97076675Y-28243534D01*
X97021772Y-28142360D01*
X96952547Y-28059665D01*
X96926714Y-28035885D01*
X96845507Y-27973752D01*
X96758736Y-27925426D01*
X96666401Y-27890908D01*
X96568501Y-27870197D01*
X96465038Y-27863293D01*
X96403851Y-27865786D01*
X96298462Y-27882835D01*
X96199179Y-27916035D01*
X96106001Y-27965387D01*
X96048631Y-28006425D01*
X95972750Y-28078996D01*
X95909080Y-28164781D01*
X95862735Y-28252128D01*
X95852679Y-28275516D01*
X95818943Y-28373992D01*
X95795587Y-28480344D01*
X95783666Y-28579864D01*
X95779692Y-28685415D01*
X95504699Y-28685415D01*
X95505135Y-28649641D01*
X95512033Y-28539480D01*
X95527208Y-28433852D01*
X95550661Y-28332759D01*
X95582392Y-28236199D01*
X95622400Y-28144173D01*
X95653381Y-28085867D01*
X95715641Y-27991804D01*
X95788140Y-27907885D01*
X95870877Y-27834111D01*
X95963852Y-27770481D01*
X96064373Y-27718328D01*
X96170178Y-27678985D01*
X96265072Y-27655458D01*
X96363847Y-27641341D01*
X96466503Y-27636636D01*
X96544997Y-27639143D01*
G37*
G36*
X95169085Y-29700000D02*
G01*
X94902861Y-29700000D01*
X94902861Y-28801186D01*
X94593649Y-28801186D01*
X94545717Y-28801796D01*
X94445150Y-28810956D01*
X94414283Y-28819993D01*
X94323517Y-28864689D01*
X94255647Y-28922097D01*
X94188206Y-29000000D01*
X94168636Y-29025515D01*
X94108207Y-29109458D01*
X94051552Y-29193165D01*
X93995743Y-29278925D01*
X93729518Y-29700000D01*
X93393928Y-29700000D01*
X93744661Y-29149476D01*
X93764282Y-29119719D01*
X93824483Y-29036063D01*
X93893729Y-28952992D01*
X93965457Y-28880321D01*
X94038305Y-28827348D01*
X94126168Y-28779692D01*
X94073182Y-28771142D01*
X93975168Y-28748347D01*
X93874232Y-28712159D01*
X93776565Y-28658151D01*
X93697766Y-28590648D01*
X93643711Y-28522194D01*
X93593719Y-28424563D01*
X93567707Y-28328698D01*
X93559361Y-28228192D01*
X93833565Y-28228192D01*
X93845372Y-28318395D01*
X93887299Y-28412840D01*
X93953367Y-28485868D01*
X94044103Y-28535938D01*
X94124372Y-28557909D01*
X94223459Y-28570760D01*
X94329867Y-28574528D01*
X94902861Y-28574528D01*
X94902861Y-27894556D01*
X94265387Y-27894556D01*
X94224407Y-27895385D01*
X94125496Y-27905697D01*
X94023067Y-27935158D01*
X93937613Y-27988834D01*
X93892092Y-28038965D01*
X93848197Y-28126297D01*
X93833565Y-28228192D01*
X93559361Y-28228192D01*
X93559036Y-28224284D01*
X93559365Y-28203392D01*
X93570852Y-28102308D01*
X93598749Y-28006853D01*
X93643056Y-27917027D01*
X93700797Y-27838268D01*
X93777094Y-27770697D01*
X93866782Y-27723098D01*
X93966998Y-27693989D01*
X94065306Y-27678464D01*
X94164549Y-27670540D01*
X94276133Y-27667899D01*
X95169085Y-27667899D01*
X95169085Y-29700000D01*
G37*
G36*
X130745987Y-32340949D02*
G01*
X130479274Y-32408360D01*
X130508798Y-32508604D01*
X130544857Y-32601121D01*
X130596755Y-32701939D01*
X130658063Y-32791630D01*
X130728783Y-32870192D01*
X130781158Y-32916385D01*
X130866091Y-32975816D01*
X130957860Y-33022951D01*
X131056463Y-33057790D01*
X131161902Y-33080333D01*
X131274175Y-33090579D01*
X131313119Y-33091263D01*
X131411968Y-33088007D01*
X131522747Y-33075505D01*
X131624974Y-33053626D01*
X131718649Y-33022370D01*
X131817127Y-32974055D01*
X131843126Y-32957906D01*
X131927592Y-32893859D01*
X132002756Y-32818405D01*
X132068616Y-32731544D01*
X132125173Y-32633277D01*
X132153314Y-32572002D01*
X132189504Y-32475809D01*
X132218206Y-32377005D01*
X132239421Y-32275591D01*
X132253148Y-32171566D01*
X132259388Y-32064931D01*
X132259804Y-32028806D01*
X132255579Y-31912955D01*
X132242906Y-31802805D01*
X132221782Y-31698357D01*
X132192210Y-31599610D01*
X132154188Y-31506565D01*
X132139637Y-31476817D01*
X132082201Y-31379231D01*
X132015042Y-31292490D01*
X131938159Y-31216596D01*
X131851552Y-31151547D01*
X131797697Y-31119246D01*
X131698354Y-31071471D01*
X131594803Y-31035430D01*
X131487045Y-31011124D01*
X131375080Y-30998552D01*
X131309211Y-30996636D01*
X131199204Y-31002114D01*
X131095964Y-31018549D01*
X130999490Y-31045941D01*
X130895489Y-31091745D01*
X130800697Y-31152463D01*
X130716495Y-31226715D01*
X130644260Y-31313121D01*
X130591870Y-31396858D01*
X130548272Y-31489526D01*
X130513468Y-31591123D01*
X130776273Y-31653161D01*
X130809873Y-31560697D01*
X130855714Y-31469335D01*
X130916774Y-31384799D01*
X130979483Y-31325875D01*
X131069509Y-31271779D01*
X131172893Y-31237719D01*
X131277358Y-31224195D01*
X131314584Y-31223293D01*
X131412475Y-31228669D01*
X131515476Y-31247980D01*
X131609014Y-31281334D01*
X131702930Y-31335645D01*
X131783280Y-31404909D01*
X131849024Y-31486307D01*
X131900162Y-31579837D01*
X131922260Y-31637041D01*
X131949829Y-31732326D01*
X131969521Y-31829138D01*
X131981337Y-31927476D01*
X131985275Y-32027341D01*
X131981699Y-32137666D01*
X131970970Y-32241681D01*
X131953088Y-32339384D01*
X131923893Y-32443317D01*
X131910537Y-32480167D01*
X131867764Y-32570567D01*
X131807309Y-32657743D01*
X131733795Y-32729541D01*
X131677529Y-32768862D01*
X131586455Y-32815144D01*
X131491284Y-32846279D01*
X131392018Y-32862268D01*
X131335101Y-32864605D01*
X131227512Y-32856362D01*
X131128471Y-32831632D01*
X131037979Y-32790416D01*
X130956036Y-32732714D01*
X130884656Y-32658770D01*
X130825854Y-32568827D01*
X130784721Y-32477004D01*
X130753219Y-32372933D01*
X130745987Y-32340949D01*
G37*
G36*
X129357558Y-30999143D02*
G01*
X129457942Y-31010287D01*
X129576552Y-31036753D01*
X129687530Y-31077148D01*
X129790875Y-31131473D01*
X129886588Y-31199728D01*
X129974668Y-31281912D01*
X130037751Y-31356535D01*
X130092424Y-31438013D01*
X130138685Y-31526345D01*
X130176535Y-31621531D01*
X130205974Y-31723571D01*
X130227001Y-31832465D01*
X130239618Y-31948214D01*
X130243824Y-32070816D01*
X130239771Y-32169855D01*
X130227612Y-32266935D01*
X130203182Y-32377722D01*
X130167719Y-32485844D01*
X130128541Y-32576399D01*
X130097911Y-32634544D01*
X130036192Y-32728731D01*
X129964141Y-32813288D01*
X129881758Y-32888214D01*
X129789043Y-32953510D01*
X129760782Y-32970191D01*
X129673181Y-33013777D01*
X129581355Y-33047677D01*
X129485305Y-33071891D01*
X129385030Y-33086420D01*
X129280530Y-33091263D01*
X129215508Y-33089309D01*
X129104401Y-33076486D01*
X128996706Y-33051695D01*
X128892425Y-33014937D01*
X128791556Y-32966210D01*
X128723242Y-32924257D01*
X128636057Y-32855866D01*
X128558736Y-32776208D01*
X128491280Y-32685283D01*
X128441311Y-32598381D01*
X128426287Y-32567720D01*
X128387028Y-32472718D01*
X128356494Y-32373181D01*
X128334684Y-32269111D01*
X128321598Y-32160507D01*
X128317236Y-32047369D01*
X128317260Y-32045415D01*
X128592254Y-32045415D01*
X128597000Y-32163629D01*
X128611240Y-32273114D01*
X128634972Y-32373869D01*
X128668198Y-32465894D01*
X128720599Y-32564801D01*
X128786671Y-32651137D01*
X128811389Y-32676987D01*
X128890535Y-32744529D01*
X128977169Y-32797063D01*
X129071290Y-32834586D01*
X129172899Y-32857100D01*
X129281995Y-32864605D01*
X129318489Y-32863779D01*
X129423320Y-32851386D01*
X129521180Y-32824120D01*
X129612067Y-32781982D01*
X129695981Y-32724973D01*
X129772923Y-32653091D01*
X129829355Y-32583188D01*
X129884447Y-32489262D01*
X129925766Y-32384378D01*
X129949677Y-32288606D01*
X129964024Y-32185225D01*
X129968806Y-32074235D01*
X129968011Y-32017926D01*
X129961645Y-31911467D01*
X129948914Y-31813220D01*
X129924048Y-31701961D01*
X129889236Y-31603534D01*
X129834333Y-31502360D01*
X129765108Y-31419665D01*
X129739275Y-31395885D01*
X129658068Y-31333752D01*
X129571297Y-31285426D01*
X129478962Y-31250908D01*
X129381063Y-31230197D01*
X129277599Y-31223293D01*
X129216412Y-31225786D01*
X129111023Y-31242835D01*
X129011740Y-31276035D01*
X128918562Y-31325387D01*
X128861192Y-31366425D01*
X128785311Y-31438996D01*
X128721641Y-31524781D01*
X128675296Y-31612128D01*
X128665240Y-31635516D01*
X128631504Y-31733992D01*
X128608148Y-31840344D01*
X128596227Y-31939864D01*
X128592254Y-32045415D01*
X128317260Y-32045415D01*
X128317696Y-32009641D01*
X128324594Y-31899480D01*
X128339769Y-31793852D01*
X128363222Y-31692759D01*
X128394953Y-31596199D01*
X128434961Y-31504173D01*
X128465942Y-31445867D01*
X128528202Y-31351804D01*
X128600701Y-31267885D01*
X128683438Y-31194111D01*
X128776413Y-31130481D01*
X128876934Y-31078328D01*
X128982739Y-31038985D01*
X129077633Y-31015458D01*
X129176408Y-31001341D01*
X129279064Y-30996636D01*
X129357558Y-30999143D01*
G37*
G36*
X127988485Y-33060000D02*
G01*
X127988485Y-31027899D01*
X127715422Y-31027899D01*
X126657362Y-32623293D01*
X126657362Y-31027899D01*
X126401884Y-31027899D01*
X126401884Y-33060000D01*
X126674947Y-33060000D01*
X127733007Y-31463140D01*
X127733007Y-33060000D01*
X127988485Y-33060000D01*
G37*
G36*
X125453244Y-33060000D02*
G01*
X125453244Y-31262372D01*
X126116608Y-31262372D01*
X126116608Y-31027899D01*
X124520237Y-31027899D01*
X124520237Y-31262372D01*
X125186531Y-31262372D01*
X125186531Y-33060000D01*
X125453244Y-33060000D01*
G37*
G36*
X124251570Y-33060000D02*
G01*
X123985345Y-33060000D01*
X123985345Y-32161186D01*
X123676133Y-32161186D01*
X123628201Y-32161796D01*
X123527634Y-32170956D01*
X123496768Y-32179993D01*
X123406001Y-32224689D01*
X123338131Y-32282097D01*
X123270690Y-32360000D01*
X123251120Y-32385515D01*
X123190691Y-32469458D01*
X123134036Y-32553165D01*
X123078227Y-32638925D01*
X122812002Y-33060000D01*
X122476413Y-33060000D01*
X122827145Y-32509476D01*
X122846766Y-32479719D01*
X122906967Y-32396063D01*
X122976214Y-32312992D01*
X123047941Y-32240321D01*
X123120790Y-32187348D01*
X123208653Y-32139692D01*
X123155666Y-32131142D01*
X123057652Y-32108347D01*
X122956716Y-32072159D01*
X122859050Y-32018151D01*
X122780251Y-31950648D01*
X122726195Y-31882194D01*
X122676203Y-31784563D01*
X122650191Y-31688698D01*
X122641846Y-31588192D01*
X122916050Y-31588192D01*
X122927856Y-31678395D01*
X122969783Y-31772840D01*
X123035851Y-31845868D01*
X123126587Y-31895938D01*
X123206857Y-31917909D01*
X123305943Y-31930760D01*
X123412351Y-31934528D01*
X123985345Y-31934528D01*
X123985345Y-31254556D01*
X123347871Y-31254556D01*
X123306891Y-31255385D01*
X123207981Y-31265697D01*
X123105551Y-31295158D01*
X123020097Y-31348834D01*
X122974576Y-31398965D01*
X122930681Y-31486297D01*
X122916050Y-31588192D01*
X122641846Y-31588192D01*
X122641521Y-31584284D01*
X122641849Y-31563392D01*
X122653336Y-31462308D01*
X122681233Y-31366853D01*
X122725540Y-31277027D01*
X122783281Y-31198268D01*
X122859578Y-31130697D01*
X122949267Y-31083098D01*
X123049483Y-31053989D01*
X123147790Y-31038464D01*
X123247033Y-31030540D01*
X123358618Y-31027899D01*
X124251570Y-31027899D01*
X124251570Y-33060000D01*
G37*
G36*
X121430412Y-30999143D02*
G01*
X121530796Y-31010287D01*
X121649406Y-31036753D01*
X121760384Y-31077148D01*
X121863729Y-31131473D01*
X121959442Y-31199728D01*
X122047522Y-31281912D01*
X122110606Y-31356535D01*
X122165278Y-31438013D01*
X122211539Y-31526345D01*
X122249389Y-31621531D01*
X122278828Y-31723571D01*
X122299856Y-31832465D01*
X122312472Y-31948214D01*
X122316678Y-32070816D01*
X122312625Y-32169855D01*
X122300466Y-32266935D01*
X122276036Y-32377722D01*
X122240573Y-32485844D01*
X122201395Y-32576399D01*
X122170766Y-32634544D01*
X122109046Y-32728731D01*
X122036995Y-32813288D01*
X121954612Y-32888214D01*
X121861898Y-32953510D01*
X121833636Y-32970191D01*
X121746035Y-33013777D01*
X121654209Y-33047677D01*
X121558159Y-33071891D01*
X121457884Y-33086420D01*
X121353384Y-33091263D01*
X121288362Y-33089309D01*
X121177255Y-33076486D01*
X121069560Y-33051695D01*
X120965279Y-33014937D01*
X120864410Y-32966210D01*
X120796096Y-32924257D01*
X120708911Y-32855866D01*
X120631591Y-32776208D01*
X120564134Y-32685283D01*
X120514166Y-32598381D01*
X120499141Y-32567720D01*
X120459883Y-32472718D01*
X120429348Y-32373181D01*
X120407538Y-32269111D01*
X120394452Y-32160507D01*
X120390090Y-32047369D01*
X120390114Y-32045415D01*
X120665108Y-32045415D01*
X120669854Y-32163629D01*
X120684094Y-32273114D01*
X120707826Y-32373869D01*
X120741052Y-32465894D01*
X120793453Y-32564801D01*
X120859525Y-32651137D01*
X120884243Y-32676987D01*
X120963389Y-32744529D01*
X121050023Y-32797063D01*
X121144144Y-32834586D01*
X121245753Y-32857100D01*
X121354849Y-32864605D01*
X121391343Y-32863779D01*
X121496174Y-32851386D01*
X121594034Y-32824120D01*
X121684921Y-32781982D01*
X121768835Y-32724973D01*
X121845778Y-32653091D01*
X121902209Y-32583188D01*
X121957301Y-32489262D01*
X121998620Y-32384378D01*
X122022531Y-32288606D01*
X122036878Y-32185225D01*
X122041660Y-32074235D01*
X122040865Y-32017926D01*
X122034499Y-31911467D01*
X122021768Y-31813220D01*
X121996902Y-31701961D01*
X121962091Y-31603534D01*
X121907187Y-31502360D01*
X121837962Y-31419665D01*
X121812129Y-31395885D01*
X121730922Y-31333752D01*
X121644151Y-31285426D01*
X121551816Y-31250908D01*
X121453917Y-31230197D01*
X121350453Y-31223293D01*
X121289266Y-31225786D01*
X121183878Y-31242835D01*
X121084594Y-31276035D01*
X120991416Y-31325387D01*
X120934046Y-31366425D01*
X120858165Y-31438996D01*
X120794495Y-31524781D01*
X120748150Y-31612128D01*
X120738094Y-31635516D01*
X120704358Y-31733992D01*
X120681003Y-31840344D01*
X120669081Y-31939864D01*
X120665108Y-32045415D01*
X120390114Y-32045415D01*
X120390550Y-32009641D01*
X120397448Y-31899480D01*
X120412624Y-31793852D01*
X120436077Y-31692759D01*
X120467807Y-31596199D01*
X120507815Y-31504173D01*
X120538796Y-31445867D01*
X120601056Y-31351804D01*
X120673555Y-31267885D01*
X120756292Y-31194111D01*
X120849267Y-31130481D01*
X120949788Y-31078328D01*
X121055593Y-31038985D01*
X121150487Y-31015458D01*
X121249262Y-31001341D01*
X121351919Y-30996636D01*
X121430412Y-30999143D01*
G37*
G36*
X120069644Y-33060000D02*
G01*
X120069644Y-31027899D01*
X119802930Y-31027899D01*
X119802930Y-32825526D01*
X118811304Y-32825526D01*
X118811304Y-33060000D01*
X120069644Y-33060000D01*
G37*
G36*
X117840195Y-33060000D02*
G01*
X117072295Y-33060000D01*
X117048472Y-33059866D01*
X116947077Y-33055959D01*
X116845563Y-33045273D01*
X116747452Y-33025806D01*
X116707028Y-33014180D01*
X116612195Y-32976587D01*
X116526657Y-32924200D01*
X116494680Y-32896929D01*
X116427815Y-32817802D01*
X116379134Y-32732714D01*
X116353061Y-32669425D01*
X116327920Y-32569796D01*
X116319656Y-32466001D01*
X116595533Y-32466001D01*
X116603200Y-32548801D01*
X116635589Y-32642344D01*
X116665447Y-32690463D01*
X116737194Y-32758604D01*
X116796940Y-32789258D01*
X116891067Y-32815757D01*
X116974135Y-32823656D01*
X117072295Y-32825526D01*
X117573482Y-32825526D01*
X117573482Y-32106475D01*
X117107955Y-32106475D01*
X117017371Y-32108674D01*
X116911263Y-32118875D01*
X116813398Y-32141646D01*
X116722051Y-32189274D01*
X116653175Y-32262791D01*
X116649628Y-32268224D01*
X116608199Y-32363204D01*
X116595533Y-32466001D01*
X116319656Y-32466001D01*
X116319539Y-32464535D01*
X116319922Y-32442254D01*
X116333346Y-32336514D01*
X116365947Y-32240219D01*
X116417725Y-32153370D01*
X116436877Y-32129319D01*
X116511447Y-32058946D01*
X116602523Y-32003648D01*
X116698604Y-31966769D01*
X116632261Y-31929125D01*
X116549578Y-31862469D01*
X116487090Y-31783586D01*
X116463184Y-31740390D01*
X116428357Y-31643262D01*
X116420252Y-31572072D01*
X116679553Y-31572072D01*
X116689370Y-31657998D01*
X116730844Y-31748415D01*
X116794836Y-31808377D01*
X116884228Y-31848555D01*
X116935328Y-31859889D01*
X117037243Y-31869713D01*
X117138241Y-31872002D01*
X117573482Y-31872002D01*
X117573482Y-31262372D01*
X117170969Y-31262372D01*
X117070494Y-31264143D01*
X116967311Y-31271337D01*
X116864689Y-31290704D01*
X116798910Y-31321625D01*
X116727424Y-31395240D01*
X116693064Y-31472048D01*
X116679553Y-31572072D01*
X116420252Y-31572072D01*
X116416748Y-31541297D01*
X116423007Y-31464464D01*
X116450828Y-31364905D01*
X116495882Y-31276538D01*
X116551257Y-31203647D01*
X116625833Y-31138453D01*
X116714724Y-31088960D01*
X116780003Y-31065168D01*
X116876779Y-31043164D01*
X116974934Y-31031715D01*
X117084508Y-31027899D01*
X117840195Y-31027899D01*
X117840195Y-33060000D01*
G37*
G36*
X115158256Y-30999143D02*
G01*
X115258640Y-31010287D01*
X115377250Y-31036753D01*
X115488228Y-31077148D01*
X115591573Y-31131473D01*
X115687286Y-31199728D01*
X115775366Y-31281912D01*
X115838449Y-31356535D01*
X115893121Y-31438013D01*
X115939383Y-31526345D01*
X115977233Y-31621531D01*
X116006671Y-31723571D01*
X116027699Y-31832465D01*
X116040316Y-31948214D01*
X116044521Y-32070816D01*
X116040469Y-32169855D01*
X116028310Y-32266935D01*
X116003880Y-32377722D01*
X115968417Y-32485844D01*
X115929239Y-32576399D01*
X115898609Y-32634544D01*
X115836890Y-32728731D01*
X115764839Y-32813288D01*
X115682456Y-32888214D01*
X115589741Y-32953510D01*
X115561480Y-32970191D01*
X115473879Y-33013777D01*
X115382053Y-33047677D01*
X115286002Y-33071891D01*
X115185727Y-33086420D01*
X115081228Y-33091263D01*
X115016206Y-33089309D01*
X114905099Y-33076486D01*
X114797404Y-33051695D01*
X114693122Y-33014937D01*
X114592254Y-32966210D01*
X114523939Y-32924257D01*
X114436755Y-32855866D01*
X114359434Y-32776208D01*
X114291978Y-32685283D01*
X114242009Y-32598381D01*
X114226985Y-32567720D01*
X114187726Y-32472718D01*
X114157192Y-32373181D01*
X114135382Y-32269111D01*
X114122296Y-32160507D01*
X114117934Y-32047369D01*
X114117958Y-32045415D01*
X114392951Y-32045415D01*
X114397698Y-32163629D01*
X114411937Y-32273114D01*
X114435670Y-32373869D01*
X114468896Y-32465894D01*
X114521297Y-32564801D01*
X114587369Y-32651137D01*
X114612087Y-32676987D01*
X114691233Y-32744529D01*
X114777867Y-32797063D01*
X114871988Y-32834586D01*
X114973597Y-32857100D01*
X115082693Y-32864605D01*
X115119186Y-32863779D01*
X115224018Y-32851386D01*
X115321877Y-32824120D01*
X115412764Y-32781982D01*
X115496679Y-32724973D01*
X115573621Y-32653091D01*
X115630052Y-32583188D01*
X115685144Y-32489262D01*
X115726463Y-32384378D01*
X115750375Y-32288606D01*
X115764722Y-32185225D01*
X115769504Y-32074235D01*
X115768708Y-32017926D01*
X115762343Y-31911467D01*
X115749612Y-31813220D01*
X115724746Y-31701961D01*
X115689934Y-31603534D01*
X115635031Y-31502360D01*
X115565806Y-31419665D01*
X115539973Y-31395885D01*
X115458766Y-31333752D01*
X115371995Y-31285426D01*
X115279660Y-31250908D01*
X115181760Y-31230197D01*
X115078297Y-31223293D01*
X115017110Y-31225786D01*
X114911721Y-31242835D01*
X114812438Y-31276035D01*
X114719260Y-31325387D01*
X114661889Y-31366425D01*
X114586009Y-31438996D01*
X114522339Y-31524781D01*
X114475994Y-31612128D01*
X114465938Y-31635516D01*
X114432202Y-31733992D01*
X114408846Y-31840344D01*
X114396925Y-31939864D01*
X114392951Y-32045415D01*
X114117958Y-32045415D01*
X114118394Y-32009641D01*
X114125292Y-31899480D01*
X114140467Y-31793852D01*
X114163920Y-31692759D01*
X114195651Y-31596199D01*
X114235659Y-31504173D01*
X114266640Y-31445867D01*
X114328900Y-31351804D01*
X114401399Y-31267885D01*
X114484136Y-31194111D01*
X114577110Y-31130481D01*
X114677632Y-31078328D01*
X114783437Y-31038985D01*
X114878331Y-31015458D01*
X114977106Y-31001341D01*
X115079762Y-30996636D01*
X115158256Y-30999143D01*
G37*
G36*
X114007536Y-33060000D02*
G01*
X113724703Y-33060000D01*
X113503419Y-32434738D01*
X112661270Y-32434738D01*
X112426308Y-33060000D01*
X112122958Y-33060000D01*
X112465267Y-32215896D01*
X112743824Y-32215896D01*
X113426727Y-32215896D01*
X113205443Y-31624340D01*
X113172287Y-31528658D01*
X113143161Y-31432609D01*
X113118065Y-31336195D01*
X113096999Y-31239413D01*
X113090944Y-31260224D01*
X113058929Y-31362654D01*
X113023918Y-31465770D01*
X112988225Y-31565313D01*
X112953872Y-31657557D01*
X112743824Y-32215896D01*
X112465267Y-32215896D01*
X112947034Y-31027899D01*
X113234263Y-31027899D01*
X114007536Y-33060000D01*
G37*
G36*
X111916329Y-33060000D02*
G01*
X111650104Y-33060000D01*
X111650104Y-32161186D01*
X111340893Y-32161186D01*
X111292960Y-32161796D01*
X111192393Y-32170956D01*
X111161527Y-32179993D01*
X111070760Y-32224689D01*
X111002891Y-32282097D01*
X110935450Y-32360000D01*
X110915880Y-32385515D01*
X110855451Y-32469458D01*
X110798796Y-32553165D01*
X110742986Y-32638925D01*
X110476762Y-33060000D01*
X110141172Y-33060000D01*
X110491905Y-32509476D01*
X110511525Y-32479719D01*
X110571726Y-32396063D01*
X110640973Y-32312992D01*
X110712700Y-32240321D01*
X110785549Y-32187348D01*
X110873412Y-32139692D01*
X110820425Y-32131142D01*
X110722411Y-32108347D01*
X110621475Y-32072159D01*
X110523809Y-32018151D01*
X110445010Y-31950648D01*
X110390954Y-31882194D01*
X110340963Y-31784563D01*
X110314951Y-31688698D01*
X110306605Y-31588192D01*
X110580809Y-31588192D01*
X110592616Y-31678395D01*
X110634542Y-31772840D01*
X110700610Y-31845868D01*
X110791346Y-31895938D01*
X110871616Y-31917909D01*
X110970703Y-31930760D01*
X111077110Y-31934528D01*
X111650104Y-31934528D01*
X111650104Y-31254556D01*
X111012630Y-31254556D01*
X110971650Y-31255385D01*
X110872740Y-31265697D01*
X110770310Y-31295158D01*
X110684856Y-31348834D01*
X110639336Y-31398965D01*
X110595441Y-31486297D01*
X110580809Y-31588192D01*
X110306605Y-31588192D01*
X110306280Y-31584284D01*
X110306608Y-31563392D01*
X110318095Y-31462308D01*
X110345992Y-31366853D01*
X110390300Y-31277027D01*
X110448040Y-31198268D01*
X110524337Y-31130697D01*
X110614026Y-31083098D01*
X110714242Y-31053989D01*
X110812550Y-31038464D01*
X110911792Y-31030540D01*
X111023377Y-31027899D01*
X111916329Y-31027899D01*
X111916329Y-33060000D01*
G37*
G36*
X109900348Y-33060000D02*
G01*
X109173482Y-33060000D01*
X109150809Y-33059864D01*
X109052844Y-33055901D01*
X108951788Y-33045063D01*
X108850104Y-33025317D01*
X108790328Y-33008601D01*
X108697100Y-32972766D01*
X108609281Y-32923712D01*
X108566455Y-32891835D01*
X108491014Y-32819985D01*
X108426099Y-32739064D01*
X108415716Y-32724169D01*
X108362912Y-32633652D01*
X108321219Y-32538740D01*
X108288834Y-32443042D01*
X108262859Y-32338302D01*
X108246907Y-32238193D01*
X108237672Y-32131489D01*
X108235101Y-32032714D01*
X108235173Y-32028806D01*
X108509630Y-32028806D01*
X108511502Y-32113213D01*
X108519821Y-32218222D01*
X108537136Y-32326066D01*
X108562875Y-32423014D01*
X108595873Y-32509259D01*
X108645230Y-32600396D01*
X108710397Y-32681912D01*
X108719003Y-32690340D01*
X108800763Y-32749111D01*
X108891137Y-32787913D01*
X108898304Y-32790227D01*
X108997406Y-32812266D01*
X109098461Y-32822551D01*
X109203768Y-32825526D01*
X109633635Y-32825526D01*
X109633635Y-31262372D01*
X109210607Y-31262372D01*
X109167152Y-31262741D01*
X109062525Y-31267336D01*
X108964379Y-31278782D01*
X108865736Y-31304382D01*
X108829313Y-31320815D01*
X108744400Y-31377458D01*
X108675484Y-31447444D01*
X108613677Y-31535436D01*
X108578317Y-31605171D01*
X108546310Y-31699812D01*
X108524261Y-31808759D01*
X108513288Y-31913527D01*
X108509630Y-32028806D01*
X108235173Y-32028806D01*
X108236337Y-31965761D01*
X108244452Y-31853148D01*
X108260139Y-31746332D01*
X108283401Y-31645312D01*
X108314235Y-31550090D01*
X108358627Y-31449065D01*
X108413154Y-31357505D01*
X108477817Y-31275409D01*
X108552616Y-31202777D01*
X108568080Y-31189843D01*
X108651352Y-31132847D01*
X108744545Y-31088635D01*
X108847662Y-31057208D01*
X108889002Y-31048765D01*
X108987996Y-31036171D01*
X109095690Y-31029731D01*
X109206210Y-31027899D01*
X109900348Y-31027899D01*
X109900348Y-33060000D01*
G37*
G36*
X107097906Y-33060000D02*
G01*
X106831681Y-33060000D01*
X106831681Y-32161186D01*
X106522470Y-32161186D01*
X106474537Y-32161796D01*
X106373970Y-32170956D01*
X106343104Y-32179993D01*
X106252337Y-32224689D01*
X106184468Y-32282097D01*
X106117027Y-32360000D01*
X106097457Y-32385515D01*
X106037028Y-32469458D01*
X105980373Y-32553165D01*
X105924563Y-32638925D01*
X105658339Y-33060000D01*
X105322749Y-33060000D01*
X105673482Y-32509476D01*
X105693102Y-32479719D01*
X105753303Y-32396063D01*
X105822550Y-32312992D01*
X105894277Y-32240321D01*
X105967126Y-32187348D01*
X106054989Y-32139692D01*
X106002002Y-32131142D01*
X105903988Y-32108347D01*
X105803053Y-32072159D01*
X105705386Y-32018151D01*
X105626587Y-31950648D01*
X105572531Y-31882194D01*
X105522540Y-31784563D01*
X105496528Y-31688698D01*
X105488182Y-31588192D01*
X105762386Y-31588192D01*
X105774193Y-31678395D01*
X105816120Y-31772840D01*
X105882187Y-31845868D01*
X105972923Y-31895938D01*
X106053193Y-31917909D01*
X106152280Y-31930760D01*
X106258688Y-31934528D01*
X106831681Y-31934528D01*
X106831681Y-31254556D01*
X106194207Y-31254556D01*
X106153228Y-31255385D01*
X106054317Y-31265697D01*
X105951888Y-31295158D01*
X105866434Y-31348834D01*
X105820913Y-31398965D01*
X105777018Y-31486297D01*
X105762386Y-31588192D01*
X105488182Y-31588192D01*
X105487857Y-31584284D01*
X105488185Y-31563392D01*
X105499672Y-31462308D01*
X105527570Y-31366853D01*
X105571877Y-31277027D01*
X105629617Y-31198268D01*
X105705914Y-31130697D01*
X105795603Y-31083098D01*
X105895819Y-31053989D01*
X105994127Y-31038464D01*
X106093370Y-31030540D01*
X106204954Y-31027899D01*
X107097906Y-31027899D01*
X107097906Y-33060000D01*
G37*
G36*
X105076064Y-33060000D02*
G01*
X105076064Y-31027899D01*
X103619888Y-31027899D01*
X103619888Y-31262372D01*
X104809839Y-31262372D01*
X104809839Y-31903265D01*
X103695603Y-31903265D01*
X103695603Y-32137739D01*
X104809839Y-32137739D01*
X104809839Y-32825526D01*
X103572993Y-32825526D01*
X103572993Y-33060000D01*
X105076064Y-33060000D01*
G37*
G36*
X102639986Y-33060000D02*
G01*
X103420586Y-31027899D01*
X103131891Y-31027899D01*
X102608234Y-32505568D01*
X102574411Y-32603808D01*
X102543834Y-32698493D01*
X102513666Y-32799530D01*
X102502721Y-32838715D01*
X102471981Y-32734607D01*
X102441867Y-32640909D01*
X102409436Y-32547212D01*
X102394277Y-32505568D01*
X101850104Y-31027899D01*
X101578018Y-31027899D01*
X102366434Y-33060000D01*
X102639986Y-33060000D01*
G37*
G36*
X99740823Y-33060000D02*
G01*
X99987997Y-33060000D01*
X99987997Y-31476329D01*
X100062872Y-31541175D01*
X100145267Y-31600618D01*
X100222470Y-31649253D01*
X100310235Y-31698788D01*
X100400055Y-31743580D01*
X100482833Y-31778213D01*
X100482833Y-31528108D01*
X100394506Y-31483853D01*
X100299686Y-31428525D01*
X100211400Y-31368128D01*
X100129648Y-31302663D01*
X100119888Y-31294124D01*
X100047897Y-31226010D01*
X99980483Y-31150624D01*
X99922438Y-31068402D01*
X99900069Y-31027899D01*
X99740823Y-31027899D01*
X99740823Y-33060000D01*
G37*
G36*
X98976343Y-33060000D02*
G01*
X98976343Y-32778632D01*
X98694487Y-32778632D01*
X98694487Y-33060000D01*
X98976343Y-33060000D01*
G37*
G36*
X97760683Y-31032072D02*
G01*
X97858915Y-31050619D01*
X97958258Y-31089221D01*
X98045778Y-31146601D01*
X98113647Y-31211997D01*
X98172662Y-31289972D01*
X98222823Y-31380525D01*
X98264131Y-31483656D01*
X98277225Y-31525825D01*
X98302771Y-31633770D01*
X98319085Y-31736936D01*
X98330248Y-31849925D01*
X98335615Y-31951586D01*
X98337404Y-32060069D01*
X98335652Y-32164074D01*
X98330397Y-32262497D01*
X98317940Y-32385046D01*
X98299256Y-32497672D01*
X98274343Y-32600376D01*
X98243202Y-32693158D01*
X98195518Y-32795182D01*
X98138101Y-32881702D01*
X98071423Y-32952920D01*
X97982519Y-33017384D01*
X97881646Y-33061793D01*
X97785659Y-33083895D01*
X97680879Y-33091263D01*
X97600576Y-33087072D01*
X97501841Y-33068449D01*
X97402150Y-33029689D01*
X97314515Y-32972072D01*
X97246493Y-32906279D01*
X97187508Y-32828091D01*
X97137561Y-32737507D01*
X97096650Y-32634528D01*
X97083643Y-32592294D01*
X97058268Y-32484395D01*
X97042062Y-32381493D01*
X97030973Y-32268973D01*
X97025642Y-32167861D01*
X97023866Y-32060069D01*
X97023870Y-32059581D01*
X97277878Y-32059581D01*
X97277992Y-32090337D01*
X97280716Y-32206883D01*
X97287074Y-32313063D01*
X97300131Y-32431213D01*
X97318864Y-32533168D01*
X97348837Y-32634136D01*
X97394138Y-32722456D01*
X97416413Y-32752050D01*
X97488957Y-32823366D01*
X97579623Y-32871881D01*
X97680879Y-32888053D01*
X97712280Y-32886601D01*
X97810130Y-32860803D01*
X97897485Y-32802757D01*
X97967131Y-32722944D01*
X97981210Y-32701004D01*
X98023331Y-32603719D01*
X98050579Y-32494954D01*
X98067042Y-32386424D01*
X98076125Y-32287887D01*
X98081574Y-32178939D01*
X98083391Y-32059581D01*
X98083266Y-32028746D01*
X98080266Y-31911520D01*
X98073267Y-31804080D01*
X98058894Y-31683540D01*
X98038272Y-31578289D01*
X98005276Y-31472170D01*
X97955408Y-31376189D01*
X97948990Y-31367263D01*
X97877416Y-31293590D01*
X97783146Y-31245277D01*
X97683321Y-31231109D01*
X97651396Y-31232556D01*
X97552172Y-31258278D01*
X97464016Y-31316152D01*
X97394138Y-31395729D01*
X97380059Y-31417556D01*
X97337938Y-31514598D01*
X97310690Y-31623340D01*
X97294227Y-31731982D01*
X97285144Y-31830695D01*
X97279695Y-31939894D01*
X97277878Y-32059581D01*
X97023870Y-32059581D01*
X97024265Y-32004827D01*
X97027459Y-31900860D01*
X97035223Y-31790547D01*
X97049419Y-31678959D01*
X97069295Y-31582819D01*
X97075107Y-31560866D01*
X97104568Y-31467318D01*
X97143647Y-31373437D01*
X97194347Y-31282400D01*
X97236845Y-31224240D01*
X97310668Y-31150623D01*
X97396580Y-31093356D01*
X97476818Y-31058838D01*
X97574115Y-31035634D01*
X97680879Y-31027899D01*
X97760683Y-31032072D01*
G37*
G36*
X219689357Y-70830000D02*
G01*
X219556245Y-70830000D01*
X219556245Y-70380593D01*
X219401639Y-70380593D01*
X219377673Y-70380898D01*
X219327390Y-70385478D01*
X219311956Y-70389996D01*
X219266573Y-70412344D01*
X219232638Y-70441048D01*
X219198918Y-70480000D01*
X219189133Y-70492757D01*
X219158918Y-70534729D01*
X219130591Y-70576582D01*
X219102686Y-70619462D01*
X218969574Y-70830000D01*
X218801779Y-70830000D01*
X218977145Y-70554738D01*
X218986956Y-70539859D01*
X219017056Y-70498031D01*
X219051679Y-70456496D01*
X219087543Y-70420160D01*
X219123967Y-70393674D01*
X219167899Y-70369846D01*
X219141406Y-70365571D01*
X219092399Y-70354173D01*
X219041931Y-70336079D01*
X218993097Y-70309075D01*
X218953698Y-70275324D01*
X218926670Y-70241097D01*
X218901674Y-70192281D01*
X218888668Y-70144349D01*
X218884495Y-70094096D01*
X219021598Y-70094096D01*
X219027501Y-70139197D01*
X219048464Y-70186420D01*
X219081498Y-70222934D01*
X219126866Y-70247969D01*
X219167001Y-70258954D01*
X219216544Y-70265380D01*
X219269748Y-70267264D01*
X219556245Y-70267264D01*
X219556245Y-69927278D01*
X219237508Y-69927278D01*
X219217018Y-69927692D01*
X219167563Y-69932848D01*
X219116348Y-69947579D01*
X219073621Y-69974417D01*
X219050861Y-69999482D01*
X219028913Y-70043148D01*
X219021598Y-70094096D01*
X218884495Y-70094096D01*
X218884333Y-70092142D01*
X218884497Y-70081696D01*
X218890241Y-70031154D01*
X218904189Y-69983426D01*
X218926343Y-69938513D01*
X218955213Y-69899134D01*
X218993362Y-69865348D01*
X219038206Y-69841549D01*
X219088314Y-69826994D01*
X219137468Y-69819232D01*
X219187089Y-69815270D01*
X219242882Y-69813949D01*
X219689357Y-69813949D01*
X219689357Y-70830000D01*
G37*
G36*
X218726552Y-70497341D02*
G01*
X218601011Y-70486106D01*
X218592028Y-70536995D01*
X218575908Y-70584874D01*
X218559490Y-70615554D01*
X218526973Y-70653448D01*
X218486438Y-70682775D01*
X218458129Y-70697376D01*
X218408785Y-70715036D01*
X218360471Y-70724729D01*
X218308865Y-70728364D01*
X218303524Y-70728394D01*
X218253240Y-70725710D01*
X218203192Y-70716660D01*
X218168946Y-70705680D01*
X218123452Y-70682365D01*
X218085655Y-70647820D01*
X218081995Y-70642909D01*
X218059698Y-70598351D01*
X218053419Y-70555715D01*
X218062152Y-70505921D01*
X218081018Y-70472428D01*
X218117349Y-70439455D01*
X218163865Y-70415413D01*
X218171632Y-70412344D01*
X218220779Y-70396543D01*
X218273789Y-70382203D01*
X218325758Y-70369127D01*
X218350907Y-70363007D01*
X218400011Y-70350505D01*
X218449919Y-70336266D01*
X218497226Y-70320452D01*
X218545324Y-70299504D01*
X218590530Y-70271005D01*
X218627079Y-70238235D01*
X218652791Y-70204738D01*
X218674372Y-70160499D01*
X218685993Y-70112414D01*
X218688206Y-70078220D01*
X218683098Y-70026538D01*
X218667773Y-69977281D01*
X218644975Y-69934605D01*
X218613939Y-69895927D01*
X218575175Y-69863546D01*
X218528683Y-69837461D01*
X218518457Y-69833000D01*
X218470258Y-69816235D01*
X218419084Y-69804956D01*
X218364934Y-69799164D01*
X218333565Y-69798318D01*
X218279282Y-69800592D01*
X218228297Y-69807416D01*
X218180608Y-69818788D01*
X218136217Y-69834710D01*
X218091262Y-69857767D01*
X218048653Y-69889776D01*
X218013772Y-69928512D01*
X218004815Y-69941444D01*
X217980137Y-69987373D01*
X217963808Y-70036928D01*
X217955828Y-70090108D01*
X217955233Y-70101179D01*
X218082972Y-70110949D01*
X218092645Y-70060292D01*
X218112547Y-70012798D01*
X218145569Y-69971244D01*
X218152826Y-69964891D01*
X218195454Y-69938874D01*
X218243281Y-69923697D01*
X218293321Y-69916759D01*
X218328192Y-69915554D01*
X218377954Y-69917693D01*
X218427153Y-69925375D01*
X218477147Y-69942835D01*
X218504535Y-69960251D01*
X218538172Y-69996200D01*
X218557794Y-70044740D01*
X218559734Y-70067718D01*
X218549904Y-70117543D01*
X218520411Y-70157599D01*
X218474204Y-70184252D01*
X218424012Y-70202326D01*
X218376190Y-70216042D01*
X218319644Y-70229895D01*
X218271373Y-70241199D01*
X218220014Y-70254182D01*
X218169145Y-70268526D01*
X218118065Y-70285697D01*
X218096650Y-70294619D01*
X218050842Y-70319282D01*
X218008510Y-70350719D01*
X217972358Y-70390203D01*
X217966957Y-70397934D01*
X217943039Y-70443172D01*
X217929050Y-70492912D01*
X217924947Y-70542037D01*
X217929455Y-70591659D01*
X217942979Y-70639467D01*
X217965519Y-70685463D01*
X217971109Y-70694445D01*
X218003743Y-70736071D01*
X218044248Y-70771496D01*
X218087433Y-70798076D01*
X218103244Y-70805819D01*
X218153442Y-70825064D01*
X218200917Y-70836883D01*
X218251078Y-70843726D01*
X218297173Y-70845631D01*
X218346910Y-70844197D01*
X218401008Y-70838899D01*
X218450875Y-70829698D01*
X218502685Y-70814402D01*
X218526517Y-70804842D01*
X218570191Y-70781899D01*
X218613375Y-70749993D01*
X218650262Y-70711634D01*
X218671353Y-70682477D01*
X218696950Y-70634752D01*
X218714664Y-70583627D01*
X218723793Y-70535328D01*
X218726552Y-70497341D01*
G37*
G36*
X217148499Y-70712763D02*
G01*
X217148499Y-70830000D01*
X217814305Y-70830000D01*
X217810347Y-70780798D01*
X217799895Y-70744026D01*
X217778685Y-70697437D01*
X217753192Y-70655534D01*
X217721784Y-70614060D01*
X217718318Y-70609937D01*
X217682915Y-70571082D01*
X217644828Y-70533820D01*
X217606393Y-70499112D01*
X217563190Y-70462440D01*
X217556629Y-70457041D01*
X217517260Y-70423972D01*
X217472729Y-70385117D01*
X217433397Y-70349016D01*
X217393063Y-70309331D01*
X217355469Y-70268046D01*
X217334856Y-70241863D01*
X217306875Y-70197888D01*
X217286524Y-70150614D01*
X217277197Y-70100541D01*
X217276971Y-70091653D01*
X217284390Y-70039263D01*
X217306646Y-69993468D01*
X217329727Y-69966601D01*
X217369581Y-69937538D01*
X217416939Y-69920539D01*
X217466503Y-69915554D01*
X217518892Y-69921016D01*
X217568474Y-69939642D01*
X217609630Y-69971486D01*
X217640170Y-70015047D01*
X217657114Y-70063514D01*
X217663554Y-70114354D01*
X217663852Y-70126580D01*
X217790858Y-70113147D01*
X217783462Y-70060822D01*
X217770983Y-70013393D01*
X217749999Y-69964244D01*
X217722096Y-69921757D01*
X217692672Y-69890642D01*
X217652586Y-69860758D01*
X217606913Y-69838215D01*
X217555654Y-69823012D01*
X217507271Y-69815822D01*
X217463817Y-69813949D01*
X217411624Y-69816791D01*
X217356094Y-69827292D01*
X217306337Y-69845529D01*
X217262354Y-69871504D01*
X217234473Y-69894794D01*
X217201544Y-69932010D01*
X217173815Y-69979065D01*
X217156649Y-70030943D01*
X217150295Y-70080294D01*
X217149965Y-70095073D01*
X217154036Y-70144164D01*
X217166250Y-70192610D01*
X217174633Y-70214752D01*
X217197737Y-70259608D01*
X217227002Y-70302296D01*
X217256699Y-70338339D01*
X217294993Y-70378709D01*
X217333086Y-70415397D01*
X217371522Y-70450528D01*
X217415300Y-70489059D01*
X217447452Y-70516636D01*
X217486336Y-70549944D01*
X217524645Y-70583398D01*
X217562738Y-70617858D01*
X217590334Y-70644863D01*
X217622303Y-70682937D01*
X217642358Y-70712763D01*
X217148499Y-70712763D01*
G37*
G36*
X217019050Y-70565240D02*
G01*
X216895464Y-70548632D01*
X216882977Y-70596915D01*
X216864477Y-70642586D01*
X216835464Y-70685969D01*
X216823168Y-70698353D01*
X216781574Y-70726185D01*
X216733729Y-70741171D01*
X216698360Y-70744026D01*
X216646382Y-70738111D01*
X216599747Y-70720365D01*
X216558454Y-70690789D01*
X216550837Y-70683454D01*
X216519152Y-70642782D01*
X216499202Y-70596480D01*
X216490988Y-70544550D01*
X216490753Y-70533489D01*
X216496191Y-70483147D01*
X216514736Y-70434548D01*
X216546441Y-70393049D01*
X216588275Y-70361483D01*
X216637210Y-70343020D01*
X216687857Y-70337606D01*
X216738499Y-70342949D01*
X216775296Y-70351284D01*
X216761374Y-70234780D01*
X216741591Y-70236001D01*
X216689090Y-70231210D01*
X216640400Y-70216837D01*
X216599441Y-70195457D01*
X216563426Y-70162387D01*
X216541186Y-70114462D01*
X216536182Y-70070404D01*
X216543801Y-70019819D01*
X216569046Y-69973817D01*
X216582344Y-69959518D01*
X216624086Y-69931053D01*
X216674697Y-69917100D01*
X216701046Y-69915554D01*
X216751719Y-69921874D01*
X216799018Y-69942984D01*
X216821214Y-69960495D01*
X216852458Y-70000520D01*
X216872589Y-70048314D01*
X216883007Y-70095317D01*
X217006594Y-70073335D01*
X216993993Y-70021931D01*
X216975853Y-69975856D01*
X216948337Y-69929724D01*
X216913586Y-69890554D01*
X216903768Y-69881849D01*
X216861132Y-69852143D01*
X216813581Y-69830924D01*
X216761115Y-69818193D01*
X216711174Y-69814016D01*
X216703733Y-69813949D01*
X216653553Y-69817384D01*
X216601276Y-69829096D01*
X216552058Y-69849120D01*
X216508237Y-69876360D01*
X216472151Y-69909717D01*
X216446057Y-69945352D01*
X216423583Y-69992029D01*
X216411481Y-70040836D01*
X216409176Y-70074556D01*
X216414940Y-70125449D01*
X216432233Y-70172552D01*
X216444103Y-70193014D01*
X216478084Y-70232688D01*
X216519397Y-70262942D01*
X216547906Y-70277766D01*
X216500791Y-70292980D01*
X216455873Y-70318177D01*
X216418779Y-70352104D01*
X216409176Y-70363984D01*
X216383030Y-70408115D01*
X216366567Y-70458685D01*
X216360031Y-70509705D01*
X216359595Y-70527871D01*
X216364200Y-70584072D01*
X216378014Y-70636417D01*
X216401038Y-70684905D01*
X216433272Y-70729536D01*
X216455826Y-70753307D01*
X216493691Y-70784683D01*
X216542359Y-70813083D01*
X216595865Y-70832648D01*
X216645579Y-70842385D01*
X216698848Y-70845631D01*
X216754721Y-70841903D01*
X216806292Y-70830718D01*
X216853563Y-70812077D01*
X216896532Y-70785979D01*
X216919155Y-70767718D01*
X216953822Y-70731315D01*
X216981312Y-70690494D01*
X217001626Y-70645255D01*
X217014765Y-70595599D01*
X217019050Y-70565240D01*
G37*
G36*
X215591207Y-70712763D02*
G01*
X215591207Y-70830000D01*
X216257013Y-70830000D01*
X216253054Y-70780798D01*
X216242602Y-70744026D01*
X216221392Y-70697437D01*
X216195900Y-70655534D01*
X216164491Y-70614060D01*
X216161025Y-70609937D01*
X216125623Y-70571082D01*
X216087536Y-70533820D01*
X216049101Y-70499112D01*
X216005898Y-70462440D01*
X215999337Y-70457041D01*
X215959968Y-70423972D01*
X215915436Y-70385117D01*
X215876105Y-70349016D01*
X215835770Y-70309331D01*
X215798177Y-70268046D01*
X215777564Y-70241863D01*
X215749582Y-70197888D01*
X215729232Y-70150614D01*
X215719905Y-70100541D01*
X215719678Y-70091653D01*
X215727097Y-70039263D01*
X215749354Y-69993468D01*
X215772435Y-69966601D01*
X215812289Y-69937538D01*
X215859647Y-69920539D01*
X215909211Y-69915554D01*
X215961599Y-69921016D01*
X216011182Y-69939642D01*
X216052337Y-69971486D01*
X216082877Y-70015047D01*
X216099821Y-70063514D01*
X216106261Y-70114354D01*
X216106559Y-70126580D01*
X216233565Y-70113147D01*
X216226169Y-70060822D01*
X216213690Y-70013393D01*
X216192706Y-69964244D01*
X216164803Y-69921757D01*
X216135380Y-69890642D01*
X216095294Y-69860758D01*
X216049621Y-69838215D01*
X215998362Y-69823012D01*
X215949979Y-69815822D01*
X215906524Y-69813949D01*
X215854332Y-69816791D01*
X215798801Y-69827292D01*
X215749045Y-69845529D01*
X215705062Y-69871504D01*
X215677180Y-69894794D01*
X215644252Y-69932010D01*
X215616523Y-69979065D01*
X215599357Y-70030943D01*
X215593002Y-70080294D01*
X215592672Y-70095073D01*
X215596743Y-70144164D01*
X215608957Y-70192610D01*
X215617341Y-70214752D01*
X215640445Y-70259608D01*
X215669709Y-70302296D01*
X215699406Y-70338339D01*
X215737701Y-70378709D01*
X215775793Y-70415397D01*
X215814230Y-70450528D01*
X215858008Y-70489059D01*
X215890160Y-70516636D01*
X215929043Y-70549944D01*
X215967353Y-70583398D01*
X216005445Y-70617858D01*
X216033042Y-70644863D01*
X216065010Y-70682937D01*
X216085066Y-70712763D01*
X215591207Y-70712763D01*
G37*
G36*
X215020655Y-70830000D02*
G01*
X215020655Y-69813949D01*
X214292568Y-69813949D01*
X214292568Y-69931186D01*
X214887543Y-69931186D01*
X214887543Y-70251632D01*
X214330425Y-70251632D01*
X214330425Y-70368869D01*
X214887543Y-70368869D01*
X214887543Y-70712763D01*
X214269120Y-70712763D01*
X214269120Y-70830000D01*
X215020655Y-70830000D01*
G37*
G36*
X214192916Y-70830000D02*
G01*
X213803349Y-70300481D01*
X214146755Y-69813949D01*
X213988241Y-69813949D01*
X213805303Y-70072114D01*
X213775900Y-70114397D01*
X213747047Y-70158152D01*
X213724459Y-70195945D01*
X213697428Y-70154042D01*
X213666894Y-70110765D01*
X213644591Y-70081151D01*
X213442114Y-69813949D01*
X213297034Y-69813949D01*
X213650942Y-70292909D01*
X213269678Y-70830000D01*
X213434542Y-70830000D01*
X213687822Y-70470718D01*
X213715071Y-70429846D01*
X213731786Y-70403307D01*
X213757585Y-70444848D01*
X213779902Y-70479023D01*
X214032693Y-70830000D01*
X214192916Y-70830000D01*
G37*
G36*
X212901360Y-70830000D02*
G01*
X212901360Y-69931186D01*
X213233042Y-69931186D01*
X213233042Y-69813949D01*
X212434856Y-69813949D01*
X212434856Y-69931186D01*
X212768004Y-69931186D01*
X212768004Y-70830000D01*
X212901360Y-70830000D01*
G37*
G36*
X211937090Y-70830000D02*
G01*
X211803977Y-70830000D01*
X211803977Y-70380593D01*
X211649371Y-70380593D01*
X211625405Y-70380898D01*
X211575122Y-70385478D01*
X211559689Y-70389996D01*
X211514305Y-70412344D01*
X211480370Y-70441048D01*
X211446650Y-70480000D01*
X211436865Y-70492757D01*
X211406650Y-70534729D01*
X211378323Y-70576582D01*
X211350418Y-70619462D01*
X211217306Y-70830000D01*
X211049511Y-70830000D01*
X211224877Y-70554738D01*
X211234688Y-70539859D01*
X211264788Y-70498031D01*
X211299412Y-70456496D01*
X211335275Y-70420160D01*
X211371700Y-70393674D01*
X211415631Y-70369846D01*
X211389138Y-70365571D01*
X211340131Y-70354173D01*
X211289663Y-70336079D01*
X211240829Y-70309075D01*
X211201430Y-70275324D01*
X211174402Y-70241097D01*
X211149406Y-70192281D01*
X211136400Y-70144349D01*
X211132227Y-70094096D01*
X211269330Y-70094096D01*
X211275233Y-70139197D01*
X211296196Y-70186420D01*
X211329230Y-70222934D01*
X211374598Y-70247969D01*
X211414733Y-70258954D01*
X211464276Y-70265380D01*
X211517480Y-70267264D01*
X211803977Y-70267264D01*
X211803977Y-69927278D01*
X211485240Y-69927278D01*
X211464750Y-69927692D01*
X211415295Y-69932848D01*
X211364080Y-69947579D01*
X211321353Y-69974417D01*
X211298593Y-69999482D01*
X211276645Y-70043148D01*
X211269330Y-70094096D01*
X211132227Y-70094096D01*
X211132065Y-70092142D01*
X211132229Y-70081696D01*
X211137973Y-70031154D01*
X211151921Y-69983426D01*
X211174075Y-69938513D01*
X211202945Y-69899134D01*
X211241094Y-69865348D01*
X211285938Y-69841549D01*
X211336046Y-69826994D01*
X211385200Y-69819232D01*
X211434821Y-69815270D01*
X211490614Y-69813949D01*
X211937090Y-69813949D01*
X211937090Y-70830000D01*
G37*
G36*
X211031437Y-70830000D02*
G01*
X210641870Y-70300481D01*
X210985275Y-69813949D01*
X210826762Y-69813949D01*
X210643824Y-70072114D01*
X210614421Y-70114397D01*
X210585568Y-70158152D01*
X210562979Y-70195945D01*
X210535948Y-70154042D01*
X210505414Y-70110765D01*
X210483112Y-70081151D01*
X210280635Y-69813949D01*
X210135554Y-69813949D01*
X210489462Y-70292909D01*
X210108199Y-70830000D01*
X210273063Y-70830000D01*
X210526343Y-70470718D01*
X210553591Y-70429846D01*
X210570307Y-70403307D01*
X210596106Y-70444848D01*
X210618422Y-70479023D01*
X210871214Y-70830000D01*
X211031437Y-70830000D01*
G37*
G36*
X201361531Y-67401954D02*
G01*
X201341600Y-67546155D01*
X201403699Y-67551595D01*
X201466382Y-67565454D01*
X201519688Y-67592437D01*
X201526248Y-67598032D01*
X201562011Y-67649174D01*
X201575636Y-67710851D01*
X201576073Y-67725820D01*
X201568215Y-67785255D01*
X201548230Y-67829867D01*
X201505640Y-67873808D01*
X201472612Y-67889951D01*
X201415056Y-67901732D01*
X201351020Y-67905963D01*
X201319618Y-67906364D01*
X200478739Y-67906364D01*
X200478739Y-68066392D01*
X201308188Y-68066392D01*
X201371713Y-68064639D01*
X201436275Y-68058342D01*
X201498661Y-68045784D01*
X201545006Y-68029755D01*
X201597925Y-67999477D01*
X201641424Y-67959016D01*
X201672794Y-67913398D01*
X201697824Y-67855501D01*
X201711562Y-67797158D01*
X201716714Y-67733376D01*
X201716757Y-67726699D01*
X201712480Y-67660648D01*
X201699647Y-67601749D01*
X201674505Y-67543195D01*
X201638189Y-67493983D01*
X201627364Y-67483140D01*
X201577228Y-67446412D01*
X201516210Y-67420638D01*
X201453893Y-67407072D01*
X201393848Y-67402119D01*
X201361531Y-67401954D01*
G37*
G36*
X201698000Y-68482875D02*
G01*
X201200916Y-68482875D01*
X201200916Y-68792966D01*
X201199971Y-68839607D01*
X201194194Y-68911173D01*
X201183164Y-68975025D01*
X201162996Y-69041465D01*
X201135264Y-69096797D01*
X201093352Y-69147313D01*
X201065719Y-69170325D01*
X201013791Y-69203214D01*
X200957319Y-69226705D01*
X200896302Y-69240800D01*
X200830742Y-69245499D01*
X200781005Y-69242578D01*
X200723489Y-69231073D01*
X200664852Y-69208569D01*
X200637681Y-69194006D01*
X200586939Y-69156797D01*
X200547323Y-69111849D01*
X200525880Y-69075757D01*
X200503926Y-69020493D01*
X200490463Y-68962665D01*
X200482872Y-68901654D01*
X200479667Y-68842017D01*
X200478933Y-68792086D01*
X200619423Y-68792086D01*
X200619593Y-68818203D01*
X200621806Y-68879022D01*
X200630267Y-68941270D01*
X200631421Y-68945166D01*
X200659769Y-69000963D01*
X200703247Y-69042093D01*
X200721010Y-69053154D01*
X200776533Y-69074152D01*
X200835725Y-69080488D01*
X200897737Y-69074134D01*
X200955174Y-69052467D01*
X201001321Y-69015422D01*
X201027095Y-68977265D01*
X201047288Y-68920895D01*
X201057414Y-68858837D01*
X201060233Y-68795310D01*
X201060233Y-68482875D01*
X200619423Y-68482875D01*
X200619423Y-68792086D01*
X200478933Y-68792086D01*
X200478739Y-68778897D01*
X200478739Y-68322847D01*
X201698000Y-68322847D01*
X201698000Y-68482875D01*
G37*
G36*
X201557316Y-70162289D02*
G01*
X201698000Y-70162289D01*
X201698000Y-69363321D01*
X201638958Y-69368072D01*
X201594831Y-69380614D01*
X201538924Y-69406066D01*
X201488641Y-69436657D01*
X201438873Y-69474347D01*
X201433924Y-69478506D01*
X201387299Y-69520990D01*
X201342584Y-69566694D01*
X201300934Y-69612816D01*
X201256928Y-69664659D01*
X201250449Y-69672533D01*
X201210767Y-69719776D01*
X201164140Y-69773213D01*
X201120819Y-69820411D01*
X201073197Y-69868813D01*
X201023655Y-69913925D01*
X200992235Y-69938660D01*
X200939466Y-69972238D01*
X200882737Y-69996658D01*
X200822649Y-70007851D01*
X200811984Y-70008123D01*
X200749116Y-69999220D01*
X200694161Y-69972512D01*
X200661921Y-69944815D01*
X200627046Y-69896990D01*
X200606647Y-69840161D01*
X200600665Y-69780684D01*
X200607220Y-69717818D01*
X200629571Y-69658319D01*
X200667783Y-69608932D01*
X200720057Y-69572284D01*
X200778217Y-69551951D01*
X200839224Y-69544223D01*
X200853896Y-69543866D01*
X200837776Y-69391458D01*
X200774987Y-69400333D01*
X200718071Y-69415309D01*
X200659093Y-69440489D01*
X200608108Y-69473973D01*
X200570770Y-69509281D01*
X200534910Y-69557384D01*
X200507858Y-69612192D01*
X200489614Y-69673703D01*
X200480986Y-69731762D01*
X200478739Y-69783908D01*
X200482150Y-69846539D01*
X200494750Y-69913175D01*
X200516635Y-69972883D01*
X200547804Y-70025663D01*
X200575752Y-70059120D01*
X200620412Y-70098635D01*
X200676878Y-70131910D01*
X200739132Y-70152508D01*
X200798353Y-70160134D01*
X200816087Y-70160530D01*
X200874997Y-70155645D01*
X200933132Y-70140988D01*
X200959702Y-70130928D01*
X201013530Y-70103203D01*
X201064755Y-70068086D01*
X201108006Y-70032449D01*
X201156451Y-69986496D01*
X201200477Y-69940785D01*
X201242634Y-69894661D01*
X201288871Y-69842127D01*
X201321963Y-69803545D01*
X201361932Y-69756885D01*
X201402078Y-69710913D01*
X201443430Y-69665202D01*
X201475836Y-69632086D01*
X201521524Y-69593724D01*
X201557316Y-69569658D01*
X201557316Y-70162289D01*
G37*
G36*
X205861531Y-67301954D02*
G01*
X205841600Y-67446155D01*
X205903699Y-67451595D01*
X205966382Y-67465454D01*
X206019688Y-67492437D01*
X206026248Y-67498032D01*
X206062011Y-67549174D01*
X206075636Y-67610851D01*
X206076073Y-67625820D01*
X206068215Y-67685255D01*
X206048230Y-67729867D01*
X206005640Y-67773808D01*
X205972612Y-67789951D01*
X205915056Y-67801732D01*
X205851020Y-67805963D01*
X205819618Y-67806364D01*
X204978739Y-67806364D01*
X204978739Y-67966392D01*
X205808188Y-67966392D01*
X205871713Y-67964639D01*
X205936275Y-67958342D01*
X205998661Y-67945784D01*
X206045006Y-67929755D01*
X206097925Y-67899477D01*
X206141424Y-67859016D01*
X206172794Y-67813398D01*
X206197824Y-67755501D01*
X206211562Y-67697158D01*
X206216714Y-67633376D01*
X206216757Y-67626699D01*
X206212480Y-67560648D01*
X206199647Y-67501749D01*
X206174505Y-67443195D01*
X206138189Y-67393983D01*
X206127364Y-67383140D01*
X206077228Y-67346412D01*
X206016210Y-67320638D01*
X205953893Y-67307072D01*
X205893848Y-67302119D01*
X205861531Y-67301954D01*
G37*
G36*
X206198000Y-68382875D02*
G01*
X205700916Y-68382875D01*
X205700916Y-68692966D01*
X205699971Y-68739607D01*
X205694194Y-68811173D01*
X205683164Y-68875025D01*
X205662996Y-68941465D01*
X205635264Y-68996797D01*
X205593352Y-69047313D01*
X205565719Y-69070325D01*
X205513791Y-69103214D01*
X205457319Y-69126705D01*
X205396302Y-69140800D01*
X205330742Y-69145499D01*
X205281005Y-69142578D01*
X205223489Y-69131073D01*
X205164852Y-69108569D01*
X205137681Y-69094006D01*
X205086939Y-69056797D01*
X205047323Y-69011849D01*
X205025880Y-68975757D01*
X205003926Y-68920493D01*
X204990463Y-68862665D01*
X204982872Y-68801654D01*
X204979667Y-68742017D01*
X204978933Y-68692086D01*
X205119423Y-68692086D01*
X205119593Y-68718203D01*
X205121806Y-68779022D01*
X205130267Y-68841270D01*
X205131421Y-68845166D01*
X205159769Y-68900963D01*
X205203247Y-68942093D01*
X205221010Y-68953154D01*
X205276533Y-68974152D01*
X205335725Y-68980488D01*
X205397737Y-68974134D01*
X205455174Y-68952467D01*
X205501321Y-68915422D01*
X205527095Y-68877265D01*
X205547288Y-68820895D01*
X205557414Y-68758837D01*
X205560233Y-68695310D01*
X205560233Y-68382875D01*
X205119423Y-68382875D01*
X205119423Y-68692086D01*
X204978933Y-68692086D01*
X204978739Y-68678897D01*
X204978739Y-68222847D01*
X206198000Y-68222847D01*
X206198000Y-68382875D01*
G37*
G36*
X206198000Y-69841298D02*
G01*
X206198000Y-69692993D01*
X205247797Y-69692993D01*
X205286705Y-69648068D01*
X205322371Y-69598631D01*
X205351551Y-69552310D01*
X205381273Y-69499650D01*
X205408148Y-69445759D01*
X205428928Y-69396092D01*
X205278865Y-69396092D01*
X205252312Y-69449088D01*
X205219115Y-69505980D01*
X205182877Y-69558951D01*
X205143598Y-69608003D01*
X205138474Y-69613859D01*
X205097606Y-69657053D01*
X205052374Y-69697501D01*
X205003041Y-69732329D01*
X204978739Y-69745750D01*
X204978739Y-69841298D01*
X206198000Y-69841298D01*
G37*
D11*
G36*
X69338240Y-179661531D02*
G01*
X69194039Y-179641600D01*
X69188599Y-179703699D01*
X69174740Y-179766382D01*
X69147757Y-179819688D01*
X69142162Y-179826248D01*
X69091020Y-179862011D01*
X69029343Y-179875636D01*
X69014374Y-179876073D01*
X68954939Y-179868215D01*
X68910327Y-179848230D01*
X68866386Y-179805640D01*
X68850243Y-179772612D01*
X68838462Y-179715056D01*
X68834231Y-179651020D01*
X68833830Y-179619618D01*
X68833830Y-178778739D01*
X68673802Y-178778739D01*
X68673802Y-179608188D01*
X68675555Y-179671713D01*
X68681852Y-179736275D01*
X68694410Y-179798661D01*
X68710439Y-179845006D01*
X68740717Y-179897925D01*
X68781178Y-179941424D01*
X68826796Y-179972794D01*
X68884693Y-179997824D01*
X68943036Y-180011562D01*
X69006818Y-180016714D01*
X69013495Y-180016757D01*
X69079546Y-180012480D01*
X69138445Y-179999647D01*
X69196999Y-179974505D01*
X69246211Y-179938189D01*
X69257054Y-179927364D01*
X69293782Y-179877228D01*
X69319556Y-179816210D01*
X69333122Y-179753893D01*
X69338075Y-179693848D01*
X69338240Y-179661531D01*
G37*
G36*
X68526084Y-179566569D02*
G01*
X68526084Y-179702563D01*
X68001743Y-179702563D01*
X68001743Y-179998000D01*
X67853439Y-179998000D01*
X67853439Y-179702563D01*
X67690187Y-179702563D01*
X67690187Y-179566569D01*
X67853439Y-179566569D01*
X68001743Y-179566569D01*
X68380124Y-179566569D01*
X68001743Y-179018488D01*
X68001743Y-179566569D01*
X67853439Y-179566569D01*
X67853439Y-178778739D01*
X67974486Y-178778739D01*
X68526084Y-179566569D01*
G37*
D12*
G04 #@! TO.C,JP2*
X202000000Y-70200000D02*
X202000000Y-67400000D01*
X202700000Y-66750000D02*
X203300000Y-66750000D01*
X203300000Y-70850000D02*
X202700000Y-70850000D01*
X204000000Y-67400000D02*
X204000000Y-70200000D01*
X204500000Y-67300000D02*
X204200000Y-67600000D01*
X204500000Y-67900000D02*
X204200000Y-67600000D01*
X204500000Y-67900000D02*
X204500000Y-67300000D01*
X202000000Y-67450000D02*
G75*
G02*
X202700000Y-66750000I699999J1D01*
G01*
X202700000Y-70850000D02*
G75*
G02*
X202000000Y-70150000I0J700000D01*
G01*
X203300000Y-66750000D02*
G75*
G02*
X204000000Y-67450000I1J-699999D01*
G01*
X204000000Y-70150000D02*
G75*
G02*
X203300000Y-70850000I-700000J0D01*
G01*
D13*
G04 #@! TO.C,G\u002A\u002A\u002A*
G36*
X72955398Y-55866870D02*
G01*
X73246438Y-56817494D01*
X73308806Y-57070568D01*
X73484974Y-58009221D01*
X73594587Y-59004991D01*
X73635910Y-60023429D01*
X73616034Y-60720567D01*
X73607209Y-61030088D01*
X73506752Y-61990520D01*
X73277906Y-63161624D01*
X72930570Y-64339618D01*
X72810607Y-64638652D01*
X72475345Y-65474370D01*
X71916468Y-66559286D01*
X71258176Y-67587769D01*
X70504707Y-68553222D01*
X69660296Y-69449051D01*
X68729183Y-70268659D01*
X67715603Y-71005450D01*
X67333025Y-71245420D01*
X66401891Y-71747466D01*
X65398977Y-72186386D01*
X64350454Y-72552546D01*
X63282496Y-72836311D01*
X62221277Y-73028047D01*
X62145116Y-73035918D01*
X61918929Y-73048934D01*
X61607425Y-73058727D01*
X61233487Y-73064847D01*
X60819997Y-73066840D01*
X60389835Y-73064254D01*
X59832390Y-73054061D01*
X59320998Y-73033871D01*
X58873740Y-73000666D01*
X58461677Y-72950900D01*
X58055871Y-72881024D01*
X57627386Y-72787491D01*
X57147281Y-72666753D01*
X56891767Y-72595912D01*
X55923416Y-72264877D01*
X54950465Y-71839049D01*
X54000857Y-71332955D01*
X53102538Y-70761124D01*
X52283452Y-70138084D01*
X51708565Y-69631727D01*
X50819405Y-68727586D01*
X50338114Y-68136406D01*
X52223404Y-68136406D01*
X52613712Y-68505114D01*
X53148058Y-68983860D01*
X53866532Y-69541567D01*
X54626163Y-70030472D01*
X55465958Y-70477550D01*
X55794496Y-70633415D01*
X56578019Y-70965220D01*
X57332794Y-71221746D01*
X58094392Y-71414142D01*
X58898382Y-71553561D01*
X59059235Y-71574978D01*
X60266271Y-71670766D01*
X61450351Y-71649043D01*
X62610202Y-71510019D01*
X63744548Y-71253905D01*
X64852114Y-70880912D01*
X65931625Y-70391250D01*
X66187712Y-70255140D01*
X67159729Y-69655666D01*
X68076767Y-68957042D01*
X68926104Y-68170758D01*
X69695018Y-67308307D01*
X70370787Y-66381183D01*
X70441102Y-66270918D01*
X70595667Y-66014068D01*
X70758305Y-65728439D01*
X70917442Y-65436032D01*
X71061504Y-65158849D01*
X71178916Y-64918890D01*
X71258105Y-64738158D01*
X71287495Y-64638652D01*
X71287427Y-64637758D01*
X71262353Y-64623965D01*
X71187709Y-64611877D01*
X71057085Y-64601400D01*
X70864069Y-64592435D01*
X70602250Y-64584886D01*
X70265217Y-64578658D01*
X69846559Y-64573652D01*
X69339864Y-64569774D01*
X68738721Y-64566925D01*
X68036718Y-64565010D01*
X67227446Y-64563931D01*
X66304492Y-64563593D01*
X61320568Y-64563593D01*
X61320568Y-65554373D01*
X61320568Y-66545153D01*
X64593144Y-66545153D01*
X65381144Y-66546063D01*
X66060117Y-66548868D01*
X66625579Y-66553633D01*
X67080830Y-66560423D01*
X67429170Y-66569302D01*
X67673898Y-66580334D01*
X67818315Y-66593584D01*
X67865721Y-66609117D01*
X67836088Y-66668376D01*
X67729605Y-66797286D01*
X67561539Y-66972979D01*
X67348613Y-67178821D01*
X67107550Y-67398177D01*
X66855073Y-67614414D01*
X66472898Y-67915488D01*
X65620627Y-68484876D01*
X64708913Y-68959691D01*
X63727693Y-69344813D01*
X62666910Y-69645119D01*
X62524750Y-69678112D01*
X62304869Y-69725476D01*
X62105753Y-69760309D01*
X61903927Y-69784522D01*
X61675915Y-69800028D01*
X61398240Y-69808736D01*
X61047427Y-69812560D01*
X60600000Y-69813410D01*
X60328884Y-69813175D01*
X59940232Y-69810858D01*
X59634610Y-69804470D01*
X59388514Y-69792091D01*
X59178442Y-69771803D01*
X58980890Y-69741684D01*
X58772355Y-69699815D01*
X58529333Y-69644276D01*
X58313841Y-69591595D01*
X57246983Y-69265413D01*
X56256639Y-68848081D01*
X55340151Y-68338511D01*
X54968977Y-68104094D01*
X53596191Y-68120250D01*
X52223404Y-68136406D01*
X50338114Y-68136406D01*
X50033610Y-67762377D01*
X49351036Y-66735850D01*
X48771541Y-65647756D01*
X48294983Y-64497847D01*
X47921221Y-63285873D01*
X47650111Y-62011584D01*
X47607154Y-61688388D01*
X47568758Y-61202553D01*
X47546829Y-60651472D01*
X47542007Y-60151904D01*
X48958258Y-60151904D01*
X49024584Y-61309840D01*
X49205530Y-62463071D01*
X49502174Y-63602837D01*
X49620047Y-63939106D01*
X49788925Y-64360735D01*
X49987068Y-64814578D01*
X50197938Y-65264169D01*
X50404992Y-65673040D01*
X50591689Y-66004728D01*
X50902364Y-66515130D01*
X55002316Y-66530559D01*
X55779311Y-66533126D01*
X56507033Y-66534598D01*
X57128455Y-66534630D01*
X57650726Y-66533116D01*
X58080997Y-66529952D01*
X58426418Y-66525035D01*
X58694138Y-66518261D01*
X58891309Y-66509526D01*
X59025079Y-66498725D01*
X59102599Y-66485755D01*
X59131018Y-66470512D01*
X59131572Y-66467825D01*
X59135218Y-66382304D01*
X59138446Y-66185604D01*
X59141240Y-65885525D01*
X59143585Y-65489868D01*
X59145465Y-65006433D01*
X59146865Y-64443021D01*
X59147769Y-63807433D01*
X59148162Y-63107468D01*
X59148027Y-62350928D01*
X59147350Y-61545613D01*
X59146146Y-60720567D01*
X62098346Y-60720567D01*
X65163594Y-60720567D01*
X68228841Y-60720567D01*
X68212411Y-59684752D01*
X68195981Y-58648936D01*
X65163594Y-58648936D01*
X62131206Y-58648936D01*
X62114776Y-59684752D01*
X62098346Y-60720567D01*
X59146146Y-60720567D01*
X59146115Y-60699322D01*
X59144306Y-59819858D01*
X59128842Y-53244681D01*
X58063003Y-53228283D01*
X56997163Y-53211886D01*
X56997163Y-58823646D01*
X56997111Y-59558749D01*
X56996817Y-60420407D01*
X56996144Y-61174618D01*
X56994957Y-61828550D01*
X56993124Y-62389375D01*
X56990511Y-62864261D01*
X56986984Y-63260379D01*
X56982409Y-63584898D01*
X56976654Y-63844988D01*
X56969584Y-64047819D01*
X56961066Y-64200560D01*
X56950967Y-64310381D01*
X56939152Y-64384452D01*
X56925489Y-64429942D01*
X56909843Y-64454022D01*
X56892081Y-64463861D01*
X56870855Y-64466511D01*
X56741722Y-64471922D01*
X56511454Y-64476288D01*
X56193271Y-64479531D01*
X55800395Y-64481567D01*
X55346049Y-64482318D01*
X54843453Y-64481702D01*
X54305830Y-64479639D01*
X54185094Y-64479006D01*
X53581433Y-64475163D01*
X53085680Y-64470480D01*
X52687504Y-64464553D01*
X52376576Y-64456976D01*
X52142567Y-64447345D01*
X51975145Y-64435253D01*
X51863982Y-64420298D01*
X51798747Y-64402072D01*
X51769111Y-64380171D01*
X51760346Y-64365782D01*
X51685311Y-64212495D01*
X51586427Y-63975669D01*
X51473567Y-63682418D01*
X51356607Y-63359856D01*
X51245418Y-63035098D01*
X51149877Y-62735257D01*
X51079856Y-62487450D01*
X51043075Y-62338845D01*
X50924806Y-61780656D01*
X50846975Y-61239751D01*
X50804310Y-60671188D01*
X50791538Y-60030023D01*
X50791541Y-60026070D01*
X50825286Y-59113797D01*
X50929866Y-58269824D01*
X51112811Y-57460817D01*
X51381652Y-56653440D01*
X51743921Y-55814359D01*
X52180182Y-55000393D01*
X52775247Y-54121227D01*
X53461481Y-53312366D01*
X54230917Y-52581271D01*
X55075590Y-51935404D01*
X55987535Y-51382226D01*
X56958788Y-50929200D01*
X57412087Y-50760280D01*
X58438424Y-50468398D01*
X59482588Y-50291397D01*
X60535260Y-50228555D01*
X61587119Y-50279145D01*
X62628846Y-50442443D01*
X63651120Y-50717724D01*
X64644622Y-51104263D01*
X65600032Y-51601335D01*
X65692718Y-51657147D01*
X66002897Y-51855962D01*
X66322869Y-52076685D01*
X66636868Y-52306806D01*
X66929129Y-52533819D01*
X67183887Y-52745216D01*
X67385375Y-52928489D01*
X67517830Y-53071131D01*
X67565485Y-53160635D01*
X67564893Y-53161784D01*
X67494945Y-53172873D01*
X67315045Y-53183002D01*
X67034412Y-53192009D01*
X66662270Y-53199737D01*
X66207838Y-53206025D01*
X65680339Y-53210714D01*
X65088995Y-53213645D01*
X64443026Y-53214657D01*
X61320568Y-53214657D01*
X61320568Y-54265484D01*
X61320568Y-55316312D01*
X66234437Y-55316312D01*
X66617995Y-55316190D01*
X67359420Y-55315250D01*
X68061601Y-55313440D01*
X68715555Y-55310832D01*
X69312299Y-55307500D01*
X69842850Y-55303515D01*
X70298223Y-55298951D01*
X70669435Y-55293879D01*
X70947503Y-55288372D01*
X71123444Y-55282503D01*
X71188274Y-55276344D01*
X71178800Y-55214719D01*
X71121345Y-55068893D01*
X71025014Y-54861668D01*
X70899536Y-54615321D01*
X70487396Y-53898479D01*
X69819295Y-52936230D01*
X69063711Y-52051947D01*
X68226782Y-51250784D01*
X67314646Y-50537895D01*
X66333442Y-49918434D01*
X65289309Y-49397555D01*
X64188383Y-48980412D01*
X63910183Y-48892664D01*
X63359353Y-48734785D01*
X62851364Y-48616506D01*
X62353826Y-48532967D01*
X61834347Y-48479312D01*
X61260535Y-48450681D01*
X60600000Y-48442217D01*
X60257745Y-48444243D01*
X59637625Y-48462592D01*
X59088492Y-48504117D01*
X58578170Y-48573752D01*
X58074485Y-48676431D01*
X57545260Y-48817088D01*
X56958321Y-49000656D01*
X55924451Y-49395110D01*
X54871332Y-49917819D01*
X53884175Y-50538736D01*
X52967907Y-51253986D01*
X52127454Y-52059694D01*
X51367744Y-52951986D01*
X50693704Y-53926987D01*
X50308150Y-54598304D01*
X49817564Y-55648342D01*
X49436203Y-56737482D01*
X49165146Y-57856964D01*
X49005471Y-58998025D01*
X48958258Y-60151904D01*
X47542007Y-60151904D01*
X47541167Y-60064887D01*
X47551574Y-59472543D01*
X47577851Y-58904183D01*
X47619799Y-58389552D01*
X47677219Y-57958392D01*
X47696825Y-57846822D01*
X47977757Y-56614658D01*
X48366464Y-55430050D01*
X48858857Y-54298479D01*
X49450849Y-53225422D01*
X50138353Y-52216360D01*
X50917281Y-51276771D01*
X51783545Y-50412134D01*
X52733059Y-49627928D01*
X53761735Y-48929634D01*
X54865485Y-48322728D01*
X55676911Y-47956051D01*
X56686096Y-47590541D01*
X57729140Y-47314364D01*
X58837903Y-47117855D01*
X59100306Y-47087817D01*
X59602199Y-47053711D01*
X60169632Y-47037414D01*
X60771802Y-47038297D01*
X61377908Y-47055731D01*
X61957147Y-47089086D01*
X62478719Y-47137735D01*
X62911820Y-47201047D01*
X63335524Y-47286969D01*
X64545547Y-47613321D01*
X65711582Y-48049774D01*
X66828293Y-48593190D01*
X67890340Y-49240436D01*
X68892388Y-49988374D01*
X69829097Y-50833870D01*
X70695131Y-51773786D01*
X71096353Y-52285989D01*
X71639102Y-53096081D01*
X72138608Y-53980220D01*
X72581748Y-54912464D01*
X72724207Y-55276344D01*
X72955398Y-55866870D01*
G37*
D12*
G04 #@! TO.C,JP1*
X206500000Y-70100000D02*
X206500000Y-67300000D01*
X207200000Y-66650000D02*
X207800000Y-66650000D01*
X207800000Y-70750000D02*
X207200000Y-70750000D01*
X208500000Y-67300000D02*
X208500000Y-70100000D01*
X209000000Y-67200000D02*
X208700000Y-67500000D01*
X209000000Y-67800000D02*
X208700000Y-67500000D01*
X209000000Y-67800000D02*
X209000000Y-67200000D01*
X206500000Y-67350000D02*
G75*
G02*
X207200000Y-66650000I699999J1D01*
G01*
X207200000Y-70750000D02*
G75*
G02*
X206500000Y-70050000I0J700000D01*
G01*
X207800000Y-66650000D02*
G75*
G02*
X208500000Y-67350000I1J-699999D01*
G01*
X208500000Y-70050000D02*
G75*
G02*
X207800000Y-70750000I-700000J0D01*
G01*
D14*
G04 #@! TO.C,J4*
X63525000Y-174575000D02*
X63525000Y-176500000D01*
X65400000Y-184425000D02*
X98775000Y-184425000D01*
X98775000Y-174575000D02*
X63525000Y-174575000D01*
X98775000Y-184425000D02*
X98775000Y-174575000D01*
D13*
G04 #@! TO.C,G\u002A\u002A\u002A*
G36*
X123590000Y-35890000D02*
G01*
X123590000Y-36070000D01*
X122930000Y-36070000D01*
X122270000Y-36070000D01*
X122270000Y-35890000D01*
X122270000Y-35710000D01*
X122930000Y-35710000D01*
X123590000Y-35710000D01*
X123590000Y-35890000D01*
G37*
G36*
X123110000Y-37230000D02*
G01*
X123110000Y-37950000D01*
X122910000Y-37950000D01*
X122710000Y-37950000D01*
X122710000Y-37230000D01*
X122710000Y-36510000D01*
X122910000Y-36510000D01*
X123110000Y-36510000D01*
X123110000Y-37230000D01*
G37*
G36*
X126700000Y-35719032D02*
G01*
X127370000Y-35730000D01*
X127382300Y-35900000D01*
X127394600Y-36070000D01*
X126712300Y-36070000D01*
X126030000Y-36070000D01*
X126030000Y-35889032D01*
X126030000Y-35708065D01*
X126700000Y-35719032D01*
G37*
G36*
X126910000Y-37230000D02*
G01*
X126910000Y-37950000D01*
X126710000Y-37950000D01*
X126510000Y-37950000D01*
X126510000Y-37230000D01*
X126510000Y-36510000D01*
X126710000Y-36510000D01*
X126910000Y-36510000D01*
X126910000Y-37230000D01*
G37*
G36*
X131150000Y-37750000D02*
G01*
X131150000Y-37950000D01*
X130530000Y-37950000D01*
X129910000Y-37950000D01*
X129910000Y-37750000D01*
X129910000Y-37550000D01*
X130530000Y-37550000D01*
X131150000Y-37550000D01*
X131150000Y-37750000D01*
G37*
G36*
X131150000Y-36410000D02*
G01*
X131150000Y-37114180D01*
X130940000Y-37102090D01*
X130730000Y-37090000D01*
X130730000Y-36410000D01*
X130730000Y-35730000D01*
X130940000Y-35717909D01*
X131150000Y-35705819D01*
X131150000Y-36410000D01*
G37*
G36*
X117710000Y-35110000D02*
G01*
X117710000Y-35310000D01*
X116210000Y-35310000D01*
X114710000Y-35310000D01*
X114710000Y-36810000D01*
X114710000Y-38310000D01*
X114530000Y-38310000D01*
X114350000Y-38310000D01*
X114350000Y-36610000D01*
X114350000Y-34910000D01*
X116030000Y-34910000D01*
X117710000Y-34910000D01*
X117710000Y-35110000D01*
G37*
G36*
X132110000Y-37170000D02*
G01*
X132110000Y-38870000D01*
X130430000Y-38870000D01*
X128750000Y-38870000D01*
X128750000Y-38670000D01*
X128750000Y-38470000D01*
X130250000Y-38470000D01*
X131750000Y-38470000D01*
X131750000Y-36970000D01*
X131750000Y-35470000D01*
X131930000Y-35470000D01*
X132110000Y-35470000D01*
X132110000Y-37170000D01*
G37*
G36*
X118160000Y-35718838D02*
G01*
X118690000Y-35730000D01*
X118700683Y-36789373D01*
X118702757Y-37060039D01*
X118703406Y-37321424D01*
X118702562Y-37547127D01*
X118700311Y-37726072D01*
X118696741Y-37847180D01*
X118691938Y-37899373D01*
X118688017Y-37905749D01*
X118643008Y-37926338D01*
X118544380Y-37940030D01*
X118383380Y-37947644D01*
X118151256Y-37950000D01*
X117630000Y-37950000D01*
X117630000Y-37750000D01*
X117630000Y-37550000D01*
X117950000Y-37550000D01*
X118270000Y-37550000D01*
X118270000Y-37291310D01*
X118270000Y-37032620D01*
X117820000Y-37021310D01*
X117370000Y-37010000D01*
X117370000Y-36830000D01*
X117370000Y-36650000D01*
X117820000Y-36638689D01*
X118270000Y-36627379D01*
X118270000Y-36368689D01*
X118270000Y-36110000D01*
X117950000Y-36110000D01*
X117630000Y-36110000D01*
X117630000Y-35908838D01*
X117630000Y-35707677D01*
X118160000Y-35718838D01*
G37*
G36*
X128686610Y-35766294D02*
G01*
X128726940Y-35859810D01*
X128787485Y-36007811D01*
X128863722Y-36198587D01*
X128951132Y-36420428D01*
X129045191Y-36661624D01*
X129141379Y-36910465D01*
X129235174Y-37155240D01*
X129322054Y-37384240D01*
X129397498Y-37585755D01*
X129456985Y-37748074D01*
X129495993Y-37859487D01*
X129510000Y-37908285D01*
X129505663Y-37920120D01*
X129442185Y-37941611D01*
X129305328Y-37942090D01*
X129100656Y-37930000D01*
X128895328Y-37342772D01*
X128854460Y-37226766D01*
X128786189Y-37037067D01*
X128728676Y-36882406D01*
X128687003Y-36776322D01*
X128666251Y-36732356D01*
X128654666Y-36743931D01*
X128619184Y-36816616D01*
X128566023Y-36944774D01*
X128500079Y-37116424D01*
X128426251Y-37319583D01*
X128210000Y-37930000D01*
X127994850Y-37942268D01*
X127909940Y-37946223D01*
X127828183Y-37943026D01*
X127799248Y-37923462D01*
X127806627Y-37882268D01*
X127899544Y-37634832D01*
X128017938Y-37324477D01*
X128136503Y-37018501D01*
X128251681Y-36725709D01*
X128359915Y-36454910D01*
X128457647Y-36214909D01*
X128541319Y-36014512D01*
X128607374Y-35862528D01*
X128652255Y-35767761D01*
X128672405Y-35739019D01*
X128686610Y-35766294D01*
G37*
G36*
X116867822Y-35713015D02*
G01*
X116954973Y-35725446D01*
X116983334Y-35744224D01*
X116981620Y-35748652D01*
X116957898Y-35810228D01*
X116910090Y-35934449D01*
X116841914Y-36111653D01*
X116757086Y-36332181D01*
X116659321Y-36586370D01*
X116552337Y-36864561D01*
X116522036Y-36943085D01*
X116416982Y-37210994D01*
X116321167Y-37448838D01*
X116238377Y-37647656D01*
X116172401Y-37798486D01*
X116127028Y-37892367D01*
X116106045Y-37920336D01*
X116085932Y-37879047D01*
X116042164Y-37775595D01*
X115980067Y-37623282D01*
X115904777Y-37435226D01*
X115821434Y-37224545D01*
X115735177Y-37004359D01*
X115651144Y-36787787D01*
X115574473Y-36587945D01*
X115510304Y-36417955D01*
X115463775Y-36290933D01*
X115440023Y-36220000D01*
X115436559Y-36204339D01*
X115446835Y-36169766D01*
X115502815Y-36153845D01*
X115621552Y-36150000D01*
X115822435Y-36150000D01*
X115946218Y-36492090D01*
X115972887Y-36566688D01*
X116022676Y-36711544D01*
X116057129Y-36819735D01*
X116070000Y-36872090D01*
X116070692Y-36879678D01*
X116104106Y-36910000D01*
X116116601Y-36895665D01*
X116154426Y-36819007D01*
X116209649Y-36687361D01*
X116277029Y-36513451D01*
X116351323Y-36310000D01*
X116564435Y-35710000D01*
X116780551Y-35710000D01*
X116867822Y-35713015D01*
G37*
G36*
X121010732Y-35757398D02*
G01*
X121011509Y-35758443D01*
X121033766Y-35807247D01*
X121080523Y-35919884D01*
X121147876Y-36086620D01*
X121231922Y-36297718D01*
X121328756Y-36543445D01*
X121434473Y-36814064D01*
X121444472Y-36839766D01*
X121549805Y-37110409D01*
X121645821Y-37356927D01*
X121728585Y-37569233D01*
X121794162Y-37737238D01*
X121838619Y-37850857D01*
X121858021Y-37900000D01*
X121852380Y-37926426D01*
X121790312Y-37944515D01*
X121658665Y-37950000D01*
X121438770Y-37950000D01*
X121224385Y-37330223D01*
X121172843Y-37182873D01*
X121105231Y-36994968D01*
X121049057Y-36845195D01*
X121009066Y-36746100D01*
X120990000Y-36710229D01*
X120979036Y-36728067D01*
X120944759Y-36809412D01*
X120892847Y-36945203D01*
X120828048Y-37122910D01*
X120755109Y-37330005D01*
X120540218Y-37950000D01*
X120320830Y-37950000D01*
X120207165Y-37946299D01*
X120133608Y-37930498D01*
X120121679Y-37900000D01*
X120122373Y-37898273D01*
X120144438Y-37842256D01*
X120191267Y-37722795D01*
X120258923Y-37549955D01*
X120343466Y-37333804D01*
X120440958Y-37084407D01*
X120547459Y-36811833D01*
X120560389Y-36778748D01*
X120665651Y-36510508D01*
X120761399Y-36268409D01*
X120843745Y-36062138D01*
X120908803Y-35901382D01*
X120952684Y-35795829D01*
X120971500Y-35755166D01*
X120971634Y-35755034D01*
X121010732Y-35757398D01*
G37*
G36*
X124390000Y-36511818D02*
G01*
X124390083Y-36697978D01*
X124391092Y-36924369D01*
X124394257Y-37089882D01*
X124400810Y-37206084D01*
X124411982Y-37284545D01*
X124429005Y-37336833D01*
X124453111Y-37374518D01*
X124485531Y-37409167D01*
X124499770Y-37422632D01*
X124648560Y-37508587D01*
X124823979Y-37539617D01*
X124992260Y-37509064D01*
X125048497Y-37483756D01*
X125119290Y-37437910D01*
X125168959Y-37374804D01*
X125201185Y-37281900D01*
X125219647Y-37146658D01*
X125228025Y-36956541D01*
X125230000Y-36699009D01*
X125230000Y-36105819D01*
X125440000Y-36117909D01*
X125650000Y-36130000D01*
X125650000Y-36750000D01*
X125649186Y-36967222D01*
X125645333Y-37152258D01*
X125636822Y-37285712D01*
X125622044Y-37382699D01*
X125599391Y-37458334D01*
X125567256Y-37527732D01*
X125478333Y-37664000D01*
X125331865Y-37793873D01*
X125127688Y-37892752D01*
X125046877Y-37917831D01*
X124816449Y-37943743D01*
X124585511Y-37912508D01*
X124372484Y-37830327D01*
X124195787Y-37703403D01*
X124073842Y-37537936D01*
X124070215Y-37530386D01*
X124042650Y-37466041D01*
X124022199Y-37396687D01*
X124007815Y-37309827D01*
X123998450Y-37192964D01*
X123993058Y-37033598D01*
X123990590Y-36819233D01*
X123990000Y-36537371D01*
X123990000Y-35710000D01*
X124190000Y-35710000D01*
X124390000Y-35710000D01*
X124390000Y-36511818D01*
G37*
G04 #@! TD*
%LPC*%
D15*
G04 #@! TO.C,J6*
X72510000Y-33484000D03*
X64890000Y-33484000D03*
D16*
X71240000Y-42494000D03*
X68700000Y-42494000D03*
G04 #@! TD*
D15*
G04 #@! TO.C,J5*
X168516000Y-179410000D03*
X168516000Y-171790000D03*
D16*
X159506000Y-178140000D03*
X159506000Y-175600000D03*
G04 #@! TD*
D17*
G04 #@! TO.C,H1*
X52800000Y-165000000D03*
G04 #@! TD*
G04 #@! TO.C,H3*
X114600000Y-193700000D03*
G04 #@! TD*
D18*
G04 #@! TO.C,H8*
X214500000Y-124200000D03*
G04 #@! TD*
D19*
G04 #@! TO.C,J3*
X149800000Y-176720000D03*
D20*
X147260000Y-176720000D03*
X149800000Y-174180000D03*
X147260000Y-174180000D03*
X149800000Y-171640000D03*
X147260000Y-171640000D03*
X149800000Y-169100000D03*
X147260000Y-169100000D03*
X149800000Y-166560000D03*
X147260000Y-166560000D03*
X149800000Y-164020000D03*
X147260000Y-164020000D03*
X149800000Y-161480000D03*
X147260000Y-161480000D03*
X149800000Y-158940000D03*
X147260000Y-158940000D03*
X149800000Y-156400000D03*
X147260000Y-156400000D03*
X149800000Y-153860000D03*
X147260000Y-153860000D03*
X149800000Y-151320000D03*
X147260000Y-151320000D03*
X149800000Y-148780000D03*
X147260000Y-148780000D03*
G04 #@! TD*
D17*
G04 #@! TO.C,H2*
X110500000Y-164600000D03*
G04 #@! TD*
D21*
G04 #@! TO.C,IC9*
X232105000Y-125037500D03*
D22*
X230835000Y-125037500D03*
X229565000Y-125037500D03*
X228295000Y-125037500D03*
G04 #@! TD*
D18*
G04 #@! TO.C,H4*
X52000000Y-30800000D03*
G04 #@! TD*
D23*
G04 #@! TO.C,J1*
X153700000Y-60480000D03*
D24*
X153700000Y-57940000D03*
X153700000Y-55400000D03*
G04 #@! TD*
D25*
G04 #@! TO.C,J8*
X162860000Y-54425000D03*
D26*
X162860000Y-56965000D03*
D25*
X162860000Y-59505000D03*
X166035000Y-54425000D03*
X166035000Y-59505000D03*
D26*
X167940000Y-55949000D03*
X167940000Y-57981000D03*
G04 #@! TD*
D23*
G04 #@! TO.C,J9*
X157700000Y-160625000D03*
D24*
X157700000Y-163165000D03*
G04 #@! TD*
D21*
G04 #@! TO.C,IC8*
X232140000Y-82000000D03*
D22*
X230870000Y-82000000D03*
X229600000Y-82000000D03*
X228330000Y-82000000D03*
G04 #@! TD*
D18*
G04 #@! TO.C,H9*
X173000000Y-124300000D03*
G04 #@! TD*
G04 #@! TO.C,H5*
X152000000Y-29300000D03*
G04 #@! TD*
G04 #@! TO.C,H6*
X172000000Y-190300000D03*
G04 #@! TD*
D23*
G04 #@! TO.C,J2*
X207300000Y-55750000D03*
D24*
X207300000Y-53210000D03*
X207300000Y-50670000D03*
X207300000Y-48130000D03*
X207300000Y-45590000D03*
X207300000Y-43050000D03*
G04 #@! TD*
D15*
G04 #@! TO.C,J7*
X168442196Y-148480000D03*
X168492196Y-138320000D03*
D16*
X159502196Y-149740000D03*
X159502196Y-147200000D03*
X159502196Y-144660000D03*
X159502196Y-142120000D03*
X159502196Y-139580000D03*
X159502196Y-137040000D03*
G04 #@! TD*
D18*
G04 #@! TO.C,H7*
X220000000Y-30500000D03*
G04 #@! TD*
D27*
G04 #@! TO.C,JP2*
X203000000Y-67500000D03*
D28*
X203000000Y-68800000D03*
D29*
X203000000Y-70100000D03*
G04 #@! TD*
D27*
G04 #@! TO.C,JP1*
X207500000Y-67400000D03*
D28*
X207500000Y-68700000D03*
D29*
X207500000Y-70000000D03*
G04 #@! TD*
D30*
G04 #@! TO.C,J4*
X58600000Y-179400000D03*
X103900000Y-179500000D03*
D31*
X114700000Y-179400000D03*
D32*
X65400000Y-182500000D03*
D33*
X68900000Y-182500000D03*
X72400000Y-182500000D03*
X75900000Y-182500000D03*
X79400000Y-182500000D03*
X82900000Y-182500000D03*
X86400000Y-182500000D03*
X89900000Y-182500000D03*
X93400000Y-182500000D03*
X96900000Y-182500000D03*
X65400000Y-176500000D03*
X68900000Y-176500000D03*
X72400000Y-176500000D03*
X75900000Y-176500000D03*
X79400000Y-176500000D03*
X82900000Y-176500000D03*
X86400000Y-176500000D03*
X89900000Y-176500000D03*
X93400000Y-176500000D03*
X96900000Y-176500000D03*
G04 #@! TD*
%LPD*%
M02*
