G04 #@! TF.GenerationSoftware,KiCad,Pcbnew,8.0.3*
G04 #@! TF.CreationDate,2024-08-06T18:59:45+01:00*
G04 #@! TF.ProjectId,Tesla Small Drive,5465736c-6120-4536-9d61-6c6c20447269,rev?*
G04 #@! TF.SameCoordinates,Original*
G04 #@! TF.FileFunction,Copper,L4,Bot*
G04 #@! TF.FilePolarity,Positive*
%FSLAX46Y46*%
G04 Gerber Fmt 4.6, Leading zero omitted, Abs format (unit mm)*
G04 Created by KiCad (PCBNEW 8.0.3) date 2024-08-06 18:59:45*
%MOMM*%
%LPD*%
G01*
G04 APERTURE LIST*
G04 Aperture macros list*
%AMFreePoly0*
4,1,19,0.550000,-0.750000,0.000000,-0.750000,0.000000,-0.744911,-0.071157,-0.744911,-0.207708,-0.704816,-0.327430,-0.627875,-0.420627,-0.520320,-0.479746,-0.390866,-0.500000,-0.250000,-0.500000,0.250000,-0.479746,0.390866,-0.420627,0.520320,-0.327430,0.627875,-0.207708,0.704816,-0.071157,0.744911,0.000000,0.744911,0.000000,0.750000,0.550000,0.750000,0.550000,-0.750000,0.550000,-0.750000,
$1*%
%AMFreePoly1*
4,1,19,0.000000,0.744911,0.071157,0.744911,0.207708,0.704816,0.327430,0.627875,0.420627,0.520320,0.479746,0.390866,0.500000,0.250000,0.500000,-0.250000,0.479746,-0.390866,0.420627,-0.520320,0.327430,-0.627875,0.207708,-0.704816,0.071157,-0.744911,0.000000,-0.744911,0.000000,-0.750000,-0.550000,-0.750000,-0.550000,0.750000,0.000000,0.750000,0.000000,0.744911,0.000000,0.744911,
$1*%
G04 Aperture macros list end*
G04 #@! TA.AperFunction,EtchedComponent*
%ADD10C,0.000000*%
G04 #@! TD*
G04 #@! TA.AperFunction,ComponentPad*
%ADD11C,1.524000*%
G04 #@! TD*
G04 #@! TA.AperFunction,ComponentPad*
%ADD12C,13.000000*%
G04 #@! TD*
G04 #@! TA.AperFunction,ComponentPad*
%ADD13C,8.000000*%
G04 #@! TD*
G04 #@! TA.AperFunction,ComponentPad*
%ADD14R,1.200000X1.200000*%
G04 #@! TD*
G04 #@! TA.AperFunction,ComponentPad*
%ADD15C,1.200000*%
G04 #@! TD*
G04 #@! TA.AperFunction,ComponentPad*
%ADD16R,1.000000X1.000000*%
G04 #@! TD*
G04 #@! TA.AperFunction,ComponentPad*
%ADD17C,1.000000*%
G04 #@! TD*
G04 #@! TA.AperFunction,ComponentPad*
%ADD18R,1.700000X1.700000*%
G04 #@! TD*
G04 #@! TA.AperFunction,ComponentPad*
%ADD19O,1.700000X1.700000*%
G04 #@! TD*
G04 #@! TA.AperFunction,HeatsinkPad*
%ADD20C,0.600000*%
G04 #@! TD*
G04 #@! TA.AperFunction,SMDPad,CuDef*
%ADD21FreePoly0,270.000000*%
G04 #@! TD*
G04 #@! TA.AperFunction,SMDPad,CuDef*
%ADD22R,1.500000X1.000000*%
G04 #@! TD*
G04 #@! TA.AperFunction,SMDPad,CuDef*
%ADD23FreePoly1,270.000000*%
G04 #@! TD*
G04 #@! TA.AperFunction,ComponentPad*
%ADD24R,2.100000X2.100000*%
G04 #@! TD*
G04 #@! TA.AperFunction,ComponentPad*
%ADD25C,2.100000*%
G04 #@! TD*
G04 #@! TA.AperFunction,ViaPad*
%ADD26C,0.650000*%
G04 #@! TD*
G04 #@! TA.AperFunction,ViaPad*
%ADD27C,1.200000*%
G04 #@! TD*
G04 #@! TA.AperFunction,ViaPad*
%ADD28C,0.700000*%
G04 #@! TD*
G04 #@! TA.AperFunction,ViaPad*
%ADD29C,0.900000*%
G04 #@! TD*
G04 #@! TA.AperFunction,ViaPad*
%ADD30C,0.800000*%
G04 #@! TD*
G04 #@! TA.AperFunction,Conductor*
%ADD31C,2.000000*%
G04 #@! TD*
G04 #@! TA.AperFunction,Conductor*
%ADD32C,1.000000*%
G04 #@! TD*
G04 #@! TA.AperFunction,Conductor*
%ADD33C,0.300000*%
G04 #@! TD*
G04 #@! TA.AperFunction,Conductor*
%ADD34C,0.400000*%
G04 #@! TD*
G04 #@! TA.AperFunction,Conductor*
%ADD35C,0.500000*%
G04 #@! TD*
G04 APERTURE END LIST*
D10*
G04 #@! TA.AperFunction,EtchedComponent*
G04 #@! TO.C,JP2*
G36*
X203300000Y-68400000D02*
G01*
X202700000Y-68400000D01*
X202700000Y-67900000D01*
X203300000Y-67900000D01*
X203300000Y-68400000D01*
G37*
G04 #@! TD.AperFunction*
G04 #@! TA.AperFunction,EtchedComponent*
G04 #@! TO.C,JP1*
G36*
X207800000Y-68300000D02*
G01*
X207200000Y-68300000D01*
X207200000Y-67800000D01*
X207800000Y-67800000D01*
X207800000Y-68300000D01*
G37*
G04 #@! TD.AperFunction*
G04 #@! TD*
D11*
G04 #@! TO.P,J6,1,Pin_1*
G04 #@! TO.N,/TEMP_FLUID*
X71240000Y-42494000D03*
G04 #@! TO.P,J6,2,Pin_2*
G04 #@! TO.N,GND*
X68700000Y-42494000D03*
G04 #@! TD*
G04 #@! TO.P,J5,1,Pin_1*
G04 #@! TO.N,+5V*
X159506000Y-178140000D03*
G04 #@! TO.P,J5,2,Pin_2*
G04 #@! TO.N,/HVIL_EXT*
X159506000Y-175600000D03*
G04 #@! TD*
D12*
G04 #@! TO.P,H1,1,1*
G04 #@! TO.N,GND*
X52800000Y-165000000D03*
G04 #@! TD*
G04 #@! TO.P,H3,1,1*
G04 #@! TO.N,GND*
X114600000Y-193700000D03*
G04 #@! TD*
D13*
G04 #@! TO.P,H8,1,1*
G04 #@! TO.N,GND*
X214500000Y-124200000D03*
G04 #@! TD*
D14*
G04 #@! TO.P,J3,1,Pin_1*
G04 #@! TO.N,/UDC_HI*
X149800000Y-176720000D03*
D15*
G04 #@! TO.P,J3,2,Pin_2*
G04 #@! TO.N,/TEMP_CASE*
X147260000Y-176720000D03*
G04 #@! TO.P,J3,3,Pin_3*
G04 #@! TO.N,/TEMP_A*
X149800000Y-174180000D03*
G04 #@! TO.P,J3,4,Pin_4*
G04 #@! TO.N,/TEMP_B*
X147260000Y-174180000D03*
G04 #@! TO.P,J3,5,Pin_5*
G04 #@! TO.N,/TEMP_C*
X149800000Y-171640000D03*
G04 #@! TO.P,J3,6,Pin_6*
G04 #@! TO.N,+12V*
X147260000Y-171640000D03*
G04 #@! TO.P,J3,7,Pin_7*
G04 #@! TO.N,+5V*
X149800000Y-169100000D03*
G04 #@! TO.P,J3,8,Pin_8*
G04 #@! TO.N,/DC_DISCH*
X147260000Y-169100000D03*
G04 #@! TO.P,J3,9,Pin_9*
G04 #@! TO.N,+5V*
X149800000Y-166560000D03*
G04 #@! TO.P,J3,10,Pin_10*
G04 #@! TO.N,+12V*
X147260000Y-166560000D03*
G04 #@! TO.P,J3,11,Pin_11*
G04 #@! TO.N,GND*
X149800000Y-164020000D03*
G04 #@! TO.P,J3,12,Pin_12*
G04 #@! TO.N,+5V*
X147260000Y-164020000D03*
G04 #@! TO.P,J3,13,Pin_13*
G04 #@! TO.N,/DRIVER_UVLO*
X149800000Y-161480000D03*
G04 #@! TO.P,J3,14,Pin_14*
G04 #@! TO.N,/DRV_RES*
X147260000Y-161480000D03*
G04 #@! TO.P,J3,15,Pin_15*
G04 #@! TO.N,/FAULTA*
X149800000Y-158940000D03*
G04 #@! TO.P,J3,16,Pin_16*
G04 #@! TO.N,/HI_DRVA*
X147260000Y-158940000D03*
G04 #@! TO.P,J3,17,Pin_17*
G04 #@! TO.N,/LOW_DRVA*
X149800000Y-156400000D03*
G04 #@! TO.P,J3,18,Pin_18*
G04 #@! TO.N,/FAULTB*
X147260000Y-156400000D03*
G04 #@! TO.P,J3,19,Pin_19*
G04 #@! TO.N,/HI_DRVB*
X149800000Y-153860000D03*
G04 #@! TO.P,J3,20,Pin_20*
G04 #@! TO.N,/LOW_DRVB*
X147260000Y-153860000D03*
G04 #@! TO.P,J3,21,Pin_21*
G04 #@! TO.N,/FAULTC*
X149800000Y-151320000D03*
G04 #@! TO.P,J3,22,Pin_22*
G04 #@! TO.N,/HI_DRVC*
X147260000Y-151320000D03*
G04 #@! TO.P,J3,23,Pin_23*
G04 #@! TO.N,/LOW_DRVC*
X149800000Y-148780000D03*
G04 #@! TO.P,J3,24,Pin_24*
G04 #@! TO.N,GND*
X147260000Y-148780000D03*
G04 #@! TD*
D12*
G04 #@! TO.P,H2,1,1*
G04 #@! TO.N,GND*
X110500000Y-164600000D03*
G04 #@! TD*
D16*
G04 #@! TO.P,IC9,1,VDD*
G04 #@! TO.N,+5V*
X232105000Y-125037500D03*
D17*
G04 #@! TO.P,IC9,2,OUT*
G04 #@! TO.N,/IL2_IN*
X230835000Y-125037500D03*
G04 #@! TO.P,IC9,3,TEST/MUST*
G04 #@! TO.N,Net-(IC9-TEST{slash}MUST)*
X229565000Y-125037500D03*
G04 #@! TO.P,IC9,4,VSS*
G04 #@! TO.N,GND*
X228295000Y-125037500D03*
G04 #@! TD*
D13*
G04 #@! TO.P,H4,1,1*
G04 #@! TO.N,GND*
X52000000Y-30800000D03*
G04 #@! TD*
D18*
G04 #@! TO.P,J1,1,Pin_1*
G04 #@! TO.N,/Motor control CPU/SWDAT_46*
X153700000Y-60480000D03*
D19*
G04 #@! TO.P,J1,2,Pin_2*
G04 #@! TO.N,/Motor control CPU/SWCLK_49*
X153700000Y-57940000D03*
G04 #@! TO.P,J1,3,Pin_3*
G04 #@! TO.N,GND*
X153700000Y-55400000D03*
G04 #@! TD*
D18*
G04 #@! TO.P,J9,1,Pin_1*
G04 #@! TO.N,/HVIL_EXT*
X157700000Y-160625000D03*
D19*
G04 #@! TO.P,J9,2,Pin_2*
G04 #@! TO.N,+5V*
X157700000Y-163165000D03*
G04 #@! TD*
D20*
G04 #@! TO.P,U4,39,GND*
G04 #@! TO.N,GND*
X185950000Y-47510000D03*
X185950000Y-48910000D03*
X186650000Y-46810000D03*
X186650000Y-48210000D03*
X186650000Y-49610000D03*
X187325000Y-47510000D03*
X187325000Y-48910000D03*
X188050000Y-46810000D03*
X188050000Y-48210000D03*
X188050000Y-49610000D03*
X188750000Y-47510000D03*
X188750000Y-48910000D03*
G04 #@! TD*
D16*
G04 #@! TO.P,IC8,1,VDD*
G04 #@! TO.N,+5V*
X232140000Y-82000000D03*
D17*
G04 #@! TO.P,IC8,2,OUT*
G04 #@! TO.N,/IL1_IN*
X230870000Y-82000000D03*
G04 #@! TO.P,IC8,3,TEST/MUST*
G04 #@! TO.N,Net-(IC8-TEST{slash}MUST)*
X229600000Y-82000000D03*
G04 #@! TO.P,IC8,4,VSS*
G04 #@! TO.N,GND*
X228330000Y-82000000D03*
G04 #@! TD*
D13*
G04 #@! TO.P,H9,1,1*
G04 #@! TO.N,GND*
X173000000Y-124300000D03*
G04 #@! TD*
G04 #@! TO.P,H5,1,1*
G04 #@! TO.N,GND*
X152000000Y-29300000D03*
G04 #@! TD*
G04 #@! TO.P,H6,1,1*
G04 #@! TO.N,GND*
X172000000Y-190300000D03*
G04 #@! TD*
D18*
G04 #@! TO.P,J2,1,Pin_1*
G04 #@! TO.N,/ESP WiFi/IO0*
X207300000Y-55750000D03*
D19*
G04 #@! TO.P,J2,2,Pin_2*
G04 #@! TO.N,GND*
X207300000Y-53210000D03*
G04 #@! TO.P,J2,3,Pin_3*
X207300000Y-50670000D03*
G04 #@! TO.P,J2,4,Pin_4*
G04 #@! TO.N,+5V*
X207300000Y-48130000D03*
G04 #@! TO.P,J2,5,Pin_5*
G04 #@! TO.N,/ESP WiFi/TX*
X207300000Y-45590000D03*
G04 #@! TO.P,J2,6,Pin_6*
G04 #@! TO.N,/ESP WiFi/RX*
X207300000Y-43050000D03*
G04 #@! TD*
D11*
G04 #@! TO.P,J7,1,Pin_1*
G04 #@! TO.N,+5V*
X159502196Y-149740000D03*
G04 #@! TO.P,J7,2,Pin_2*
G04 #@! TO.N,/ENCA_IN*
X159502196Y-147200000D03*
G04 #@! TO.P,J7,3,Pin_3*
G04 #@! TO.N,/ENCB_IN*
X159502196Y-144660000D03*
G04 #@! TO.P,J7,4,Pin_4*
G04 #@! TO.N,GND*
X159502196Y-142120000D03*
G04 #@! TO.P,J7,5,Pin_5*
G04 #@! TO.N,/TEMP_STATOR*
X159502196Y-139580000D03*
G04 #@! TO.P,J7,6,Pin_6*
G04 #@! TO.N,GND*
X159502196Y-137040000D03*
G04 #@! TD*
D13*
G04 #@! TO.P,H7,1,1*
G04 #@! TO.N,GND*
X220000000Y-30500000D03*
G04 #@! TD*
D21*
G04 #@! TO.P,JP2,1,A*
G04 #@! TO.N,/Motor control CPU/USART_RX_30*
X203000000Y-67500000D03*
D22*
G04 #@! TO.P,JP2,2,C*
G04 #@! TO.N,/ESP WiFi/TX*
X203000000Y-68800000D03*
D23*
G04 #@! TO.P,JP2,3,B*
G04 #@! TO.N,/RS232_TX*
X203000000Y-70100000D03*
G04 #@! TD*
D21*
G04 #@! TO.P,JP1,1,A*
G04 #@! TO.N,/Motor control CPU/USART_TX_29*
X207500000Y-67400000D03*
D22*
G04 #@! TO.P,JP1,2,C*
G04 #@! TO.N,/ESP WiFi/RX*
X207500000Y-68700000D03*
D23*
G04 #@! TO.P,JP1,3,B*
G04 #@! TO.N,/RS232_RX*
X207500000Y-70000000D03*
G04 #@! TD*
D24*
G04 #@! TO.P,J4,1,1*
G04 #@! TO.N,/CANL*
X65400000Y-182500000D03*
D25*
G04 #@! TO.P,J4,2,2*
G04 #@! TO.N,/CANH*
X68900000Y-182500000D03*
G04 #@! TO.P,J4,3,3*
G04 #@! TO.N,/MAIN_CON*
X72400000Y-182500000D03*
G04 #@! TO.P,J4,4,4*
G04 #@! TO.N,+5V*
X75900000Y-182500000D03*
G04 #@! TO.P,J4,5,5*
G04 #@! TO.N,/FORW_IN*
X79400000Y-182500000D03*
G04 #@! TO.P,J4,6,6*
G04 #@! TO.N,GND*
X82900000Y-182500000D03*
G04 #@! TO.P,J4,7,7*
X86400000Y-182500000D03*
G04 #@! TO.P,J4,8,8*
G04 #@! TO.N,/ACCEL*
X89900000Y-182500000D03*
G04 #@! TO.P,J4,9,9*
G04 #@! TO.N,/START*
X93400000Y-182500000D03*
G04 #@! TO.P,J4,10,10*
G04 #@! TO.N,/BRAKE_TRANS*
X96900000Y-182500000D03*
G04 #@! TO.P,J4,11,11*
G04 #@! TO.N,/PRECHG_RLY*
X65400000Y-176500000D03*
G04 #@! TO.P,J4,12,12*
G04 #@! TO.N,/REVER_IN*
X68900000Y-176500000D03*
G04 #@! TO.P,J4,13,13*
G04 #@! TO.N,+12VIN*
X72400000Y-176500000D03*
G04 #@! TO.P,J4,14,14*
G04 #@! TO.N,/RS232_RX*
X75900000Y-176500000D03*
G04 #@! TO.P,J4,15,15*
G04 #@! TO.N,/BRAKE_ON*
X79400000Y-176500000D03*
G04 #@! TO.P,J4,16,16*
G04 #@! TO.N,/RS232_TX*
X82900000Y-176500000D03*
G04 #@! TO.P,J4,17,17*
G04 #@! TO.N,/CRUISE_INPUT*
X86400000Y-176500000D03*
G04 #@! TO.P,J4,18,18*
G04 #@! TO.N,+5V*
X89900000Y-176500000D03*
G04 #@! TO.P,J4,19,19*
G04 #@! TO.N,GND*
X93400000Y-176500000D03*
G04 #@! TO.P,J4,20,20*
G04 #@! TO.N,unconnected-(J4-Pad20)*
X96900000Y-176500000D03*
G04 #@! TD*
D26*
G04 #@! TO.N,GND*
X130050000Y-138400000D03*
X97500000Y-160100000D03*
D27*
X76700000Y-65275350D03*
D28*
X139100000Y-143670000D03*
D26*
X130050000Y-134900000D03*
X169937653Y-88562347D03*
X121300000Y-75850000D03*
D29*
X74000000Y-98000000D03*
D26*
X169800012Y-97500000D03*
X138900000Y-55500000D03*
X120150000Y-142200000D03*
X121250000Y-67350000D03*
D28*
X185400000Y-101700000D03*
X133690000Y-143740000D03*
D26*
X125400000Y-139650000D03*
D28*
X169370000Y-56920000D03*
D26*
X131040000Y-167980000D03*
D28*
X172750000Y-68350000D03*
X172850000Y-46850000D03*
X203000000Y-104900000D03*
D26*
X130350000Y-90750000D03*
X95820000Y-154257500D03*
D29*
X71000000Y-98000000D03*
D26*
X90700000Y-160200000D03*
D28*
X220000000Y-99400000D03*
X151600000Y-88550000D03*
X122282500Y-157480000D03*
X129700000Y-68150000D03*
D26*
X169900000Y-87350000D03*
D28*
X128600000Y-65600000D03*
D26*
X79915000Y-163470000D03*
X147850000Y-66150006D03*
X117975000Y-137050000D03*
D29*
X50790000Y-99530000D03*
D26*
X92420000Y-154240000D03*
D28*
X183150000Y-59550000D03*
X202900000Y-100400000D03*
X214600000Y-106400000D03*
X139300000Y-149760000D03*
X224600000Y-99000000D03*
D29*
X71000000Y-96000000D03*
D28*
X226453334Y-114703314D03*
D26*
X134225000Y-82200000D03*
D28*
X210600000Y-104400000D03*
D29*
X50780000Y-95770000D03*
D26*
X83275000Y-163475000D03*
D29*
X72500000Y-98000000D03*
D28*
X139230000Y-153180000D03*
D26*
X81300000Y-76000000D03*
X133550000Y-141950000D03*
D29*
X56440000Y-104270000D03*
D28*
X229200000Y-88900000D03*
D29*
X57880000Y-104240000D03*
D28*
X199000000Y-40500000D03*
X227700000Y-88900000D03*
D26*
X128127298Y-75927298D03*
D28*
X232200000Y-88800000D03*
D26*
X120100000Y-139650000D03*
X137100000Y-59100000D03*
D28*
X151700000Y-93250000D03*
X228336667Y-114703306D03*
D26*
X142700000Y-90600026D03*
D28*
X129750000Y-162197500D03*
D26*
X120050000Y-137150000D03*
D28*
X135400000Y-64000000D03*
D26*
X130570000Y-131030000D03*
D28*
X151807500Y-95840000D03*
D29*
X61000000Y-126000000D03*
D28*
X134060000Y-150520000D03*
X122280004Y-155780000D03*
D26*
X84975000Y-163475000D03*
D29*
X80500000Y-126000000D03*
D26*
X130400000Y-74750000D03*
D28*
X151600000Y-91100000D03*
D29*
X72500000Y-96000000D03*
D26*
X78165000Y-163470000D03*
D29*
X74000000Y-96000000D03*
D28*
X172850000Y-48550000D03*
D26*
X120150000Y-140900000D03*
X114550000Y-133550000D03*
X133750000Y-90800000D03*
D28*
X166650000Y-68200000D03*
D26*
X89020000Y-154295000D03*
X94120000Y-154257500D03*
D28*
X195300000Y-101700000D03*
X232103334Y-114703334D03*
X185500000Y-103400000D03*
X178750000Y-40500000D03*
D26*
X97510000Y-154270000D03*
D28*
X153650000Y-97700000D03*
X172850000Y-43450000D03*
X174500000Y-67150000D03*
X139309992Y-159700000D03*
D26*
X142200000Y-82100000D03*
X90720000Y-154260000D03*
D27*
X76740000Y-69090000D03*
D26*
X135900000Y-90800010D03*
X114650000Y-138750000D03*
X169812347Y-86137653D03*
D27*
G04 #@! TO.N,+12V*
X77390000Y-112939998D03*
X77379998Y-109880000D03*
X77400000Y-111400000D03*
D26*
G04 #@! TO.N,+5V*
X135729998Y-163140000D03*
X114550000Y-131850000D03*
X114550000Y-135300000D03*
D29*
X55000000Y-92500000D03*
D26*
X114550000Y-140500000D03*
D28*
X185400000Y-100000000D03*
X213000000Y-106500000D03*
X127250000Y-161197500D03*
X214900000Y-103200000D03*
D26*
X127350000Y-132100000D03*
D28*
X127250000Y-159197500D03*
X127400000Y-156700000D03*
X127400000Y-155400000D03*
D26*
X133550000Y-136650000D03*
D28*
X189300000Y-101700000D03*
D26*
X157150000Y-86100000D03*
D28*
X232200000Y-85170000D03*
X192900000Y-101700000D03*
D29*
X54500000Y-91000000D03*
D28*
X160350000Y-97500000D03*
X224500000Y-100700000D03*
D26*
X132600000Y-132000000D03*
X133650000Y-140200000D03*
D28*
X232120000Y-122860000D03*
D29*
X57500000Y-97662522D03*
D28*
G04 #@! TO.N,+3V3*
X133800000Y-64000000D03*
X166750000Y-69800000D03*
X82750000Y-72500000D03*
D26*
X128000000Y-79300000D03*
D28*
X83750000Y-69500000D03*
D26*
X143800000Y-82100000D03*
D28*
X81750000Y-68500000D03*
X172850000Y-41750000D03*
X82750000Y-71500000D03*
X82750000Y-70500000D03*
D26*
X163500014Y-75300000D03*
D28*
X177745000Y-70905000D03*
X81750000Y-69500000D03*
X131225000Y-68250000D03*
X83750000Y-68500000D03*
D26*
X146250006Y-66150000D03*
D28*
X82750000Y-68500000D03*
X83750000Y-71500000D03*
D26*
X163349976Y-73750000D03*
D28*
X176350000Y-48600000D03*
X83750000Y-70500000D03*
D26*
X128100000Y-77600000D03*
D28*
X81750000Y-70500000D03*
D26*
X140700000Y-62400002D03*
X128650000Y-90800000D03*
D28*
X160620000Y-57880000D03*
X83750000Y-72500000D03*
X82750000Y-69500000D03*
X81750000Y-72500000D03*
D26*
X136900000Y-55500000D03*
X135775032Y-82174934D03*
D28*
X81750000Y-71500000D03*
D26*
G04 #@! TO.N,/Motor control CPU/NRST*
X162700000Y-62200000D03*
X131850000Y-63300000D03*
G04 #@! TO.N,/Motor control CPU/START_IN_58*
X94090000Y-158190000D03*
X137600000Y-70900000D03*
G04 #@! TO.N,/Motor control CPU/REV_IN_37*
X145350000Y-81310000D03*
D29*
X104510000Y-149490000D03*
D26*
G04 #@! TO.N,/Motor control CPU/CRUISE_IN_57*
X138500000Y-65800000D03*
X89000000Y-158970002D03*
G04 #@! TO.N,/Motor control CPU/ENC_A_22*
X129499992Y-145499992D03*
X137500000Y-77400004D03*
G04 #@! TO.N,/Motor control CPU/ENC_B_23*
X136500010Y-140599994D03*
X138600000Y-80300000D03*
G04 #@! TO.N,/Motor control CPU/UDC_11*
X130300000Y-87249988D03*
X134400000Y-74250000D03*
D28*
G04 #@! TO.N,/Motor control CPU/THROTTLE_9*
X92410000Y-159690000D03*
D29*
X98990000Y-158920000D03*
D26*
G04 #@! TO.N,Net-(IC2-D)*
X125800000Y-155780000D03*
X135510000Y-155230000D03*
G04 #@! TO.N,Net-(IC2-B)*
X125900000Y-157480000D03*
X135510000Y-157960000D03*
D28*
G04 #@! TO.N,/TEMP_A*
X115100000Y-146900000D03*
X118089990Y-133540000D03*
G04 #@! TO.N,/TEMP_FLUID*
X112390000Y-76040000D03*
X109860000Y-112600000D03*
X118940000Y-148150000D03*
X102210000Y-59910000D03*
G04 #@! TO.N,/TEMP_CASE*
X134920000Y-134930002D03*
X130970000Y-159020000D03*
X130970000Y-149690000D03*
D29*
X141350000Y-168360000D03*
D28*
X142830000Y-172950000D03*
D26*
G04 #@! TO.N,Net-(IC5-VINB-)*
X217950000Y-105450000D03*
X230203334Y-114653344D03*
D28*
G04 #@! TO.N,/IL2_26*
X193000000Y-106800000D03*
X207200000Y-104400000D03*
D26*
G04 #@! TO.N,/Motor control CPU/BRAKE_IN_16*
X100629999Y-151529999D03*
X130050000Y-82750000D03*
G04 #@! TO.N,/OCUR_IN_15*
X142467937Y-75999998D03*
X170600000Y-99300000D03*
X189500000Y-100500000D03*
X139510000Y-156670000D03*
X147189998Y-96190000D03*
D28*
G04 #@! TO.N,/PWM_INHIBIT_33*
X135230000Y-126090000D03*
X145620000Y-93930000D03*
X128620000Y-149650000D03*
X143490000Y-117860000D03*
D26*
G04 #@! TO.N,/PWM1_P_41*
X150150000Y-72800000D03*
X170000000Y-95000000D03*
D28*
G04 #@! TO.N,/PWM3_N_36*
X166200000Y-91650002D03*
D26*
X146950000Y-75250000D03*
G04 #@! TO.N,/PWM1_N_34*
X146900000Y-76950000D03*
X166700000Y-96000000D03*
G04 #@! TO.N,/LOW_DRVA*
X161700000Y-100600000D03*
D28*
G04 #@! TO.N,/LOW_DRVB*
X156200000Y-94150000D03*
D26*
G04 #@! TO.N,/HI_DRVA*
X162890000Y-94970000D03*
G04 #@! TO.N,/PWM2_P_42*
X169900000Y-92450000D03*
X151050000Y-71800000D03*
G04 #@! TO.N,/PWM3_P_43*
X149350000Y-71000000D03*
D28*
X170250000Y-89900000D03*
D26*
G04 #@! TO.N,/PWM2_N_35*
X166550000Y-93550000D03*
X147800000Y-76200000D03*
D28*
G04 #@! TO.N,/HI_DRVB*
X160600000Y-93200000D03*
G04 #@! TO.N,/LOW_DRVC*
X160400000Y-91165000D03*
G04 #@! TO.N,/HI_DRVC*
X157200000Y-89895000D03*
D26*
G04 #@! TO.N,/TMPHS_24*
X138550000Y-76650000D03*
X120050016Y-135850000D03*
D28*
G04 #@! TO.N,/CANH*
X68800000Y-169700000D03*
X100455001Y-78214999D03*
G04 #@! TO.N,/CANL*
X102760000Y-71210000D03*
D29*
G04 #@! TO.N,/UDC_HI*
X160400000Y-156300000D03*
D26*
G04 #@! TO.N,/FORW_IN*
X133799991Y-93099991D03*
D29*
X120600000Y-125900000D03*
D27*
G04 #@! TO.N,/MAIN_CON*
X75220000Y-156550000D03*
X75220000Y-152360000D03*
D26*
G04 #@! TO.N,/Motor control CPU/USART_TX_29*
X150400000Y-64250000D03*
X140200000Y-74200000D03*
X140575000Y-76445178D03*
G04 #@! TO.N,/Motor control CPU/USART_RX_30*
X141250000Y-72300000D03*
X141742937Y-77186683D03*
X150150000Y-65150000D03*
G04 #@! TO.N,Net-(U3-PB2)*
X139850000Y-76999998D03*
X142700000Y-87050000D03*
G04 #@! TO.N,/Motor control CPU/VTG_OUT_52*
X117500000Y-62400000D03*
X123540000Y-150220000D03*
X117500000Y-88150000D03*
D28*
X123600000Y-153800000D03*
X129840000Y-163940000D03*
D26*
X117490000Y-104510000D03*
G04 #@! TO.N,/OCURLIM_NEG_59*
X137508389Y-69708389D03*
X185400000Y-105100000D03*
G04 #@! TO.N,/OCURLIM_POS_61*
X203000000Y-102100000D03*
X136508115Y-68445414D03*
G04 #@! TO.N,/ESP WiFi/TX*
X205050000Y-68850000D03*
G04 #@! TO.N,/ERR_OUT_51*
X136400000Y-74350000D03*
X125350000Y-98900000D03*
D29*
G04 #@! TO.N,/PRECH_OUT_27*
X109620000Y-106320000D03*
D28*
X141050000Y-87950000D03*
D29*
X66100006Y-119900000D03*
D28*
X129100000Y-101250000D03*
D30*
X93300000Y-104300004D03*
D28*
X140165000Y-101200000D03*
D26*
G04 #@! TO.N,/BMS_IN_39*
X142800000Y-73750000D03*
X147700000Y-116500000D03*
D28*
X133670000Y-121110000D03*
D26*
X124300000Y-142200000D03*
G04 #@! TO.N,/ESP WiFi/RX*
X199100000Y-45550000D03*
G04 #@! TD*
D31*
G04 #@! TO.N,+12V*
X147260000Y-166560000D02*
X145250000Y-166560000D01*
X142930000Y-170870000D02*
X143930000Y-169870000D01*
X84800000Y-159490000D02*
X89210000Y-163900000D01*
X77390000Y-119130000D02*
X77390000Y-112939998D01*
X143930000Y-170450000D02*
X145120000Y-171640000D01*
X77379998Y-109880000D02*
X77390000Y-109890002D01*
X145250000Y-166560000D02*
X143930000Y-167880000D01*
X131220000Y-170870000D02*
X142930000Y-170870000D01*
X77390000Y-119130000D02*
X84800000Y-126540000D01*
X77390000Y-109890002D02*
X77390000Y-119130000D01*
X97700000Y-163900000D02*
X106410000Y-155190000D01*
X89210000Y-163900000D02*
X97700000Y-163900000D01*
X145120000Y-171640000D02*
X147260000Y-171640000D01*
D32*
X143930000Y-169870000D02*
X143930000Y-170450000D01*
D31*
X106410000Y-155190000D02*
X115540000Y-155190000D01*
X115540000Y-155190000D02*
X131220000Y-170870000D01*
X143930000Y-167880000D02*
X143930000Y-169870000D01*
X84800000Y-126540000D02*
X84800000Y-159490000D01*
D33*
G04 #@! TO.N,/Motor control CPU/NRST*
X150350000Y-63300000D02*
X161600000Y-63300000D01*
X161600000Y-63300000D02*
X162700000Y-62200000D01*
X131850000Y-63300000D02*
X150350000Y-63300000D01*
D34*
G04 #@! TO.N,/Motor control CPU/START_IN_58*
X129240000Y-81430000D02*
X129240000Y-77560000D01*
X95230000Y-158190000D02*
X96890000Y-156530000D01*
X99170000Y-155530000D02*
X99170000Y-149100000D01*
X105100000Y-105570000D02*
X129240000Y-81430000D01*
X96890000Y-156530000D02*
X98170000Y-156530000D01*
X129240000Y-77560000D02*
X135900000Y-70900000D01*
X105100000Y-143170000D02*
X105100000Y-105570000D01*
X98170000Y-156530000D02*
X99170000Y-155530000D01*
X99170000Y-149100000D02*
X105100000Y-143170000D01*
X94090000Y-158190000D02*
X95230000Y-158190000D01*
X135900000Y-70900000D02*
X137600000Y-70900000D01*
G04 #@! TO.N,/Motor control CPU/REV_IN_37*
X119850000Y-149490000D02*
X122100000Y-151740000D01*
X144005000Y-84035000D02*
X145260000Y-82780000D01*
X122100000Y-151740000D02*
X135910000Y-151740000D01*
X144005000Y-95725000D02*
X144005000Y-84035000D01*
X135910000Y-151740000D02*
X138340000Y-149310000D01*
X141030000Y-127590000D02*
X141030000Y-98700000D01*
X141030000Y-98700000D02*
X144005000Y-95725000D01*
X145260000Y-82780000D02*
X145260000Y-81400000D01*
X138340000Y-149310000D02*
X138340000Y-130280000D01*
X138340000Y-130280000D02*
X141030000Y-127590000D01*
X104510000Y-149490000D02*
X119850000Y-149490000D01*
X145260000Y-81400000D02*
X145350000Y-81310000D01*
G04 #@! TO.N,/Motor control CPU/CRUISE_IN_57*
X89670000Y-151540000D02*
X92180000Y-151540000D01*
X103000000Y-140720000D02*
X103000000Y-104640000D01*
X136800000Y-65800000D02*
X138500000Y-65800000D01*
X87700000Y-153510000D02*
X89670000Y-151540000D01*
X127000000Y-80640000D02*
X127000000Y-75600000D01*
X92180000Y-151540000D02*
X103000000Y-140720000D01*
X127000000Y-75600000D02*
X136800000Y-65800000D01*
X89000000Y-158970002D02*
X87700000Y-157670002D01*
X103000000Y-104640000D02*
X127000000Y-80640000D01*
X87700000Y-157670002D02*
X87700000Y-153510000D01*
G04 #@! TO.N,/Motor control CPU/ENC_A_22*
X128448008Y-129271992D02*
X136800000Y-120920000D01*
D33*
X137299999Y-77600005D02*
X137299999Y-82799999D01*
X137500000Y-77400004D02*
X137299999Y-77600005D01*
D34*
X129499992Y-145499992D02*
X128448008Y-144448008D01*
X136800000Y-120920000D02*
X136800000Y-83299998D01*
X128448008Y-144448008D02*
X128448008Y-129271992D01*
X136800000Y-83299998D02*
X137299999Y-82799999D01*
D33*
G04 #@! TO.N,/Motor control CPU/ENC_B_23*
X138600001Y-80300001D02*
X138600000Y-80300000D01*
D34*
X136500010Y-140599994D02*
X136500010Y-128499990D01*
D33*
X138600001Y-83099999D02*
X138600001Y-80300001D01*
D34*
X138600001Y-126399999D02*
X138600001Y-83099999D01*
X136500010Y-128499990D02*
X138600001Y-126399999D01*
G04 #@! TO.N,/Motor control CPU/UDC_11*
X131100000Y-77550000D02*
X131100000Y-86449988D01*
X131100000Y-86449988D02*
X130300000Y-87249988D01*
X134400000Y-74250000D02*
X131100000Y-77550000D01*
G04 #@! TO.N,/Motor control CPU/THROTTLE_9*
X96490000Y-159320000D02*
X96110000Y-159700000D01*
X96890000Y-158920000D02*
X96490000Y-159320000D01*
X96110000Y-159700000D02*
X92410000Y-159690000D01*
X98990000Y-158920000D02*
X96890000Y-158920000D01*
D33*
X92410000Y-159690000D02*
X92410000Y-159700000D01*
D34*
G04 #@! TO.N,Net-(IC2-D)*
X126980000Y-154600000D02*
X125800000Y-155780000D01*
X134880000Y-154600000D02*
X126980000Y-154600000D01*
X135510000Y-155230000D02*
X134880000Y-154600000D01*
G04 #@! TO.N,Net-(IC2-B)*
X135510000Y-157960000D02*
X126380000Y-157960000D01*
X126380000Y-157960000D02*
X125900000Y-157480000D01*
G04 #@! TO.N,/TEMP_A*
X118089990Y-133540000D02*
X113430000Y-138199990D01*
X113430000Y-142330000D02*
X115100000Y-144000000D01*
X113430000Y-142000000D02*
X113430000Y-142330000D01*
X115100000Y-144000000D02*
X115100000Y-146900000D01*
X113430000Y-138199990D02*
X113430000Y-142000000D01*
G04 #@! TO.N,/TEMP_FLUID*
X112390000Y-69950003D02*
X102349997Y-59910000D01*
X118940000Y-148150000D02*
X111560000Y-148150000D01*
X112390000Y-76040000D02*
X112390000Y-69950003D01*
X109860000Y-146450000D02*
X109860000Y-112600000D01*
X111560000Y-148150000D02*
X109860000Y-146450000D01*
X102349997Y-59910000D02*
X102210000Y-59910000D01*
G04 #@! TO.N,/TEMP_CASE*
X145780000Y-176630000D02*
X142830000Y-173680000D01*
X142830000Y-173680000D02*
X142830000Y-172950000D01*
X130970000Y-159020000D02*
X130970000Y-161470000D01*
X130970000Y-149630000D02*
X130970000Y-149690000D01*
X134920000Y-134930002D02*
X134920000Y-145680000D01*
X134920000Y-145680000D02*
X130970000Y-149630000D01*
X137860000Y-168360000D02*
X141350000Y-168360000D01*
X147260000Y-176720000D02*
X147170000Y-176630000D01*
X130970000Y-161470000D02*
X136560000Y-167060000D01*
X147170000Y-176630000D02*
X145780000Y-176630000D01*
X136560000Y-167060000D02*
X137860000Y-168360000D01*
G04 #@! TO.N,Net-(IC5-VINB-)*
X221085000Y-105450000D02*
X222802500Y-107167500D01*
X217950000Y-105450000D02*
X221085000Y-105450000D01*
X222802500Y-107167500D02*
X230093334Y-114458334D01*
G04 #@! TO.N,/IL2_26*
X203200000Y-108400000D02*
X194600000Y-108400000D01*
X194600000Y-108400000D02*
X193000000Y-106800000D01*
X207200000Y-104400000D02*
X203200000Y-108400000D01*
G04 #@! TO.N,/Motor control CPU/BRAKE_IN_16*
X130050000Y-83550000D02*
X107100000Y-106500000D01*
X107100000Y-145059998D02*
X100629999Y-151529999D01*
X107100000Y-106500000D02*
X107100000Y-145059998D01*
X130050000Y-82750000D02*
X130050000Y-83550000D01*
G04 #@! TO.N,/OCUR_IN_15*
X187900000Y-100500000D02*
X186000000Y-98600000D01*
X145990000Y-97389998D02*
X145990000Y-118340000D01*
X143070000Y-130960000D02*
X140350000Y-133680000D01*
X177900000Y-99300000D02*
X170600000Y-99300000D01*
X143070000Y-121260000D02*
X143070000Y-130960000D01*
X147200002Y-96179996D02*
X147189998Y-96190000D01*
X186000000Y-98600000D02*
X178600000Y-98600000D01*
X142467937Y-75999998D02*
X147200002Y-80732063D01*
X189500000Y-100500000D02*
X187900000Y-100500000D01*
X147200002Y-80732063D02*
X147200002Y-96179996D01*
X178600000Y-98600000D02*
X177900000Y-99300000D01*
X140350000Y-133680000D02*
X140350000Y-155830000D01*
X147189998Y-96190000D02*
X145990000Y-97389998D01*
X145990000Y-118340000D02*
X143070000Y-121260000D01*
X140350000Y-155830000D02*
X139510000Y-156670000D01*
G04 #@! TO.N,/PWM_INHIBIT_33*
X143510000Y-98280000D02*
X143510000Y-109050000D01*
X145630000Y-95090000D02*
X145630000Y-96160000D01*
X131580000Y-129740000D02*
X135230000Y-126090000D01*
X143510000Y-109050000D02*
X143510000Y-117840000D01*
X145630000Y-96160000D02*
X143890000Y-97900000D01*
X145630000Y-93940000D02*
X145630000Y-95090000D01*
X131580000Y-146690000D02*
X131580000Y-129740000D01*
X128620000Y-149650000D02*
X131580000Y-146690000D01*
X143510000Y-117840000D02*
X143490000Y-117860000D01*
X145620000Y-93930000D02*
X145630000Y-93940000D01*
X143890000Y-97900000D02*
X143510000Y-98280000D01*
D33*
G04 #@! TO.N,/PWM1_P_41*
X168300000Y-93300000D02*
X170000000Y-95000000D01*
X166250000Y-89950000D02*
X168300000Y-92000000D01*
X152750000Y-72800000D02*
X166250000Y-86300000D01*
X168300000Y-92000000D02*
X168300000Y-93300000D01*
X166250000Y-86300000D02*
X166250000Y-89950000D01*
X150150000Y-72800000D02*
X152750000Y-72800000D01*
G04 #@! TO.N,/PWM3_N_36*
X165000000Y-90450002D02*
X166200000Y-91650002D01*
X146950000Y-75250000D02*
X153200000Y-75250000D01*
X165000000Y-87050000D02*
X165000000Y-90450002D01*
X153200000Y-75250000D02*
X165000000Y-87050000D01*
G04 #@! TO.N,/PWM1_N_34*
X162500000Y-88850000D02*
X150900000Y-77250000D01*
X166600000Y-96000000D02*
X162500000Y-91900000D01*
X147200000Y-77250000D02*
X146900000Y-76950000D01*
X162500000Y-91900000D02*
X162500000Y-88850000D01*
X150900000Y-77250000D02*
X147200000Y-77250000D01*
X166700000Y-96000000D02*
X166600000Y-96000000D01*
D34*
G04 #@! TO.N,/LOW_DRVA*
X159750000Y-127910000D02*
X153830000Y-133830000D01*
X161700000Y-100600000D02*
X161700000Y-102050000D01*
X159750000Y-104000000D02*
X159750000Y-127910000D01*
X161700000Y-102050000D02*
X159750000Y-104000000D01*
X152500000Y-156400000D02*
X149800000Y-156400000D01*
X153830000Y-133830000D02*
X153830000Y-155070000D01*
X153830000Y-155070000D02*
X152500000Y-156400000D01*
G04 #@! TO.N,/LOW_DRVB*
X149300000Y-100250000D02*
X155400000Y-94150000D01*
X149300000Y-117750000D02*
X149300000Y-100250000D01*
X144950000Y-139150000D02*
X144950000Y-122100000D01*
X143870000Y-140230000D02*
X144950000Y-139150000D01*
X155400000Y-94150000D02*
X156200000Y-94150000D01*
X143870000Y-150470000D02*
X143870000Y-140230000D01*
X147260000Y-153860000D02*
X143870000Y-150470000D01*
X144950000Y-122100000D02*
X149300000Y-117750000D01*
G04 #@! TO.N,/HI_DRVA*
X151660000Y-160230000D02*
X155890000Y-156000000D01*
X163340000Y-95420000D02*
X162890000Y-94970000D01*
X155890000Y-156000000D02*
X155890000Y-136060000D01*
X161480000Y-105560000D02*
X163340000Y-103700000D01*
X148550000Y-160230000D02*
X151660000Y-160230000D01*
X155890000Y-136060000D02*
X161480000Y-130470000D01*
X161480000Y-130470000D02*
X161480000Y-105560000D01*
X163340000Y-103700000D02*
X163340000Y-95420000D01*
X147260000Y-158940000D02*
X148550000Y-160230000D01*
D33*
G04 #@! TO.N,/PWM2_P_42*
X153600000Y-71800000D02*
X151050000Y-71800000D01*
X169900000Y-92450000D02*
X169900000Y-91800000D01*
X169900000Y-91800000D02*
X167500000Y-89400000D01*
X167500000Y-85700000D02*
X153600000Y-71800000D01*
X167500000Y-89400000D02*
X167500000Y-85700000D01*
G04 #@! TO.N,/PWM3_P_43*
X169650000Y-89900000D02*
X170250000Y-89900000D01*
X149350000Y-71000000D02*
X154400000Y-71000000D01*
X168500000Y-88750000D02*
X169650000Y-89900000D01*
X154400000Y-71000000D02*
X168500000Y-85100000D01*
X168500000Y-85100000D02*
X168500000Y-88750000D01*
G04 #@! TO.N,/PWM2_N_35*
X147800000Y-76200000D02*
X152050000Y-76200000D01*
X152050000Y-76200000D02*
X163750000Y-87900000D01*
X163750000Y-87900000D02*
X163750000Y-90800000D01*
X166500000Y-93550000D02*
X166550000Y-93550000D01*
X163750000Y-90800000D02*
X166500000Y-93550000D01*
D34*
G04 #@! TO.N,/HI_DRVB*
X157000000Y-126200000D02*
X151960000Y-131240000D01*
X151960000Y-131240000D02*
X151960000Y-153190000D01*
X157000000Y-102900000D02*
X157000000Y-126200000D01*
X161200000Y-98700000D02*
X157000000Y-102900000D01*
X151960000Y-153190000D02*
X151290000Y-153860000D01*
X161200000Y-93800000D02*
X161200000Y-98700000D01*
X151290000Y-153860000D02*
X149800000Y-153860000D01*
X160600000Y-93200000D02*
X161200000Y-93800000D01*
G04 #@! TO.N,/LOW_DRVC*
X154675000Y-123325000D02*
X150100000Y-127900000D01*
X160400000Y-91165000D02*
X159850000Y-91715000D01*
X150100000Y-148480000D02*
X149800000Y-148780000D01*
X159850000Y-96650000D02*
X154675000Y-101825000D01*
X150100000Y-127900000D02*
X150100000Y-148480000D01*
X159850000Y-91715000D02*
X159850000Y-96650000D01*
X154675000Y-101825000D02*
X154675000Y-123325000D01*
G04 #@! TO.N,/HI_DRVC*
X145510000Y-143340000D02*
X145510000Y-149570000D01*
X151250000Y-101900000D02*
X151250000Y-120500000D01*
X145510000Y-149570000D02*
X147260000Y-151320000D01*
X147300000Y-124450000D02*
X147300000Y-141550000D01*
X151250000Y-120500000D02*
X147300000Y-124450000D01*
X157200000Y-89895000D02*
X157200000Y-95950000D01*
X147300000Y-141550000D02*
X145510000Y-143340000D01*
X157200000Y-95950000D02*
X151250000Y-101900000D01*
G04 #@! TO.N,/TMPHS_24*
X121330000Y-129840000D02*
X121330000Y-134570016D01*
D33*
X136350000Y-77300000D02*
X137000000Y-76650000D01*
D34*
X121330000Y-134570016D02*
X120050016Y-135850000D01*
D33*
X137000000Y-76650000D02*
X138550000Y-76650000D01*
X136350000Y-79200000D02*
X136350000Y-77300000D01*
D34*
X136350000Y-79200000D02*
X135025000Y-80525000D01*
X135025000Y-116145000D02*
X121330000Y-129840000D01*
X135025000Y-80525000D02*
X135025000Y-116145000D01*
G04 #@! TO.N,/CANH*
X95260000Y-105830000D02*
X74680000Y-105830000D01*
X100455001Y-100634999D02*
X95260000Y-105830000D01*
X77870000Y-131190000D02*
X77870000Y-160630000D01*
X77870000Y-160630000D02*
X68800000Y-169700000D01*
X70320000Y-123640000D02*
X77870000Y-131190000D01*
X100455001Y-78214999D02*
X100455001Y-100634999D01*
X70320000Y-110190000D02*
X70320000Y-123640000D01*
X74680000Y-105830000D02*
X70320000Y-110190000D01*
G04 #@! TO.N,/CANL*
X81400000Y-131400000D02*
X72380000Y-122380000D01*
X65400000Y-182500000D02*
X65400000Y-180620000D01*
X78760000Y-166560000D02*
X81400000Y-163920000D01*
X81400000Y-163920000D02*
X81400000Y-131400000D01*
X102700000Y-100910000D02*
X102700000Y-71270000D01*
X75430000Y-166560000D02*
X78760000Y-166560000D01*
X67160000Y-178860000D02*
X67160000Y-174830000D01*
X102700000Y-71270000D02*
X102760000Y-71210000D01*
X75250000Y-107660000D02*
X95950000Y-107660000D01*
X95950000Y-107660000D02*
X102700000Y-100910000D01*
X67160000Y-174830000D02*
X75430000Y-166560000D01*
X72380000Y-122380000D02*
X72380000Y-110530000D01*
X65400000Y-180620000D02*
X67160000Y-178860000D01*
X72380000Y-110530000D02*
X75250000Y-107660000D01*
G04 #@! TO.N,/UDC_HI*
X155400000Y-160000000D02*
X155400000Y-171120000D01*
X159100000Y-156300000D02*
X155400000Y-160000000D01*
X149800000Y-176720000D02*
X152670000Y-173850000D01*
X155400000Y-171120000D02*
X152670000Y-173850000D01*
X160400000Y-156300000D02*
X159100000Y-156300000D01*
G04 #@! TO.N,/RS232_TX*
X163200000Y-179000000D02*
X163200000Y-117440000D01*
X158900000Y-183300000D02*
X163200000Y-179000000D01*
X211850000Y-107950000D02*
X211850000Y-100750000D01*
X204150000Y-70100000D02*
X203000000Y-70100000D01*
X85800000Y-179400000D02*
X98100000Y-179400000D01*
X206900000Y-112900000D02*
X211850000Y-107950000D01*
X118400000Y-172250000D02*
X129450000Y-183300000D01*
X82900000Y-176500000D02*
X85800000Y-179400000D01*
X211850000Y-100750000D02*
X214450000Y-98150000D01*
X129450000Y-183300000D02*
X158900000Y-183300000D01*
X167740000Y-112900000D02*
X206900000Y-112900000D01*
X163200000Y-117440000D02*
X167740000Y-112900000D01*
X98100000Y-179400000D02*
X105250000Y-172250000D01*
X214450000Y-80400000D02*
X204150000Y-70100000D01*
X105250000Y-172250000D02*
X118400000Y-172250000D01*
X214450000Y-98150000D02*
X214450000Y-80400000D01*
G04 #@! TO.N,/FORW_IN*
X133100000Y-93799982D02*
X133799991Y-93099991D01*
X133800000Y-93100000D02*
X133800000Y-93100000D01*
X133100000Y-113400000D02*
X133100000Y-93799982D01*
X120600000Y-125900000D02*
X133100000Y-113400000D01*
D31*
G04 #@! TO.N,/MAIN_CON*
X75220000Y-157680000D02*
X75220000Y-152360000D01*
X72400000Y-182500000D02*
X72400000Y-184900000D01*
X70300000Y-187000000D02*
X64800000Y-187000000D01*
X62100000Y-184300000D02*
X62100000Y-170800000D01*
X72400000Y-184900000D02*
X70300000Y-187000000D01*
X64800000Y-187000000D02*
X62100000Y-184300000D01*
X62100000Y-170800000D02*
X75220000Y-157680000D01*
D34*
G04 #@! TO.N,/RS232_RX*
X216950000Y-79450000D02*
X207500000Y-70000000D01*
X75900000Y-176500000D02*
X77650000Y-178250000D01*
X216950000Y-106650000D02*
X216950000Y-79450000D01*
X158950000Y-186350000D02*
X164800000Y-180500000D01*
X208500000Y-115100000D02*
X216950000Y-106650000D01*
X79100000Y-186350000D02*
X158950000Y-186350000D01*
X169500000Y-115100000D02*
X208500000Y-115100000D01*
X77650000Y-178250000D02*
X77650000Y-184900000D01*
X164800000Y-119800000D02*
X169500000Y-115100000D01*
X77650000Y-184900000D02*
X79100000Y-186350000D01*
X164800000Y-180500000D02*
X164800000Y-119800000D01*
D33*
G04 #@! TO.N,/Motor control CPU/USART_TX_29*
X140200000Y-74200000D02*
X140200000Y-76070178D01*
X140200000Y-76070178D02*
X140575000Y-76445178D01*
X207500000Y-65200000D02*
X207500000Y-67400000D01*
X150400000Y-64250000D02*
X206550000Y-64250000D01*
X206550000Y-64250000D02*
X207500000Y-65200000D01*
G04 #@! TO.N,/Motor control CPU/USART_RX_30*
X141700000Y-72750000D02*
X141250000Y-72300000D01*
X150150000Y-65150000D02*
X202300000Y-65150000D01*
X141700000Y-77143746D02*
X141700000Y-72750000D01*
X202300000Y-65150000D02*
X203000000Y-65850000D01*
X141742937Y-77186683D02*
X141700000Y-77143746D01*
X203000000Y-65850000D02*
X203000000Y-67500000D01*
D34*
G04 #@! TO.N,Net-(U3-PB2)*
X142700000Y-87050000D02*
X139850000Y-84200000D01*
X139850000Y-84200000D02*
X139850000Y-76999998D01*
G04 #@! TO.N,/Motor control CPU/VTG_OUT_52*
X117490000Y-127880000D02*
X119080000Y-129470000D01*
X119080000Y-145760000D02*
X119080000Y-129470000D01*
X117490000Y-104510000D02*
X117490000Y-127880000D01*
X123600000Y-159150000D02*
X128390000Y-163940000D01*
X123600000Y-153800000D02*
X123600000Y-159150000D01*
X128390000Y-163940000D02*
X129840000Y-163940000D01*
X123540000Y-150220000D02*
X119080000Y-145760000D01*
X117500000Y-62400000D02*
X117500000Y-88150000D01*
D33*
G04 #@! TO.N,/OCURLIM_NEG_59*
X188850000Y-96600000D02*
X181900000Y-96600000D01*
X191050000Y-98800000D02*
X188850000Y-96600000D01*
X137516778Y-69700000D02*
X137508389Y-69708389D01*
X185400000Y-105100000D02*
X189100000Y-105100000D01*
X181900000Y-96600000D02*
X155000000Y-69700000D01*
X189100000Y-105100000D02*
X191050000Y-103150000D01*
X191050000Y-103150000D02*
X191050000Y-98800000D01*
X155000000Y-69700000D02*
X137516778Y-69700000D01*
G04 #@! TO.N,/OCURLIM_POS_61*
X136512701Y-68450000D02*
X163750000Y-68450000D01*
X163750000Y-68450000D02*
X197400000Y-102100000D01*
X136508115Y-68445414D02*
X136512701Y-68450000D01*
X197400000Y-102100000D02*
X203000000Y-102100000D01*
D34*
G04 #@! TO.N,/ESP WiFi/TX*
X203000000Y-68800000D02*
X205000000Y-68800000D01*
X205000000Y-68800000D02*
X205050000Y-68850000D01*
G04 #@! TO.N,/ERR_OUT_51*
X132625000Y-78125000D02*
X136400000Y-74350000D01*
X132625000Y-91625000D02*
X132625000Y-78125000D01*
X125350000Y-98900000D02*
X132625000Y-91625000D01*
G04 #@! TO.N,/PRECH_OUT_27*
X66100006Y-109299994D02*
X71099996Y-104300004D01*
X109620000Y-106290000D02*
X109620000Y-106320000D01*
X114660000Y-101250000D02*
X109620000Y-106290000D01*
X129100000Y-101250000D02*
X114660000Y-101250000D01*
D35*
X140165000Y-88835000D02*
X141050000Y-87950000D01*
X140165000Y-101200000D02*
X140165000Y-88835000D01*
D34*
X66100006Y-119900000D02*
X66100006Y-109299994D01*
X71099996Y-104300004D02*
X93300000Y-104300004D01*
G04 #@! TO.N,/BMS_IN_39*
X124300000Y-133650000D02*
X124300000Y-130490000D01*
X149200000Y-80750000D02*
X149200000Y-97100000D01*
X147700000Y-98600000D02*
X147700000Y-116500000D01*
X124300000Y-130490000D02*
X133740000Y-121050000D01*
X149200000Y-97100000D02*
X147700000Y-98600000D01*
X124300000Y-142200000D02*
X124300000Y-133650000D01*
X142800000Y-74350000D02*
X149200000Y-80750000D01*
X142800000Y-73750000D02*
X142800000Y-74350000D01*
G04 #@! TO.N,/ESP WiFi/RX*
X210250000Y-45050000D02*
X210250000Y-67250000D01*
X201550000Y-43050000D02*
X207300000Y-43050000D01*
X207300000Y-43050000D02*
X208250000Y-43050000D01*
X210250000Y-67250000D02*
X208800000Y-68700000D01*
X208250000Y-43050000D02*
X210250000Y-45050000D01*
X199100000Y-45500000D02*
X201550000Y-43050000D01*
X208800000Y-68700000D02*
X207500000Y-68700000D01*
X199100000Y-45550000D02*
X199100000Y-45500000D01*
G04 #@! TD*
M02*
