%TF.GenerationSoftware,KiCad,Pcbnew,8.0.3*%
%TF.CreationDate,2024-08-06T18:59:45+01:00*%
%TF.ProjectId,Tesla Small Drive,5465736c-6120-4536-9d61-6c6c20447269,rev?*%
%TF.SameCoordinates,Original*%
%TF.FileFunction,Drillmap*%
%TF.FilePolarity,Positive*%
%FSLAX45Y45*%
G04 Gerber Fmt 4.5, Leading zero omitted, Abs format (unit mm)*
G04 Created by KiCad (PCBNEW 8.0.3) date 2024-08-06 18:59:45*
%MOMM*%
%LPD*%
G01*
G04 APERTURE LIST*
%ADD10C,0.200000*%
%ADD11C,0.100000*%
%ADD12C,0.237490*%
%ADD13C,0.340000*%
%ADD14C,0.350000*%
%ADD15C,1.280000*%
G04 APERTURE END LIST*
D10*
X5520000Y-17900000D02*
X5520000Y-19200000D01*
X4600000Y-2500000D02*
G75*
G02*
X4700000Y-2400000I100000J0D01*
G01*
X17800000Y-19200000D02*
G75*
G02*
X17400000Y-19600000I-400000J0D01*
G01*
X12260346Y-19600404D02*
X17400000Y-19599956D01*
X4300000Y-17299040D02*
X4300000Y-4400000D01*
X23400000Y-12800000D02*
G75*
G02*
X23300000Y-12900000I-100000J0D01*
G01*
X4399995Y-17400354D02*
X5014986Y-17399990D01*
X12260346Y-19600404D02*
G75*
G02*
X10679457Y-19600677I-790490J263726D01*
G01*
X4399995Y-17400354D02*
G75*
G02*
X4299393Y-17299040I715J101314D01*
G01*
X23300000Y-2400000D02*
G75*
G02*
X23400000Y-2500000I0J-100000D01*
G01*
X23300000Y-2400000D02*
X4700000Y-2400000D01*
X6000000Y-19599562D02*
G75*
G02*
X5520004Y-19199999I0J488092D01*
G01*
X17900000Y-12900000D02*
X23300000Y-12900000D01*
X4600000Y-3900000D02*
X4300000Y-4400000D01*
X23400000Y-12800000D02*
X23400000Y-2500000D01*
X5014986Y-17399990D02*
G75*
G02*
X5520005Y-17900000I3934J-501071D01*
G01*
X4600000Y-2500000D02*
X4600000Y-3900000D01*
X17800000Y-13000000D02*
G75*
G02*
X17900000Y-12900000I100000J0D01*
G01*
X6000000Y-19600000D02*
X10679457Y-19600677D01*
X17800000Y-19200000D02*
X17800000Y-13000000D01*
D11*
X16236470Y-5646970D02*
X16335530Y-5746030D01*
X16335530Y-5646970D02*
X16236470Y-5746030D01*
X16744470Y-5545370D02*
X16843530Y-5644430D01*
X16843530Y-5545370D02*
X16744470Y-5644430D01*
X16744470Y-5748570D02*
X16843530Y-5847630D01*
X16843530Y-5748570D02*
X16744470Y-5847630D01*
D12*
X16404745Y-5442500D02*
G75*
G02*
X16167255Y-5442500I-118745J0D01*
G01*
X16167255Y-5442500D02*
G75*
G02*
X16404745Y-5442500I118745J0D01*
G01*
X16404745Y-5950500D02*
G75*
G02*
X16167255Y-5950500I-118745J0D01*
G01*
X16167255Y-5950500D02*
G75*
G02*
X16404745Y-5950500I118745J0D01*
G01*
X16722245Y-5442500D02*
G75*
G02*
X16484755Y-5442500I-118745J0D01*
G01*
X16484755Y-5442500D02*
G75*
G02*
X16722245Y-5442500I118745J0D01*
G01*
X16722245Y-5950500D02*
G75*
G02*
X16484755Y-5950500I-118745J0D01*
G01*
X16484755Y-5950500D02*
G75*
G02*
X16722245Y-5950500I118745J0D01*
G01*
D13*
X6489000Y-3178400D02*
X6489000Y-3518400D01*
X6319000Y-3348400D02*
X6659000Y-3348400D01*
X7251000Y-3178400D02*
X7251000Y-3518400D01*
X7081000Y-3348400D02*
X7421000Y-3348400D01*
X16844220Y-14678000D02*
X16844220Y-15018000D01*
X16674220Y-14848000D02*
X17014220Y-14848000D01*
X16849220Y-13662000D02*
X16849220Y-14002000D01*
X16679220Y-13832000D02*
X17019220Y-13832000D01*
X16851600Y-17009000D02*
X16851600Y-17349000D01*
X16681600Y-17179000D02*
X17021600Y-17179000D01*
X16851600Y-17771000D02*
X16851600Y-18111000D01*
X16681600Y-17941000D02*
X17021600Y-17941000D01*
D14*
X5983745Y-18063745D02*
X5983745Y-17816255D01*
X5736255Y-17816255D01*
X5736255Y-18063745D01*
X5983745Y-18063745D01*
X10513745Y-18073745D02*
X10513745Y-17826255D01*
X10266255Y-17826255D01*
X10266255Y-18073745D01*
X10513745Y-18073745D01*
D15*
X11470000Y-18580000D02*
X12110000Y-17940000D01*
X11470000Y-17300000D01*
X10830000Y-17940000D01*
X11470000Y-18580000D01*
D10*
X4550171Y-20491484D02*
X4550171Y-20291484D01*
X4550171Y-20291484D02*
X4597790Y-20291484D01*
X4597790Y-20291484D02*
X4626362Y-20301008D01*
X4626362Y-20301008D02*
X4645409Y-20320056D01*
X4645409Y-20320056D02*
X4654933Y-20339103D01*
X4654933Y-20339103D02*
X4664457Y-20377198D01*
X4664457Y-20377198D02*
X4664457Y-20405770D01*
X4664457Y-20405770D02*
X4654933Y-20443865D01*
X4654933Y-20443865D02*
X4645409Y-20462913D01*
X4645409Y-20462913D02*
X4626362Y-20481960D01*
X4626362Y-20481960D02*
X4597790Y-20491484D01*
X4597790Y-20491484D02*
X4550171Y-20491484D01*
X4750171Y-20491484D02*
X4750171Y-20358151D01*
X4750171Y-20396246D02*
X4759695Y-20377198D01*
X4759695Y-20377198D02*
X4769219Y-20367675D01*
X4769219Y-20367675D02*
X4788266Y-20358151D01*
X4788266Y-20358151D02*
X4807314Y-20358151D01*
X4873981Y-20491484D02*
X4873981Y-20358151D01*
X4873981Y-20291484D02*
X4864457Y-20301008D01*
X4864457Y-20301008D02*
X4873981Y-20310532D01*
X4873981Y-20310532D02*
X4883504Y-20301008D01*
X4883504Y-20301008D02*
X4873981Y-20291484D01*
X4873981Y-20291484D02*
X4873981Y-20310532D01*
X4997790Y-20491484D02*
X4978743Y-20481960D01*
X4978743Y-20481960D02*
X4969219Y-20462913D01*
X4969219Y-20462913D02*
X4969219Y-20291484D01*
X5102552Y-20491484D02*
X5083504Y-20481960D01*
X5083504Y-20481960D02*
X5073981Y-20462913D01*
X5073981Y-20462913D02*
X5073981Y-20291484D01*
X5331124Y-20491484D02*
X5331124Y-20291484D01*
X5331124Y-20291484D02*
X5397790Y-20434341D01*
X5397790Y-20434341D02*
X5464457Y-20291484D01*
X5464457Y-20291484D02*
X5464457Y-20491484D01*
X5645409Y-20491484D02*
X5645409Y-20386722D01*
X5645409Y-20386722D02*
X5635885Y-20367675D01*
X5635885Y-20367675D02*
X5616838Y-20358151D01*
X5616838Y-20358151D02*
X5578743Y-20358151D01*
X5578743Y-20358151D02*
X5559695Y-20367675D01*
X5645409Y-20481960D02*
X5626362Y-20491484D01*
X5626362Y-20491484D02*
X5578743Y-20491484D01*
X5578743Y-20491484D02*
X5559695Y-20481960D01*
X5559695Y-20481960D02*
X5550171Y-20462913D01*
X5550171Y-20462913D02*
X5550171Y-20443865D01*
X5550171Y-20443865D02*
X5559695Y-20424818D01*
X5559695Y-20424818D02*
X5578743Y-20415294D01*
X5578743Y-20415294D02*
X5626362Y-20415294D01*
X5626362Y-20415294D02*
X5645409Y-20405770D01*
X5740647Y-20358151D02*
X5740647Y-20558151D01*
X5740647Y-20367675D02*
X5759695Y-20358151D01*
X5759695Y-20358151D02*
X5797790Y-20358151D01*
X5797790Y-20358151D02*
X5816838Y-20367675D01*
X5816838Y-20367675D02*
X5826362Y-20377198D01*
X5826362Y-20377198D02*
X5835885Y-20396246D01*
X5835885Y-20396246D02*
X5835885Y-20453389D01*
X5835885Y-20453389D02*
X5826362Y-20472437D01*
X5826362Y-20472437D02*
X5816838Y-20481960D01*
X5816838Y-20481960D02*
X5797790Y-20491484D01*
X5797790Y-20491484D02*
X5759695Y-20491484D01*
X5759695Y-20491484D02*
X5740647Y-20481960D01*
X5921600Y-20472437D02*
X5931123Y-20481960D01*
X5931123Y-20481960D02*
X5921600Y-20491484D01*
X5921600Y-20491484D02*
X5912076Y-20481960D01*
X5912076Y-20481960D02*
X5921600Y-20472437D01*
X5921600Y-20472437D02*
X5921600Y-20491484D01*
X5921600Y-20367675D02*
X5931123Y-20377198D01*
X5931123Y-20377198D02*
X5921600Y-20386722D01*
X5921600Y-20386722D02*
X5912076Y-20377198D01*
X5912076Y-20377198D02*
X5921600Y-20367675D01*
X5921600Y-20367675D02*
X5921600Y-20386722D01*
D11*
X4190334Y-20770470D02*
X4289394Y-20869530D01*
X4289394Y-20770470D02*
X4190334Y-20869530D01*
D10*
X4588266Y-20711484D02*
X4607314Y-20711484D01*
X4607314Y-20711484D02*
X4626362Y-20721008D01*
X4626362Y-20721008D02*
X4635885Y-20730532D01*
X4635885Y-20730532D02*
X4645409Y-20749579D01*
X4645409Y-20749579D02*
X4654933Y-20787675D01*
X4654933Y-20787675D02*
X4654933Y-20835294D01*
X4654933Y-20835294D02*
X4645409Y-20873389D01*
X4645409Y-20873389D02*
X4635885Y-20892437D01*
X4635885Y-20892437D02*
X4626362Y-20901960D01*
X4626362Y-20901960D02*
X4607314Y-20911484D01*
X4607314Y-20911484D02*
X4588266Y-20911484D01*
X4588266Y-20911484D02*
X4569219Y-20901960D01*
X4569219Y-20901960D02*
X4559695Y-20892437D01*
X4559695Y-20892437D02*
X4550171Y-20873389D01*
X4550171Y-20873389D02*
X4540647Y-20835294D01*
X4540647Y-20835294D02*
X4540647Y-20787675D01*
X4540647Y-20787675D02*
X4550171Y-20749579D01*
X4550171Y-20749579D02*
X4559695Y-20730532D01*
X4559695Y-20730532D02*
X4569219Y-20721008D01*
X4569219Y-20721008D02*
X4588266Y-20711484D01*
X4740647Y-20892437D02*
X4750171Y-20901960D01*
X4750171Y-20901960D02*
X4740647Y-20911484D01*
X4740647Y-20911484D02*
X4731124Y-20901960D01*
X4731124Y-20901960D02*
X4740647Y-20892437D01*
X4740647Y-20892437D02*
X4740647Y-20911484D01*
X4845409Y-20911484D02*
X4883504Y-20911484D01*
X4883504Y-20911484D02*
X4902552Y-20901960D01*
X4902552Y-20901960D02*
X4912076Y-20892437D01*
X4912076Y-20892437D02*
X4931124Y-20863865D01*
X4931124Y-20863865D02*
X4940647Y-20825770D01*
X4940647Y-20825770D02*
X4940647Y-20749579D01*
X4940647Y-20749579D02*
X4931124Y-20730532D01*
X4931124Y-20730532D02*
X4921600Y-20721008D01*
X4921600Y-20721008D02*
X4902552Y-20711484D01*
X4902552Y-20711484D02*
X4864457Y-20711484D01*
X4864457Y-20711484D02*
X4845409Y-20721008D01*
X4845409Y-20721008D02*
X4835885Y-20730532D01*
X4835885Y-20730532D02*
X4826362Y-20749579D01*
X4826362Y-20749579D02*
X4826362Y-20797198D01*
X4826362Y-20797198D02*
X4835885Y-20816246D01*
X4835885Y-20816246D02*
X4845409Y-20825770D01*
X4845409Y-20825770D02*
X4864457Y-20835294D01*
X4864457Y-20835294D02*
X4902552Y-20835294D01*
X4902552Y-20835294D02*
X4921600Y-20825770D01*
X4921600Y-20825770D02*
X4931124Y-20816246D01*
X4931124Y-20816246D02*
X4940647Y-20797198D01*
X5035885Y-20911484D02*
X5073981Y-20911484D01*
X5073981Y-20911484D02*
X5093028Y-20901960D01*
X5093028Y-20901960D02*
X5102552Y-20892437D01*
X5102552Y-20892437D02*
X5121600Y-20863865D01*
X5121600Y-20863865D02*
X5131124Y-20825770D01*
X5131124Y-20825770D02*
X5131124Y-20749579D01*
X5131124Y-20749579D02*
X5121600Y-20730532D01*
X5121600Y-20730532D02*
X5112076Y-20721008D01*
X5112076Y-20721008D02*
X5093028Y-20711484D01*
X5093028Y-20711484D02*
X5054933Y-20711484D01*
X5054933Y-20711484D02*
X5035885Y-20721008D01*
X5035885Y-20721008D02*
X5026362Y-20730532D01*
X5026362Y-20730532D02*
X5016838Y-20749579D01*
X5016838Y-20749579D02*
X5016838Y-20797198D01*
X5016838Y-20797198D02*
X5026362Y-20816246D01*
X5026362Y-20816246D02*
X5035885Y-20825770D01*
X5035885Y-20825770D02*
X5054933Y-20835294D01*
X5054933Y-20835294D02*
X5093028Y-20835294D01*
X5093028Y-20835294D02*
X5112076Y-20825770D01*
X5112076Y-20825770D02*
X5121600Y-20816246D01*
X5121600Y-20816246D02*
X5131124Y-20797198D01*
X5321600Y-20911484D02*
X5207314Y-20911484D01*
X5264457Y-20911484D02*
X5264457Y-20711484D01*
X5264457Y-20711484D02*
X5245409Y-20740056D01*
X5245409Y-20740056D02*
X5226362Y-20759103D01*
X5226362Y-20759103D02*
X5207314Y-20768627D01*
X5407314Y-20911484D02*
X5407314Y-20778151D01*
X5407314Y-20797198D02*
X5416838Y-20787675D01*
X5416838Y-20787675D02*
X5435885Y-20778151D01*
X5435885Y-20778151D02*
X5464457Y-20778151D01*
X5464457Y-20778151D02*
X5483505Y-20787675D01*
X5483505Y-20787675D02*
X5493028Y-20806722D01*
X5493028Y-20806722D02*
X5493028Y-20911484D01*
X5493028Y-20806722D02*
X5502552Y-20787675D01*
X5502552Y-20787675D02*
X5521600Y-20778151D01*
X5521600Y-20778151D02*
X5550171Y-20778151D01*
X5550171Y-20778151D02*
X5569219Y-20787675D01*
X5569219Y-20787675D02*
X5578743Y-20806722D01*
X5578743Y-20806722D02*
X5578743Y-20911484D01*
X5673981Y-20911484D02*
X5673981Y-20778151D01*
X5673981Y-20797198D02*
X5683504Y-20787675D01*
X5683504Y-20787675D02*
X5702552Y-20778151D01*
X5702552Y-20778151D02*
X5731124Y-20778151D01*
X5731124Y-20778151D02*
X5750171Y-20787675D01*
X5750171Y-20787675D02*
X5759695Y-20806722D01*
X5759695Y-20806722D02*
X5759695Y-20911484D01*
X5759695Y-20806722D02*
X5769219Y-20787675D01*
X5769219Y-20787675D02*
X5788266Y-20778151D01*
X5788266Y-20778151D02*
X5816838Y-20778151D01*
X5816838Y-20778151D02*
X5835885Y-20787675D01*
X5835885Y-20787675D02*
X5845409Y-20806722D01*
X5845409Y-20806722D02*
X5845409Y-20911484D01*
X6235885Y-20701960D02*
X6064457Y-20959103D01*
X6493028Y-20711484D02*
X6512076Y-20711484D01*
X6512076Y-20711484D02*
X6531124Y-20721008D01*
X6531124Y-20721008D02*
X6540647Y-20730532D01*
X6540647Y-20730532D02*
X6550171Y-20749579D01*
X6550171Y-20749579D02*
X6559695Y-20787675D01*
X6559695Y-20787675D02*
X6559695Y-20835294D01*
X6559695Y-20835294D02*
X6550171Y-20873389D01*
X6550171Y-20873389D02*
X6540647Y-20892437D01*
X6540647Y-20892437D02*
X6531124Y-20901960D01*
X6531124Y-20901960D02*
X6512076Y-20911484D01*
X6512076Y-20911484D02*
X6493028Y-20911484D01*
X6493028Y-20911484D02*
X6473981Y-20901960D01*
X6473981Y-20901960D02*
X6464457Y-20892437D01*
X6464457Y-20892437D02*
X6454933Y-20873389D01*
X6454933Y-20873389D02*
X6445409Y-20835294D01*
X6445409Y-20835294D02*
X6445409Y-20787675D01*
X6445409Y-20787675D02*
X6454933Y-20749579D01*
X6454933Y-20749579D02*
X6464457Y-20730532D01*
X6464457Y-20730532D02*
X6473981Y-20721008D01*
X6473981Y-20721008D02*
X6493028Y-20711484D01*
X6645409Y-20892437D02*
X6654933Y-20901960D01*
X6654933Y-20901960D02*
X6645409Y-20911484D01*
X6645409Y-20911484D02*
X6635886Y-20901960D01*
X6635886Y-20901960D02*
X6645409Y-20892437D01*
X6645409Y-20892437D02*
X6645409Y-20911484D01*
X6778743Y-20711484D02*
X6797790Y-20711484D01*
X6797790Y-20711484D02*
X6816838Y-20721008D01*
X6816838Y-20721008D02*
X6826362Y-20730532D01*
X6826362Y-20730532D02*
X6835886Y-20749579D01*
X6835886Y-20749579D02*
X6845409Y-20787675D01*
X6845409Y-20787675D02*
X6845409Y-20835294D01*
X6845409Y-20835294D02*
X6835886Y-20873389D01*
X6835886Y-20873389D02*
X6826362Y-20892437D01*
X6826362Y-20892437D02*
X6816838Y-20901960D01*
X6816838Y-20901960D02*
X6797790Y-20911484D01*
X6797790Y-20911484D02*
X6778743Y-20911484D01*
X6778743Y-20911484D02*
X6759695Y-20901960D01*
X6759695Y-20901960D02*
X6750171Y-20892437D01*
X6750171Y-20892437D02*
X6740647Y-20873389D01*
X6740647Y-20873389D02*
X6731124Y-20835294D01*
X6731124Y-20835294D02*
X6731124Y-20787675D01*
X6731124Y-20787675D02*
X6740647Y-20749579D01*
X6740647Y-20749579D02*
X6750171Y-20730532D01*
X6750171Y-20730532D02*
X6759695Y-20721008D01*
X6759695Y-20721008D02*
X6778743Y-20711484D01*
X6912076Y-20711484D02*
X7035886Y-20711484D01*
X7035886Y-20711484D02*
X6969219Y-20787675D01*
X6969219Y-20787675D02*
X6997790Y-20787675D01*
X6997790Y-20787675D02*
X7016838Y-20797198D01*
X7016838Y-20797198D02*
X7026362Y-20806722D01*
X7026362Y-20806722D02*
X7035886Y-20825770D01*
X7035886Y-20825770D02*
X7035886Y-20873389D01*
X7035886Y-20873389D02*
X7026362Y-20892437D01*
X7026362Y-20892437D02*
X7016838Y-20901960D01*
X7016838Y-20901960D02*
X6997790Y-20911484D01*
X6997790Y-20911484D02*
X6940647Y-20911484D01*
X6940647Y-20911484D02*
X6921600Y-20901960D01*
X6921600Y-20901960D02*
X6912076Y-20892437D01*
X7131124Y-20911484D02*
X7169219Y-20911484D01*
X7169219Y-20911484D02*
X7188267Y-20901960D01*
X7188267Y-20901960D02*
X7197790Y-20892437D01*
X7197790Y-20892437D02*
X7216838Y-20863865D01*
X7216838Y-20863865D02*
X7226362Y-20825770D01*
X7226362Y-20825770D02*
X7226362Y-20749579D01*
X7226362Y-20749579D02*
X7216838Y-20730532D01*
X7216838Y-20730532D02*
X7207314Y-20721008D01*
X7207314Y-20721008D02*
X7188267Y-20711484D01*
X7188267Y-20711484D02*
X7150171Y-20711484D01*
X7150171Y-20711484D02*
X7131124Y-20721008D01*
X7131124Y-20721008D02*
X7121600Y-20730532D01*
X7121600Y-20730532D02*
X7112076Y-20749579D01*
X7112076Y-20749579D02*
X7112076Y-20797198D01*
X7112076Y-20797198D02*
X7121600Y-20816246D01*
X7121600Y-20816246D02*
X7131124Y-20825770D01*
X7131124Y-20825770D02*
X7150171Y-20835294D01*
X7150171Y-20835294D02*
X7188267Y-20835294D01*
X7188267Y-20835294D02*
X7207314Y-20825770D01*
X7207314Y-20825770D02*
X7216838Y-20816246D01*
X7216838Y-20816246D02*
X7226362Y-20797198D01*
X7350171Y-20711484D02*
X7369219Y-20711484D01*
X7369219Y-20711484D02*
X7388267Y-20721008D01*
X7388267Y-20721008D02*
X7397790Y-20730532D01*
X7397790Y-20730532D02*
X7407314Y-20749579D01*
X7407314Y-20749579D02*
X7416838Y-20787675D01*
X7416838Y-20787675D02*
X7416838Y-20835294D01*
X7416838Y-20835294D02*
X7407314Y-20873389D01*
X7407314Y-20873389D02*
X7397790Y-20892437D01*
X7397790Y-20892437D02*
X7388267Y-20901960D01*
X7388267Y-20901960D02*
X7369219Y-20911484D01*
X7369219Y-20911484D02*
X7350171Y-20911484D01*
X7350171Y-20911484D02*
X7331124Y-20901960D01*
X7331124Y-20901960D02*
X7321600Y-20892437D01*
X7321600Y-20892437D02*
X7312076Y-20873389D01*
X7312076Y-20873389D02*
X7302552Y-20835294D01*
X7302552Y-20835294D02*
X7302552Y-20787675D01*
X7302552Y-20787675D02*
X7312076Y-20749579D01*
X7312076Y-20749579D02*
X7321600Y-20730532D01*
X7321600Y-20730532D02*
X7331124Y-20721008D01*
X7331124Y-20721008D02*
X7350171Y-20711484D01*
X7493028Y-20711484D02*
X7493028Y-20749579D01*
X7569219Y-20711484D02*
X7569219Y-20749579D01*
X7864457Y-20987675D02*
X7854933Y-20978151D01*
X7854933Y-20978151D02*
X7835886Y-20949579D01*
X7835886Y-20949579D02*
X7826362Y-20930532D01*
X7826362Y-20930532D02*
X7816838Y-20901960D01*
X7816838Y-20901960D02*
X7807314Y-20854341D01*
X7807314Y-20854341D02*
X7807314Y-20816246D01*
X7807314Y-20816246D02*
X7816838Y-20768627D01*
X7816838Y-20768627D02*
X7826362Y-20740056D01*
X7826362Y-20740056D02*
X7835886Y-20721008D01*
X7835886Y-20721008D02*
X7854933Y-20692437D01*
X7854933Y-20692437D02*
X7864457Y-20682913D01*
X7921600Y-20711484D02*
X8045409Y-20711484D01*
X8045409Y-20711484D02*
X7978743Y-20787675D01*
X7978743Y-20787675D02*
X8007314Y-20787675D01*
X8007314Y-20787675D02*
X8026362Y-20797198D01*
X8026362Y-20797198D02*
X8035886Y-20806722D01*
X8035886Y-20806722D02*
X8045409Y-20825770D01*
X8045409Y-20825770D02*
X8045409Y-20873389D01*
X8045409Y-20873389D02*
X8035886Y-20892437D01*
X8035886Y-20892437D02*
X8026362Y-20901960D01*
X8026362Y-20901960D02*
X8007314Y-20911484D01*
X8007314Y-20911484D02*
X7950171Y-20911484D01*
X7950171Y-20911484D02*
X7931124Y-20901960D01*
X7931124Y-20901960D02*
X7921600Y-20892437D01*
X8283505Y-20911484D02*
X8283505Y-20711484D01*
X8369219Y-20911484D02*
X8369219Y-20806722D01*
X8369219Y-20806722D02*
X8359695Y-20787675D01*
X8359695Y-20787675D02*
X8340648Y-20778151D01*
X8340648Y-20778151D02*
X8312076Y-20778151D01*
X8312076Y-20778151D02*
X8293029Y-20787675D01*
X8293029Y-20787675D02*
X8283505Y-20797198D01*
X8493029Y-20911484D02*
X8473981Y-20901960D01*
X8473981Y-20901960D02*
X8464457Y-20892437D01*
X8464457Y-20892437D02*
X8454933Y-20873389D01*
X8454933Y-20873389D02*
X8454933Y-20816246D01*
X8454933Y-20816246D02*
X8464457Y-20797198D01*
X8464457Y-20797198D02*
X8473981Y-20787675D01*
X8473981Y-20787675D02*
X8493029Y-20778151D01*
X8493029Y-20778151D02*
X8521600Y-20778151D01*
X8521600Y-20778151D02*
X8540648Y-20787675D01*
X8540648Y-20787675D02*
X8550172Y-20797198D01*
X8550172Y-20797198D02*
X8559695Y-20816246D01*
X8559695Y-20816246D02*
X8559695Y-20873389D01*
X8559695Y-20873389D02*
X8550172Y-20892437D01*
X8550172Y-20892437D02*
X8540648Y-20901960D01*
X8540648Y-20901960D02*
X8521600Y-20911484D01*
X8521600Y-20911484D02*
X8493029Y-20911484D01*
X8673981Y-20911484D02*
X8654933Y-20901960D01*
X8654933Y-20901960D02*
X8645410Y-20882913D01*
X8645410Y-20882913D02*
X8645410Y-20711484D01*
X8826362Y-20901960D02*
X8807314Y-20911484D01*
X8807314Y-20911484D02*
X8769219Y-20911484D01*
X8769219Y-20911484D02*
X8750172Y-20901960D01*
X8750172Y-20901960D02*
X8740648Y-20882913D01*
X8740648Y-20882913D02*
X8740648Y-20806722D01*
X8740648Y-20806722D02*
X8750172Y-20787675D01*
X8750172Y-20787675D02*
X8769219Y-20778151D01*
X8769219Y-20778151D02*
X8807314Y-20778151D01*
X8807314Y-20778151D02*
X8826362Y-20787675D01*
X8826362Y-20787675D02*
X8835886Y-20806722D01*
X8835886Y-20806722D02*
X8835886Y-20825770D01*
X8835886Y-20825770D02*
X8740648Y-20844818D01*
X8912076Y-20901960D02*
X8931124Y-20911484D01*
X8931124Y-20911484D02*
X8969219Y-20911484D01*
X8969219Y-20911484D02*
X8988267Y-20901960D01*
X8988267Y-20901960D02*
X8997791Y-20882913D01*
X8997791Y-20882913D02*
X8997791Y-20873389D01*
X8997791Y-20873389D02*
X8988267Y-20854341D01*
X8988267Y-20854341D02*
X8969219Y-20844818D01*
X8969219Y-20844818D02*
X8940648Y-20844818D01*
X8940648Y-20844818D02*
X8921600Y-20835294D01*
X8921600Y-20835294D02*
X8912076Y-20816246D01*
X8912076Y-20816246D02*
X8912076Y-20806722D01*
X8912076Y-20806722D02*
X8921600Y-20787675D01*
X8921600Y-20787675D02*
X8940648Y-20778151D01*
X8940648Y-20778151D02*
X8969219Y-20778151D01*
X8969219Y-20778151D02*
X8988267Y-20787675D01*
X9064457Y-20987675D02*
X9073981Y-20978151D01*
X9073981Y-20978151D02*
X9093029Y-20949579D01*
X9093029Y-20949579D02*
X9102553Y-20930532D01*
X9102553Y-20930532D02*
X9112076Y-20901960D01*
X9112076Y-20901960D02*
X9121600Y-20854341D01*
X9121600Y-20854341D02*
X9121600Y-20816246D01*
X9121600Y-20816246D02*
X9112076Y-20768627D01*
X9112076Y-20768627D02*
X9102553Y-20740056D01*
X9102553Y-20740056D02*
X9093029Y-20721008D01*
X9093029Y-20721008D02*
X9073981Y-20692437D01*
X9073981Y-20692437D02*
X9064457Y-20682913D01*
X9426362Y-20987675D02*
X9416838Y-20978151D01*
X9416838Y-20978151D02*
X9397791Y-20949579D01*
X9397791Y-20949579D02*
X9388267Y-20930532D01*
X9388267Y-20930532D02*
X9378743Y-20901960D01*
X9378743Y-20901960D02*
X9369219Y-20854341D01*
X9369219Y-20854341D02*
X9369219Y-20816246D01*
X9369219Y-20816246D02*
X9378743Y-20768627D01*
X9378743Y-20768627D02*
X9388267Y-20740056D01*
X9388267Y-20740056D02*
X9397791Y-20721008D01*
X9397791Y-20721008D02*
X9416838Y-20692437D01*
X9416838Y-20692437D02*
X9426362Y-20682913D01*
X9502553Y-20778151D02*
X9502553Y-20911484D01*
X9502553Y-20797198D02*
X9512076Y-20787675D01*
X9512076Y-20787675D02*
X9531124Y-20778151D01*
X9531124Y-20778151D02*
X9559695Y-20778151D01*
X9559695Y-20778151D02*
X9578743Y-20787675D01*
X9578743Y-20787675D02*
X9588267Y-20806722D01*
X9588267Y-20806722D02*
X9588267Y-20911484D01*
X9712076Y-20911484D02*
X9693029Y-20901960D01*
X9693029Y-20901960D02*
X9683505Y-20892437D01*
X9683505Y-20892437D02*
X9673981Y-20873389D01*
X9673981Y-20873389D02*
X9673981Y-20816246D01*
X9673981Y-20816246D02*
X9683505Y-20797198D01*
X9683505Y-20797198D02*
X9693029Y-20787675D01*
X9693029Y-20787675D02*
X9712076Y-20778151D01*
X9712076Y-20778151D02*
X9740648Y-20778151D01*
X9740648Y-20778151D02*
X9759695Y-20787675D01*
X9759695Y-20787675D02*
X9769219Y-20797198D01*
X9769219Y-20797198D02*
X9778743Y-20816246D01*
X9778743Y-20816246D02*
X9778743Y-20873389D01*
X9778743Y-20873389D02*
X9769219Y-20892437D01*
X9769219Y-20892437D02*
X9759695Y-20901960D01*
X9759695Y-20901960D02*
X9740648Y-20911484D01*
X9740648Y-20911484D02*
X9712076Y-20911484D01*
X9835886Y-20778151D02*
X9912076Y-20778151D01*
X9864457Y-20711484D02*
X9864457Y-20882913D01*
X9864457Y-20882913D02*
X9873981Y-20901960D01*
X9873981Y-20901960D02*
X9893029Y-20911484D01*
X9893029Y-20911484D02*
X9912076Y-20911484D01*
X10131124Y-20778151D02*
X10131124Y-20978151D01*
X10131124Y-20787675D02*
X10150172Y-20778151D01*
X10150172Y-20778151D02*
X10188267Y-20778151D01*
X10188267Y-20778151D02*
X10207315Y-20787675D01*
X10207315Y-20787675D02*
X10216838Y-20797198D01*
X10216838Y-20797198D02*
X10226362Y-20816246D01*
X10226362Y-20816246D02*
X10226362Y-20873389D01*
X10226362Y-20873389D02*
X10216838Y-20892437D01*
X10216838Y-20892437D02*
X10207315Y-20901960D01*
X10207315Y-20901960D02*
X10188267Y-20911484D01*
X10188267Y-20911484D02*
X10150172Y-20911484D01*
X10150172Y-20911484D02*
X10131124Y-20901960D01*
X10340648Y-20911484D02*
X10321600Y-20901960D01*
X10321600Y-20901960D02*
X10312076Y-20882913D01*
X10312076Y-20882913D02*
X10312076Y-20711484D01*
X10502553Y-20911484D02*
X10502553Y-20806722D01*
X10502553Y-20806722D02*
X10493029Y-20787675D01*
X10493029Y-20787675D02*
X10473981Y-20778151D01*
X10473981Y-20778151D02*
X10435886Y-20778151D01*
X10435886Y-20778151D02*
X10416838Y-20787675D01*
X10502553Y-20901960D02*
X10483505Y-20911484D01*
X10483505Y-20911484D02*
X10435886Y-20911484D01*
X10435886Y-20911484D02*
X10416838Y-20901960D01*
X10416838Y-20901960D02*
X10407315Y-20882913D01*
X10407315Y-20882913D02*
X10407315Y-20863865D01*
X10407315Y-20863865D02*
X10416838Y-20844818D01*
X10416838Y-20844818D02*
X10435886Y-20835294D01*
X10435886Y-20835294D02*
X10483505Y-20835294D01*
X10483505Y-20835294D02*
X10502553Y-20825770D01*
X10569219Y-20778151D02*
X10645410Y-20778151D01*
X10597791Y-20711484D02*
X10597791Y-20882913D01*
X10597791Y-20882913D02*
X10607315Y-20901960D01*
X10607315Y-20901960D02*
X10626362Y-20911484D01*
X10626362Y-20911484D02*
X10645410Y-20911484D01*
X10788267Y-20901960D02*
X10769219Y-20911484D01*
X10769219Y-20911484D02*
X10731124Y-20911484D01*
X10731124Y-20911484D02*
X10712076Y-20901960D01*
X10712076Y-20901960D02*
X10702553Y-20882913D01*
X10702553Y-20882913D02*
X10702553Y-20806722D01*
X10702553Y-20806722D02*
X10712076Y-20787675D01*
X10712076Y-20787675D02*
X10731124Y-20778151D01*
X10731124Y-20778151D02*
X10769219Y-20778151D01*
X10769219Y-20778151D02*
X10788267Y-20787675D01*
X10788267Y-20787675D02*
X10797791Y-20806722D01*
X10797791Y-20806722D02*
X10797791Y-20825770D01*
X10797791Y-20825770D02*
X10702553Y-20844818D01*
X10969219Y-20911484D02*
X10969219Y-20711484D01*
X10969219Y-20901960D02*
X10950172Y-20911484D01*
X10950172Y-20911484D02*
X10912076Y-20911484D01*
X10912076Y-20911484D02*
X10893029Y-20901960D01*
X10893029Y-20901960D02*
X10883505Y-20892437D01*
X10883505Y-20892437D02*
X10873981Y-20873389D01*
X10873981Y-20873389D02*
X10873981Y-20816246D01*
X10873981Y-20816246D02*
X10883505Y-20797198D01*
X10883505Y-20797198D02*
X10893029Y-20787675D01*
X10893029Y-20787675D02*
X10912076Y-20778151D01*
X10912076Y-20778151D02*
X10950172Y-20778151D01*
X10950172Y-20778151D02*
X10969219Y-20787675D01*
X11045410Y-20987675D02*
X11054934Y-20978151D01*
X11054934Y-20978151D02*
X11073981Y-20949579D01*
X11073981Y-20949579D02*
X11083505Y-20930532D01*
X11083505Y-20930532D02*
X11093029Y-20901960D01*
X11093029Y-20901960D02*
X11102553Y-20854341D01*
X11102553Y-20854341D02*
X11102553Y-20816246D01*
X11102553Y-20816246D02*
X11093029Y-20768627D01*
X11093029Y-20768627D02*
X11083505Y-20740056D01*
X11083505Y-20740056D02*
X11073981Y-20721008D01*
X11073981Y-20721008D02*
X11054934Y-20692437D01*
X11054934Y-20692437D02*
X11045410Y-20682913D01*
X4289394Y-21084000D02*
G75*
G02*
X4089394Y-21084000I-100000J0D01*
G01*
X4089394Y-21084000D02*
G75*
G02*
X4289394Y-21084000I100000J0D01*
G01*
X4540647Y-20994532D02*
X4550171Y-20985008D01*
X4550171Y-20985008D02*
X4569219Y-20975484D01*
X4569219Y-20975484D02*
X4616838Y-20975484D01*
X4616838Y-20975484D02*
X4635885Y-20985008D01*
X4635885Y-20985008D02*
X4645409Y-20994532D01*
X4645409Y-20994532D02*
X4654933Y-21013579D01*
X4654933Y-21013579D02*
X4654933Y-21032627D01*
X4654933Y-21032627D02*
X4645409Y-21061198D01*
X4645409Y-21061198D02*
X4531124Y-21175484D01*
X4531124Y-21175484D02*
X4654933Y-21175484D01*
X4740647Y-21156437D02*
X4750171Y-21165960D01*
X4750171Y-21165960D02*
X4740647Y-21175484D01*
X4740647Y-21175484D02*
X4731124Y-21165960D01*
X4731124Y-21165960D02*
X4740647Y-21156437D01*
X4740647Y-21156437D02*
X4740647Y-21175484D01*
X4816838Y-20975484D02*
X4940647Y-20975484D01*
X4940647Y-20975484D02*
X4873981Y-21051675D01*
X4873981Y-21051675D02*
X4902552Y-21051675D01*
X4902552Y-21051675D02*
X4921600Y-21061198D01*
X4921600Y-21061198D02*
X4931124Y-21070722D01*
X4931124Y-21070722D02*
X4940647Y-21089770D01*
X4940647Y-21089770D02*
X4940647Y-21137389D01*
X4940647Y-21137389D02*
X4931124Y-21156437D01*
X4931124Y-21156437D02*
X4921600Y-21165960D01*
X4921600Y-21165960D02*
X4902552Y-21175484D01*
X4902552Y-21175484D02*
X4845409Y-21175484D01*
X4845409Y-21175484D02*
X4826362Y-21165960D01*
X4826362Y-21165960D02*
X4816838Y-21156437D01*
X5007314Y-20975484D02*
X5140647Y-20975484D01*
X5140647Y-20975484D02*
X5054933Y-21175484D01*
X5312076Y-20975484D02*
X5216838Y-20975484D01*
X5216838Y-20975484D02*
X5207314Y-21070722D01*
X5207314Y-21070722D02*
X5216838Y-21061198D01*
X5216838Y-21061198D02*
X5235885Y-21051675D01*
X5235885Y-21051675D02*
X5283505Y-21051675D01*
X5283505Y-21051675D02*
X5302552Y-21061198D01*
X5302552Y-21061198D02*
X5312076Y-21070722D01*
X5312076Y-21070722D02*
X5321600Y-21089770D01*
X5321600Y-21089770D02*
X5321600Y-21137389D01*
X5321600Y-21137389D02*
X5312076Y-21156437D01*
X5312076Y-21156437D02*
X5302552Y-21165960D01*
X5302552Y-21165960D02*
X5283505Y-21175484D01*
X5283505Y-21175484D02*
X5235885Y-21175484D01*
X5235885Y-21175484D02*
X5216838Y-21165960D01*
X5216838Y-21165960D02*
X5207314Y-21156437D01*
X5407314Y-21175484D02*
X5407314Y-21042151D01*
X5407314Y-21061198D02*
X5416838Y-21051675D01*
X5416838Y-21051675D02*
X5435885Y-21042151D01*
X5435885Y-21042151D02*
X5464457Y-21042151D01*
X5464457Y-21042151D02*
X5483505Y-21051675D01*
X5483505Y-21051675D02*
X5493028Y-21070722D01*
X5493028Y-21070722D02*
X5493028Y-21175484D01*
X5493028Y-21070722D02*
X5502552Y-21051675D01*
X5502552Y-21051675D02*
X5521600Y-21042151D01*
X5521600Y-21042151D02*
X5550171Y-21042151D01*
X5550171Y-21042151D02*
X5569219Y-21051675D01*
X5569219Y-21051675D02*
X5578743Y-21070722D01*
X5578743Y-21070722D02*
X5578743Y-21175484D01*
X5673981Y-21175484D02*
X5673981Y-21042151D01*
X5673981Y-21061198D02*
X5683504Y-21051675D01*
X5683504Y-21051675D02*
X5702552Y-21042151D01*
X5702552Y-21042151D02*
X5731124Y-21042151D01*
X5731124Y-21042151D02*
X5750171Y-21051675D01*
X5750171Y-21051675D02*
X5759695Y-21070722D01*
X5759695Y-21070722D02*
X5759695Y-21175484D01*
X5759695Y-21070722D02*
X5769219Y-21051675D01*
X5769219Y-21051675D02*
X5788266Y-21042151D01*
X5788266Y-21042151D02*
X5816838Y-21042151D01*
X5816838Y-21042151D02*
X5835885Y-21051675D01*
X5835885Y-21051675D02*
X5845409Y-21070722D01*
X5845409Y-21070722D02*
X5845409Y-21175484D01*
X6235885Y-20965960D02*
X6064457Y-21223103D01*
X6493028Y-20975484D02*
X6512076Y-20975484D01*
X6512076Y-20975484D02*
X6531124Y-20985008D01*
X6531124Y-20985008D02*
X6540647Y-20994532D01*
X6540647Y-20994532D02*
X6550171Y-21013579D01*
X6550171Y-21013579D02*
X6559695Y-21051675D01*
X6559695Y-21051675D02*
X6559695Y-21099294D01*
X6559695Y-21099294D02*
X6550171Y-21137389D01*
X6550171Y-21137389D02*
X6540647Y-21156437D01*
X6540647Y-21156437D02*
X6531124Y-21165960D01*
X6531124Y-21165960D02*
X6512076Y-21175484D01*
X6512076Y-21175484D02*
X6493028Y-21175484D01*
X6493028Y-21175484D02*
X6473981Y-21165960D01*
X6473981Y-21165960D02*
X6464457Y-21156437D01*
X6464457Y-21156437D02*
X6454933Y-21137389D01*
X6454933Y-21137389D02*
X6445409Y-21099294D01*
X6445409Y-21099294D02*
X6445409Y-21051675D01*
X6445409Y-21051675D02*
X6454933Y-21013579D01*
X6454933Y-21013579D02*
X6464457Y-20994532D01*
X6464457Y-20994532D02*
X6473981Y-20985008D01*
X6473981Y-20985008D02*
X6493028Y-20975484D01*
X6645409Y-21156437D02*
X6654933Y-21165960D01*
X6654933Y-21165960D02*
X6645409Y-21175484D01*
X6645409Y-21175484D02*
X6635886Y-21165960D01*
X6635886Y-21165960D02*
X6645409Y-21156437D01*
X6645409Y-21156437D02*
X6645409Y-21175484D01*
X6778743Y-20975484D02*
X6797790Y-20975484D01*
X6797790Y-20975484D02*
X6816838Y-20985008D01*
X6816838Y-20985008D02*
X6826362Y-20994532D01*
X6826362Y-20994532D02*
X6835886Y-21013579D01*
X6835886Y-21013579D02*
X6845409Y-21051675D01*
X6845409Y-21051675D02*
X6845409Y-21099294D01*
X6845409Y-21099294D02*
X6835886Y-21137389D01*
X6835886Y-21137389D02*
X6826362Y-21156437D01*
X6826362Y-21156437D02*
X6816838Y-21165960D01*
X6816838Y-21165960D02*
X6797790Y-21175484D01*
X6797790Y-21175484D02*
X6778743Y-21175484D01*
X6778743Y-21175484D02*
X6759695Y-21165960D01*
X6759695Y-21165960D02*
X6750171Y-21156437D01*
X6750171Y-21156437D02*
X6740647Y-21137389D01*
X6740647Y-21137389D02*
X6731124Y-21099294D01*
X6731124Y-21099294D02*
X6731124Y-21051675D01*
X6731124Y-21051675D02*
X6740647Y-21013579D01*
X6740647Y-21013579D02*
X6750171Y-20994532D01*
X6750171Y-20994532D02*
X6759695Y-20985008D01*
X6759695Y-20985008D02*
X6778743Y-20975484D01*
X6940647Y-21175484D02*
X6978743Y-21175484D01*
X6978743Y-21175484D02*
X6997790Y-21165960D01*
X6997790Y-21165960D02*
X7007314Y-21156437D01*
X7007314Y-21156437D02*
X7026362Y-21127865D01*
X7026362Y-21127865D02*
X7035886Y-21089770D01*
X7035886Y-21089770D02*
X7035886Y-21013579D01*
X7035886Y-21013579D02*
X7026362Y-20994532D01*
X7026362Y-20994532D02*
X7016838Y-20985008D01*
X7016838Y-20985008D02*
X6997790Y-20975484D01*
X6997790Y-20975484D02*
X6959695Y-20975484D01*
X6959695Y-20975484D02*
X6940647Y-20985008D01*
X6940647Y-20985008D02*
X6931124Y-20994532D01*
X6931124Y-20994532D02*
X6921600Y-21013579D01*
X6921600Y-21013579D02*
X6921600Y-21061198D01*
X6921600Y-21061198D02*
X6931124Y-21080246D01*
X6931124Y-21080246D02*
X6940647Y-21089770D01*
X6940647Y-21089770D02*
X6959695Y-21099294D01*
X6959695Y-21099294D02*
X6997790Y-21099294D01*
X6997790Y-21099294D02*
X7016838Y-21089770D01*
X7016838Y-21089770D02*
X7026362Y-21080246D01*
X7026362Y-21080246D02*
X7035886Y-21061198D01*
X7102552Y-20975484D02*
X7226362Y-20975484D01*
X7226362Y-20975484D02*
X7159695Y-21051675D01*
X7159695Y-21051675D02*
X7188267Y-21051675D01*
X7188267Y-21051675D02*
X7207314Y-21061198D01*
X7207314Y-21061198D02*
X7216838Y-21070722D01*
X7216838Y-21070722D02*
X7226362Y-21089770D01*
X7226362Y-21089770D02*
X7226362Y-21137389D01*
X7226362Y-21137389D02*
X7216838Y-21156437D01*
X7216838Y-21156437D02*
X7207314Y-21165960D01*
X7207314Y-21165960D02*
X7188267Y-21175484D01*
X7188267Y-21175484D02*
X7131124Y-21175484D01*
X7131124Y-21175484D02*
X7112076Y-21165960D01*
X7112076Y-21165960D02*
X7102552Y-21156437D01*
X7407314Y-20975484D02*
X7312076Y-20975484D01*
X7312076Y-20975484D02*
X7302552Y-21070722D01*
X7302552Y-21070722D02*
X7312076Y-21061198D01*
X7312076Y-21061198D02*
X7331124Y-21051675D01*
X7331124Y-21051675D02*
X7378743Y-21051675D01*
X7378743Y-21051675D02*
X7397790Y-21061198D01*
X7397790Y-21061198D02*
X7407314Y-21070722D01*
X7407314Y-21070722D02*
X7416838Y-21089770D01*
X7416838Y-21089770D02*
X7416838Y-21137389D01*
X7416838Y-21137389D02*
X7407314Y-21156437D01*
X7407314Y-21156437D02*
X7397790Y-21165960D01*
X7397790Y-21165960D02*
X7378743Y-21175484D01*
X7378743Y-21175484D02*
X7331124Y-21175484D01*
X7331124Y-21175484D02*
X7312076Y-21165960D01*
X7312076Y-21165960D02*
X7302552Y-21156437D01*
X7493028Y-20975484D02*
X7493028Y-21013579D01*
X7569219Y-20975484D02*
X7569219Y-21013579D01*
X7864457Y-21251675D02*
X7854933Y-21242151D01*
X7854933Y-21242151D02*
X7835886Y-21213579D01*
X7835886Y-21213579D02*
X7826362Y-21194532D01*
X7826362Y-21194532D02*
X7816838Y-21165960D01*
X7816838Y-21165960D02*
X7807314Y-21118341D01*
X7807314Y-21118341D02*
X7807314Y-21080246D01*
X7807314Y-21080246D02*
X7816838Y-21032627D01*
X7816838Y-21032627D02*
X7826362Y-21004056D01*
X7826362Y-21004056D02*
X7835886Y-20985008D01*
X7835886Y-20985008D02*
X7854933Y-20956437D01*
X7854933Y-20956437D02*
X7864457Y-20946913D01*
X8026362Y-21042151D02*
X8026362Y-21175484D01*
X7978743Y-20965960D02*
X7931124Y-21108818D01*
X7931124Y-21108818D02*
X8054933Y-21108818D01*
X8283505Y-21175484D02*
X8283505Y-20975484D01*
X8369219Y-21175484D02*
X8369219Y-21070722D01*
X8369219Y-21070722D02*
X8359695Y-21051675D01*
X8359695Y-21051675D02*
X8340648Y-21042151D01*
X8340648Y-21042151D02*
X8312076Y-21042151D01*
X8312076Y-21042151D02*
X8293029Y-21051675D01*
X8293029Y-21051675D02*
X8283505Y-21061198D01*
X8493029Y-21175484D02*
X8473981Y-21165960D01*
X8473981Y-21165960D02*
X8464457Y-21156437D01*
X8464457Y-21156437D02*
X8454933Y-21137389D01*
X8454933Y-21137389D02*
X8454933Y-21080246D01*
X8454933Y-21080246D02*
X8464457Y-21061198D01*
X8464457Y-21061198D02*
X8473981Y-21051675D01*
X8473981Y-21051675D02*
X8493029Y-21042151D01*
X8493029Y-21042151D02*
X8521600Y-21042151D01*
X8521600Y-21042151D02*
X8540648Y-21051675D01*
X8540648Y-21051675D02*
X8550172Y-21061198D01*
X8550172Y-21061198D02*
X8559695Y-21080246D01*
X8559695Y-21080246D02*
X8559695Y-21137389D01*
X8559695Y-21137389D02*
X8550172Y-21156437D01*
X8550172Y-21156437D02*
X8540648Y-21165960D01*
X8540648Y-21165960D02*
X8521600Y-21175484D01*
X8521600Y-21175484D02*
X8493029Y-21175484D01*
X8673981Y-21175484D02*
X8654933Y-21165960D01*
X8654933Y-21165960D02*
X8645410Y-21146913D01*
X8645410Y-21146913D02*
X8645410Y-20975484D01*
X8826362Y-21165960D02*
X8807314Y-21175484D01*
X8807314Y-21175484D02*
X8769219Y-21175484D01*
X8769219Y-21175484D02*
X8750172Y-21165960D01*
X8750172Y-21165960D02*
X8740648Y-21146913D01*
X8740648Y-21146913D02*
X8740648Y-21070722D01*
X8740648Y-21070722D02*
X8750172Y-21051675D01*
X8750172Y-21051675D02*
X8769219Y-21042151D01*
X8769219Y-21042151D02*
X8807314Y-21042151D01*
X8807314Y-21042151D02*
X8826362Y-21051675D01*
X8826362Y-21051675D02*
X8835886Y-21070722D01*
X8835886Y-21070722D02*
X8835886Y-21089770D01*
X8835886Y-21089770D02*
X8740648Y-21108818D01*
X8912076Y-21165960D02*
X8931124Y-21175484D01*
X8931124Y-21175484D02*
X8969219Y-21175484D01*
X8969219Y-21175484D02*
X8988267Y-21165960D01*
X8988267Y-21165960D02*
X8997791Y-21146913D01*
X8997791Y-21146913D02*
X8997791Y-21137389D01*
X8997791Y-21137389D02*
X8988267Y-21118341D01*
X8988267Y-21118341D02*
X8969219Y-21108818D01*
X8969219Y-21108818D02*
X8940648Y-21108818D01*
X8940648Y-21108818D02*
X8921600Y-21099294D01*
X8921600Y-21099294D02*
X8912076Y-21080246D01*
X8912076Y-21080246D02*
X8912076Y-21070722D01*
X8912076Y-21070722D02*
X8921600Y-21051675D01*
X8921600Y-21051675D02*
X8940648Y-21042151D01*
X8940648Y-21042151D02*
X8969219Y-21042151D01*
X8969219Y-21042151D02*
X8988267Y-21051675D01*
X9064457Y-21251675D02*
X9073981Y-21242151D01*
X9073981Y-21242151D02*
X9093029Y-21213579D01*
X9093029Y-21213579D02*
X9102553Y-21194532D01*
X9102553Y-21194532D02*
X9112076Y-21165960D01*
X9112076Y-21165960D02*
X9121600Y-21118341D01*
X9121600Y-21118341D02*
X9121600Y-21080246D01*
X9121600Y-21080246D02*
X9112076Y-21032627D01*
X9112076Y-21032627D02*
X9102553Y-21004056D01*
X9102553Y-21004056D02*
X9093029Y-20985008D01*
X9093029Y-20985008D02*
X9073981Y-20956437D01*
X9073981Y-20956437D02*
X9064457Y-20946913D01*
X9426362Y-21251675D02*
X9416838Y-21242151D01*
X9416838Y-21242151D02*
X9397791Y-21213579D01*
X9397791Y-21213579D02*
X9388267Y-21194532D01*
X9388267Y-21194532D02*
X9378743Y-21165960D01*
X9378743Y-21165960D02*
X9369219Y-21118341D01*
X9369219Y-21118341D02*
X9369219Y-21080246D01*
X9369219Y-21080246D02*
X9378743Y-21032627D01*
X9378743Y-21032627D02*
X9388267Y-21004056D01*
X9388267Y-21004056D02*
X9397791Y-20985008D01*
X9397791Y-20985008D02*
X9416838Y-20956437D01*
X9416838Y-20956437D02*
X9426362Y-20946913D01*
X9502553Y-21042151D02*
X9502553Y-21175484D01*
X9502553Y-21061198D02*
X9512076Y-21051675D01*
X9512076Y-21051675D02*
X9531124Y-21042151D01*
X9531124Y-21042151D02*
X9559695Y-21042151D01*
X9559695Y-21042151D02*
X9578743Y-21051675D01*
X9578743Y-21051675D02*
X9588267Y-21070722D01*
X9588267Y-21070722D02*
X9588267Y-21175484D01*
X9712076Y-21175484D02*
X9693029Y-21165960D01*
X9693029Y-21165960D02*
X9683505Y-21156437D01*
X9683505Y-21156437D02*
X9673981Y-21137389D01*
X9673981Y-21137389D02*
X9673981Y-21080246D01*
X9673981Y-21080246D02*
X9683505Y-21061198D01*
X9683505Y-21061198D02*
X9693029Y-21051675D01*
X9693029Y-21051675D02*
X9712076Y-21042151D01*
X9712076Y-21042151D02*
X9740648Y-21042151D01*
X9740648Y-21042151D02*
X9759695Y-21051675D01*
X9759695Y-21051675D02*
X9769219Y-21061198D01*
X9769219Y-21061198D02*
X9778743Y-21080246D01*
X9778743Y-21080246D02*
X9778743Y-21137389D01*
X9778743Y-21137389D02*
X9769219Y-21156437D01*
X9769219Y-21156437D02*
X9759695Y-21165960D01*
X9759695Y-21165960D02*
X9740648Y-21175484D01*
X9740648Y-21175484D02*
X9712076Y-21175484D01*
X9835886Y-21042151D02*
X9912076Y-21042151D01*
X9864457Y-20975484D02*
X9864457Y-21146913D01*
X9864457Y-21146913D02*
X9873981Y-21165960D01*
X9873981Y-21165960D02*
X9893029Y-21175484D01*
X9893029Y-21175484D02*
X9912076Y-21175484D01*
X10131124Y-21042151D02*
X10131124Y-21242151D01*
X10131124Y-21051675D02*
X10150172Y-21042151D01*
X10150172Y-21042151D02*
X10188267Y-21042151D01*
X10188267Y-21042151D02*
X10207315Y-21051675D01*
X10207315Y-21051675D02*
X10216838Y-21061198D01*
X10216838Y-21061198D02*
X10226362Y-21080246D01*
X10226362Y-21080246D02*
X10226362Y-21137389D01*
X10226362Y-21137389D02*
X10216838Y-21156437D01*
X10216838Y-21156437D02*
X10207315Y-21165960D01*
X10207315Y-21165960D02*
X10188267Y-21175484D01*
X10188267Y-21175484D02*
X10150172Y-21175484D01*
X10150172Y-21175484D02*
X10131124Y-21165960D01*
X10340648Y-21175484D02*
X10321600Y-21165960D01*
X10321600Y-21165960D02*
X10312076Y-21146913D01*
X10312076Y-21146913D02*
X10312076Y-20975484D01*
X10502553Y-21175484D02*
X10502553Y-21070722D01*
X10502553Y-21070722D02*
X10493029Y-21051675D01*
X10493029Y-21051675D02*
X10473981Y-21042151D01*
X10473981Y-21042151D02*
X10435886Y-21042151D01*
X10435886Y-21042151D02*
X10416838Y-21051675D01*
X10502553Y-21165960D02*
X10483505Y-21175484D01*
X10483505Y-21175484D02*
X10435886Y-21175484D01*
X10435886Y-21175484D02*
X10416838Y-21165960D01*
X10416838Y-21165960D02*
X10407315Y-21146913D01*
X10407315Y-21146913D02*
X10407315Y-21127865D01*
X10407315Y-21127865D02*
X10416838Y-21108818D01*
X10416838Y-21108818D02*
X10435886Y-21099294D01*
X10435886Y-21099294D02*
X10483505Y-21099294D01*
X10483505Y-21099294D02*
X10502553Y-21089770D01*
X10569219Y-21042151D02*
X10645410Y-21042151D01*
X10597791Y-20975484D02*
X10597791Y-21146913D01*
X10597791Y-21146913D02*
X10607315Y-21165960D01*
X10607315Y-21165960D02*
X10626362Y-21175484D01*
X10626362Y-21175484D02*
X10645410Y-21175484D01*
X10788267Y-21165960D02*
X10769219Y-21175484D01*
X10769219Y-21175484D02*
X10731124Y-21175484D01*
X10731124Y-21175484D02*
X10712076Y-21165960D01*
X10712076Y-21165960D02*
X10702553Y-21146913D01*
X10702553Y-21146913D02*
X10702553Y-21070722D01*
X10702553Y-21070722D02*
X10712076Y-21051675D01*
X10712076Y-21051675D02*
X10731124Y-21042151D01*
X10731124Y-21042151D02*
X10769219Y-21042151D01*
X10769219Y-21042151D02*
X10788267Y-21051675D01*
X10788267Y-21051675D02*
X10797791Y-21070722D01*
X10797791Y-21070722D02*
X10797791Y-21089770D01*
X10797791Y-21089770D02*
X10702553Y-21108818D01*
X10969219Y-21175484D02*
X10969219Y-20975484D01*
X10969219Y-21165960D02*
X10950172Y-21175484D01*
X10950172Y-21175484D02*
X10912076Y-21175484D01*
X10912076Y-21175484D02*
X10893029Y-21165960D01*
X10893029Y-21165960D02*
X10883505Y-21156437D01*
X10883505Y-21156437D02*
X10873981Y-21137389D01*
X10873981Y-21137389D02*
X10873981Y-21080246D01*
X10873981Y-21080246D02*
X10883505Y-21061198D01*
X10883505Y-21061198D02*
X10893029Y-21051675D01*
X10893029Y-21051675D02*
X10912076Y-21042151D01*
X10912076Y-21042151D02*
X10950172Y-21042151D01*
X10950172Y-21042151D02*
X10969219Y-21051675D01*
X11045410Y-21251675D02*
X11054934Y-21242151D01*
X11054934Y-21242151D02*
X11073981Y-21213579D01*
X11073981Y-21213579D02*
X11083505Y-21194532D01*
X11083505Y-21194532D02*
X11093029Y-21165960D01*
X11093029Y-21165960D02*
X11102553Y-21118341D01*
X11102553Y-21118341D02*
X11102553Y-21080246D01*
X11102553Y-21080246D02*
X11093029Y-21032627D01*
X11093029Y-21032627D02*
X11083505Y-21004056D01*
X11083505Y-21004056D02*
X11073981Y-20985008D01*
X11073981Y-20985008D02*
X11054934Y-20956437D01*
X11054934Y-20956437D02*
X11045410Y-20946913D01*
X4189394Y-21304000D02*
X4189394Y-21504000D01*
X4089394Y-21404000D02*
X4289394Y-21404000D01*
X4531124Y-21295484D02*
X4654933Y-21295484D01*
X4654933Y-21295484D02*
X4588266Y-21371675D01*
X4588266Y-21371675D02*
X4616838Y-21371675D01*
X4616838Y-21371675D02*
X4635885Y-21381198D01*
X4635885Y-21381198D02*
X4645409Y-21390722D01*
X4645409Y-21390722D02*
X4654933Y-21409770D01*
X4654933Y-21409770D02*
X4654933Y-21457389D01*
X4654933Y-21457389D02*
X4645409Y-21476437D01*
X4645409Y-21476437D02*
X4635885Y-21485960D01*
X4635885Y-21485960D02*
X4616838Y-21495484D01*
X4616838Y-21495484D02*
X4559695Y-21495484D01*
X4559695Y-21495484D02*
X4540647Y-21485960D01*
X4540647Y-21485960D02*
X4531124Y-21476437D01*
X4740647Y-21476437D02*
X4750171Y-21485960D01*
X4750171Y-21485960D02*
X4740647Y-21495484D01*
X4740647Y-21495484D02*
X4731124Y-21485960D01*
X4731124Y-21485960D02*
X4740647Y-21476437D01*
X4740647Y-21476437D02*
X4740647Y-21495484D01*
X4921600Y-21362151D02*
X4921600Y-21495484D01*
X4873981Y-21285960D02*
X4826362Y-21428818D01*
X4826362Y-21428818D02*
X4950171Y-21428818D01*
X5064457Y-21295484D02*
X5083505Y-21295484D01*
X5083505Y-21295484D02*
X5102552Y-21305008D01*
X5102552Y-21305008D02*
X5112076Y-21314532D01*
X5112076Y-21314532D02*
X5121600Y-21333579D01*
X5121600Y-21333579D02*
X5131124Y-21371675D01*
X5131124Y-21371675D02*
X5131124Y-21419294D01*
X5131124Y-21419294D02*
X5121600Y-21457389D01*
X5121600Y-21457389D02*
X5112076Y-21476437D01*
X5112076Y-21476437D02*
X5102552Y-21485960D01*
X5102552Y-21485960D02*
X5083505Y-21495484D01*
X5083505Y-21495484D02*
X5064457Y-21495484D01*
X5064457Y-21495484D02*
X5045409Y-21485960D01*
X5045409Y-21485960D02*
X5035885Y-21476437D01*
X5035885Y-21476437D02*
X5026362Y-21457389D01*
X5026362Y-21457389D02*
X5016838Y-21419294D01*
X5016838Y-21419294D02*
X5016838Y-21371675D01*
X5016838Y-21371675D02*
X5026362Y-21333579D01*
X5026362Y-21333579D02*
X5035885Y-21314532D01*
X5035885Y-21314532D02*
X5045409Y-21305008D01*
X5045409Y-21305008D02*
X5064457Y-21295484D01*
X5254933Y-21295484D02*
X5273981Y-21295484D01*
X5273981Y-21295484D02*
X5293028Y-21305008D01*
X5293028Y-21305008D02*
X5302552Y-21314532D01*
X5302552Y-21314532D02*
X5312076Y-21333579D01*
X5312076Y-21333579D02*
X5321600Y-21371675D01*
X5321600Y-21371675D02*
X5321600Y-21419294D01*
X5321600Y-21419294D02*
X5312076Y-21457389D01*
X5312076Y-21457389D02*
X5302552Y-21476437D01*
X5302552Y-21476437D02*
X5293028Y-21485960D01*
X5293028Y-21485960D02*
X5273981Y-21495484D01*
X5273981Y-21495484D02*
X5254933Y-21495484D01*
X5254933Y-21495484D02*
X5235885Y-21485960D01*
X5235885Y-21485960D02*
X5226362Y-21476437D01*
X5226362Y-21476437D02*
X5216838Y-21457389D01*
X5216838Y-21457389D02*
X5207314Y-21419294D01*
X5207314Y-21419294D02*
X5207314Y-21371675D01*
X5207314Y-21371675D02*
X5216838Y-21333579D01*
X5216838Y-21333579D02*
X5226362Y-21314532D01*
X5226362Y-21314532D02*
X5235885Y-21305008D01*
X5235885Y-21305008D02*
X5254933Y-21295484D01*
X5407314Y-21495484D02*
X5407314Y-21362151D01*
X5407314Y-21381198D02*
X5416838Y-21371675D01*
X5416838Y-21371675D02*
X5435885Y-21362151D01*
X5435885Y-21362151D02*
X5464457Y-21362151D01*
X5464457Y-21362151D02*
X5483505Y-21371675D01*
X5483505Y-21371675D02*
X5493028Y-21390722D01*
X5493028Y-21390722D02*
X5493028Y-21495484D01*
X5493028Y-21390722D02*
X5502552Y-21371675D01*
X5502552Y-21371675D02*
X5521600Y-21362151D01*
X5521600Y-21362151D02*
X5550171Y-21362151D01*
X5550171Y-21362151D02*
X5569219Y-21371675D01*
X5569219Y-21371675D02*
X5578743Y-21390722D01*
X5578743Y-21390722D02*
X5578743Y-21495484D01*
X5673981Y-21495484D02*
X5673981Y-21362151D01*
X5673981Y-21381198D02*
X5683504Y-21371675D01*
X5683504Y-21371675D02*
X5702552Y-21362151D01*
X5702552Y-21362151D02*
X5731124Y-21362151D01*
X5731124Y-21362151D02*
X5750171Y-21371675D01*
X5750171Y-21371675D02*
X5759695Y-21390722D01*
X5759695Y-21390722D02*
X5759695Y-21495484D01*
X5759695Y-21390722D02*
X5769219Y-21371675D01*
X5769219Y-21371675D02*
X5788266Y-21362151D01*
X5788266Y-21362151D02*
X5816838Y-21362151D01*
X5816838Y-21362151D02*
X5835885Y-21371675D01*
X5835885Y-21371675D02*
X5845409Y-21390722D01*
X5845409Y-21390722D02*
X5845409Y-21495484D01*
X6235885Y-21285960D02*
X6064457Y-21543103D01*
X6493028Y-21295484D02*
X6512076Y-21295484D01*
X6512076Y-21295484D02*
X6531124Y-21305008D01*
X6531124Y-21305008D02*
X6540647Y-21314532D01*
X6540647Y-21314532D02*
X6550171Y-21333579D01*
X6550171Y-21333579D02*
X6559695Y-21371675D01*
X6559695Y-21371675D02*
X6559695Y-21419294D01*
X6559695Y-21419294D02*
X6550171Y-21457389D01*
X6550171Y-21457389D02*
X6540647Y-21476437D01*
X6540647Y-21476437D02*
X6531124Y-21485960D01*
X6531124Y-21485960D02*
X6512076Y-21495484D01*
X6512076Y-21495484D02*
X6493028Y-21495484D01*
X6493028Y-21495484D02*
X6473981Y-21485960D01*
X6473981Y-21485960D02*
X6464457Y-21476437D01*
X6464457Y-21476437D02*
X6454933Y-21457389D01*
X6454933Y-21457389D02*
X6445409Y-21419294D01*
X6445409Y-21419294D02*
X6445409Y-21371675D01*
X6445409Y-21371675D02*
X6454933Y-21333579D01*
X6454933Y-21333579D02*
X6464457Y-21314532D01*
X6464457Y-21314532D02*
X6473981Y-21305008D01*
X6473981Y-21305008D02*
X6493028Y-21295484D01*
X6645409Y-21476437D02*
X6654933Y-21485960D01*
X6654933Y-21485960D02*
X6645409Y-21495484D01*
X6645409Y-21495484D02*
X6635886Y-21485960D01*
X6635886Y-21485960D02*
X6645409Y-21476437D01*
X6645409Y-21476437D02*
X6645409Y-21495484D01*
X6845409Y-21495484D02*
X6731124Y-21495484D01*
X6788266Y-21495484D02*
X6788266Y-21295484D01*
X6788266Y-21295484D02*
X6769219Y-21324056D01*
X6769219Y-21324056D02*
X6750171Y-21343103D01*
X6750171Y-21343103D02*
X6731124Y-21352627D01*
X6912076Y-21295484D02*
X7035886Y-21295484D01*
X7035886Y-21295484D02*
X6969219Y-21371675D01*
X6969219Y-21371675D02*
X6997790Y-21371675D01*
X6997790Y-21371675D02*
X7016838Y-21381198D01*
X7016838Y-21381198D02*
X7026362Y-21390722D01*
X7026362Y-21390722D02*
X7035886Y-21409770D01*
X7035886Y-21409770D02*
X7035886Y-21457389D01*
X7035886Y-21457389D02*
X7026362Y-21476437D01*
X7026362Y-21476437D02*
X7016838Y-21485960D01*
X7016838Y-21485960D02*
X6997790Y-21495484D01*
X6997790Y-21495484D02*
X6940647Y-21495484D01*
X6940647Y-21495484D02*
X6921600Y-21485960D01*
X6921600Y-21485960D02*
X6912076Y-21476437D01*
X7102552Y-21295484D02*
X7226362Y-21295484D01*
X7226362Y-21295484D02*
X7159695Y-21371675D01*
X7159695Y-21371675D02*
X7188267Y-21371675D01*
X7188267Y-21371675D02*
X7207314Y-21381198D01*
X7207314Y-21381198D02*
X7216838Y-21390722D01*
X7216838Y-21390722D02*
X7226362Y-21409770D01*
X7226362Y-21409770D02*
X7226362Y-21457389D01*
X7226362Y-21457389D02*
X7216838Y-21476437D01*
X7216838Y-21476437D02*
X7207314Y-21485960D01*
X7207314Y-21485960D02*
X7188267Y-21495484D01*
X7188267Y-21495484D02*
X7131124Y-21495484D01*
X7131124Y-21495484D02*
X7112076Y-21485960D01*
X7112076Y-21485960D02*
X7102552Y-21476437D01*
X7321600Y-21495484D02*
X7359695Y-21495484D01*
X7359695Y-21495484D02*
X7378743Y-21485960D01*
X7378743Y-21485960D02*
X7388267Y-21476437D01*
X7388267Y-21476437D02*
X7407314Y-21447865D01*
X7407314Y-21447865D02*
X7416838Y-21409770D01*
X7416838Y-21409770D02*
X7416838Y-21333579D01*
X7416838Y-21333579D02*
X7407314Y-21314532D01*
X7407314Y-21314532D02*
X7397790Y-21305008D01*
X7397790Y-21305008D02*
X7378743Y-21295484D01*
X7378743Y-21295484D02*
X7340647Y-21295484D01*
X7340647Y-21295484D02*
X7321600Y-21305008D01*
X7321600Y-21305008D02*
X7312076Y-21314532D01*
X7312076Y-21314532D02*
X7302552Y-21333579D01*
X7302552Y-21333579D02*
X7302552Y-21381198D01*
X7302552Y-21381198D02*
X7312076Y-21400246D01*
X7312076Y-21400246D02*
X7321600Y-21409770D01*
X7321600Y-21409770D02*
X7340647Y-21419294D01*
X7340647Y-21419294D02*
X7378743Y-21419294D01*
X7378743Y-21419294D02*
X7397790Y-21409770D01*
X7397790Y-21409770D02*
X7407314Y-21400246D01*
X7407314Y-21400246D02*
X7416838Y-21381198D01*
X7493028Y-21295484D02*
X7493028Y-21333579D01*
X7569219Y-21295484D02*
X7569219Y-21333579D01*
X7864457Y-21571675D02*
X7854933Y-21562151D01*
X7854933Y-21562151D02*
X7835886Y-21533579D01*
X7835886Y-21533579D02*
X7826362Y-21514532D01*
X7826362Y-21514532D02*
X7816838Y-21485960D01*
X7816838Y-21485960D02*
X7807314Y-21438341D01*
X7807314Y-21438341D02*
X7807314Y-21400246D01*
X7807314Y-21400246D02*
X7816838Y-21352627D01*
X7816838Y-21352627D02*
X7826362Y-21324056D01*
X7826362Y-21324056D02*
X7835886Y-21305008D01*
X7835886Y-21305008D02*
X7854933Y-21276437D01*
X7854933Y-21276437D02*
X7864457Y-21266913D01*
X8026362Y-21295484D02*
X7988267Y-21295484D01*
X7988267Y-21295484D02*
X7969219Y-21305008D01*
X7969219Y-21305008D02*
X7959695Y-21314532D01*
X7959695Y-21314532D02*
X7940648Y-21343103D01*
X7940648Y-21343103D02*
X7931124Y-21381198D01*
X7931124Y-21381198D02*
X7931124Y-21457389D01*
X7931124Y-21457389D02*
X7940648Y-21476437D01*
X7940648Y-21476437D02*
X7950171Y-21485960D01*
X7950171Y-21485960D02*
X7969219Y-21495484D01*
X7969219Y-21495484D02*
X8007314Y-21495484D01*
X8007314Y-21495484D02*
X8026362Y-21485960D01*
X8026362Y-21485960D02*
X8035886Y-21476437D01*
X8035886Y-21476437D02*
X8045409Y-21457389D01*
X8045409Y-21457389D02*
X8045409Y-21409770D01*
X8045409Y-21409770D02*
X8035886Y-21390722D01*
X8035886Y-21390722D02*
X8026362Y-21381198D01*
X8026362Y-21381198D02*
X8007314Y-21371675D01*
X8007314Y-21371675D02*
X7969219Y-21371675D01*
X7969219Y-21371675D02*
X7950171Y-21381198D01*
X7950171Y-21381198D02*
X7940648Y-21390722D01*
X7940648Y-21390722D02*
X7931124Y-21409770D01*
X8283505Y-21495484D02*
X8283505Y-21295484D01*
X8369219Y-21495484D02*
X8369219Y-21390722D01*
X8369219Y-21390722D02*
X8359695Y-21371675D01*
X8359695Y-21371675D02*
X8340648Y-21362151D01*
X8340648Y-21362151D02*
X8312076Y-21362151D01*
X8312076Y-21362151D02*
X8293029Y-21371675D01*
X8293029Y-21371675D02*
X8283505Y-21381198D01*
X8493029Y-21495484D02*
X8473981Y-21485960D01*
X8473981Y-21485960D02*
X8464457Y-21476437D01*
X8464457Y-21476437D02*
X8454933Y-21457389D01*
X8454933Y-21457389D02*
X8454933Y-21400246D01*
X8454933Y-21400246D02*
X8464457Y-21381198D01*
X8464457Y-21381198D02*
X8473981Y-21371675D01*
X8473981Y-21371675D02*
X8493029Y-21362151D01*
X8493029Y-21362151D02*
X8521600Y-21362151D01*
X8521600Y-21362151D02*
X8540648Y-21371675D01*
X8540648Y-21371675D02*
X8550172Y-21381198D01*
X8550172Y-21381198D02*
X8559695Y-21400246D01*
X8559695Y-21400246D02*
X8559695Y-21457389D01*
X8559695Y-21457389D02*
X8550172Y-21476437D01*
X8550172Y-21476437D02*
X8540648Y-21485960D01*
X8540648Y-21485960D02*
X8521600Y-21495484D01*
X8521600Y-21495484D02*
X8493029Y-21495484D01*
X8673981Y-21495484D02*
X8654933Y-21485960D01*
X8654933Y-21485960D02*
X8645410Y-21466913D01*
X8645410Y-21466913D02*
X8645410Y-21295484D01*
X8826362Y-21485960D02*
X8807314Y-21495484D01*
X8807314Y-21495484D02*
X8769219Y-21495484D01*
X8769219Y-21495484D02*
X8750172Y-21485960D01*
X8750172Y-21485960D02*
X8740648Y-21466913D01*
X8740648Y-21466913D02*
X8740648Y-21390722D01*
X8740648Y-21390722D02*
X8750172Y-21371675D01*
X8750172Y-21371675D02*
X8769219Y-21362151D01*
X8769219Y-21362151D02*
X8807314Y-21362151D01*
X8807314Y-21362151D02*
X8826362Y-21371675D01*
X8826362Y-21371675D02*
X8835886Y-21390722D01*
X8835886Y-21390722D02*
X8835886Y-21409770D01*
X8835886Y-21409770D02*
X8740648Y-21428818D01*
X8912076Y-21485960D02*
X8931124Y-21495484D01*
X8931124Y-21495484D02*
X8969219Y-21495484D01*
X8969219Y-21495484D02*
X8988267Y-21485960D01*
X8988267Y-21485960D02*
X8997791Y-21466913D01*
X8997791Y-21466913D02*
X8997791Y-21457389D01*
X8997791Y-21457389D02*
X8988267Y-21438341D01*
X8988267Y-21438341D02*
X8969219Y-21428818D01*
X8969219Y-21428818D02*
X8940648Y-21428818D01*
X8940648Y-21428818D02*
X8921600Y-21419294D01*
X8921600Y-21419294D02*
X8912076Y-21400246D01*
X8912076Y-21400246D02*
X8912076Y-21390722D01*
X8912076Y-21390722D02*
X8921600Y-21371675D01*
X8921600Y-21371675D02*
X8940648Y-21362151D01*
X8940648Y-21362151D02*
X8969219Y-21362151D01*
X8969219Y-21362151D02*
X8988267Y-21371675D01*
X9064457Y-21571675D02*
X9073981Y-21562151D01*
X9073981Y-21562151D02*
X9093029Y-21533579D01*
X9093029Y-21533579D02*
X9102553Y-21514532D01*
X9102553Y-21514532D02*
X9112076Y-21485960D01*
X9112076Y-21485960D02*
X9121600Y-21438341D01*
X9121600Y-21438341D02*
X9121600Y-21400246D01*
X9121600Y-21400246D02*
X9112076Y-21352627D01*
X9112076Y-21352627D02*
X9102553Y-21324056D01*
X9102553Y-21324056D02*
X9093029Y-21305008D01*
X9093029Y-21305008D02*
X9073981Y-21276437D01*
X9073981Y-21276437D02*
X9064457Y-21266913D01*
X9426362Y-21571675D02*
X9416838Y-21562151D01*
X9416838Y-21562151D02*
X9397791Y-21533579D01*
X9397791Y-21533579D02*
X9388267Y-21514532D01*
X9388267Y-21514532D02*
X9378743Y-21485960D01*
X9378743Y-21485960D02*
X9369219Y-21438341D01*
X9369219Y-21438341D02*
X9369219Y-21400246D01*
X9369219Y-21400246D02*
X9378743Y-21352627D01*
X9378743Y-21352627D02*
X9388267Y-21324056D01*
X9388267Y-21324056D02*
X9397791Y-21305008D01*
X9397791Y-21305008D02*
X9416838Y-21276437D01*
X9416838Y-21276437D02*
X9426362Y-21266913D01*
X9502553Y-21362151D02*
X9502553Y-21495484D01*
X9502553Y-21381198D02*
X9512076Y-21371675D01*
X9512076Y-21371675D02*
X9531124Y-21362151D01*
X9531124Y-21362151D02*
X9559695Y-21362151D01*
X9559695Y-21362151D02*
X9578743Y-21371675D01*
X9578743Y-21371675D02*
X9588267Y-21390722D01*
X9588267Y-21390722D02*
X9588267Y-21495484D01*
X9712076Y-21495484D02*
X9693029Y-21485960D01*
X9693029Y-21485960D02*
X9683505Y-21476437D01*
X9683505Y-21476437D02*
X9673981Y-21457389D01*
X9673981Y-21457389D02*
X9673981Y-21400246D01*
X9673981Y-21400246D02*
X9683505Y-21381198D01*
X9683505Y-21381198D02*
X9693029Y-21371675D01*
X9693029Y-21371675D02*
X9712076Y-21362151D01*
X9712076Y-21362151D02*
X9740648Y-21362151D01*
X9740648Y-21362151D02*
X9759695Y-21371675D01*
X9759695Y-21371675D02*
X9769219Y-21381198D01*
X9769219Y-21381198D02*
X9778743Y-21400246D01*
X9778743Y-21400246D02*
X9778743Y-21457389D01*
X9778743Y-21457389D02*
X9769219Y-21476437D01*
X9769219Y-21476437D02*
X9759695Y-21485960D01*
X9759695Y-21485960D02*
X9740648Y-21495484D01*
X9740648Y-21495484D02*
X9712076Y-21495484D01*
X9835886Y-21362151D02*
X9912076Y-21362151D01*
X9864457Y-21295484D02*
X9864457Y-21466913D01*
X9864457Y-21466913D02*
X9873981Y-21485960D01*
X9873981Y-21485960D02*
X9893029Y-21495484D01*
X9893029Y-21495484D02*
X9912076Y-21495484D01*
X10131124Y-21362151D02*
X10131124Y-21562151D01*
X10131124Y-21371675D02*
X10150172Y-21362151D01*
X10150172Y-21362151D02*
X10188267Y-21362151D01*
X10188267Y-21362151D02*
X10207315Y-21371675D01*
X10207315Y-21371675D02*
X10216838Y-21381198D01*
X10216838Y-21381198D02*
X10226362Y-21400246D01*
X10226362Y-21400246D02*
X10226362Y-21457389D01*
X10226362Y-21457389D02*
X10216838Y-21476437D01*
X10216838Y-21476437D02*
X10207315Y-21485960D01*
X10207315Y-21485960D02*
X10188267Y-21495484D01*
X10188267Y-21495484D02*
X10150172Y-21495484D01*
X10150172Y-21495484D02*
X10131124Y-21485960D01*
X10340648Y-21495484D02*
X10321600Y-21485960D01*
X10321600Y-21485960D02*
X10312076Y-21466913D01*
X10312076Y-21466913D02*
X10312076Y-21295484D01*
X10502553Y-21495484D02*
X10502553Y-21390722D01*
X10502553Y-21390722D02*
X10493029Y-21371675D01*
X10493029Y-21371675D02*
X10473981Y-21362151D01*
X10473981Y-21362151D02*
X10435886Y-21362151D01*
X10435886Y-21362151D02*
X10416838Y-21371675D01*
X10502553Y-21485960D02*
X10483505Y-21495484D01*
X10483505Y-21495484D02*
X10435886Y-21495484D01*
X10435886Y-21495484D02*
X10416838Y-21485960D01*
X10416838Y-21485960D02*
X10407315Y-21466913D01*
X10407315Y-21466913D02*
X10407315Y-21447865D01*
X10407315Y-21447865D02*
X10416838Y-21428818D01*
X10416838Y-21428818D02*
X10435886Y-21419294D01*
X10435886Y-21419294D02*
X10483505Y-21419294D01*
X10483505Y-21419294D02*
X10502553Y-21409770D01*
X10569219Y-21362151D02*
X10645410Y-21362151D01*
X10597791Y-21295484D02*
X10597791Y-21466913D01*
X10597791Y-21466913D02*
X10607315Y-21485960D01*
X10607315Y-21485960D02*
X10626362Y-21495484D01*
X10626362Y-21495484D02*
X10645410Y-21495484D01*
X10788267Y-21485960D02*
X10769219Y-21495484D01*
X10769219Y-21495484D02*
X10731124Y-21495484D01*
X10731124Y-21495484D02*
X10712076Y-21485960D01*
X10712076Y-21485960D02*
X10702553Y-21466913D01*
X10702553Y-21466913D02*
X10702553Y-21390722D01*
X10702553Y-21390722D02*
X10712076Y-21371675D01*
X10712076Y-21371675D02*
X10731124Y-21362151D01*
X10731124Y-21362151D02*
X10769219Y-21362151D01*
X10769219Y-21362151D02*
X10788267Y-21371675D01*
X10788267Y-21371675D02*
X10797791Y-21390722D01*
X10797791Y-21390722D02*
X10797791Y-21409770D01*
X10797791Y-21409770D02*
X10702553Y-21428818D01*
X10969219Y-21495484D02*
X10969219Y-21295484D01*
X10969219Y-21485960D02*
X10950172Y-21495484D01*
X10950172Y-21495484D02*
X10912076Y-21495484D01*
X10912076Y-21495484D02*
X10893029Y-21485960D01*
X10893029Y-21485960D02*
X10883505Y-21476437D01*
X10883505Y-21476437D02*
X10873981Y-21457389D01*
X10873981Y-21457389D02*
X10873981Y-21400246D01*
X10873981Y-21400246D02*
X10883505Y-21381198D01*
X10883505Y-21381198D02*
X10893029Y-21371675D01*
X10893029Y-21371675D02*
X10912076Y-21362151D01*
X10912076Y-21362151D02*
X10950172Y-21362151D01*
X10950172Y-21362151D02*
X10969219Y-21371675D01*
X11045410Y-21571675D02*
X11054934Y-21562151D01*
X11054934Y-21562151D02*
X11073981Y-21533579D01*
X11073981Y-21533579D02*
X11083505Y-21514532D01*
X11083505Y-21514532D02*
X11093029Y-21485960D01*
X11093029Y-21485960D02*
X11102553Y-21438341D01*
X11102553Y-21438341D02*
X11102553Y-21400246D01*
X11102553Y-21400246D02*
X11093029Y-21352627D01*
X11093029Y-21352627D02*
X11083505Y-21324056D01*
X11083505Y-21324056D02*
X11073981Y-21305008D01*
X11073981Y-21305008D02*
X11054934Y-21276437D01*
X11054934Y-21276437D02*
X11045410Y-21266913D01*
X4260106Y-21794712D02*
X4260106Y-21653289D01*
X4118683Y-21653289D01*
X4118683Y-21794712D01*
X4260106Y-21794712D01*
X4531124Y-21615484D02*
X4654933Y-21615484D01*
X4654933Y-21615484D02*
X4588266Y-21691675D01*
X4588266Y-21691675D02*
X4616838Y-21691675D01*
X4616838Y-21691675D02*
X4635885Y-21701198D01*
X4635885Y-21701198D02*
X4645409Y-21710722D01*
X4645409Y-21710722D02*
X4654933Y-21729770D01*
X4654933Y-21729770D02*
X4654933Y-21777389D01*
X4654933Y-21777389D02*
X4645409Y-21796437D01*
X4645409Y-21796437D02*
X4635885Y-21805960D01*
X4635885Y-21805960D02*
X4616838Y-21815484D01*
X4616838Y-21815484D02*
X4559695Y-21815484D01*
X4559695Y-21815484D02*
X4540647Y-21805960D01*
X4540647Y-21805960D02*
X4531124Y-21796437D01*
X4740647Y-21796437D02*
X4750171Y-21805960D01*
X4750171Y-21805960D02*
X4740647Y-21815484D01*
X4740647Y-21815484D02*
X4731124Y-21805960D01*
X4731124Y-21805960D02*
X4740647Y-21796437D01*
X4740647Y-21796437D02*
X4740647Y-21815484D01*
X4931124Y-21615484D02*
X4835885Y-21615484D01*
X4835885Y-21615484D02*
X4826362Y-21710722D01*
X4826362Y-21710722D02*
X4835885Y-21701198D01*
X4835885Y-21701198D02*
X4854933Y-21691675D01*
X4854933Y-21691675D02*
X4902552Y-21691675D01*
X4902552Y-21691675D02*
X4921600Y-21701198D01*
X4921600Y-21701198D02*
X4931124Y-21710722D01*
X4931124Y-21710722D02*
X4940647Y-21729770D01*
X4940647Y-21729770D02*
X4940647Y-21777389D01*
X4940647Y-21777389D02*
X4931124Y-21796437D01*
X4931124Y-21796437D02*
X4921600Y-21805960D01*
X4921600Y-21805960D02*
X4902552Y-21815484D01*
X4902552Y-21815484D02*
X4854933Y-21815484D01*
X4854933Y-21815484D02*
X4835885Y-21805960D01*
X4835885Y-21805960D02*
X4826362Y-21796437D01*
X5064457Y-21615484D02*
X5083505Y-21615484D01*
X5083505Y-21615484D02*
X5102552Y-21625008D01*
X5102552Y-21625008D02*
X5112076Y-21634532D01*
X5112076Y-21634532D02*
X5121600Y-21653579D01*
X5121600Y-21653579D02*
X5131124Y-21691675D01*
X5131124Y-21691675D02*
X5131124Y-21739294D01*
X5131124Y-21739294D02*
X5121600Y-21777389D01*
X5121600Y-21777389D02*
X5112076Y-21796437D01*
X5112076Y-21796437D02*
X5102552Y-21805960D01*
X5102552Y-21805960D02*
X5083505Y-21815484D01*
X5083505Y-21815484D02*
X5064457Y-21815484D01*
X5064457Y-21815484D02*
X5045409Y-21805960D01*
X5045409Y-21805960D02*
X5035885Y-21796437D01*
X5035885Y-21796437D02*
X5026362Y-21777389D01*
X5026362Y-21777389D02*
X5016838Y-21739294D01*
X5016838Y-21739294D02*
X5016838Y-21691675D01*
X5016838Y-21691675D02*
X5026362Y-21653579D01*
X5026362Y-21653579D02*
X5035885Y-21634532D01*
X5035885Y-21634532D02*
X5045409Y-21625008D01*
X5045409Y-21625008D02*
X5064457Y-21615484D01*
X5254933Y-21615484D02*
X5273981Y-21615484D01*
X5273981Y-21615484D02*
X5293028Y-21625008D01*
X5293028Y-21625008D02*
X5302552Y-21634532D01*
X5302552Y-21634532D02*
X5312076Y-21653579D01*
X5312076Y-21653579D02*
X5321600Y-21691675D01*
X5321600Y-21691675D02*
X5321600Y-21739294D01*
X5321600Y-21739294D02*
X5312076Y-21777389D01*
X5312076Y-21777389D02*
X5302552Y-21796437D01*
X5302552Y-21796437D02*
X5293028Y-21805960D01*
X5293028Y-21805960D02*
X5273981Y-21815484D01*
X5273981Y-21815484D02*
X5254933Y-21815484D01*
X5254933Y-21815484D02*
X5235885Y-21805960D01*
X5235885Y-21805960D02*
X5226362Y-21796437D01*
X5226362Y-21796437D02*
X5216838Y-21777389D01*
X5216838Y-21777389D02*
X5207314Y-21739294D01*
X5207314Y-21739294D02*
X5207314Y-21691675D01*
X5207314Y-21691675D02*
X5216838Y-21653579D01*
X5216838Y-21653579D02*
X5226362Y-21634532D01*
X5226362Y-21634532D02*
X5235885Y-21625008D01*
X5235885Y-21625008D02*
X5254933Y-21615484D01*
X5407314Y-21815484D02*
X5407314Y-21682151D01*
X5407314Y-21701198D02*
X5416838Y-21691675D01*
X5416838Y-21691675D02*
X5435885Y-21682151D01*
X5435885Y-21682151D02*
X5464457Y-21682151D01*
X5464457Y-21682151D02*
X5483505Y-21691675D01*
X5483505Y-21691675D02*
X5493028Y-21710722D01*
X5493028Y-21710722D02*
X5493028Y-21815484D01*
X5493028Y-21710722D02*
X5502552Y-21691675D01*
X5502552Y-21691675D02*
X5521600Y-21682151D01*
X5521600Y-21682151D02*
X5550171Y-21682151D01*
X5550171Y-21682151D02*
X5569219Y-21691675D01*
X5569219Y-21691675D02*
X5578743Y-21710722D01*
X5578743Y-21710722D02*
X5578743Y-21815484D01*
X5673981Y-21815484D02*
X5673981Y-21682151D01*
X5673981Y-21701198D02*
X5683504Y-21691675D01*
X5683504Y-21691675D02*
X5702552Y-21682151D01*
X5702552Y-21682151D02*
X5731124Y-21682151D01*
X5731124Y-21682151D02*
X5750171Y-21691675D01*
X5750171Y-21691675D02*
X5759695Y-21710722D01*
X5759695Y-21710722D02*
X5759695Y-21815484D01*
X5759695Y-21710722D02*
X5769219Y-21691675D01*
X5769219Y-21691675D02*
X5788266Y-21682151D01*
X5788266Y-21682151D02*
X5816838Y-21682151D01*
X5816838Y-21682151D02*
X5835885Y-21691675D01*
X5835885Y-21691675D02*
X5845409Y-21710722D01*
X5845409Y-21710722D02*
X5845409Y-21815484D01*
X6235885Y-21605960D02*
X6064457Y-21863103D01*
X6493028Y-21615484D02*
X6512076Y-21615484D01*
X6512076Y-21615484D02*
X6531124Y-21625008D01*
X6531124Y-21625008D02*
X6540647Y-21634532D01*
X6540647Y-21634532D02*
X6550171Y-21653579D01*
X6550171Y-21653579D02*
X6559695Y-21691675D01*
X6559695Y-21691675D02*
X6559695Y-21739294D01*
X6559695Y-21739294D02*
X6550171Y-21777389D01*
X6550171Y-21777389D02*
X6540647Y-21796437D01*
X6540647Y-21796437D02*
X6531124Y-21805960D01*
X6531124Y-21805960D02*
X6512076Y-21815484D01*
X6512076Y-21815484D02*
X6493028Y-21815484D01*
X6493028Y-21815484D02*
X6473981Y-21805960D01*
X6473981Y-21805960D02*
X6464457Y-21796437D01*
X6464457Y-21796437D02*
X6454933Y-21777389D01*
X6454933Y-21777389D02*
X6445409Y-21739294D01*
X6445409Y-21739294D02*
X6445409Y-21691675D01*
X6445409Y-21691675D02*
X6454933Y-21653579D01*
X6454933Y-21653579D02*
X6464457Y-21634532D01*
X6464457Y-21634532D02*
X6473981Y-21625008D01*
X6473981Y-21625008D02*
X6493028Y-21615484D01*
X6645409Y-21796437D02*
X6654933Y-21805960D01*
X6654933Y-21805960D02*
X6645409Y-21815484D01*
X6645409Y-21815484D02*
X6635886Y-21805960D01*
X6635886Y-21805960D02*
X6645409Y-21796437D01*
X6645409Y-21796437D02*
X6645409Y-21815484D01*
X6845409Y-21815484D02*
X6731124Y-21815484D01*
X6788266Y-21815484D02*
X6788266Y-21615484D01*
X6788266Y-21615484D02*
X6769219Y-21644056D01*
X6769219Y-21644056D02*
X6750171Y-21663103D01*
X6750171Y-21663103D02*
X6731124Y-21672627D01*
X6912076Y-21615484D02*
X7035886Y-21615484D01*
X7035886Y-21615484D02*
X6969219Y-21691675D01*
X6969219Y-21691675D02*
X6997790Y-21691675D01*
X6997790Y-21691675D02*
X7016838Y-21701198D01*
X7016838Y-21701198D02*
X7026362Y-21710722D01*
X7026362Y-21710722D02*
X7035886Y-21729770D01*
X7035886Y-21729770D02*
X7035886Y-21777389D01*
X7035886Y-21777389D02*
X7026362Y-21796437D01*
X7026362Y-21796437D02*
X7016838Y-21805960D01*
X7016838Y-21805960D02*
X6997790Y-21815484D01*
X6997790Y-21815484D02*
X6940647Y-21815484D01*
X6940647Y-21815484D02*
X6921600Y-21805960D01*
X6921600Y-21805960D02*
X6912076Y-21796437D01*
X7102552Y-21615484D02*
X7235886Y-21615484D01*
X7235886Y-21615484D02*
X7150171Y-21815484D01*
X7340647Y-21701198D02*
X7321600Y-21691675D01*
X7321600Y-21691675D02*
X7312076Y-21682151D01*
X7312076Y-21682151D02*
X7302552Y-21663103D01*
X7302552Y-21663103D02*
X7302552Y-21653579D01*
X7302552Y-21653579D02*
X7312076Y-21634532D01*
X7312076Y-21634532D02*
X7321600Y-21625008D01*
X7321600Y-21625008D02*
X7340647Y-21615484D01*
X7340647Y-21615484D02*
X7378743Y-21615484D01*
X7378743Y-21615484D02*
X7397790Y-21625008D01*
X7397790Y-21625008D02*
X7407314Y-21634532D01*
X7407314Y-21634532D02*
X7416838Y-21653579D01*
X7416838Y-21653579D02*
X7416838Y-21663103D01*
X7416838Y-21663103D02*
X7407314Y-21682151D01*
X7407314Y-21682151D02*
X7397790Y-21691675D01*
X7397790Y-21691675D02*
X7378743Y-21701198D01*
X7378743Y-21701198D02*
X7340647Y-21701198D01*
X7340647Y-21701198D02*
X7321600Y-21710722D01*
X7321600Y-21710722D02*
X7312076Y-21720246D01*
X7312076Y-21720246D02*
X7302552Y-21739294D01*
X7302552Y-21739294D02*
X7302552Y-21777389D01*
X7302552Y-21777389D02*
X7312076Y-21796437D01*
X7312076Y-21796437D02*
X7321600Y-21805960D01*
X7321600Y-21805960D02*
X7340647Y-21815484D01*
X7340647Y-21815484D02*
X7378743Y-21815484D01*
X7378743Y-21815484D02*
X7397790Y-21805960D01*
X7397790Y-21805960D02*
X7407314Y-21796437D01*
X7407314Y-21796437D02*
X7416838Y-21777389D01*
X7416838Y-21777389D02*
X7416838Y-21739294D01*
X7416838Y-21739294D02*
X7407314Y-21720246D01*
X7407314Y-21720246D02*
X7397790Y-21710722D01*
X7397790Y-21710722D02*
X7378743Y-21701198D01*
X7493028Y-21615484D02*
X7493028Y-21653579D01*
X7569219Y-21615484D02*
X7569219Y-21653579D01*
X7864457Y-21891675D02*
X7854933Y-21882151D01*
X7854933Y-21882151D02*
X7835886Y-21853579D01*
X7835886Y-21853579D02*
X7826362Y-21834532D01*
X7826362Y-21834532D02*
X7816838Y-21805960D01*
X7816838Y-21805960D02*
X7807314Y-21758341D01*
X7807314Y-21758341D02*
X7807314Y-21720246D01*
X7807314Y-21720246D02*
X7816838Y-21672627D01*
X7816838Y-21672627D02*
X7826362Y-21644056D01*
X7826362Y-21644056D02*
X7835886Y-21625008D01*
X7835886Y-21625008D02*
X7854933Y-21596437D01*
X7854933Y-21596437D02*
X7864457Y-21586913D01*
X7931124Y-21634532D02*
X7940648Y-21625008D01*
X7940648Y-21625008D02*
X7959695Y-21615484D01*
X7959695Y-21615484D02*
X8007314Y-21615484D01*
X8007314Y-21615484D02*
X8026362Y-21625008D01*
X8026362Y-21625008D02*
X8035886Y-21634532D01*
X8035886Y-21634532D02*
X8045409Y-21653579D01*
X8045409Y-21653579D02*
X8045409Y-21672627D01*
X8045409Y-21672627D02*
X8035886Y-21701198D01*
X8035886Y-21701198D02*
X7921600Y-21815484D01*
X7921600Y-21815484D02*
X8045409Y-21815484D01*
X8283505Y-21815484D02*
X8283505Y-21615484D01*
X8369219Y-21815484D02*
X8369219Y-21710722D01*
X8369219Y-21710722D02*
X8359695Y-21691675D01*
X8359695Y-21691675D02*
X8340648Y-21682151D01*
X8340648Y-21682151D02*
X8312076Y-21682151D01*
X8312076Y-21682151D02*
X8293029Y-21691675D01*
X8293029Y-21691675D02*
X8283505Y-21701198D01*
X8493029Y-21815484D02*
X8473981Y-21805960D01*
X8473981Y-21805960D02*
X8464457Y-21796437D01*
X8464457Y-21796437D02*
X8454933Y-21777389D01*
X8454933Y-21777389D02*
X8454933Y-21720246D01*
X8454933Y-21720246D02*
X8464457Y-21701198D01*
X8464457Y-21701198D02*
X8473981Y-21691675D01*
X8473981Y-21691675D02*
X8493029Y-21682151D01*
X8493029Y-21682151D02*
X8521600Y-21682151D01*
X8521600Y-21682151D02*
X8540648Y-21691675D01*
X8540648Y-21691675D02*
X8550172Y-21701198D01*
X8550172Y-21701198D02*
X8559695Y-21720246D01*
X8559695Y-21720246D02*
X8559695Y-21777389D01*
X8559695Y-21777389D02*
X8550172Y-21796437D01*
X8550172Y-21796437D02*
X8540648Y-21805960D01*
X8540648Y-21805960D02*
X8521600Y-21815484D01*
X8521600Y-21815484D02*
X8493029Y-21815484D01*
X8673981Y-21815484D02*
X8654933Y-21805960D01*
X8654933Y-21805960D02*
X8645410Y-21786913D01*
X8645410Y-21786913D02*
X8645410Y-21615484D01*
X8826362Y-21805960D02*
X8807314Y-21815484D01*
X8807314Y-21815484D02*
X8769219Y-21815484D01*
X8769219Y-21815484D02*
X8750172Y-21805960D01*
X8750172Y-21805960D02*
X8740648Y-21786913D01*
X8740648Y-21786913D02*
X8740648Y-21710722D01*
X8740648Y-21710722D02*
X8750172Y-21691675D01*
X8750172Y-21691675D02*
X8769219Y-21682151D01*
X8769219Y-21682151D02*
X8807314Y-21682151D01*
X8807314Y-21682151D02*
X8826362Y-21691675D01*
X8826362Y-21691675D02*
X8835886Y-21710722D01*
X8835886Y-21710722D02*
X8835886Y-21729770D01*
X8835886Y-21729770D02*
X8740648Y-21748818D01*
X8912076Y-21805960D02*
X8931124Y-21815484D01*
X8931124Y-21815484D02*
X8969219Y-21815484D01*
X8969219Y-21815484D02*
X8988267Y-21805960D01*
X8988267Y-21805960D02*
X8997791Y-21786913D01*
X8997791Y-21786913D02*
X8997791Y-21777389D01*
X8997791Y-21777389D02*
X8988267Y-21758341D01*
X8988267Y-21758341D02*
X8969219Y-21748818D01*
X8969219Y-21748818D02*
X8940648Y-21748818D01*
X8940648Y-21748818D02*
X8921600Y-21739294D01*
X8921600Y-21739294D02*
X8912076Y-21720246D01*
X8912076Y-21720246D02*
X8912076Y-21710722D01*
X8912076Y-21710722D02*
X8921600Y-21691675D01*
X8921600Y-21691675D02*
X8940648Y-21682151D01*
X8940648Y-21682151D02*
X8969219Y-21682151D01*
X8969219Y-21682151D02*
X8988267Y-21691675D01*
X9064457Y-21891675D02*
X9073981Y-21882151D01*
X9073981Y-21882151D02*
X9093029Y-21853579D01*
X9093029Y-21853579D02*
X9102553Y-21834532D01*
X9102553Y-21834532D02*
X9112076Y-21805960D01*
X9112076Y-21805960D02*
X9121600Y-21758341D01*
X9121600Y-21758341D02*
X9121600Y-21720246D01*
X9121600Y-21720246D02*
X9112076Y-21672627D01*
X9112076Y-21672627D02*
X9102553Y-21644056D01*
X9102553Y-21644056D02*
X9093029Y-21625008D01*
X9093029Y-21625008D02*
X9073981Y-21596437D01*
X9073981Y-21596437D02*
X9064457Y-21586913D01*
X9426362Y-21891675D02*
X9416838Y-21882151D01*
X9416838Y-21882151D02*
X9397791Y-21853579D01*
X9397791Y-21853579D02*
X9388267Y-21834532D01*
X9388267Y-21834532D02*
X9378743Y-21805960D01*
X9378743Y-21805960D02*
X9369219Y-21758341D01*
X9369219Y-21758341D02*
X9369219Y-21720246D01*
X9369219Y-21720246D02*
X9378743Y-21672627D01*
X9378743Y-21672627D02*
X9388267Y-21644056D01*
X9388267Y-21644056D02*
X9397791Y-21625008D01*
X9397791Y-21625008D02*
X9416838Y-21596437D01*
X9416838Y-21596437D02*
X9426362Y-21586913D01*
X9502553Y-21682151D02*
X9502553Y-21815484D01*
X9502553Y-21701198D02*
X9512076Y-21691675D01*
X9512076Y-21691675D02*
X9531124Y-21682151D01*
X9531124Y-21682151D02*
X9559695Y-21682151D01*
X9559695Y-21682151D02*
X9578743Y-21691675D01*
X9578743Y-21691675D02*
X9588267Y-21710722D01*
X9588267Y-21710722D02*
X9588267Y-21815484D01*
X9712076Y-21815484D02*
X9693029Y-21805960D01*
X9693029Y-21805960D02*
X9683505Y-21796437D01*
X9683505Y-21796437D02*
X9673981Y-21777389D01*
X9673981Y-21777389D02*
X9673981Y-21720246D01*
X9673981Y-21720246D02*
X9683505Y-21701198D01*
X9683505Y-21701198D02*
X9693029Y-21691675D01*
X9693029Y-21691675D02*
X9712076Y-21682151D01*
X9712076Y-21682151D02*
X9740648Y-21682151D01*
X9740648Y-21682151D02*
X9759695Y-21691675D01*
X9759695Y-21691675D02*
X9769219Y-21701198D01*
X9769219Y-21701198D02*
X9778743Y-21720246D01*
X9778743Y-21720246D02*
X9778743Y-21777389D01*
X9778743Y-21777389D02*
X9769219Y-21796437D01*
X9769219Y-21796437D02*
X9759695Y-21805960D01*
X9759695Y-21805960D02*
X9740648Y-21815484D01*
X9740648Y-21815484D02*
X9712076Y-21815484D01*
X9835886Y-21682151D02*
X9912076Y-21682151D01*
X9864457Y-21615484D02*
X9864457Y-21786913D01*
X9864457Y-21786913D02*
X9873981Y-21805960D01*
X9873981Y-21805960D02*
X9893029Y-21815484D01*
X9893029Y-21815484D02*
X9912076Y-21815484D01*
X10131124Y-21682151D02*
X10131124Y-21882151D01*
X10131124Y-21691675D02*
X10150172Y-21682151D01*
X10150172Y-21682151D02*
X10188267Y-21682151D01*
X10188267Y-21682151D02*
X10207315Y-21691675D01*
X10207315Y-21691675D02*
X10216838Y-21701198D01*
X10216838Y-21701198D02*
X10226362Y-21720246D01*
X10226362Y-21720246D02*
X10226362Y-21777389D01*
X10226362Y-21777389D02*
X10216838Y-21796437D01*
X10216838Y-21796437D02*
X10207315Y-21805960D01*
X10207315Y-21805960D02*
X10188267Y-21815484D01*
X10188267Y-21815484D02*
X10150172Y-21815484D01*
X10150172Y-21815484D02*
X10131124Y-21805960D01*
X10340648Y-21815484D02*
X10321600Y-21805960D01*
X10321600Y-21805960D02*
X10312076Y-21786913D01*
X10312076Y-21786913D02*
X10312076Y-21615484D01*
X10502553Y-21815484D02*
X10502553Y-21710722D01*
X10502553Y-21710722D02*
X10493029Y-21691675D01*
X10493029Y-21691675D02*
X10473981Y-21682151D01*
X10473981Y-21682151D02*
X10435886Y-21682151D01*
X10435886Y-21682151D02*
X10416838Y-21691675D01*
X10502553Y-21805960D02*
X10483505Y-21815484D01*
X10483505Y-21815484D02*
X10435886Y-21815484D01*
X10435886Y-21815484D02*
X10416838Y-21805960D01*
X10416838Y-21805960D02*
X10407315Y-21786913D01*
X10407315Y-21786913D02*
X10407315Y-21767865D01*
X10407315Y-21767865D02*
X10416838Y-21748818D01*
X10416838Y-21748818D02*
X10435886Y-21739294D01*
X10435886Y-21739294D02*
X10483505Y-21739294D01*
X10483505Y-21739294D02*
X10502553Y-21729770D01*
X10569219Y-21682151D02*
X10645410Y-21682151D01*
X10597791Y-21615484D02*
X10597791Y-21786913D01*
X10597791Y-21786913D02*
X10607315Y-21805960D01*
X10607315Y-21805960D02*
X10626362Y-21815484D01*
X10626362Y-21815484D02*
X10645410Y-21815484D01*
X10788267Y-21805960D02*
X10769219Y-21815484D01*
X10769219Y-21815484D02*
X10731124Y-21815484D01*
X10731124Y-21815484D02*
X10712076Y-21805960D01*
X10712076Y-21805960D02*
X10702553Y-21786913D01*
X10702553Y-21786913D02*
X10702553Y-21710722D01*
X10702553Y-21710722D02*
X10712076Y-21691675D01*
X10712076Y-21691675D02*
X10731124Y-21682151D01*
X10731124Y-21682151D02*
X10769219Y-21682151D01*
X10769219Y-21682151D02*
X10788267Y-21691675D01*
X10788267Y-21691675D02*
X10797791Y-21710722D01*
X10797791Y-21710722D02*
X10797791Y-21729770D01*
X10797791Y-21729770D02*
X10702553Y-21748818D01*
X10969219Y-21815484D02*
X10969219Y-21615484D01*
X10969219Y-21805960D02*
X10950172Y-21815484D01*
X10950172Y-21815484D02*
X10912076Y-21815484D01*
X10912076Y-21815484D02*
X10893029Y-21805960D01*
X10893029Y-21805960D02*
X10883505Y-21796437D01*
X10883505Y-21796437D02*
X10873981Y-21777389D01*
X10873981Y-21777389D02*
X10873981Y-21720246D01*
X10873981Y-21720246D02*
X10883505Y-21701198D01*
X10883505Y-21701198D02*
X10893029Y-21691675D01*
X10893029Y-21691675D02*
X10912076Y-21682151D01*
X10912076Y-21682151D02*
X10950172Y-21682151D01*
X10950172Y-21682151D02*
X10969219Y-21691675D01*
X11045410Y-21891675D02*
X11054934Y-21882151D01*
X11054934Y-21882151D02*
X11073981Y-21853579D01*
X11073981Y-21853579D02*
X11083505Y-21834532D01*
X11083505Y-21834532D02*
X11093029Y-21805960D01*
X11093029Y-21805960D02*
X11102553Y-21758341D01*
X11102553Y-21758341D02*
X11102553Y-21720246D01*
X11102553Y-21720246D02*
X11093029Y-21672627D01*
X11093029Y-21672627D02*
X11083505Y-21644056D01*
X11083505Y-21644056D02*
X11073981Y-21625008D01*
X11073981Y-21625008D02*
X11054934Y-21596437D01*
X11054934Y-21596437D02*
X11045410Y-21586913D01*
X4189394Y-22144000D02*
X4289394Y-22044000D01*
X4189394Y-21944000D01*
X4089394Y-22044000D01*
X4189394Y-22144000D01*
X4654933Y-22135484D02*
X4540647Y-22135484D01*
X4597790Y-22135484D02*
X4597790Y-21935484D01*
X4597790Y-21935484D02*
X4578743Y-21964056D01*
X4578743Y-21964056D02*
X4559695Y-21983103D01*
X4559695Y-21983103D02*
X4540647Y-21992627D01*
X4731124Y-21954532D02*
X4740647Y-21945008D01*
X4740647Y-21945008D02*
X4759695Y-21935484D01*
X4759695Y-21935484D02*
X4807314Y-21935484D01*
X4807314Y-21935484D02*
X4826362Y-21945008D01*
X4826362Y-21945008D02*
X4835885Y-21954532D01*
X4835885Y-21954532D02*
X4845409Y-21973579D01*
X4845409Y-21973579D02*
X4845409Y-21992627D01*
X4845409Y-21992627D02*
X4835885Y-22021198D01*
X4835885Y-22021198D02*
X4721600Y-22135484D01*
X4721600Y-22135484D02*
X4845409Y-22135484D01*
X4931124Y-22116437D02*
X4940647Y-22125960D01*
X4940647Y-22125960D02*
X4931124Y-22135484D01*
X4931124Y-22135484D02*
X4921600Y-22125960D01*
X4921600Y-22125960D02*
X4931124Y-22116437D01*
X4931124Y-22116437D02*
X4931124Y-22135484D01*
X5054933Y-22021198D02*
X5035885Y-22011675D01*
X5035885Y-22011675D02*
X5026362Y-22002151D01*
X5026362Y-22002151D02*
X5016838Y-21983103D01*
X5016838Y-21983103D02*
X5016838Y-21973579D01*
X5016838Y-21973579D02*
X5026362Y-21954532D01*
X5026362Y-21954532D02*
X5035885Y-21945008D01*
X5035885Y-21945008D02*
X5054933Y-21935484D01*
X5054933Y-21935484D02*
X5093028Y-21935484D01*
X5093028Y-21935484D02*
X5112076Y-21945008D01*
X5112076Y-21945008D02*
X5121600Y-21954532D01*
X5121600Y-21954532D02*
X5131124Y-21973579D01*
X5131124Y-21973579D02*
X5131124Y-21983103D01*
X5131124Y-21983103D02*
X5121600Y-22002151D01*
X5121600Y-22002151D02*
X5112076Y-22011675D01*
X5112076Y-22011675D02*
X5093028Y-22021198D01*
X5093028Y-22021198D02*
X5054933Y-22021198D01*
X5054933Y-22021198D02*
X5035885Y-22030722D01*
X5035885Y-22030722D02*
X5026362Y-22040246D01*
X5026362Y-22040246D02*
X5016838Y-22059294D01*
X5016838Y-22059294D02*
X5016838Y-22097389D01*
X5016838Y-22097389D02*
X5026362Y-22116437D01*
X5026362Y-22116437D02*
X5035885Y-22125960D01*
X5035885Y-22125960D02*
X5054933Y-22135484D01*
X5054933Y-22135484D02*
X5093028Y-22135484D01*
X5093028Y-22135484D02*
X5112076Y-22125960D01*
X5112076Y-22125960D02*
X5121600Y-22116437D01*
X5121600Y-22116437D02*
X5131124Y-22097389D01*
X5131124Y-22097389D02*
X5131124Y-22059294D01*
X5131124Y-22059294D02*
X5121600Y-22040246D01*
X5121600Y-22040246D02*
X5112076Y-22030722D01*
X5112076Y-22030722D02*
X5093028Y-22021198D01*
X5254933Y-21935484D02*
X5273981Y-21935484D01*
X5273981Y-21935484D02*
X5293028Y-21945008D01*
X5293028Y-21945008D02*
X5302552Y-21954532D01*
X5302552Y-21954532D02*
X5312076Y-21973579D01*
X5312076Y-21973579D02*
X5321600Y-22011675D01*
X5321600Y-22011675D02*
X5321600Y-22059294D01*
X5321600Y-22059294D02*
X5312076Y-22097389D01*
X5312076Y-22097389D02*
X5302552Y-22116437D01*
X5302552Y-22116437D02*
X5293028Y-22125960D01*
X5293028Y-22125960D02*
X5273981Y-22135484D01*
X5273981Y-22135484D02*
X5254933Y-22135484D01*
X5254933Y-22135484D02*
X5235885Y-22125960D01*
X5235885Y-22125960D02*
X5226362Y-22116437D01*
X5226362Y-22116437D02*
X5216838Y-22097389D01*
X5216838Y-22097389D02*
X5207314Y-22059294D01*
X5207314Y-22059294D02*
X5207314Y-22011675D01*
X5207314Y-22011675D02*
X5216838Y-21973579D01*
X5216838Y-21973579D02*
X5226362Y-21954532D01*
X5226362Y-21954532D02*
X5235885Y-21945008D01*
X5235885Y-21945008D02*
X5254933Y-21935484D01*
X5445409Y-21935484D02*
X5464457Y-21935484D01*
X5464457Y-21935484D02*
X5483505Y-21945008D01*
X5483505Y-21945008D02*
X5493028Y-21954532D01*
X5493028Y-21954532D02*
X5502552Y-21973579D01*
X5502552Y-21973579D02*
X5512076Y-22011675D01*
X5512076Y-22011675D02*
X5512076Y-22059294D01*
X5512076Y-22059294D02*
X5502552Y-22097389D01*
X5502552Y-22097389D02*
X5493028Y-22116437D01*
X5493028Y-22116437D02*
X5483505Y-22125960D01*
X5483505Y-22125960D02*
X5464457Y-22135484D01*
X5464457Y-22135484D02*
X5445409Y-22135484D01*
X5445409Y-22135484D02*
X5426362Y-22125960D01*
X5426362Y-22125960D02*
X5416838Y-22116437D01*
X5416838Y-22116437D02*
X5407314Y-22097389D01*
X5407314Y-22097389D02*
X5397790Y-22059294D01*
X5397790Y-22059294D02*
X5397790Y-22011675D01*
X5397790Y-22011675D02*
X5407314Y-21973579D01*
X5407314Y-21973579D02*
X5416838Y-21954532D01*
X5416838Y-21954532D02*
X5426362Y-21945008D01*
X5426362Y-21945008D02*
X5445409Y-21935484D01*
X5597790Y-22135484D02*
X5597790Y-22002151D01*
X5597790Y-22021198D02*
X5607314Y-22011675D01*
X5607314Y-22011675D02*
X5626362Y-22002151D01*
X5626362Y-22002151D02*
X5654933Y-22002151D01*
X5654933Y-22002151D02*
X5673981Y-22011675D01*
X5673981Y-22011675D02*
X5683504Y-22030722D01*
X5683504Y-22030722D02*
X5683504Y-22135484D01*
X5683504Y-22030722D02*
X5693028Y-22011675D01*
X5693028Y-22011675D02*
X5712076Y-22002151D01*
X5712076Y-22002151D02*
X5740647Y-22002151D01*
X5740647Y-22002151D02*
X5759695Y-22011675D01*
X5759695Y-22011675D02*
X5769219Y-22030722D01*
X5769219Y-22030722D02*
X5769219Y-22135484D01*
X5864457Y-22135484D02*
X5864457Y-22002151D01*
X5864457Y-22021198D02*
X5873981Y-22011675D01*
X5873981Y-22011675D02*
X5893028Y-22002151D01*
X5893028Y-22002151D02*
X5921600Y-22002151D01*
X5921600Y-22002151D02*
X5940647Y-22011675D01*
X5940647Y-22011675D02*
X5950171Y-22030722D01*
X5950171Y-22030722D02*
X5950171Y-22135484D01*
X5950171Y-22030722D02*
X5959695Y-22011675D01*
X5959695Y-22011675D02*
X5978743Y-22002151D01*
X5978743Y-22002151D02*
X6007314Y-22002151D01*
X6007314Y-22002151D02*
X6026362Y-22011675D01*
X6026362Y-22011675D02*
X6035885Y-22030722D01*
X6035885Y-22030722D02*
X6035885Y-22135484D01*
X6426362Y-21925960D02*
X6254933Y-22183103D01*
X6683505Y-21935484D02*
X6702552Y-21935484D01*
X6702552Y-21935484D02*
X6721600Y-21945008D01*
X6721600Y-21945008D02*
X6731124Y-21954532D01*
X6731124Y-21954532D02*
X6740647Y-21973579D01*
X6740647Y-21973579D02*
X6750171Y-22011675D01*
X6750171Y-22011675D02*
X6750171Y-22059294D01*
X6750171Y-22059294D02*
X6740647Y-22097389D01*
X6740647Y-22097389D02*
X6731124Y-22116437D01*
X6731124Y-22116437D02*
X6721600Y-22125960D01*
X6721600Y-22125960D02*
X6702552Y-22135484D01*
X6702552Y-22135484D02*
X6683505Y-22135484D01*
X6683505Y-22135484D02*
X6664457Y-22125960D01*
X6664457Y-22125960D02*
X6654933Y-22116437D01*
X6654933Y-22116437D02*
X6645409Y-22097389D01*
X6645409Y-22097389D02*
X6635886Y-22059294D01*
X6635886Y-22059294D02*
X6635886Y-22011675D01*
X6635886Y-22011675D02*
X6645409Y-21973579D01*
X6645409Y-21973579D02*
X6654933Y-21954532D01*
X6654933Y-21954532D02*
X6664457Y-21945008D01*
X6664457Y-21945008D02*
X6683505Y-21935484D01*
X6835886Y-22116437D02*
X6845409Y-22125960D01*
X6845409Y-22125960D02*
X6835886Y-22135484D01*
X6835886Y-22135484D02*
X6826362Y-22125960D01*
X6826362Y-22125960D02*
X6835886Y-22116437D01*
X6835886Y-22116437D02*
X6835886Y-22135484D01*
X7026362Y-21935484D02*
X6931124Y-21935484D01*
X6931124Y-21935484D02*
X6921600Y-22030722D01*
X6921600Y-22030722D02*
X6931124Y-22021198D01*
X6931124Y-22021198D02*
X6950171Y-22011675D01*
X6950171Y-22011675D02*
X6997790Y-22011675D01*
X6997790Y-22011675D02*
X7016838Y-22021198D01*
X7016838Y-22021198D02*
X7026362Y-22030722D01*
X7026362Y-22030722D02*
X7035886Y-22049770D01*
X7035886Y-22049770D02*
X7035886Y-22097389D01*
X7035886Y-22097389D02*
X7026362Y-22116437D01*
X7026362Y-22116437D02*
X7016838Y-22125960D01*
X7016838Y-22125960D02*
X6997790Y-22135484D01*
X6997790Y-22135484D02*
X6950171Y-22135484D01*
X6950171Y-22135484D02*
X6931124Y-22125960D01*
X6931124Y-22125960D02*
X6921600Y-22116437D01*
X7159695Y-21935484D02*
X7178743Y-21935484D01*
X7178743Y-21935484D02*
X7197790Y-21945008D01*
X7197790Y-21945008D02*
X7207314Y-21954532D01*
X7207314Y-21954532D02*
X7216838Y-21973579D01*
X7216838Y-21973579D02*
X7226362Y-22011675D01*
X7226362Y-22011675D02*
X7226362Y-22059294D01*
X7226362Y-22059294D02*
X7216838Y-22097389D01*
X7216838Y-22097389D02*
X7207314Y-22116437D01*
X7207314Y-22116437D02*
X7197790Y-22125960D01*
X7197790Y-22125960D02*
X7178743Y-22135484D01*
X7178743Y-22135484D02*
X7159695Y-22135484D01*
X7159695Y-22135484D02*
X7140647Y-22125960D01*
X7140647Y-22125960D02*
X7131124Y-22116437D01*
X7131124Y-22116437D02*
X7121600Y-22097389D01*
X7121600Y-22097389D02*
X7112076Y-22059294D01*
X7112076Y-22059294D02*
X7112076Y-22011675D01*
X7112076Y-22011675D02*
X7121600Y-21973579D01*
X7121600Y-21973579D02*
X7131124Y-21954532D01*
X7131124Y-21954532D02*
X7140647Y-21945008D01*
X7140647Y-21945008D02*
X7159695Y-21935484D01*
X7293028Y-21935484D02*
X7416838Y-21935484D01*
X7416838Y-21935484D02*
X7350171Y-22011675D01*
X7350171Y-22011675D02*
X7378743Y-22011675D01*
X7378743Y-22011675D02*
X7397790Y-22021198D01*
X7397790Y-22021198D02*
X7407314Y-22030722D01*
X7407314Y-22030722D02*
X7416838Y-22049770D01*
X7416838Y-22049770D02*
X7416838Y-22097389D01*
X7416838Y-22097389D02*
X7407314Y-22116437D01*
X7407314Y-22116437D02*
X7397790Y-22125960D01*
X7397790Y-22125960D02*
X7378743Y-22135484D01*
X7378743Y-22135484D02*
X7321600Y-22135484D01*
X7321600Y-22135484D02*
X7302552Y-22125960D01*
X7302552Y-22125960D02*
X7293028Y-22116437D01*
X7512076Y-22135484D02*
X7550171Y-22135484D01*
X7550171Y-22135484D02*
X7569219Y-22125960D01*
X7569219Y-22125960D02*
X7578743Y-22116437D01*
X7578743Y-22116437D02*
X7597790Y-22087865D01*
X7597790Y-22087865D02*
X7607314Y-22049770D01*
X7607314Y-22049770D02*
X7607314Y-21973579D01*
X7607314Y-21973579D02*
X7597790Y-21954532D01*
X7597790Y-21954532D02*
X7588267Y-21945008D01*
X7588267Y-21945008D02*
X7569219Y-21935484D01*
X7569219Y-21935484D02*
X7531124Y-21935484D01*
X7531124Y-21935484D02*
X7512076Y-21945008D01*
X7512076Y-21945008D02*
X7502552Y-21954532D01*
X7502552Y-21954532D02*
X7493028Y-21973579D01*
X7493028Y-21973579D02*
X7493028Y-22021198D01*
X7493028Y-22021198D02*
X7502552Y-22040246D01*
X7502552Y-22040246D02*
X7512076Y-22049770D01*
X7512076Y-22049770D02*
X7531124Y-22059294D01*
X7531124Y-22059294D02*
X7569219Y-22059294D01*
X7569219Y-22059294D02*
X7588267Y-22049770D01*
X7588267Y-22049770D02*
X7597790Y-22040246D01*
X7597790Y-22040246D02*
X7607314Y-22021198D01*
X7683505Y-21935484D02*
X7683505Y-21973579D01*
X7759695Y-21935484D02*
X7759695Y-21973579D01*
X8054933Y-22211675D02*
X8045409Y-22202151D01*
X8045409Y-22202151D02*
X8026362Y-22173579D01*
X8026362Y-22173579D02*
X8016838Y-22154532D01*
X8016838Y-22154532D02*
X8007314Y-22125960D01*
X8007314Y-22125960D02*
X7997790Y-22078341D01*
X7997790Y-22078341D02*
X7997790Y-22040246D01*
X7997790Y-22040246D02*
X8007314Y-21992627D01*
X8007314Y-21992627D02*
X8016838Y-21964056D01*
X8016838Y-21964056D02*
X8026362Y-21945008D01*
X8026362Y-21945008D02*
X8045409Y-21916437D01*
X8045409Y-21916437D02*
X8054933Y-21906913D01*
X8235886Y-22135484D02*
X8121600Y-22135484D01*
X8178743Y-22135484D02*
X8178743Y-21935484D01*
X8178743Y-21935484D02*
X8159695Y-21964056D01*
X8159695Y-21964056D02*
X8140648Y-21983103D01*
X8140648Y-21983103D02*
X8121600Y-21992627D01*
X8473981Y-22135484D02*
X8473981Y-21935484D01*
X8559695Y-22135484D02*
X8559695Y-22030722D01*
X8559695Y-22030722D02*
X8550172Y-22011675D01*
X8550172Y-22011675D02*
X8531124Y-22002151D01*
X8531124Y-22002151D02*
X8502552Y-22002151D01*
X8502552Y-22002151D02*
X8483505Y-22011675D01*
X8483505Y-22011675D02*
X8473981Y-22021198D01*
X8683505Y-22135484D02*
X8664457Y-22125960D01*
X8664457Y-22125960D02*
X8654933Y-22116437D01*
X8654933Y-22116437D02*
X8645410Y-22097389D01*
X8645410Y-22097389D02*
X8645410Y-22040246D01*
X8645410Y-22040246D02*
X8654933Y-22021198D01*
X8654933Y-22021198D02*
X8664457Y-22011675D01*
X8664457Y-22011675D02*
X8683505Y-22002151D01*
X8683505Y-22002151D02*
X8712076Y-22002151D01*
X8712076Y-22002151D02*
X8731124Y-22011675D01*
X8731124Y-22011675D02*
X8740648Y-22021198D01*
X8740648Y-22021198D02*
X8750172Y-22040246D01*
X8750172Y-22040246D02*
X8750172Y-22097389D01*
X8750172Y-22097389D02*
X8740648Y-22116437D01*
X8740648Y-22116437D02*
X8731124Y-22125960D01*
X8731124Y-22125960D02*
X8712076Y-22135484D01*
X8712076Y-22135484D02*
X8683505Y-22135484D01*
X8864457Y-22135484D02*
X8845410Y-22125960D01*
X8845410Y-22125960D02*
X8835886Y-22106913D01*
X8835886Y-22106913D02*
X8835886Y-21935484D01*
X9016838Y-22125960D02*
X8997791Y-22135484D01*
X8997791Y-22135484D02*
X8959695Y-22135484D01*
X8959695Y-22135484D02*
X8940648Y-22125960D01*
X8940648Y-22125960D02*
X8931124Y-22106913D01*
X8931124Y-22106913D02*
X8931124Y-22030722D01*
X8931124Y-22030722D02*
X8940648Y-22011675D01*
X8940648Y-22011675D02*
X8959695Y-22002151D01*
X8959695Y-22002151D02*
X8997791Y-22002151D01*
X8997791Y-22002151D02*
X9016838Y-22011675D01*
X9016838Y-22011675D02*
X9026362Y-22030722D01*
X9026362Y-22030722D02*
X9026362Y-22049770D01*
X9026362Y-22049770D02*
X8931124Y-22068818D01*
X9093029Y-22211675D02*
X9102553Y-22202151D01*
X9102553Y-22202151D02*
X9121600Y-22173579D01*
X9121600Y-22173579D02*
X9131124Y-22154532D01*
X9131124Y-22154532D02*
X9140648Y-22125960D01*
X9140648Y-22125960D02*
X9150172Y-22078341D01*
X9150172Y-22078341D02*
X9150172Y-22040246D01*
X9150172Y-22040246D02*
X9140648Y-21992627D01*
X9140648Y-21992627D02*
X9131124Y-21964056D01*
X9131124Y-21964056D02*
X9121600Y-21945008D01*
X9121600Y-21945008D02*
X9102553Y-21916437D01*
X9102553Y-21916437D02*
X9093029Y-21906913D01*
X9454934Y-22211675D02*
X9445410Y-22202151D01*
X9445410Y-22202151D02*
X9426362Y-22173579D01*
X9426362Y-22173579D02*
X9416838Y-22154532D01*
X9416838Y-22154532D02*
X9407314Y-22125960D01*
X9407314Y-22125960D02*
X9397791Y-22078341D01*
X9397791Y-22078341D02*
X9397791Y-22040246D01*
X9397791Y-22040246D02*
X9407314Y-21992627D01*
X9407314Y-21992627D02*
X9416838Y-21964056D01*
X9416838Y-21964056D02*
X9426362Y-21945008D01*
X9426362Y-21945008D02*
X9445410Y-21916437D01*
X9445410Y-21916437D02*
X9454934Y-21906913D01*
X9531124Y-22002151D02*
X9531124Y-22135484D01*
X9531124Y-22021198D02*
X9540648Y-22011675D01*
X9540648Y-22011675D02*
X9559695Y-22002151D01*
X9559695Y-22002151D02*
X9588267Y-22002151D01*
X9588267Y-22002151D02*
X9607314Y-22011675D01*
X9607314Y-22011675D02*
X9616838Y-22030722D01*
X9616838Y-22030722D02*
X9616838Y-22135484D01*
X9740648Y-22135484D02*
X9721600Y-22125960D01*
X9721600Y-22125960D02*
X9712076Y-22116437D01*
X9712076Y-22116437D02*
X9702553Y-22097389D01*
X9702553Y-22097389D02*
X9702553Y-22040246D01*
X9702553Y-22040246D02*
X9712076Y-22021198D01*
X9712076Y-22021198D02*
X9721600Y-22011675D01*
X9721600Y-22011675D02*
X9740648Y-22002151D01*
X9740648Y-22002151D02*
X9769219Y-22002151D01*
X9769219Y-22002151D02*
X9788267Y-22011675D01*
X9788267Y-22011675D02*
X9797791Y-22021198D01*
X9797791Y-22021198D02*
X9807314Y-22040246D01*
X9807314Y-22040246D02*
X9807314Y-22097389D01*
X9807314Y-22097389D02*
X9797791Y-22116437D01*
X9797791Y-22116437D02*
X9788267Y-22125960D01*
X9788267Y-22125960D02*
X9769219Y-22135484D01*
X9769219Y-22135484D02*
X9740648Y-22135484D01*
X9864457Y-22002151D02*
X9940648Y-22002151D01*
X9893029Y-21935484D02*
X9893029Y-22106913D01*
X9893029Y-22106913D02*
X9902553Y-22125960D01*
X9902553Y-22125960D02*
X9921600Y-22135484D01*
X9921600Y-22135484D02*
X9940648Y-22135484D01*
X10159695Y-22002151D02*
X10159695Y-22202151D01*
X10159695Y-22011675D02*
X10178743Y-22002151D01*
X10178743Y-22002151D02*
X10216838Y-22002151D01*
X10216838Y-22002151D02*
X10235886Y-22011675D01*
X10235886Y-22011675D02*
X10245410Y-22021198D01*
X10245410Y-22021198D02*
X10254934Y-22040246D01*
X10254934Y-22040246D02*
X10254934Y-22097389D01*
X10254934Y-22097389D02*
X10245410Y-22116437D01*
X10245410Y-22116437D02*
X10235886Y-22125960D01*
X10235886Y-22125960D02*
X10216838Y-22135484D01*
X10216838Y-22135484D02*
X10178743Y-22135484D01*
X10178743Y-22135484D02*
X10159695Y-22125960D01*
X10369219Y-22135484D02*
X10350172Y-22125960D01*
X10350172Y-22125960D02*
X10340648Y-22106913D01*
X10340648Y-22106913D02*
X10340648Y-21935484D01*
X10531124Y-22135484D02*
X10531124Y-22030722D01*
X10531124Y-22030722D02*
X10521600Y-22011675D01*
X10521600Y-22011675D02*
X10502553Y-22002151D01*
X10502553Y-22002151D02*
X10464457Y-22002151D01*
X10464457Y-22002151D02*
X10445410Y-22011675D01*
X10531124Y-22125960D02*
X10512076Y-22135484D01*
X10512076Y-22135484D02*
X10464457Y-22135484D01*
X10464457Y-22135484D02*
X10445410Y-22125960D01*
X10445410Y-22125960D02*
X10435886Y-22106913D01*
X10435886Y-22106913D02*
X10435886Y-22087865D01*
X10435886Y-22087865D02*
X10445410Y-22068818D01*
X10445410Y-22068818D02*
X10464457Y-22059294D01*
X10464457Y-22059294D02*
X10512076Y-22059294D01*
X10512076Y-22059294D02*
X10531124Y-22049770D01*
X10597791Y-22002151D02*
X10673981Y-22002151D01*
X10626362Y-21935484D02*
X10626362Y-22106913D01*
X10626362Y-22106913D02*
X10635886Y-22125960D01*
X10635886Y-22125960D02*
X10654934Y-22135484D01*
X10654934Y-22135484D02*
X10673981Y-22135484D01*
X10816838Y-22125960D02*
X10797791Y-22135484D01*
X10797791Y-22135484D02*
X10759695Y-22135484D01*
X10759695Y-22135484D02*
X10740648Y-22125960D01*
X10740648Y-22125960D02*
X10731124Y-22106913D01*
X10731124Y-22106913D02*
X10731124Y-22030722D01*
X10731124Y-22030722D02*
X10740648Y-22011675D01*
X10740648Y-22011675D02*
X10759695Y-22002151D01*
X10759695Y-22002151D02*
X10797791Y-22002151D01*
X10797791Y-22002151D02*
X10816838Y-22011675D01*
X10816838Y-22011675D02*
X10826362Y-22030722D01*
X10826362Y-22030722D02*
X10826362Y-22049770D01*
X10826362Y-22049770D02*
X10731124Y-22068818D01*
X10997791Y-22135484D02*
X10997791Y-21935484D01*
X10997791Y-22125960D02*
X10978743Y-22135484D01*
X10978743Y-22135484D02*
X10940648Y-22135484D01*
X10940648Y-22135484D02*
X10921600Y-22125960D01*
X10921600Y-22125960D02*
X10912076Y-22116437D01*
X10912076Y-22116437D02*
X10902553Y-22097389D01*
X10902553Y-22097389D02*
X10902553Y-22040246D01*
X10902553Y-22040246D02*
X10912076Y-22021198D01*
X10912076Y-22021198D02*
X10921600Y-22011675D01*
X10921600Y-22011675D02*
X10940648Y-22002151D01*
X10940648Y-22002151D02*
X10978743Y-22002151D01*
X10978743Y-22002151D02*
X10997791Y-22011675D01*
X11073981Y-22211675D02*
X11083505Y-22202151D01*
X11083505Y-22202151D02*
X11102553Y-22173579D01*
X11102553Y-22173579D02*
X11112076Y-22154532D01*
X11112076Y-22154532D02*
X11121600Y-22125960D01*
X11121600Y-22125960D02*
X11131124Y-22078341D01*
X11131124Y-22078341D02*
X11131124Y-22040246D01*
X11131124Y-22040246D02*
X11121600Y-21992627D01*
X11121600Y-21992627D02*
X11112076Y-21964056D01*
X11112076Y-21964056D02*
X11102553Y-21945008D01*
X11102553Y-21945008D02*
X11083505Y-21916437D01*
X11083505Y-21916437D02*
X11073981Y-21906913D01*
M02*
