G04 #@! TF.GenerationSoftware,KiCad,Pcbnew,8.0.3*
G04 #@! TF.CreationDate,2024-08-06T18:59:45+01:00*
G04 #@! TF.ProjectId,Tesla Small Drive,5465736c-6120-4536-9d61-6c6c20447269,rev?*
G04 #@! TF.SameCoordinates,Original*
G04 #@! TF.FileFunction,AssemblyDrawing,Bot*
%FSLAX46Y46*%
G04 Gerber Fmt 4.6, Leading zero omitted, Abs format (unit mm)*
G04 Created by KiCad (PCBNEW 8.0.3) date 2024-08-06 18:59:45*
%MOMM*%
%LPD*%
G01*
G04 APERTURE LIST*
%ADD10C,0.150000*%
%ADD11C,0.254000*%
%ADD12C,0.100000*%
G04 APERTURE END LIST*
D10*
X205354819Y-64157142D02*
X204878628Y-63823809D01*
X205354819Y-63585714D02*
X204354819Y-63585714D01*
X204354819Y-63585714D02*
X204354819Y-63966666D01*
X204354819Y-63966666D02*
X204402438Y-64061904D01*
X204402438Y-64061904D02*
X204450057Y-64109523D01*
X204450057Y-64109523D02*
X204545295Y-64157142D01*
X204545295Y-64157142D02*
X204688152Y-64157142D01*
X204688152Y-64157142D02*
X204783390Y-64109523D01*
X204783390Y-64109523D02*
X204831009Y-64061904D01*
X204831009Y-64061904D02*
X204878628Y-63966666D01*
X204878628Y-63966666D02*
X204878628Y-63585714D01*
X205307200Y-64538095D02*
X205354819Y-64680952D01*
X205354819Y-64680952D02*
X205354819Y-64919047D01*
X205354819Y-64919047D02*
X205307200Y-65014285D01*
X205307200Y-65014285D02*
X205259580Y-65061904D01*
X205259580Y-65061904D02*
X205164342Y-65109523D01*
X205164342Y-65109523D02*
X205069104Y-65109523D01*
X205069104Y-65109523D02*
X204973866Y-65061904D01*
X204973866Y-65061904D02*
X204926247Y-65014285D01*
X204926247Y-65014285D02*
X204878628Y-64919047D01*
X204878628Y-64919047D02*
X204831009Y-64728571D01*
X204831009Y-64728571D02*
X204783390Y-64633333D01*
X204783390Y-64633333D02*
X204735771Y-64585714D01*
X204735771Y-64585714D02*
X204640533Y-64538095D01*
X204640533Y-64538095D02*
X204545295Y-64538095D01*
X204545295Y-64538095D02*
X204450057Y-64585714D01*
X204450057Y-64585714D02*
X204402438Y-64633333D01*
X204402438Y-64633333D02*
X204354819Y-64728571D01*
X204354819Y-64728571D02*
X204354819Y-64966666D01*
X204354819Y-64966666D02*
X204402438Y-65109523D01*
X204450057Y-65490476D02*
X204402438Y-65538095D01*
X204402438Y-65538095D02*
X204354819Y-65633333D01*
X204354819Y-65633333D02*
X204354819Y-65871428D01*
X204354819Y-65871428D02*
X204402438Y-65966666D01*
X204402438Y-65966666D02*
X204450057Y-66014285D01*
X204450057Y-66014285D02*
X204545295Y-66061904D01*
X204545295Y-66061904D02*
X204640533Y-66061904D01*
X204640533Y-66061904D02*
X204783390Y-66014285D01*
X204783390Y-66014285D02*
X205354819Y-65442857D01*
X205354819Y-65442857D02*
X205354819Y-66061904D01*
X204354819Y-66395238D02*
X204354819Y-67014285D01*
X204354819Y-67014285D02*
X204735771Y-66680952D01*
X204735771Y-66680952D02*
X204735771Y-66823809D01*
X204735771Y-66823809D02*
X204783390Y-66919047D01*
X204783390Y-66919047D02*
X204831009Y-66966666D01*
X204831009Y-66966666D02*
X204926247Y-67014285D01*
X204926247Y-67014285D02*
X205164342Y-67014285D01*
X205164342Y-67014285D02*
X205259580Y-66966666D01*
X205259580Y-66966666D02*
X205307200Y-66919047D01*
X205307200Y-66919047D02*
X205354819Y-66823809D01*
X205354819Y-66823809D02*
X205354819Y-66538095D01*
X205354819Y-66538095D02*
X205307200Y-66442857D01*
X205307200Y-66442857D02*
X205259580Y-66395238D01*
X204450057Y-67395238D02*
X204402438Y-67442857D01*
X204402438Y-67442857D02*
X204354819Y-67538095D01*
X204354819Y-67538095D02*
X204354819Y-67776190D01*
X204354819Y-67776190D02*
X204402438Y-67871428D01*
X204402438Y-67871428D02*
X204450057Y-67919047D01*
X204450057Y-67919047D02*
X204545295Y-67966666D01*
X204545295Y-67966666D02*
X204640533Y-67966666D01*
X204640533Y-67966666D02*
X204783390Y-67919047D01*
X204783390Y-67919047D02*
X205354819Y-67347619D01*
X205354819Y-67347619D02*
X205354819Y-67966666D01*
X204831009Y-69157143D02*
X204831009Y-69490476D01*
X205354819Y-69633333D02*
X205354819Y-69157143D01*
X205354819Y-69157143D02*
X204354819Y-69157143D01*
X204354819Y-69157143D02*
X204354819Y-69633333D01*
X204354819Y-69966667D02*
X205354819Y-70633333D01*
X204354819Y-70633333D02*
X205354819Y-69966667D01*
X204354819Y-70871429D02*
X204354819Y-71442857D01*
X205354819Y-71157143D02*
X204354819Y-71157143D01*
X205354819Y-73109524D02*
X204878628Y-72776191D01*
X205354819Y-72538096D02*
X204354819Y-72538096D01*
X204354819Y-72538096D02*
X204354819Y-72919048D01*
X204354819Y-72919048D02*
X204402438Y-73014286D01*
X204402438Y-73014286D02*
X204450057Y-73061905D01*
X204450057Y-73061905D02*
X204545295Y-73109524D01*
X204545295Y-73109524D02*
X204688152Y-73109524D01*
X204688152Y-73109524D02*
X204783390Y-73061905D01*
X204783390Y-73061905D02*
X204831009Y-73014286D01*
X204831009Y-73014286D02*
X204878628Y-72919048D01*
X204878628Y-72919048D02*
X204878628Y-72538096D01*
X204354819Y-73442858D02*
X205354819Y-74109524D01*
X204354819Y-74109524D02*
X205354819Y-73442858D01*
X209854819Y-64176189D02*
X209378628Y-63842856D01*
X209854819Y-63604761D02*
X208854819Y-63604761D01*
X208854819Y-63604761D02*
X208854819Y-63985713D01*
X208854819Y-63985713D02*
X208902438Y-64080951D01*
X208902438Y-64080951D02*
X208950057Y-64128570D01*
X208950057Y-64128570D02*
X209045295Y-64176189D01*
X209045295Y-64176189D02*
X209188152Y-64176189D01*
X209188152Y-64176189D02*
X209283390Y-64128570D01*
X209283390Y-64128570D02*
X209331009Y-64080951D01*
X209331009Y-64080951D02*
X209378628Y-63985713D01*
X209378628Y-63985713D02*
X209378628Y-63604761D01*
X209807200Y-64557142D02*
X209854819Y-64699999D01*
X209854819Y-64699999D02*
X209854819Y-64938094D01*
X209854819Y-64938094D02*
X209807200Y-65033332D01*
X209807200Y-65033332D02*
X209759580Y-65080951D01*
X209759580Y-65080951D02*
X209664342Y-65128570D01*
X209664342Y-65128570D02*
X209569104Y-65128570D01*
X209569104Y-65128570D02*
X209473866Y-65080951D01*
X209473866Y-65080951D02*
X209426247Y-65033332D01*
X209426247Y-65033332D02*
X209378628Y-64938094D01*
X209378628Y-64938094D02*
X209331009Y-64747618D01*
X209331009Y-64747618D02*
X209283390Y-64652380D01*
X209283390Y-64652380D02*
X209235771Y-64604761D01*
X209235771Y-64604761D02*
X209140533Y-64557142D01*
X209140533Y-64557142D02*
X209045295Y-64557142D01*
X209045295Y-64557142D02*
X208950057Y-64604761D01*
X208950057Y-64604761D02*
X208902438Y-64652380D01*
X208902438Y-64652380D02*
X208854819Y-64747618D01*
X208854819Y-64747618D02*
X208854819Y-64985713D01*
X208854819Y-64985713D02*
X208902438Y-65128570D01*
X208950057Y-65509523D02*
X208902438Y-65557142D01*
X208902438Y-65557142D02*
X208854819Y-65652380D01*
X208854819Y-65652380D02*
X208854819Y-65890475D01*
X208854819Y-65890475D02*
X208902438Y-65985713D01*
X208902438Y-65985713D02*
X208950057Y-66033332D01*
X208950057Y-66033332D02*
X209045295Y-66080951D01*
X209045295Y-66080951D02*
X209140533Y-66080951D01*
X209140533Y-66080951D02*
X209283390Y-66033332D01*
X209283390Y-66033332D02*
X209854819Y-65461904D01*
X209854819Y-65461904D02*
X209854819Y-66080951D01*
X208854819Y-66414285D02*
X208854819Y-67033332D01*
X208854819Y-67033332D02*
X209235771Y-66699999D01*
X209235771Y-66699999D02*
X209235771Y-66842856D01*
X209235771Y-66842856D02*
X209283390Y-66938094D01*
X209283390Y-66938094D02*
X209331009Y-66985713D01*
X209331009Y-66985713D02*
X209426247Y-67033332D01*
X209426247Y-67033332D02*
X209664342Y-67033332D01*
X209664342Y-67033332D02*
X209759580Y-66985713D01*
X209759580Y-66985713D02*
X209807200Y-66938094D01*
X209807200Y-66938094D02*
X209854819Y-66842856D01*
X209854819Y-66842856D02*
X209854819Y-66557142D01*
X209854819Y-66557142D02*
X209807200Y-66461904D01*
X209807200Y-66461904D02*
X209759580Y-66414285D01*
X208950057Y-67414285D02*
X208902438Y-67461904D01*
X208902438Y-67461904D02*
X208854819Y-67557142D01*
X208854819Y-67557142D02*
X208854819Y-67795237D01*
X208854819Y-67795237D02*
X208902438Y-67890475D01*
X208902438Y-67890475D02*
X208950057Y-67938094D01*
X208950057Y-67938094D02*
X209045295Y-67985713D01*
X209045295Y-67985713D02*
X209140533Y-67985713D01*
X209140533Y-67985713D02*
X209283390Y-67938094D01*
X209283390Y-67938094D02*
X209854819Y-67366666D01*
X209854819Y-67366666D02*
X209854819Y-67985713D01*
X209331009Y-69176190D02*
X209331009Y-69509523D01*
X209854819Y-69652380D02*
X209854819Y-69176190D01*
X209854819Y-69176190D02*
X208854819Y-69176190D01*
X208854819Y-69176190D02*
X208854819Y-69652380D01*
X208854819Y-69985714D02*
X209854819Y-70652380D01*
X208854819Y-70652380D02*
X209854819Y-69985714D01*
X208854819Y-70890476D02*
X208854819Y-71461904D01*
X209854819Y-71176190D02*
X208854819Y-71176190D01*
X208854819Y-72414286D02*
X208854819Y-72985714D01*
X209854819Y-72700000D02*
X208854819Y-72700000D01*
X208854819Y-73223810D02*
X209854819Y-73890476D01*
X208854819Y-73890476D02*
X209854819Y-73223810D01*
D11*
X65523332Y-169604318D02*
X65523332Y-170511461D01*
X65523332Y-170511461D02*
X65583809Y-170692889D01*
X65583809Y-170692889D02*
X65704761Y-170813842D01*
X65704761Y-170813842D02*
X65886190Y-170874318D01*
X65886190Y-170874318D02*
X66007142Y-170874318D01*
X64374285Y-170027651D02*
X64374285Y-170874318D01*
X64676666Y-169543842D02*
X64979047Y-170450984D01*
X64979047Y-170450984D02*
X64192856Y-170450984D01*
D12*
G04 #@! TO.C,J4*
X63525000Y-174575000D02*
X98775000Y-174575000D01*
X63525000Y-184425000D02*
X63525000Y-174575000D01*
X98775000Y-174575000D02*
X98775000Y-184425000D01*
X98775000Y-184425000D02*
X63525000Y-184425000D01*
G04 #@! TD*
M02*
