G04 #@! TF.GenerationSoftware,KiCad,Pcbnew,8.0.3*
G04 #@! TF.CreationDate,2024-08-06T18:59:45+01:00*
G04 #@! TF.ProjectId,Tesla Small Drive,5465736c-6120-4536-9d61-6c6c20447269,rev?*
G04 #@! TF.SameCoordinates,Original*
G04 #@! TF.FileFunction,Other,Comment*
%FSLAX46Y46*%
G04 Gerber Fmt 4.6, Leading zero omitted, Abs format (unit mm)*
G04 Created by KiCad (PCBNEW 8.0.3) date 2024-08-06 18:59:45*
%MOMM*%
%LPD*%
G01*
G04 APERTURE LIST*
%ADD10C,0.070000*%
%ADD11C,0.100000*%
%ADD12C,0.150000*%
G04 APERTURE END LIST*
D10*
X164161904Y-57146407D02*
X164161904Y-56746407D01*
X164390475Y-57146407D02*
X164219046Y-56917836D01*
X164390475Y-56746407D02*
X164161904Y-56974979D01*
X164561904Y-56936883D02*
X164695237Y-56936883D01*
X164752380Y-57146407D02*
X164561904Y-57146407D01*
X164561904Y-57146407D02*
X164561904Y-56746407D01*
X164561904Y-56746407D02*
X164752380Y-56746407D01*
X164923809Y-56936883D02*
X165057142Y-56936883D01*
X165114285Y-57146407D02*
X164923809Y-57146407D01*
X164923809Y-57146407D02*
X164923809Y-56746407D01*
X164923809Y-56746407D02*
X165114285Y-56746407D01*
X165285714Y-57146407D02*
X165285714Y-56746407D01*
X165285714Y-56746407D02*
X165438095Y-56746407D01*
X165438095Y-56746407D02*
X165476190Y-56765455D01*
X165476190Y-56765455D02*
X165495237Y-56784502D01*
X165495237Y-56784502D02*
X165514285Y-56822598D01*
X165514285Y-56822598D02*
X165514285Y-56879740D01*
X165514285Y-56879740D02*
X165495237Y-56917836D01*
X165495237Y-56917836D02*
X165476190Y-56936883D01*
X165476190Y-56936883D02*
X165438095Y-56955931D01*
X165438095Y-56955931D02*
X165285714Y-56955931D01*
X165761904Y-56746407D02*
X165838095Y-56746407D01*
X165838095Y-56746407D02*
X165876190Y-56765455D01*
X165876190Y-56765455D02*
X165914285Y-56803550D01*
X165914285Y-56803550D02*
X165933333Y-56879740D01*
X165933333Y-56879740D02*
X165933333Y-57013074D01*
X165933333Y-57013074D02*
X165914285Y-57089264D01*
X165914285Y-57089264D02*
X165876190Y-57127360D01*
X165876190Y-57127360D02*
X165838095Y-57146407D01*
X165838095Y-57146407D02*
X165761904Y-57146407D01*
X165761904Y-57146407D02*
X165723809Y-57127360D01*
X165723809Y-57127360D02*
X165685714Y-57089264D01*
X165685714Y-57089264D02*
X165666666Y-57013074D01*
X165666666Y-57013074D02*
X165666666Y-56879740D01*
X165666666Y-56879740D02*
X165685714Y-56803550D01*
X165685714Y-56803550D02*
X165723809Y-56765455D01*
X165723809Y-56765455D02*
X165761904Y-56746407D01*
X166104762Y-56746407D02*
X166104762Y-57070217D01*
X166104762Y-57070217D02*
X166123809Y-57108312D01*
X166123809Y-57108312D02*
X166142857Y-57127360D01*
X166142857Y-57127360D02*
X166180952Y-57146407D01*
X166180952Y-57146407D02*
X166257143Y-57146407D01*
X166257143Y-57146407D02*
X166295238Y-57127360D01*
X166295238Y-57127360D02*
X166314285Y-57108312D01*
X166314285Y-57108312D02*
X166333333Y-57070217D01*
X166333333Y-57070217D02*
X166333333Y-56746407D01*
X166466667Y-56746407D02*
X166695238Y-56746407D01*
X166580952Y-57146407D02*
X166580952Y-56746407D01*
D11*
X171911904Y-34091109D02*
X171673809Y-34091109D01*
X171673809Y-34091109D02*
X171650000Y-34329204D01*
X171650000Y-34329204D02*
X171673809Y-34305395D01*
X171673809Y-34305395D02*
X171721428Y-34281585D01*
X171721428Y-34281585D02*
X171840476Y-34281585D01*
X171840476Y-34281585D02*
X171888095Y-34305395D01*
X171888095Y-34305395D02*
X171911904Y-34329204D01*
X171911904Y-34329204D02*
X171935714Y-34376823D01*
X171935714Y-34376823D02*
X171935714Y-34495871D01*
X171935714Y-34495871D02*
X171911904Y-34543490D01*
X171911904Y-34543490D02*
X171888095Y-34567300D01*
X171888095Y-34567300D02*
X171840476Y-34591109D01*
X171840476Y-34591109D02*
X171721428Y-34591109D01*
X171721428Y-34591109D02*
X171673809Y-34567300D01*
X171673809Y-34567300D02*
X171650000Y-34543490D01*
X172530951Y-34591109D02*
X172530951Y-34257776D01*
X172530951Y-34305395D02*
X172554761Y-34281585D01*
X172554761Y-34281585D02*
X172602380Y-34257776D01*
X172602380Y-34257776D02*
X172673808Y-34257776D01*
X172673808Y-34257776D02*
X172721427Y-34281585D01*
X172721427Y-34281585D02*
X172745237Y-34329204D01*
X172745237Y-34329204D02*
X172745237Y-34591109D01*
X172745237Y-34329204D02*
X172769046Y-34281585D01*
X172769046Y-34281585D02*
X172816665Y-34257776D01*
X172816665Y-34257776D02*
X172888094Y-34257776D01*
X172888094Y-34257776D02*
X172935713Y-34281585D01*
X172935713Y-34281585D02*
X172959523Y-34329204D01*
X172959523Y-34329204D02*
X172959523Y-34591109D01*
X173197618Y-34591109D02*
X173197618Y-34257776D01*
X173197618Y-34305395D02*
X173221428Y-34281585D01*
X173221428Y-34281585D02*
X173269047Y-34257776D01*
X173269047Y-34257776D02*
X173340475Y-34257776D01*
X173340475Y-34257776D02*
X173388094Y-34281585D01*
X173388094Y-34281585D02*
X173411904Y-34329204D01*
X173411904Y-34329204D02*
X173411904Y-34591109D01*
X173411904Y-34329204D02*
X173435713Y-34281585D01*
X173435713Y-34281585D02*
X173483332Y-34257776D01*
X173483332Y-34257776D02*
X173554761Y-34257776D01*
X173554761Y-34257776D02*
X173602380Y-34281585D01*
X173602380Y-34281585D02*
X173626190Y-34329204D01*
X173626190Y-34329204D02*
X173626190Y-34591109D01*
X196376109Y-25478095D02*
X196376109Y-25716190D01*
X196376109Y-25716190D02*
X196614204Y-25739999D01*
X196614204Y-25739999D02*
X196590395Y-25716190D01*
X196590395Y-25716190D02*
X196566585Y-25668571D01*
X196566585Y-25668571D02*
X196566585Y-25549523D01*
X196566585Y-25549523D02*
X196590395Y-25501904D01*
X196590395Y-25501904D02*
X196614204Y-25478095D01*
X196614204Y-25478095D02*
X196661823Y-25454285D01*
X196661823Y-25454285D02*
X196780871Y-25454285D01*
X196780871Y-25454285D02*
X196828490Y-25478095D01*
X196828490Y-25478095D02*
X196852300Y-25501904D01*
X196852300Y-25501904D02*
X196876109Y-25549523D01*
X196876109Y-25549523D02*
X196876109Y-25668571D01*
X196876109Y-25668571D02*
X196852300Y-25716190D01*
X196852300Y-25716190D02*
X196828490Y-25739999D01*
X196876109Y-24859048D02*
X196542776Y-24859048D01*
X196590395Y-24859048D02*
X196566585Y-24835238D01*
X196566585Y-24835238D02*
X196542776Y-24787619D01*
X196542776Y-24787619D02*
X196542776Y-24716191D01*
X196542776Y-24716191D02*
X196566585Y-24668572D01*
X196566585Y-24668572D02*
X196614204Y-24644762D01*
X196614204Y-24644762D02*
X196876109Y-24644762D01*
X196614204Y-24644762D02*
X196566585Y-24620953D01*
X196566585Y-24620953D02*
X196542776Y-24573334D01*
X196542776Y-24573334D02*
X196542776Y-24501905D01*
X196542776Y-24501905D02*
X196566585Y-24454286D01*
X196566585Y-24454286D02*
X196614204Y-24430476D01*
X196614204Y-24430476D02*
X196876109Y-24430476D01*
X196876109Y-24192381D02*
X196542776Y-24192381D01*
X196590395Y-24192381D02*
X196566585Y-24168571D01*
X196566585Y-24168571D02*
X196542776Y-24120952D01*
X196542776Y-24120952D02*
X196542776Y-24049524D01*
X196542776Y-24049524D02*
X196566585Y-24001905D01*
X196566585Y-24001905D02*
X196614204Y-23978095D01*
X196614204Y-23978095D02*
X196876109Y-23978095D01*
X196614204Y-23978095D02*
X196566585Y-23954286D01*
X196566585Y-23954286D02*
X196542776Y-23906667D01*
X196542776Y-23906667D02*
X196542776Y-23835238D01*
X196542776Y-23835238D02*
X196566585Y-23787619D01*
X196566585Y-23787619D02*
X196614204Y-23763809D01*
X196614204Y-23763809D02*
X196876109Y-23763809D01*
D12*
X186088095Y-35909104D02*
X186564285Y-35909104D01*
X185992857Y-36194819D02*
X186326190Y-35194819D01*
X186326190Y-35194819D02*
X186659523Y-36194819D01*
X186992857Y-35528152D02*
X186992857Y-36194819D01*
X186992857Y-35623390D02*
X187040476Y-35575771D01*
X187040476Y-35575771D02*
X187135714Y-35528152D01*
X187135714Y-35528152D02*
X187278571Y-35528152D01*
X187278571Y-35528152D02*
X187373809Y-35575771D01*
X187373809Y-35575771D02*
X187421428Y-35671009D01*
X187421428Y-35671009D02*
X187421428Y-36194819D01*
X187754762Y-35528152D02*
X188135714Y-35528152D01*
X187897619Y-35194819D02*
X187897619Y-36051961D01*
X187897619Y-36051961D02*
X187945238Y-36147200D01*
X187945238Y-36147200D02*
X188040476Y-36194819D01*
X188040476Y-36194819D02*
X188135714Y-36194819D01*
X188850000Y-36147200D02*
X188754762Y-36194819D01*
X188754762Y-36194819D02*
X188564286Y-36194819D01*
X188564286Y-36194819D02*
X188469048Y-36147200D01*
X188469048Y-36147200D02*
X188421429Y-36051961D01*
X188421429Y-36051961D02*
X188421429Y-35671009D01*
X188421429Y-35671009D02*
X188469048Y-35575771D01*
X188469048Y-35575771D02*
X188564286Y-35528152D01*
X188564286Y-35528152D02*
X188754762Y-35528152D01*
X188754762Y-35528152D02*
X188850000Y-35575771D01*
X188850000Y-35575771D02*
X188897619Y-35671009D01*
X188897619Y-35671009D02*
X188897619Y-35766247D01*
X188897619Y-35766247D02*
X188421429Y-35861485D01*
X189326191Y-35528152D02*
X189326191Y-36194819D01*
X189326191Y-35623390D02*
X189373810Y-35575771D01*
X189373810Y-35575771D02*
X189469048Y-35528152D01*
X189469048Y-35528152D02*
X189611905Y-35528152D01*
X189611905Y-35528152D02*
X189707143Y-35575771D01*
X189707143Y-35575771D02*
X189754762Y-35671009D01*
X189754762Y-35671009D02*
X189754762Y-36194819D01*
X190230953Y-35528152D02*
X190230953Y-36194819D01*
X190230953Y-35623390D02*
X190278572Y-35575771D01*
X190278572Y-35575771D02*
X190373810Y-35528152D01*
X190373810Y-35528152D02*
X190516667Y-35528152D01*
X190516667Y-35528152D02*
X190611905Y-35575771D01*
X190611905Y-35575771D02*
X190659524Y-35671009D01*
X190659524Y-35671009D02*
X190659524Y-36194819D01*
X191564286Y-36194819D02*
X191564286Y-35671009D01*
X191564286Y-35671009D02*
X191516667Y-35575771D01*
X191516667Y-35575771D02*
X191421429Y-35528152D01*
X191421429Y-35528152D02*
X191230953Y-35528152D01*
X191230953Y-35528152D02*
X191135715Y-35575771D01*
X191564286Y-36147200D02*
X191469048Y-36194819D01*
X191469048Y-36194819D02*
X191230953Y-36194819D01*
X191230953Y-36194819D02*
X191135715Y-36147200D01*
X191135715Y-36147200D02*
X191088096Y-36051961D01*
X191088096Y-36051961D02*
X191088096Y-35956723D01*
X191088096Y-35956723D02*
X191135715Y-35861485D01*
X191135715Y-35861485D02*
X191230953Y-35813866D01*
X191230953Y-35813866D02*
X191469048Y-35813866D01*
X191469048Y-35813866D02*
X191564286Y-35766247D01*
X182778571Y-30194819D02*
X182778571Y-29194819D01*
X183349999Y-30194819D02*
X182921428Y-29623390D01*
X183349999Y-29194819D02*
X182778571Y-29766247D01*
X183778571Y-29671009D02*
X184111904Y-29671009D01*
X184254761Y-30194819D02*
X183778571Y-30194819D01*
X183778571Y-30194819D02*
X183778571Y-29194819D01*
X183778571Y-29194819D02*
X184254761Y-29194819D01*
X184683333Y-29671009D02*
X185016666Y-29671009D01*
X185159523Y-30194819D02*
X184683333Y-30194819D01*
X184683333Y-30194819D02*
X184683333Y-29194819D01*
X184683333Y-29194819D02*
X185159523Y-29194819D01*
X185588095Y-30194819D02*
X185588095Y-29194819D01*
X185588095Y-29194819D02*
X185969047Y-29194819D01*
X185969047Y-29194819D02*
X186064285Y-29242438D01*
X186064285Y-29242438D02*
X186111904Y-29290057D01*
X186111904Y-29290057D02*
X186159523Y-29385295D01*
X186159523Y-29385295D02*
X186159523Y-29528152D01*
X186159523Y-29528152D02*
X186111904Y-29623390D01*
X186111904Y-29623390D02*
X186064285Y-29671009D01*
X186064285Y-29671009D02*
X185969047Y-29718628D01*
X185969047Y-29718628D02*
X185588095Y-29718628D01*
X186588095Y-29813866D02*
X187350000Y-29813866D01*
X188016666Y-29194819D02*
X188207142Y-29194819D01*
X188207142Y-29194819D02*
X188302380Y-29242438D01*
X188302380Y-29242438D02*
X188397618Y-29337676D01*
X188397618Y-29337676D02*
X188445237Y-29528152D01*
X188445237Y-29528152D02*
X188445237Y-29861485D01*
X188445237Y-29861485D02*
X188397618Y-30051961D01*
X188397618Y-30051961D02*
X188302380Y-30147200D01*
X188302380Y-30147200D02*
X188207142Y-30194819D01*
X188207142Y-30194819D02*
X188016666Y-30194819D01*
X188016666Y-30194819D02*
X187921428Y-30147200D01*
X187921428Y-30147200D02*
X187826190Y-30051961D01*
X187826190Y-30051961D02*
X187778571Y-29861485D01*
X187778571Y-29861485D02*
X187778571Y-29528152D01*
X187778571Y-29528152D02*
X187826190Y-29337676D01*
X187826190Y-29337676D02*
X187921428Y-29242438D01*
X187921428Y-29242438D02*
X188016666Y-29194819D01*
X188873809Y-29194819D02*
X188873809Y-30004342D01*
X188873809Y-30004342D02*
X188921428Y-30099580D01*
X188921428Y-30099580D02*
X188969047Y-30147200D01*
X188969047Y-30147200D02*
X189064285Y-30194819D01*
X189064285Y-30194819D02*
X189254761Y-30194819D01*
X189254761Y-30194819D02*
X189349999Y-30147200D01*
X189349999Y-30147200D02*
X189397618Y-30099580D01*
X189397618Y-30099580D02*
X189445237Y-30004342D01*
X189445237Y-30004342D02*
X189445237Y-29194819D01*
X189778571Y-29194819D02*
X190349999Y-29194819D01*
X190064285Y-30194819D02*
X190064285Y-29194819D01*
X191350000Y-29194819D02*
X192016666Y-29194819D01*
X192016666Y-29194819D02*
X191350000Y-30194819D01*
X191350000Y-30194819D02*
X192016666Y-30194819D01*
X192588095Y-29194819D02*
X192778571Y-29194819D01*
X192778571Y-29194819D02*
X192873809Y-29242438D01*
X192873809Y-29242438D02*
X192969047Y-29337676D01*
X192969047Y-29337676D02*
X193016666Y-29528152D01*
X193016666Y-29528152D02*
X193016666Y-29861485D01*
X193016666Y-29861485D02*
X192969047Y-30051961D01*
X192969047Y-30051961D02*
X192873809Y-30147200D01*
X192873809Y-30147200D02*
X192778571Y-30194819D01*
X192778571Y-30194819D02*
X192588095Y-30194819D01*
X192588095Y-30194819D02*
X192492857Y-30147200D01*
X192492857Y-30147200D02*
X192397619Y-30051961D01*
X192397619Y-30051961D02*
X192350000Y-29861485D01*
X192350000Y-29861485D02*
X192350000Y-29528152D01*
X192350000Y-29528152D02*
X192397619Y-29337676D01*
X192397619Y-29337676D02*
X192492857Y-29242438D01*
X192492857Y-29242438D02*
X192588095Y-29194819D01*
X193445238Y-30194819D02*
X193445238Y-29194819D01*
X193445238Y-29194819D02*
X194016666Y-30194819D01*
X194016666Y-30194819D02*
X194016666Y-29194819D01*
X194492857Y-29671009D02*
X194826190Y-29671009D01*
X194969047Y-30194819D02*
X194492857Y-30194819D01*
X194492857Y-30194819D02*
X194492857Y-29194819D01*
X194492857Y-29194819D02*
X194969047Y-29194819D01*
D11*
X204311904Y-34091109D02*
X204073809Y-34091109D01*
X204073809Y-34091109D02*
X204050000Y-34329204D01*
X204050000Y-34329204D02*
X204073809Y-34305395D01*
X204073809Y-34305395D02*
X204121428Y-34281585D01*
X204121428Y-34281585D02*
X204240476Y-34281585D01*
X204240476Y-34281585D02*
X204288095Y-34305395D01*
X204288095Y-34305395D02*
X204311904Y-34329204D01*
X204311904Y-34329204D02*
X204335714Y-34376823D01*
X204335714Y-34376823D02*
X204335714Y-34495871D01*
X204335714Y-34495871D02*
X204311904Y-34543490D01*
X204311904Y-34543490D02*
X204288095Y-34567300D01*
X204288095Y-34567300D02*
X204240476Y-34591109D01*
X204240476Y-34591109D02*
X204121428Y-34591109D01*
X204121428Y-34591109D02*
X204073809Y-34567300D01*
X204073809Y-34567300D02*
X204050000Y-34543490D01*
X204930951Y-34591109D02*
X204930951Y-34257776D01*
X204930951Y-34305395D02*
X204954761Y-34281585D01*
X204954761Y-34281585D02*
X205002380Y-34257776D01*
X205002380Y-34257776D02*
X205073808Y-34257776D01*
X205073808Y-34257776D02*
X205121427Y-34281585D01*
X205121427Y-34281585D02*
X205145237Y-34329204D01*
X205145237Y-34329204D02*
X205145237Y-34591109D01*
X205145237Y-34329204D02*
X205169046Y-34281585D01*
X205169046Y-34281585D02*
X205216665Y-34257776D01*
X205216665Y-34257776D02*
X205288094Y-34257776D01*
X205288094Y-34257776D02*
X205335713Y-34281585D01*
X205335713Y-34281585D02*
X205359523Y-34329204D01*
X205359523Y-34329204D02*
X205359523Y-34591109D01*
X205597618Y-34591109D02*
X205597618Y-34257776D01*
X205597618Y-34305395D02*
X205621428Y-34281585D01*
X205621428Y-34281585D02*
X205669047Y-34257776D01*
X205669047Y-34257776D02*
X205740475Y-34257776D01*
X205740475Y-34257776D02*
X205788094Y-34281585D01*
X205788094Y-34281585D02*
X205811904Y-34329204D01*
X205811904Y-34329204D02*
X205811904Y-34591109D01*
X205811904Y-34329204D02*
X205835713Y-34281585D01*
X205835713Y-34281585D02*
X205883332Y-34257776D01*
X205883332Y-34257776D02*
X205954761Y-34257776D01*
X205954761Y-34257776D02*
X206002380Y-34281585D01*
X206002380Y-34281585D02*
X206026190Y-34329204D01*
X206026190Y-34329204D02*
X206026190Y-34591109D01*
D12*
G04 #@! TO.C,H1*
X59800000Y-165000000D02*
G75*
G02*
X45800000Y-165000000I-7000000J0D01*
G01*
X45800000Y-165000000D02*
G75*
G02*
X59800000Y-165000000I7000000J0D01*
G01*
G04 #@! TO.C,H3*
X121600000Y-193700000D02*
G75*
G02*
X107600000Y-193700000I-7000000J0D01*
G01*
X107600000Y-193700000D02*
G75*
G02*
X121600000Y-193700000I7000000J0D01*
G01*
G04 #@! TO.C,H8*
X218700000Y-124200000D02*
G75*
G02*
X210300000Y-124200000I-4200000J0D01*
G01*
X210300000Y-124200000D02*
G75*
G02*
X218700000Y-124200000I4200000J0D01*
G01*
G04 #@! TO.C,H2*
X117500000Y-164600000D02*
G75*
G02*
X103500000Y-164600000I-7000000J0D01*
G01*
X103500000Y-164600000D02*
G75*
G02*
X117500000Y-164600000I7000000J0D01*
G01*
G04 #@! TO.C,H4*
X56200000Y-30800000D02*
G75*
G02*
X47800000Y-30800000I-4200000J0D01*
G01*
X47800000Y-30800000D02*
G75*
G02*
X56200000Y-30800000I4200000J0D01*
G01*
D11*
G04 #@! TO.C,U4*
X164910000Y-34865000D02*
X165110000Y-34665000D01*
X164910000Y-34865000D02*
X165110000Y-35065000D01*
X164910000Y-34865000D02*
X179650000Y-34865000D01*
X179650000Y-34865000D02*
X179450000Y-34665000D01*
X179650000Y-34865000D02*
X179450000Y-35065000D01*
X197250000Y-18060000D02*
X197050000Y-18260000D01*
X197250000Y-18060000D02*
X197450000Y-18260000D01*
X197250000Y-32740000D02*
X197050000Y-32540000D01*
X197250000Y-32740000D02*
X197250000Y-18060000D01*
X197250000Y-32740000D02*
X197450000Y-32540000D01*
X198050000Y-34865000D02*
X198250000Y-34665000D01*
X198050000Y-34865000D02*
X198250000Y-35065000D01*
X198050000Y-34865000D02*
X212790000Y-34865000D01*
X212790000Y-34865000D02*
X212590000Y-34665000D01*
X212790000Y-34865000D02*
X212590000Y-35065000D01*
D12*
G04 #@! TO.C,H9*
X177200000Y-124300000D02*
G75*
G02*
X168800000Y-124300000I-4200000J0D01*
G01*
X168800000Y-124300000D02*
G75*
G02*
X177200000Y-124300000I4200000J0D01*
G01*
G04 #@! TO.C,H5*
X156200000Y-29300000D02*
G75*
G02*
X147800000Y-29300000I-4200000J0D01*
G01*
X147800000Y-29300000D02*
G75*
G02*
X156200000Y-29300000I4200000J0D01*
G01*
G04 #@! TO.C,H6*
X176200000Y-190300000D02*
G75*
G02*
X167800000Y-190300000I-4200000J0D01*
G01*
X167800000Y-190300000D02*
G75*
G02*
X176200000Y-190300000I4200000J0D01*
G01*
G04 #@! TO.C,H7*
X224200000Y-30500000D02*
G75*
G02*
X215800000Y-30500000I-4200000J0D01*
G01*
X215800000Y-30500000D02*
G75*
G02*
X224200000Y-30500000I4200000J0D01*
G01*
G04 #@! TD*
M02*
