M48
; DRILL file {KiCad 8.0.3} date 2024-08-06T18:59:45+0100
; FORMAT={-:-/ absolute / metric / decimal}
; #@! TF.CreationDate,2024-08-06T18:59:45+01:00
; #@! TF.GenerationSoftware,Kicad,Pcbnew,8.0.3
; #@! TF.FileFunction,Plated,1,4,PTH
FMAT,2
METRIC
; #@! TA.AperFunction,Plated,PTH,ComponentDrill
T1C0.200
; #@! TA.AperFunction,Plated,PTH,ViaDrill
T2C0.250
; #@! TA.AperFunction,Plated,PTH,ViaDrill
T3C0.300
; #@! TA.AperFunction,Plated,PTH,ViaDrill
T4C0.400
; #@! TA.AperFunction,Plated,PTH,ViaDrill
T5C0.600
; #@! TA.AperFunction,Plated,PTH,ComponentDrill
T6C0.600
; #@! TA.AperFunction,Plated,PTH,ComponentDrill
T7C0.800
; #@! TA.AperFunction,Plated,PTH,ComponentDrill
T8C1.000
; #@! TA.AperFunction,Plated,PTH,ComponentDrill
T9C1.200
; #@! TA.AperFunction,Plated,PTH,ComponentDrill
T10C1.400
; #@! TA.AperFunction,Plated,PTH,ComponentDrill
T11C4.000
; #@! TA.AperFunction,Plated,PTH,ComponentDrill
T12C5.000
%
G90
G05
T1
X185.95Y-47.51
X185.95Y-48.91
X186.65Y-46.81
X186.65Y-48.21
X186.65Y-49.61
X187.325Y-47.51
X187.325Y-48.91
X188.05Y-46.81
X188.05Y-48.21
X188.05Y-49.61
X188.75Y-47.51
X188.75Y-48.91
T2
X78.165Y-163.47
X79.915Y-163.47
X81.3Y-76.0
X83.275Y-163.475
X84.975Y-163.475
X89.0Y-158.97
X89.02Y-154.295
X90.7Y-160.2
X90.72Y-154.26
X92.42Y-154.24
X94.09Y-158.19
X94.12Y-154.257
X95.82Y-154.257
X97.5Y-160.1
X97.51Y-154.27
X100.63Y-151.53
X114.55Y-131.85
X114.55Y-133.55
X114.55Y-135.3
X114.55Y-140.5
X114.65Y-138.75
X117.49Y-104.51
X117.5Y-62.4
X117.5Y-88.15
X117.975Y-137.05
X120.05Y-137.15
X120.05Y-135.85
X120.1Y-139.65
X120.15Y-140.9
X120.15Y-142.2
X121.25Y-67.35
X121.3Y-75.85
X123.54Y-150.22
X124.3Y-142.2
X125.35Y-98.9
X125.4Y-139.65
X125.8Y-155.78
X125.9Y-157.48
X127.35Y-132.1
X128.0Y-79.3
X128.1Y-77.6
X128.127Y-75.927
X128.65Y-90.8
X129.5Y-145.5
X130.05Y-82.75
X130.05Y-134.9
X130.05Y-138.4
X130.3Y-87.25
X130.35Y-90.75
X130.4Y-74.75
X130.57Y-131.03
X131.04Y-167.98
X131.85Y-63.3
X132.6Y-132.0
X133.55Y-136.65
X133.55Y-141.95
X133.65Y-140.2
X133.75Y-90.8
X133.8Y-93.1
X134.225Y-82.2
X134.4Y-74.25
X135.51Y-155.23
X135.51Y-157.96
X135.73Y-163.14
X135.775Y-82.175
X135.9Y-90.8
X136.4Y-74.35
X136.5Y-140.6
X136.508Y-68.445
X136.9Y-55.5
X137.1Y-59.1
X137.5Y-77.4
X137.508Y-69.708
X137.6Y-70.9
X138.5Y-65.8
X138.55Y-76.65
X138.6Y-80.3
X138.9Y-55.5
X139.51Y-156.67
X139.85Y-77.0
X140.2Y-74.2
X140.575Y-76.445
X140.7Y-62.4
X141.25Y-72.3
X141.743Y-77.187
X142.2Y-82.1
X142.468Y-76.0
X142.7Y-87.05
X142.7Y-90.6
X142.8Y-73.75
X143.8Y-82.1
X145.35Y-81.31
X146.25Y-66.15
X146.9Y-76.95
X146.95Y-75.25
X147.19Y-96.19
X147.7Y-116.5
X147.8Y-76.2
X147.85Y-66.15
X149.35Y-71.0
X150.15Y-65.15
X150.15Y-72.8
X150.4Y-64.25
X151.05Y-71.8
X157.15Y-86.1
X161.7Y-100.6
X162.7Y-62.2
X162.89Y-94.97
X163.35Y-73.75
X163.5Y-75.3
X166.55Y-93.55
X166.7Y-96.0
X169.8Y-97.5
X169.812Y-86.138
X169.9Y-87.35
X169.9Y-92.45
X169.938Y-88.562
X170.0Y-95.0
X170.6Y-99.3
X185.4Y-105.1
X189.5Y-100.5
X199.1Y-45.55
X203.0Y-102.1
X205.05Y-68.85
X217.95Y-105.45
X230.203Y-114.653
T3
X68.8Y-169.7
X81.75Y-68.5
X81.75Y-69.5
X81.75Y-70.5
X81.75Y-71.5
X81.75Y-72.5
X82.75Y-68.5
X82.75Y-69.5
X82.75Y-70.5
X82.75Y-71.5
X82.75Y-72.5
X83.75Y-68.5
X83.75Y-69.5
X83.75Y-70.5
X83.75Y-71.5
X83.75Y-72.5
X92.41Y-159.69
X100.455Y-78.215
X102.21Y-59.91
X102.76Y-71.21
X109.86Y-112.6
X112.39Y-76.04
X115.1Y-146.9
X118.09Y-133.54
X118.94Y-148.15
X122.28Y-155.78
X122.282Y-157.48
X123.6Y-153.8
X127.25Y-159.197
X127.25Y-161.197
X127.4Y-155.4
X127.4Y-156.7
X128.6Y-65.6
X128.62Y-149.65
X129.1Y-101.25
X129.7Y-68.15
X129.75Y-162.197
X129.84Y-163.94
X130.97Y-149.69
X130.97Y-159.02
X131.225Y-68.25
X133.67Y-121.11
X133.69Y-143.74
X133.8Y-64.0
X134.06Y-150.52
X134.92Y-134.93
X135.23Y-126.09
X135.4Y-64.0
X139.1Y-143.67
X139.23Y-153.18
X139.3Y-149.76
X139.31Y-159.7
X140.165Y-101.2
X141.05Y-87.95
X142.83Y-172.95
X143.49Y-117.86
X145.62Y-93.93
X151.6Y-88.55
X151.6Y-91.1
X151.7Y-93.25
X151.808Y-95.84
X153.65Y-97.7
X156.2Y-94.15
X157.2Y-89.895
X160.35Y-97.5
X160.4Y-91.165
X160.6Y-93.2
X160.62Y-57.88
X166.2Y-91.65
X166.65Y-68.2
X166.75Y-69.8
X169.37Y-56.92
X170.25Y-89.9
X172.75Y-68.35
X172.85Y-41.75
X172.85Y-43.45
X172.85Y-46.85
X172.85Y-48.55
X174.5Y-67.15
X176.35Y-48.6
X177.745Y-70.905
X178.75Y-40.5
X183.15Y-59.55
X185.4Y-100.0
X185.4Y-101.7
X185.5Y-103.4
X189.3Y-101.7
X192.9Y-101.7
X193.0Y-106.8
X195.3Y-101.7
X199.0Y-40.5
X202.9Y-100.4
X203.0Y-104.9
X207.2Y-104.4
X210.6Y-104.4
X213.0Y-106.5
X214.6Y-106.4
X214.9Y-103.2
X220.0Y-99.4
X224.5Y-100.7
X224.6Y-99.0
X226.453Y-114.703
X227.7Y-88.9
X228.337Y-114.703
X229.2Y-88.9
X232.103Y-114.703
X232.12Y-122.86
X232.2Y-85.17
X232.2Y-88.8
T4
X50.78Y-95.77
X50.79Y-99.53
X54.5Y-91.0
X55.0Y-92.5
X56.44Y-104.27
X57.5Y-97.663
X57.88Y-104.24
X61.0Y-126.0
X66.1Y-119.9
X71.0Y-96.0
X71.0Y-98.0
X72.5Y-96.0
X72.5Y-98.0
X74.0Y-96.0
X74.0Y-98.0
X80.5Y-126.0
X93.3Y-104.3
X98.99Y-158.92
X104.51Y-149.49
X109.62Y-106.32
X120.6Y-125.9
X141.35Y-168.36
X160.4Y-156.3
T5
X75.22Y-152.36
X75.22Y-156.55
X76.7Y-65.275
X76.74Y-69.09
X77.38Y-109.88
X77.39Y-112.94
X77.4Y-111.4
T6
X228.295Y-125.037
X228.33Y-82.0
X229.565Y-125.037
X229.6Y-82.0
X230.835Y-125.037
X230.87Y-82.0
X232.105Y-125.037
X232.14Y-82.0
T7
X147.26Y-148.78
X147.26Y-151.32
X147.26Y-153.86
X147.26Y-156.4
X147.26Y-158.94
X147.26Y-161.48
X147.26Y-164.02
X147.26Y-166.56
X147.26Y-169.1
X147.26Y-171.64
X147.26Y-174.18
X147.26Y-176.72
X149.8Y-148.78
X149.8Y-151.32
X149.8Y-153.86
X149.8Y-156.4
X149.8Y-158.94
X149.8Y-161.48
X149.8Y-164.02
X149.8Y-166.56
X149.8Y-169.1
X149.8Y-171.64
X149.8Y-174.18
X149.8Y-176.72
T8
X153.7Y-55.4
X153.7Y-57.94
X153.7Y-60.48
X157.7Y-160.625
X157.7Y-163.165
X207.3Y-43.05
X207.3Y-45.59
X207.3Y-48.13
X207.3Y-50.67
X207.3Y-53.21
X207.3Y-55.75
T9
X68.7Y-42.494
X71.24Y-42.494
X159.502Y-137.04
X159.502Y-139.58
X159.502Y-142.12
X159.502Y-144.66
X159.502Y-147.2
X159.502Y-149.74
X159.506Y-175.6
X159.506Y-178.14
T10
X65.4Y-176.5
X65.4Y-182.5
X68.9Y-176.5
X68.9Y-182.5
X72.4Y-176.5
X72.4Y-182.5
X75.9Y-176.5
X75.9Y-182.5
X79.4Y-176.5
X79.4Y-182.5
X82.9Y-176.5
X82.9Y-182.5
X86.4Y-176.5
X86.4Y-182.5
X89.9Y-176.5
X89.9Y-182.5
X93.4Y-176.5
X93.4Y-182.5
X96.9Y-176.5
X96.9Y-182.5
T11
X52.0Y-30.8
X152.0Y-29.3
X172.0Y-190.3
X173.0Y-124.3
X214.5Y-124.2
X220.0Y-30.5
T12
X52.8Y-165.0
X110.5Y-164.6
X114.6Y-193.7
M30
