G04 #@! TF.GenerationSoftware,KiCad,Pcbnew,8.0.3*
G04 #@! TF.CreationDate,2024-08-06T18:59:45+01:00*
G04 #@! TF.ProjectId,Tesla Small Drive,5465736c-6120-4536-9d61-6c6c20447269,rev?*
G04 #@! TF.SameCoordinates,Original*
G04 #@! TF.FileFunction,Soldermask,Bot*
G04 #@! TF.FilePolarity,Negative*
%FSLAX46Y46*%
G04 Gerber Fmt 4.6, Leading zero omitted, Abs format (unit mm)*
G04 Created by KiCad (PCBNEW 8.0.3) date 2024-08-06 18:59:45*
%MOMM*%
%LPD*%
G01*
G04 APERTURE LIST*
G04 Aperture macros list*
%AMFreePoly0*
4,1,19,0.550000,-0.750000,0.000000,-0.750000,0.000000,-0.744911,-0.071157,-0.744911,-0.207708,-0.704816,-0.327430,-0.627875,-0.420627,-0.520320,-0.479746,-0.390866,-0.500000,-0.250000,-0.500000,0.250000,-0.479746,0.390866,-0.420627,0.520320,-0.327430,0.627875,-0.207708,0.704816,-0.071157,0.744911,0.000000,0.744911,0.000000,0.750000,0.550000,0.750000,0.550000,-0.750000,0.550000,-0.750000,
$1*%
%AMFreePoly1*
4,1,19,0.000000,0.744911,0.071157,0.744911,0.207708,0.704816,0.327430,0.627875,0.420627,0.520320,0.479746,0.390866,0.500000,0.250000,0.500000,-0.250000,0.479746,-0.390866,0.420627,-0.520320,0.327430,-0.627875,0.207708,-0.704816,0.071157,-0.744911,0.000000,-0.744911,0.000000,-0.750000,-0.550000,-0.750000,-0.550000,0.750000,0.000000,0.750000,0.000000,0.744911,0.000000,0.744911,
$1*%
G04 Aperture macros list end*
%ADD10C,3.400000*%
%ADD11C,1.524000*%
%ADD12C,13.000000*%
%ADD13C,8.000000*%
%ADD14R,1.200000X1.200000*%
%ADD15C,1.200000*%
%ADD16R,1.000000X1.000000*%
%ADD17C,1.000000*%
%ADD18R,1.700000X1.700000*%
%ADD19O,1.700000X1.700000*%
%ADD20C,2.374900*%
%ADD21C,0.990600*%
%ADD22FreePoly0,270.000000*%
%ADD23R,1.500000X1.000000*%
%ADD24FreePoly1,270.000000*%
%ADD25C,3.500000*%
%ADD26C,12.800000*%
%ADD27R,2.100000X2.100000*%
%ADD28C,2.100000*%
G04 APERTURE END LIST*
D10*
G04 #@! TO.C,J6*
X72510000Y-33484000D03*
X64890000Y-33484000D03*
D11*
X71240000Y-42494000D03*
X68700000Y-42494000D03*
G04 #@! TD*
D10*
G04 #@! TO.C,J5*
X168516000Y-179410000D03*
X168516000Y-171790000D03*
D11*
X159506000Y-178140000D03*
X159506000Y-175600000D03*
G04 #@! TD*
D12*
G04 #@! TO.C,H1*
X52800000Y-165000000D03*
G04 #@! TD*
G04 #@! TO.C,H3*
X114600000Y-193700000D03*
G04 #@! TD*
D13*
G04 #@! TO.C,H8*
X214500000Y-124200000D03*
G04 #@! TD*
D14*
G04 #@! TO.C,J3*
X149800000Y-176720000D03*
D15*
X147260000Y-176720000D03*
X149800000Y-174180000D03*
X147260000Y-174180000D03*
X149800000Y-171640000D03*
X147260000Y-171640000D03*
X149800000Y-169100000D03*
X147260000Y-169100000D03*
X149800000Y-166560000D03*
X147260000Y-166560000D03*
X149800000Y-164020000D03*
X147260000Y-164020000D03*
X149800000Y-161480000D03*
X147260000Y-161480000D03*
X149800000Y-158940000D03*
X147260000Y-158940000D03*
X149800000Y-156400000D03*
X147260000Y-156400000D03*
X149800000Y-153860000D03*
X147260000Y-153860000D03*
X149800000Y-151320000D03*
X147260000Y-151320000D03*
X149800000Y-148780000D03*
X147260000Y-148780000D03*
G04 #@! TD*
D12*
G04 #@! TO.C,H2*
X110500000Y-164600000D03*
G04 #@! TD*
D16*
G04 #@! TO.C,IC9*
X232105000Y-125037500D03*
D17*
X230835000Y-125037500D03*
X229565000Y-125037500D03*
X228295000Y-125037500D03*
G04 #@! TD*
D13*
G04 #@! TO.C,H4*
X52000000Y-30800000D03*
G04 #@! TD*
D18*
G04 #@! TO.C,J1*
X153700000Y-60480000D03*
D19*
X153700000Y-57940000D03*
X153700000Y-55400000D03*
G04 #@! TD*
D20*
G04 #@! TO.C,J8*
X162860000Y-54425000D03*
D21*
X162860000Y-56965000D03*
D20*
X162860000Y-59505000D03*
X166035000Y-54425000D03*
X166035000Y-59505000D03*
D21*
X167940000Y-55949000D03*
X167940000Y-57981000D03*
G04 #@! TD*
D18*
G04 #@! TO.C,J9*
X157700000Y-160625000D03*
D19*
X157700000Y-163165000D03*
G04 #@! TD*
D16*
G04 #@! TO.C,IC8*
X232140000Y-82000000D03*
D17*
X230870000Y-82000000D03*
X229600000Y-82000000D03*
X228330000Y-82000000D03*
G04 #@! TD*
D13*
G04 #@! TO.C,H9*
X173000000Y-124300000D03*
G04 #@! TD*
G04 #@! TO.C,H5*
X152000000Y-29300000D03*
G04 #@! TD*
G04 #@! TO.C,H6*
X172000000Y-190300000D03*
G04 #@! TD*
D18*
G04 #@! TO.C,J2*
X207300000Y-55750000D03*
D19*
X207300000Y-53210000D03*
X207300000Y-50670000D03*
X207300000Y-48130000D03*
X207300000Y-45590000D03*
X207300000Y-43050000D03*
G04 #@! TD*
D10*
G04 #@! TO.C,J7*
X168442196Y-148480000D03*
X168492196Y-138320000D03*
D11*
X159502196Y-149740000D03*
X159502196Y-147200000D03*
X159502196Y-144660000D03*
X159502196Y-142120000D03*
X159502196Y-139580000D03*
X159502196Y-137040000D03*
G04 #@! TD*
D13*
G04 #@! TO.C,H7*
X220000000Y-30500000D03*
G04 #@! TD*
D22*
G04 #@! TO.C,JP2*
X203000000Y-67500000D03*
D23*
X203000000Y-68800000D03*
D24*
X203000000Y-70100000D03*
G04 #@! TD*
D22*
G04 #@! TO.C,JP1*
X207500000Y-67400000D03*
D23*
X207500000Y-68700000D03*
D24*
X207500000Y-70000000D03*
G04 #@! TD*
D25*
G04 #@! TO.C,J4*
X58600000Y-179400000D03*
X103900000Y-179500000D03*
D26*
X114700000Y-179400000D03*
D27*
X65400000Y-182500000D03*
D28*
X68900000Y-182500000D03*
X72400000Y-182500000D03*
X75900000Y-182500000D03*
X79400000Y-182500000D03*
X82900000Y-182500000D03*
X86400000Y-182500000D03*
X89900000Y-182500000D03*
X93400000Y-182500000D03*
X96900000Y-182500000D03*
X65400000Y-176500000D03*
X68900000Y-176500000D03*
X72400000Y-176500000D03*
X75900000Y-176500000D03*
X79400000Y-176500000D03*
X82900000Y-176500000D03*
X86400000Y-176500000D03*
X89900000Y-176500000D03*
X93400000Y-176500000D03*
X96900000Y-176500000D03*
G04 #@! TD*
M02*
