G04 #@! TF.GenerationSoftware,KiCad,Pcbnew,8.0.3*
G04 #@! TF.CreationDate,2024-08-06T18:59:45+01:00*
G04 #@! TF.ProjectId,Tesla Small Drive,5465736c-6120-4536-9d61-6c6c20447269,rev?*
G04 #@! TF.SameCoordinates,Original*
G04 #@! TF.FileFunction,Profile,NP*
%FSLAX46Y46*%
G04 Gerber Fmt 4.6, Leading zero omitted, Abs format (unit mm)*
G04 Created by KiCad (PCBNEW 8.0.3) date 2024-08-06 18:59:45*
%MOMM*%
%LPD*%
G01*
G04 APERTURE LIST*
G04 #@! TA.AperFunction,Profile*
%ADD10C,0.200000*%
G04 #@! TD*
G04 APERTURE END LIST*
D10*
X55200001Y-179000000D02*
X55200001Y-192000000D01*
X46000000Y-25000000D02*
G75*
G02*
X47000000Y-24000000I1000000J0D01*
G01*
X178000000Y-192000000D02*
G75*
G02*
X174000000Y-196000000I-4000000J0D01*
G01*
X122603461Y-196004043D02*
X174000000Y-195999558D01*
X43000000Y-172990402D02*
X43000000Y-44000000D01*
X234000000Y-128000000D02*
G75*
G02*
X233000000Y-129000000I-1000000J0D01*
G01*
X43999950Y-174003541D02*
X50149858Y-173999895D01*
X122603461Y-196004043D02*
G75*
G02*
X106794570Y-196006773I-7904901J2637263D01*
G01*
X43999950Y-174003541D02*
G75*
G02*
X42993934Y-172990402I7150J1013141D01*
G01*
X233000000Y-24000000D02*
G75*
G02*
X234000000Y-25000000I0J-1000000D01*
G01*
X233000000Y-24000000D02*
X47000000Y-24000000D01*
X60000000Y-195995616D02*
G75*
G02*
X55200042Y-191999992I0J4880916D01*
G01*
X179000000Y-129000000D02*
X233000000Y-129000000D01*
X46000000Y-39000000D02*
X43000000Y-44000000D01*
X234000000Y-128000000D02*
X234000000Y-25000000D01*
X50149858Y-173999895D02*
G75*
G02*
X55200048Y-179000000I39342J-5010705D01*
G01*
X46000000Y-25000000D02*
X46000000Y-39000000D01*
X178000000Y-130000000D02*
G75*
G02*
X179000000Y-129000000I1000000J0D01*
G01*
X60000000Y-196000000D02*
X106794572Y-196006772D01*
X178000000Y-192000000D02*
X178000000Y-130000000D01*
M02*
