G04 #@! TF.GenerationSoftware,KiCad,Pcbnew,8.0.3*
G04 #@! TF.CreationDate,2024-08-06T18:59:45+01:00*
G04 #@! TF.ProjectId,Tesla Small Drive,5465736c-6120-4536-9d61-6c6c20447269,rev?*
G04 #@! TF.SameCoordinates,Original*
G04 #@! TF.FileFunction,Other,User*
%FSLAX46Y46*%
G04 Gerber Fmt 4.6, Leading zero omitted, Abs format (unit mm)*
G04 Created by KiCad (PCBNEW 8.0.3) date 2024-08-06 18:59:45*
%MOMM*%
%LPD*%
G01*
G04 APERTURE LIST*
%ADD10C,0.050000*%
%ADD11C,0.100000*%
%ADD12C,0.127000*%
G04 APERTURE END LIST*
D10*
G04 #@! TO.C,C50*
X173120000Y-47820000D02*
X176080000Y-47820000D01*
X173120000Y-49280000D02*
X173120000Y-47820000D01*
X176080000Y-47820000D02*
X176080000Y-49280000D01*
X176080000Y-49280000D02*
X173120000Y-49280000D01*
G04 #@! TO.C,U5*
X58282500Y-132460000D02*
X58282500Y-143610000D01*
X58282500Y-143610000D02*
X68837500Y-143610000D01*
X60300000Y-126510000D02*
X60300000Y-132460000D01*
X60300000Y-132460000D02*
X58282500Y-132460000D01*
X66820000Y-126510000D02*
X60300000Y-126510000D01*
X66820000Y-132460000D02*
X66820000Y-126510000D01*
X68837500Y-132460000D02*
X66820000Y-132460000D01*
X68837500Y-143610000D02*
X68837500Y-132460000D01*
G04 #@! TO.C,R55*
X82570000Y-160220000D02*
X84030000Y-160220000D01*
X82570000Y-163180000D02*
X82570000Y-160220000D01*
X84030000Y-160220000D02*
X84030000Y-163180000D01*
X84030000Y-163180000D02*
X82570000Y-163180000D01*
G04 #@! TO.C,C29*
X122600000Y-156750000D02*
X125560000Y-156750000D01*
X122600000Y-158210000D02*
X122600000Y-156750000D01*
X125560000Y-156750000D02*
X125560000Y-158210000D01*
X125560000Y-158210000D02*
X122600000Y-158210000D01*
G04 #@! TO.C,R39*
X226970000Y-85620000D02*
X228430000Y-85620000D01*
X226970000Y-88580000D02*
X226970000Y-85620000D01*
X228430000Y-85620000D02*
X228430000Y-88580000D01*
X228430000Y-88580000D02*
X226970000Y-88580000D01*
G04 #@! TO.C,C16*
X145570000Y-66320000D02*
X148530000Y-66320000D01*
X145570000Y-67780000D02*
X145570000Y-66320000D01*
X148530000Y-66320000D02*
X148530000Y-67780000D01*
X148530000Y-67780000D02*
X145570000Y-67780000D01*
G04 #@! TO.C,R41*
X229970000Y-85620000D02*
X231430000Y-85620000D01*
X229970000Y-88580000D02*
X229970000Y-85620000D01*
X231430000Y-85620000D02*
X231430000Y-88580000D01*
X231430000Y-88580000D02*
X229970000Y-88580000D01*
G04 #@! TO.C,R23*
X136050000Y-165910000D02*
X139010000Y-165910000D01*
X136050000Y-167370000D02*
X136050000Y-165910000D01*
X139010000Y-165910000D02*
X139010000Y-167370000D01*
X139010000Y-167370000D02*
X136050000Y-167370000D01*
G04 #@! TO.C,R44*
X221320000Y-98270000D02*
X224280000Y-98270000D01*
X221320000Y-99730000D02*
X221320000Y-98270000D01*
X224280000Y-98270000D02*
X224280000Y-99730000D01*
X224280000Y-99730000D02*
X221320000Y-99730000D01*
G04 #@! TO.C,R51*
X173120000Y-44420000D02*
X176080000Y-44420000D01*
X173120000Y-45880000D02*
X173120000Y-44420000D01*
X176080000Y-44420000D02*
X176080000Y-45880000D01*
X176080000Y-45880000D02*
X173120000Y-45880000D01*
G04 #@! TO.C,C9*
X121620000Y-66620000D02*
X124580000Y-66620000D01*
X121620000Y-68080000D02*
X121620000Y-66620000D01*
X124580000Y-66620000D02*
X124580000Y-68080000D01*
X124580000Y-68080000D02*
X121620000Y-68080000D01*
G04 #@! TO.C,C42*
X167100000Y-67520000D02*
X168560000Y-67520000D01*
X167100000Y-70480000D02*
X167100000Y-67520000D01*
X168560000Y-67520000D02*
X168560000Y-70480000D01*
X168560000Y-70480000D02*
X167100000Y-70480000D01*
G04 #@! TO.C,C15*
X133520000Y-80470000D02*
X136480000Y-80470000D01*
X133520000Y-81930000D02*
X133520000Y-80470000D01*
X136480000Y-80470000D02*
X136480000Y-81930000D01*
X136480000Y-81930000D02*
X133520000Y-81930000D01*
G04 #@! TO.C,R50*
X225723334Y-115023334D02*
X227183334Y-115023334D01*
X225723334Y-117983334D02*
X225723334Y-115023334D01*
X227183334Y-115023334D02*
X227183334Y-117983334D01*
X227183334Y-117983334D02*
X225723334Y-117983334D01*
G04 #@! TO.C,R56*
X136420000Y-87545000D02*
X137880000Y-87545000D01*
X136420000Y-90505000D02*
X136420000Y-87545000D01*
X137880000Y-87545000D02*
X137880000Y-90505000D01*
X137880000Y-90505000D02*
X136420000Y-90505000D01*
G04 #@! TO.C,C39*
X130370000Y-141220000D02*
X133330000Y-141220000D01*
X130370000Y-142680000D02*
X130370000Y-141220000D01*
X133330000Y-141220000D02*
X133330000Y-142680000D01*
X133330000Y-142680000D02*
X130370000Y-142680000D01*
G04 #@! TO.C,R43*
X221320000Y-104070000D02*
X224280000Y-104070000D01*
X221320000Y-105530000D02*
X221320000Y-104070000D01*
X224280000Y-104070000D02*
X224280000Y-105530000D01*
X224280000Y-105530000D02*
X221320000Y-105530000D01*
G04 #@! TO.C,Q1*
X131430000Y-164950000D02*
X131430000Y-168350000D01*
X131430000Y-168350000D02*
X135270000Y-168350000D01*
X135270000Y-164950000D02*
X131430000Y-164950000D01*
X135270000Y-168350000D02*
X135270000Y-164950000D01*
G04 #@! TO.C,R13*
X88270000Y-160220000D02*
X89730000Y-160220000D01*
X88270000Y-163180000D02*
X88270000Y-160220000D01*
X89730000Y-160220000D02*
X89730000Y-163180000D01*
X89730000Y-163180000D02*
X88270000Y-163180000D01*
G04 #@! TO.C,H1*
X59600000Y-165000000D02*
G75*
G02*
X46000000Y-165000000I-6800000J0D01*
G01*
X46000000Y-165000000D02*
G75*
G02*
X59600000Y-165000000I6800000J0D01*
G01*
G04 #@! TO.C,R22*
X130100000Y-163200000D02*
X133060000Y-163200000D01*
X130100000Y-164660000D02*
X130100000Y-163200000D01*
X133060000Y-163200000D02*
X133060000Y-164660000D01*
X133060000Y-164660000D02*
X130100000Y-164660000D01*
G04 #@! TO.C,C43*
X231470000Y-85620000D02*
X232930000Y-85620000D01*
X231470000Y-88580000D02*
X231470000Y-85620000D01*
X232930000Y-85620000D02*
X232930000Y-88580000D01*
X232930000Y-88580000D02*
X231470000Y-88580000D01*
G04 #@! TO.C,C53*
X173120000Y-42720000D02*
X176080000Y-42720000D01*
X173120000Y-44180000D02*
X173120000Y-42720000D01*
X176080000Y-42720000D02*
X176080000Y-44180000D01*
X176080000Y-44180000D02*
X173120000Y-44180000D01*
G04 #@! TO.C,R37*
X130320000Y-132420000D02*
X133280000Y-132420000D01*
X130320000Y-133880000D02*
X130320000Y-132420000D01*
X133280000Y-132420000D02*
X133280000Y-133880000D01*
X133280000Y-133880000D02*
X130320000Y-133880000D01*
G04 #@! TO.C,C30*
X136100000Y-152450000D02*
X139060000Y-152450000D01*
X136100000Y-153910000D02*
X136100000Y-152450000D01*
X139060000Y-152450000D02*
X139060000Y-153910000D01*
X139060000Y-153910000D02*
X136100000Y-153910000D01*
G04 #@! TO.C,R9*
X93370000Y-160220000D02*
X94830000Y-160220000D01*
X93370000Y-163180000D02*
X93370000Y-160220000D01*
X94830000Y-160220000D02*
X94830000Y-163180000D01*
X94830000Y-163180000D02*
X93370000Y-163180000D01*
G04 #@! TO.C,C28*
X122600000Y-155050000D02*
X125560000Y-155050000D01*
X122600000Y-156510000D02*
X122600000Y-155050000D01*
X125560000Y-155050000D02*
X125560000Y-156510000D01*
X125560000Y-156510000D02*
X122600000Y-156510000D01*
G04 #@! TO.C,C37*
X114755000Y-132850000D02*
X117715000Y-132850000D01*
X114755000Y-134310000D02*
X114755000Y-132850000D01*
X117715000Y-132850000D02*
X117715000Y-134310000D01*
X117715000Y-134310000D02*
X114755000Y-134310000D01*
G04 #@! TO.C,H3*
X121400000Y-193700000D02*
G75*
G02*
X107800000Y-193700000I-6800000J0D01*
G01*
X107800000Y-193700000D02*
G75*
G02*
X121400000Y-193700000I6800000J0D01*
G01*
G04 #@! TO.C,R35*
X130370000Y-139470000D02*
X133330000Y-139470000D01*
X130370000Y-140930000D02*
X130370000Y-139470000D01*
X133330000Y-139470000D02*
X133330000Y-140930000D01*
X133330000Y-140930000D02*
X130370000Y-140930000D01*
G04 #@! TO.C,IC3*
X157572500Y-85150000D02*
X157572500Y-98450000D01*
X157572500Y-98450000D02*
X169502500Y-98450000D01*
X169502500Y-85150000D02*
X157572500Y-85150000D01*
X169502500Y-98450000D02*
X169502500Y-85150000D01*
G04 #@! TO.C,U1*
X57260000Y-99640000D02*
X57260000Y-116290000D01*
X57260000Y-116290000D02*
X68560000Y-116290000D01*
X68560000Y-99640000D02*
X57260000Y-99640000D01*
X68560000Y-116290000D02*
X68560000Y-99640000D01*
G04 #@! TO.C,H8*
X218950000Y-124200000D02*
G75*
G02*
X210050000Y-124200000I-4450000J0D01*
G01*
X210050000Y-124200000D02*
G75*
G02*
X218950000Y-124200000I4450000J0D01*
G01*
G04 #@! TO.C,J3*
X145705000Y-147225000D02*
X151320000Y-147225000D01*
X145705000Y-178240000D02*
X145705000Y-147225000D01*
X151320000Y-147225000D02*
X151320000Y-178240000D01*
X151320000Y-178240000D02*
X145705000Y-178240000D01*
G04 #@! TO.C,IC5*
X212275000Y-98550000D02*
X219725000Y-98550000D01*
X212275000Y-104050000D02*
X212275000Y-98550000D01*
X219725000Y-98550000D02*
X219725000Y-104050000D01*
X219725000Y-104050000D02*
X212275000Y-104050000D01*
G04 #@! TO.C,C10*
X121620000Y-75120000D02*
X124580000Y-75120000D01*
X121620000Y-76580000D02*
X121620000Y-75120000D01*
X124580000Y-75120000D02*
X124580000Y-76580000D01*
X124580000Y-76580000D02*
X121620000Y-76580000D01*
G04 #@! TO.C,R16*
X135795000Y-141170000D02*
X138755000Y-141170000D01*
X135795000Y-142630000D02*
X135795000Y-141170000D01*
X138755000Y-141170000D02*
X138755000Y-142630000D01*
X138755000Y-142630000D02*
X135795000Y-142630000D01*
G04 #@! TO.C,R7*
X139970000Y-59220000D02*
X141430000Y-59220000D01*
X139970000Y-62180000D02*
X139970000Y-59220000D01*
X141430000Y-59220000D02*
X141430000Y-62180000D01*
X141430000Y-62180000D02*
X139970000Y-62180000D01*
G04 #@! TO.C,H2*
X117300000Y-164600000D02*
G75*
G02*
X103700000Y-164600000I-6800000J0D01*
G01*
X103700000Y-164600000D02*
G75*
G02*
X117300000Y-164600000I6800000J0D01*
G01*
D11*
G04 #@! TO.C,IC9*
X226710000Y-123412500D02*
X233690000Y-123412500D01*
X226710000Y-126387500D02*
X226710000Y-123412500D01*
X233690000Y-123412500D02*
X233690000Y-126387500D01*
X233690000Y-126387500D02*
X226710000Y-126387500D01*
D10*
G04 #@! TO.C,R8*
X136170000Y-52220000D02*
X137630000Y-52220000D01*
X136170000Y-55180000D02*
X136170000Y-52220000D01*
X137630000Y-52220000D02*
X137630000Y-55180000D01*
X137630000Y-55180000D02*
X136170000Y-55180000D01*
G04 #@! TO.C,C22*
X129620000Y-87520000D02*
X131080000Y-87520000D01*
X129620000Y-90480000D02*
X129620000Y-87520000D01*
X131080000Y-87520000D02*
X131080000Y-90480000D01*
X131080000Y-90480000D02*
X129620000Y-90480000D01*
G04 #@! TO.C,C49*
X231373334Y-114990000D02*
X232833334Y-114990000D01*
X231373334Y-117950000D02*
X231373334Y-114990000D01*
X232833334Y-114990000D02*
X232833334Y-117950000D01*
X232833334Y-117950000D02*
X231373334Y-117950000D01*
G04 #@! TO.C,R57*
X133020000Y-87545000D02*
X134480000Y-87545000D01*
X133020000Y-90505000D02*
X133020000Y-87545000D01*
X134480000Y-87545000D02*
X134480000Y-90505000D01*
X134480000Y-90505000D02*
X133020000Y-90505000D01*
G04 #@! TO.C,C3*
X51620000Y-94120000D02*
X56520000Y-94120000D01*
X51620000Y-97420000D02*
X51620000Y-94120000D01*
X56520000Y-94120000D02*
X56520000Y-97420000D01*
X56520000Y-97420000D02*
X51620000Y-97420000D01*
G04 #@! TO.C,R32*
X114805000Y-139725000D02*
X117765000Y-139725000D01*
X114805000Y-141185000D02*
X114805000Y-139725000D01*
X117765000Y-139725000D02*
X117765000Y-141185000D01*
X117765000Y-141185000D02*
X114805000Y-141185000D01*
G04 #@! TO.C,H4*
X56450000Y-30800000D02*
G75*
G02*
X47550000Y-30800000I-4450000J0D01*
G01*
X47550000Y-30800000D02*
G75*
G02*
X56450000Y-30800000I4450000J0D01*
G01*
G04 #@! TO.C,R12*
X77435000Y-160215000D02*
X78895000Y-160215000D01*
X77435000Y-163175000D02*
X77435000Y-160215000D01*
X78895000Y-160215000D02*
X78895000Y-163175000D01*
X78895000Y-163175000D02*
X77435000Y-163175000D01*
G04 #@! TO.C,IC10*
X169895000Y-66297500D02*
X169895000Y-71702500D01*
X169895000Y-66297500D02*
X177305000Y-66297500D01*
X169895000Y-71702500D02*
X177305000Y-71702500D01*
X177305000Y-66297500D02*
X177305000Y-71702500D01*
G04 #@! TO.C,C24*
X91690000Y-154515000D02*
X93150000Y-154515000D01*
X91690000Y-157475000D02*
X91690000Y-154515000D01*
X93150000Y-154515000D02*
X93150000Y-157475000D01*
X93150000Y-157475000D02*
X91690000Y-157475000D01*
G04 #@! TO.C,R49*
X227606667Y-114990000D02*
X229066667Y-114990000D01*
X227606667Y-117950000D02*
X227606667Y-114990000D01*
X229066667Y-114990000D02*
X229066667Y-117950000D01*
X229066667Y-117950000D02*
X227606667Y-117950000D01*
G04 #@! TO.C,C4*
X69860000Y-99400000D02*
X71320000Y-99400000D01*
X69860000Y-102360000D02*
X69860000Y-99400000D01*
X71320000Y-99400000D02*
X71320000Y-102360000D01*
X71320000Y-102360000D02*
X69860000Y-102360000D01*
G04 #@! TO.C,R18*
X131320000Y-87520000D02*
X132780000Y-87520000D01*
X131320000Y-90480000D02*
X131320000Y-87520000D01*
X132780000Y-87520000D02*
X132780000Y-90480000D01*
X132780000Y-90480000D02*
X131320000Y-90480000D01*
G04 #@! TO.C,L1*
X52500000Y-80600000D02*
X52500000Y-93600000D01*
X52500000Y-93600000D02*
X65800000Y-93600000D01*
X65800000Y-80600000D02*
X52500000Y-80600000D01*
X65800000Y-93600000D02*
X65800000Y-80600000D01*
G04 #@! TO.C,C40*
X130320000Y-137670000D02*
X133280000Y-137670000D01*
X130320000Y-139130000D02*
X130320000Y-137670000D01*
X133280000Y-137670000D02*
X133280000Y-139130000D01*
X133280000Y-139130000D02*
X130320000Y-139130000D01*
G04 #@! TO.C,C17*
X141520000Y-80370000D02*
X144480000Y-80370000D01*
X141520000Y-81830000D02*
X141520000Y-80370000D01*
X144480000Y-80370000D02*
X144480000Y-81830000D01*
X144480000Y-81830000D02*
X141520000Y-81830000D01*
G04 #@! TO.C,R17*
X96770000Y-160220000D02*
X98230000Y-160220000D01*
X96770000Y-163180000D02*
X96770000Y-160220000D01*
X98230000Y-160220000D02*
X98230000Y-163180000D01*
X98230000Y-163180000D02*
X96770000Y-163180000D01*
G04 #@! TO.C,J1*
X151900000Y-53630000D02*
X151900000Y-62280000D01*
X151900000Y-62280000D02*
X155500000Y-62280000D01*
X155500000Y-53630000D02*
X151900000Y-53630000D01*
X155500000Y-62280000D02*
X155500000Y-53630000D01*
G04 #@! TO.C,C8*
X128970000Y-64870000D02*
X131930000Y-64870000D01*
X128970000Y-66330000D02*
X128970000Y-64870000D01*
X131930000Y-64870000D02*
X131930000Y-66330000D01*
X131930000Y-66330000D02*
X128970000Y-66330000D01*
G04 #@! TO.C,R19*
X89970000Y-160220000D02*
X91430000Y-160220000D01*
X89970000Y-163180000D02*
X89970000Y-160220000D01*
X91430000Y-160220000D02*
X91430000Y-163180000D01*
X91430000Y-163180000D02*
X89970000Y-163180000D01*
G04 #@! TO.C,IC4*
X120440000Y-132555000D02*
X120440000Y-142955000D01*
X120440000Y-132555000D02*
X127860000Y-132555000D01*
X120440000Y-142955000D02*
X127860000Y-142955000D01*
X127860000Y-132555000D02*
X127860000Y-142955000D01*
G04 #@! TO.C,R31*
X136130000Y-150710000D02*
X139090000Y-150710000D01*
X136130000Y-152170000D02*
X136130000Y-150710000D01*
X139090000Y-150710000D02*
X139090000Y-152170000D01*
X139090000Y-152170000D02*
X136130000Y-152170000D01*
G04 #@! TO.C,R15*
X130420000Y-144770000D02*
X133380000Y-144770000D01*
X130420000Y-146230000D02*
X130420000Y-144770000D01*
X133380000Y-144770000D02*
X133380000Y-146230000D01*
X133380000Y-146230000D02*
X130420000Y-146230000D01*
G04 #@! TO.C,R20*
X95063750Y-160226250D02*
X96523750Y-160226250D01*
X95063750Y-163186250D02*
X95063750Y-160226250D01*
X96523750Y-160226250D02*
X96523750Y-163186250D01*
X96523750Y-163186250D02*
X95063750Y-163186250D01*
G04 #@! TO.C,R24*
X185720000Y-104370000D02*
X188680000Y-104370000D01*
X185720000Y-105830000D02*
X185720000Y-104370000D01*
X188680000Y-104370000D02*
X188680000Y-105830000D01*
X188680000Y-105830000D02*
X185720000Y-105830000D01*
G04 #@! TO.C,C12*
X128970000Y-66520000D02*
X131930000Y-66520000D01*
X128970000Y-67980000D02*
X128970000Y-66520000D01*
X131930000Y-66520000D02*
X131930000Y-67980000D01*
X131930000Y-67980000D02*
X128970000Y-67980000D01*
G04 #@! TO.C,C19*
X88290000Y-154540000D02*
X89750000Y-154540000D01*
X88290000Y-157500000D02*
X88290000Y-154540000D01*
X89750000Y-154540000D02*
X89750000Y-157500000D01*
X89750000Y-157500000D02*
X88290000Y-157500000D01*
G04 #@! TO.C,R28*
X135970000Y-157230000D02*
X138930000Y-157230000D01*
X135970000Y-158690000D02*
X135970000Y-157230000D01*
X138930000Y-157230000D02*
X138930000Y-158690000D01*
X138930000Y-158690000D02*
X135970000Y-158690000D01*
G04 #@! TO.C,C26*
X199820000Y-99670000D02*
X202780000Y-99670000D01*
X199820000Y-101130000D02*
X199820000Y-99670000D01*
X202780000Y-99670000D02*
X202780000Y-101130000D01*
X202780000Y-101130000D02*
X199820000Y-101130000D01*
G04 #@! TO.C,C20*
X130420000Y-142970000D02*
X133380000Y-142970000D01*
X130420000Y-144430000D02*
X130420000Y-142970000D01*
X133380000Y-142970000D02*
X133380000Y-144430000D01*
X133380000Y-144430000D02*
X130420000Y-144430000D01*
G04 #@! TO.C,J8*
X161150000Y-52715000D02*
X169150000Y-52715000D01*
X161150000Y-61215000D02*
X161150000Y-52715000D01*
X169150000Y-52715000D02*
X169150000Y-61215000D01*
X169150000Y-61215000D02*
X161150000Y-61215000D01*
G04 #@! TO.C,C18*
X79185000Y-160240000D02*
X80645000Y-160240000D01*
X79185000Y-163200000D02*
X79185000Y-160240000D01*
X80645000Y-160240000D02*
X80645000Y-163200000D01*
X80645000Y-163200000D02*
X79185000Y-163200000D01*
G04 #@! TO.C,R38*
X178525000Y-67555000D02*
X179985000Y-67555000D01*
X178525000Y-70515000D02*
X178525000Y-67555000D01*
X179985000Y-67555000D02*
X179985000Y-70515000D01*
X179985000Y-70515000D02*
X178525000Y-70515000D01*
G04 #@! TO.C,Y1*
X121000000Y-68325000D02*
X124900000Y-68325000D01*
X121000000Y-74775000D02*
X121000000Y-68325000D01*
X124900000Y-68325000D02*
X124900000Y-74775000D01*
X124900000Y-74775000D02*
X121000000Y-74775000D01*
G04 #@! TO.C,R30*
X135920000Y-160690000D02*
X138880000Y-160690000D01*
X135920000Y-162150000D02*
X135920000Y-160690000D01*
X138880000Y-160690000D02*
X138880000Y-162150000D01*
X138880000Y-162150000D02*
X135920000Y-162150000D01*
G04 #@! TO.C,R2*
X128220000Y-78570000D02*
X131180000Y-78570000D01*
X128220000Y-80030000D02*
X128220000Y-78570000D01*
X131180000Y-78570000D02*
X131180000Y-80030000D01*
X131180000Y-80030000D02*
X128220000Y-80030000D01*
G04 #@! TO.C,C31*
X135930000Y-158990000D02*
X138890000Y-158990000D01*
X135930000Y-160450000D02*
X135930000Y-158990000D01*
X138890000Y-158990000D02*
X138890000Y-160450000D01*
X138890000Y-160450000D02*
X135930000Y-160450000D01*
G04 #@! TO.C,R4*
X141970000Y-87320000D02*
X143430000Y-87320000D01*
X141970000Y-90280000D02*
X141970000Y-87320000D01*
X143430000Y-87320000D02*
X143430000Y-90280000D01*
X143430000Y-90280000D02*
X141970000Y-90280000D01*
G04 #@! TO.C,J9*
X155900000Y-158825000D02*
X155900000Y-164975000D01*
X155900000Y-164975000D02*
X159500000Y-164975000D01*
X159500000Y-158825000D02*
X155900000Y-158825000D01*
X159500000Y-164975000D02*
X159500000Y-158825000D01*
G04 #@! TO.C,R52*
X135930000Y-162410000D02*
X138890000Y-162410000D01*
X135930000Y-163870000D02*
X135930000Y-162410000D01*
X138890000Y-162410000D02*
X138890000Y-163870000D01*
X138890000Y-163870000D02*
X135930000Y-163870000D01*
G04 #@! TO.C,C27*
X185670000Y-100970000D02*
X188630000Y-100970000D01*
X185670000Y-102430000D02*
X185670000Y-100970000D01*
X188630000Y-100970000D02*
X188630000Y-102430000D01*
X188630000Y-102430000D02*
X185670000Y-102430000D01*
D12*
G04 #@! TO.C,D2*
X62793250Y-94250000D02*
X69893250Y-94250000D01*
X62793250Y-98750000D02*
X62793250Y-94250000D01*
X69893250Y-94250000D02*
X69893250Y-98750000D01*
X69893250Y-98750000D02*
X62793250Y-98750000D01*
D10*
G04 #@! TO.C,U4*
X164600000Y-17750000D02*
X164600000Y-39440000D01*
X164600000Y-17750000D02*
X213100000Y-17750000D01*
X164600000Y-39440000D02*
X179100000Y-39440000D01*
X179100000Y-59240000D02*
X179100000Y-39440000D01*
X179100000Y-59240000D02*
X198600000Y-59240000D01*
X198600000Y-39440000D02*
X198600000Y-59240000D01*
X198600000Y-39440000D02*
X213100000Y-39440000D01*
X213100000Y-17750000D02*
X213100000Y-39440000D01*
G04 #@! TO.C,R5*
X160120000Y-74570000D02*
X163080000Y-74570000D01*
X160120000Y-76030000D02*
X160120000Y-74570000D01*
X163080000Y-74570000D02*
X163080000Y-76030000D01*
X163080000Y-76030000D02*
X160120000Y-76030000D01*
G04 #@! TO.C,U6*
X77822500Y-132370000D02*
X77822500Y-143520000D01*
X77822500Y-143520000D02*
X88377500Y-143520000D01*
X79840000Y-126420000D02*
X79840000Y-132370000D01*
X79840000Y-132370000D02*
X77822500Y-132370000D01*
X86360000Y-126420000D02*
X79840000Y-126420000D01*
X86360000Y-132370000D02*
X86360000Y-126420000D01*
X88377500Y-132370000D02*
X86360000Y-132370000D01*
X88377500Y-143520000D02*
X88377500Y-132370000D01*
G04 #@! TO.C,D4*
X138170000Y-52220000D02*
X139630000Y-52220000D01*
X138170000Y-55180000D02*
X138170000Y-52220000D01*
X139630000Y-52220000D02*
X139630000Y-55180000D01*
X139630000Y-55180000D02*
X138170000Y-55180000D01*
D11*
G04 #@! TO.C,IC8*
X226745000Y-80375000D02*
X233725000Y-80375000D01*
X226745000Y-83350000D02*
X226745000Y-80375000D01*
X233725000Y-80375000D02*
X233725000Y-83350000D01*
X233725000Y-83350000D02*
X226745000Y-83350000D01*
D10*
G04 #@! TO.C,R36*
X130320000Y-135920000D02*
X133280000Y-135920000D01*
X130320000Y-137380000D02*
X130320000Y-135920000D01*
X133280000Y-135920000D02*
X133280000Y-137380000D01*
X133280000Y-137380000D02*
X130320000Y-137380000D01*
G04 #@! TO.C,R25*
X199820000Y-101370000D02*
X202780000Y-101370000D01*
X199820000Y-102830000D02*
X199820000Y-101370000D01*
X202780000Y-101370000D02*
X202780000Y-102830000D01*
X202780000Y-102830000D02*
X199820000Y-102830000D01*
G04 #@! TO.C,H9*
X177450000Y-124300000D02*
G75*
G02*
X168550000Y-124300000I-4450000J0D01*
G01*
X168550000Y-124300000D02*
G75*
G02*
X177450000Y-124300000I4450000J0D01*
G01*
G04 #@! TO.C,R33*
X114780000Y-134575000D02*
X117740000Y-134575000D01*
X114780000Y-136035000D02*
X114780000Y-134575000D01*
X117740000Y-134575000D02*
X117740000Y-136035000D01*
X117740000Y-136035000D02*
X114780000Y-136035000D01*
G04 #@! TO.C,C48*
X207420000Y-103670000D02*
X210380000Y-103670000D01*
X207420000Y-105130000D02*
X207420000Y-103670000D01*
X210380000Y-103670000D02*
X210380000Y-105130000D01*
X210380000Y-105130000D02*
X207420000Y-105130000D01*
G04 #@! TO.C,C7*
X78020000Y-75220000D02*
X80980000Y-75220000D01*
X78020000Y-76680000D02*
X78020000Y-75220000D01*
X80980000Y-75220000D02*
X80980000Y-76680000D01*
X80980000Y-76680000D02*
X78020000Y-76680000D01*
G04 #@! TO.C,C52*
X134720000Y-87545000D02*
X136180000Y-87545000D01*
X134720000Y-90505000D02*
X134720000Y-87545000D01*
X136180000Y-87545000D02*
X136180000Y-90505000D01*
X136180000Y-90505000D02*
X134720000Y-90505000D01*
G04 #@! TO.C,H5*
X156450000Y-29300000D02*
G75*
G02*
X147550000Y-29300000I-4450000J0D01*
G01*
X147550000Y-29300000D02*
G75*
G02*
X156450000Y-29300000I4450000J0D01*
G01*
G04 #@! TO.C,C51*
X84245000Y-160220000D02*
X85705000Y-160220000D01*
X84245000Y-163180000D02*
X84245000Y-160220000D01*
X85705000Y-160220000D02*
X85705000Y-163180000D01*
X85705000Y-163180000D02*
X84245000Y-163180000D01*
G04 #@! TO.C,U2*
X78000000Y-67700000D02*
X78000000Y-74900000D01*
X78000000Y-74900000D02*
X86800000Y-74900000D01*
X86800000Y-67700000D02*
X78000000Y-67700000D01*
X86800000Y-74900000D02*
X86800000Y-67700000D01*
G04 #@! TO.C,C36*
X114805000Y-136300000D02*
X117765000Y-136300000D01*
X114805000Y-137760000D02*
X114805000Y-136300000D01*
X117765000Y-136300000D02*
X117765000Y-137760000D01*
X117765000Y-137760000D02*
X114805000Y-137760000D01*
G04 #@! TO.C,R42*
X221320000Y-99970000D02*
X224280000Y-99970000D01*
X221320000Y-101430000D02*
X221320000Y-99970000D01*
X224280000Y-99970000D02*
X224280000Y-101430000D01*
X224280000Y-101430000D02*
X221320000Y-101430000D01*
G04 #@! TO.C,R11*
X75635000Y-160215000D02*
X77095000Y-160215000D01*
X75635000Y-163175000D02*
X75635000Y-160215000D01*
X77095000Y-160215000D02*
X77095000Y-163175000D01*
X77095000Y-163175000D02*
X75635000Y-163175000D01*
G04 #@! TO.C,R53*
X152090000Y-92685000D02*
X152090000Y-96415000D01*
X152090000Y-96415000D02*
X155310000Y-96415000D01*
X155310000Y-92685000D02*
X152090000Y-92685000D01*
X155310000Y-96415000D02*
X155310000Y-92685000D01*
G04 #@! TO.C,C11*
X93390000Y-154540000D02*
X94850000Y-154540000D01*
X93390000Y-157500000D02*
X93390000Y-154540000D01*
X94850000Y-154540000D02*
X94850000Y-157500000D01*
X94850000Y-157500000D02*
X93390000Y-157500000D01*
G04 #@! TO.C,C23*
X96790000Y-154540000D02*
X98250000Y-154540000D01*
X96790000Y-157500000D02*
X96790000Y-154540000D01*
X98250000Y-154540000D02*
X98250000Y-157500000D01*
X98250000Y-157500000D02*
X96790000Y-157500000D01*
G04 #@! TO.C,R3*
X127920000Y-87520000D02*
X129380000Y-87520000D01*
X127920000Y-90480000D02*
X127920000Y-87520000D01*
X129380000Y-87520000D02*
X129380000Y-90480000D01*
X129380000Y-90480000D02*
X127920000Y-90480000D01*
G04 #@! TO.C,C14*
X133120000Y-64320000D02*
X136080000Y-64320000D01*
X133120000Y-65780000D02*
X133120000Y-64320000D01*
X136080000Y-64320000D02*
X136080000Y-65780000D01*
X136080000Y-65780000D02*
X133120000Y-65780000D01*
G04 #@! TO.C,R48*
X229490000Y-114990000D02*
X230950000Y-114990000D01*
X229490000Y-117950000D02*
X229490000Y-114990000D01*
X230950000Y-114990000D02*
X230950000Y-117950000D01*
X230950000Y-117950000D02*
X229490000Y-117950000D01*
G04 #@! TO.C,R10*
X95090000Y-154540000D02*
X96550000Y-154540000D01*
X95090000Y-157500000D02*
X95090000Y-154540000D01*
X96550000Y-154540000D02*
X96550000Y-157500000D01*
X96550000Y-157500000D02*
X95090000Y-157500000D01*
G04 #@! TO.C,H6*
X176450000Y-190300000D02*
G75*
G02*
X167550000Y-190300000I-4450000J0D01*
G01*
X167550000Y-190300000D02*
G75*
G02*
X176450000Y-190300000I4450000J0D01*
G01*
G04 #@! TO.C,R21*
X91670000Y-160220000D02*
X93130000Y-160220000D01*
X91670000Y-163180000D02*
X91670000Y-160220000D01*
X93130000Y-160220000D02*
X93130000Y-163180000D01*
X93130000Y-163180000D02*
X91670000Y-163180000D01*
G04 #@! TO.C,R54*
X80970000Y-160220000D02*
X82430000Y-160220000D01*
X80970000Y-163180000D02*
X80970000Y-160220000D01*
X82430000Y-160220000D02*
X82430000Y-163180000D01*
X82430000Y-163180000D02*
X80970000Y-163180000D01*
G04 #@! TO.C,R34*
X114780000Y-131125000D02*
X117740000Y-131125000D01*
X114780000Y-132585000D02*
X114780000Y-131125000D01*
X117740000Y-131125000D02*
X117740000Y-132585000D01*
X117740000Y-132585000D02*
X114780000Y-132585000D01*
G04 #@! TO.C,C5*
X53620000Y-101670000D02*
X56580000Y-101670000D01*
X53620000Y-103130000D02*
X53620000Y-101670000D01*
X56580000Y-101670000D02*
X56580000Y-103130000D01*
X56580000Y-103130000D02*
X53620000Y-103130000D01*
G04 #@! TO.C,C41*
X130320000Y-134170000D02*
X133280000Y-134170000D01*
X130320000Y-135630000D02*
X130320000Y-134170000D01*
X133280000Y-134170000D02*
X133280000Y-135630000D01*
X133280000Y-135630000D02*
X130320000Y-135630000D01*
G04 #@! TO.C,R40*
X228470000Y-85620000D02*
X229930000Y-85620000D01*
X228470000Y-88580000D02*
X228470000Y-85620000D01*
X229930000Y-85620000D02*
X229930000Y-88580000D01*
X229930000Y-88580000D02*
X228470000Y-88580000D01*
G04 #@! TO.C,C33*
X127545000Y-160435000D02*
X130505000Y-160435000D01*
X127545000Y-161895000D02*
X127545000Y-160435000D01*
X130505000Y-160435000D02*
X130505000Y-161895000D01*
X130505000Y-161895000D02*
X127545000Y-161895000D01*
G04 #@! TO.C,R27*
X136090000Y-154200000D02*
X139050000Y-154200000D01*
X136090000Y-155660000D02*
X136090000Y-154200000D01*
X139050000Y-154200000D02*
X139050000Y-155660000D01*
X139050000Y-155660000D02*
X136090000Y-155660000D01*
G04 #@! TO.C,J2*
X205500000Y-41250000D02*
X205500000Y-57550000D01*
X205500000Y-57550000D02*
X209100000Y-57550000D01*
X209100000Y-41250000D02*
X205500000Y-41250000D01*
X209100000Y-57550000D02*
X209100000Y-41250000D01*
G04 #@! TO.C,C32*
X136160000Y-149020000D02*
X139120000Y-149020000D01*
X136160000Y-150480000D02*
X136160000Y-149020000D01*
X139120000Y-149020000D02*
X139120000Y-150480000D01*
X139120000Y-150480000D02*
X136160000Y-150480000D01*
G04 #@! TO.C,C1*
X72190000Y-95490000D02*
X76090000Y-95490000D01*
X72190000Y-105140000D02*
X72190000Y-95490000D01*
X73340000Y-106290000D02*
X72190000Y-105140000D01*
X73340000Y-106290000D02*
X76090000Y-106290000D01*
X76090000Y-94640000D02*
X79090000Y-94640000D01*
X76090000Y-95490000D02*
X76090000Y-94640000D01*
X76090000Y-106290000D02*
X76090000Y-107140000D01*
X76090000Y-107140000D02*
X79090000Y-107140000D01*
X79090000Y-94640000D02*
X79090000Y-95490000D01*
X79090000Y-95490000D02*
X82990000Y-95490000D01*
X79090000Y-106290000D02*
X81840000Y-106290000D01*
X79090000Y-107140000D02*
X79090000Y-106290000D01*
X81840000Y-106290000D02*
X82990000Y-105140000D01*
X82990000Y-105140000D02*
X82990000Y-95490000D01*
G04 #@! TO.C,C38*
X127570000Y-130320000D02*
X130530000Y-130320000D01*
X127570000Y-131780000D02*
X127570000Y-130320000D01*
X130530000Y-130320000D02*
X130530000Y-131780000D01*
X130530000Y-131780000D02*
X127570000Y-131780000D01*
G04 #@! TO.C,R47*
X207445000Y-98270000D02*
X210405000Y-98270000D01*
X207445000Y-99730000D02*
X207445000Y-98270000D01*
X210405000Y-98270000D02*
X210405000Y-99730000D01*
X210405000Y-99730000D02*
X207445000Y-99730000D01*
G04 #@! TO.C,R6*
X160120000Y-73020000D02*
X163080000Y-73020000D01*
X160120000Y-74480000D02*
X160120000Y-73020000D01*
X163080000Y-73020000D02*
X163080000Y-74480000D01*
X163080000Y-74480000D02*
X160120000Y-74480000D01*
G04 #@! TO.C,U3*
X132058389Y-68844534D02*
X132058389Y-72994534D01*
X132058389Y-77144534D02*
X132058389Y-72994534D01*
X133508389Y-67744534D02*
X133508389Y-68844534D01*
X133508389Y-68844534D02*
X132058389Y-68844534D01*
X133508389Y-77144534D02*
X132058389Y-77144534D01*
X133508389Y-78244534D02*
X133508389Y-77144534D01*
X134608389Y-66294534D02*
X134608389Y-67744534D01*
X134608389Y-67744534D02*
X133508389Y-67744534D01*
X134608389Y-78244534D02*
X133508389Y-78244534D01*
X134608389Y-79694534D02*
X134608389Y-78244534D01*
X138758389Y-66294534D02*
X134608389Y-66294534D01*
X138758389Y-66294534D02*
X142908389Y-66294534D01*
X138758389Y-79694534D02*
X134608389Y-79694534D01*
X138758389Y-79694534D02*
X142908389Y-79694534D01*
X142908389Y-66294534D02*
X142908389Y-67744534D01*
X142908389Y-67744534D02*
X144008389Y-67744534D01*
X142908389Y-78244534D02*
X144008389Y-78244534D01*
X142908389Y-79694534D02*
X142908389Y-78244534D01*
X144008389Y-67744534D02*
X144008389Y-68844534D01*
X144008389Y-68844534D02*
X145458389Y-68844534D01*
X144008389Y-77144534D02*
X145458389Y-77144534D01*
X144008389Y-78244534D02*
X144008389Y-77144534D01*
X145458389Y-68844534D02*
X145458389Y-72994534D01*
X145458389Y-77144534D02*
X145458389Y-72994534D01*
G04 #@! TO.C,R14*
X89990000Y-154540000D02*
X91450000Y-154540000D01*
X89990000Y-157500000D02*
X89990000Y-154540000D01*
X91450000Y-154540000D02*
X91450000Y-157500000D01*
X91450000Y-157500000D02*
X89990000Y-157500000D01*
G04 #@! TO.C,C45*
X199820000Y-104170000D02*
X202780000Y-104170000D01*
X199820000Y-105630000D02*
X199820000Y-104170000D01*
X202780000Y-104170000D02*
X202780000Y-105630000D01*
X202780000Y-105630000D02*
X199820000Y-105630000D01*
G04 #@! TO.C,D3*
X138170000Y-59120000D02*
X139630000Y-59120000D01*
X138170000Y-62080000D02*
X138170000Y-59120000D01*
X139630000Y-59120000D02*
X139630000Y-62080000D01*
X139630000Y-62080000D02*
X138170000Y-62080000D01*
G04 #@! TO.C,C47*
X207445000Y-99970000D02*
X210405000Y-99970000D01*
X207445000Y-101430000D02*
X207445000Y-99970000D01*
X210405000Y-99970000D02*
X210405000Y-101430000D01*
X210405000Y-101430000D02*
X207445000Y-101430000D01*
G04 #@! TO.C,C25*
X185720000Y-102670000D02*
X188680000Y-102670000D01*
X185720000Y-104130000D02*
X185720000Y-102670000D01*
X188680000Y-102670000D02*
X188680000Y-104130000D01*
X188680000Y-104130000D02*
X185720000Y-104130000D01*
G04 #@! TO.C,C21*
X135795000Y-142970000D02*
X138755000Y-142970000D01*
X135795000Y-144430000D02*
X135795000Y-142970000D01*
X138755000Y-142970000D02*
X138755000Y-144430000D01*
X138755000Y-144430000D02*
X135795000Y-144430000D01*
G04 #@! TO.C,R46*
X207420000Y-102070000D02*
X210380000Y-102070000D01*
X207420000Y-103530000D02*
X207420000Y-102070000D01*
X210380000Y-102070000D02*
X210380000Y-103530000D01*
X210380000Y-103530000D02*
X207420000Y-103530000D01*
G04 #@! TO.C,C34*
X153920000Y-96970000D02*
X156880000Y-96970000D01*
X153920000Y-98430000D02*
X153920000Y-96970000D01*
X156880000Y-96970000D02*
X156880000Y-98430000D01*
X156880000Y-98430000D02*
X153920000Y-98430000D01*
G04 #@! TO.C,R1*
X136370000Y-59320000D02*
X137830000Y-59320000D01*
X136370000Y-62280000D02*
X136370000Y-59320000D01*
X137830000Y-59320000D02*
X137830000Y-62280000D01*
X137830000Y-62280000D02*
X136370000Y-62280000D01*
G04 #@! TO.C,C44*
X221320000Y-102470000D02*
X224280000Y-102470000D01*
X221320000Y-103930000D02*
X221320000Y-102470000D01*
X224280000Y-102470000D02*
X224280000Y-103930000D01*
X224280000Y-103930000D02*
X221320000Y-103930000D01*
G04 #@! TO.C,C6*
X77940000Y-63660000D02*
X82840000Y-63660000D01*
X77940000Y-66960000D02*
X77940000Y-63660000D01*
X82840000Y-63660000D02*
X82840000Y-66960000D01*
X82840000Y-66960000D02*
X77940000Y-66960000D01*
G04 #@! TO.C,C2*
X51637500Y-97880000D02*
X56537500Y-97880000D01*
X51637500Y-101180000D02*
X51637500Y-97880000D01*
X56537500Y-97880000D02*
X56537500Y-101180000D01*
X56537500Y-101180000D02*
X51637500Y-101180000D01*
G04 #@! TO.C,R58*
X152090000Y-87985000D02*
X152090000Y-91715000D01*
X152090000Y-91715000D02*
X155310000Y-91715000D01*
X155310000Y-87985000D02*
X152090000Y-87985000D01*
X155310000Y-91715000D02*
X155310000Y-87985000D01*
G04 #@! TO.C,C35*
X114805000Y-138025000D02*
X117765000Y-138025000D01*
X114805000Y-139485000D02*
X114805000Y-138025000D01*
X117765000Y-138025000D02*
X117765000Y-139485000D01*
X117765000Y-139485000D02*
X114805000Y-139485000D01*
G04 #@! TO.C,R29*
X135950000Y-164180000D02*
X138910000Y-164180000D01*
X135950000Y-165640000D02*
X135950000Y-164180000D01*
X138910000Y-164180000D02*
X138910000Y-165640000D01*
X138910000Y-165640000D02*
X135950000Y-165640000D01*
G04 #@! TO.C,C54*
X173120000Y-46120000D02*
X176080000Y-46120000D01*
X173120000Y-47580000D02*
X173120000Y-46120000D01*
X176080000Y-46120000D02*
X176080000Y-47580000D01*
X176080000Y-47580000D02*
X173120000Y-47580000D01*
G04 #@! TO.C,L3*
X173120000Y-41020000D02*
X176080000Y-41020000D01*
X173120000Y-42480000D02*
X173120000Y-41020000D01*
X176080000Y-41020000D02*
X176080000Y-42480000D01*
X176080000Y-42480000D02*
X173120000Y-42480000D01*
G04 #@! TO.C,H7*
X224450000Y-30500000D02*
G75*
G02*
X215550000Y-30500000I-4450000J0D01*
G01*
X215550000Y-30500000D02*
G75*
G02*
X224450000Y-30500000I4450000J0D01*
G01*
D12*
G04 #@! TO.C,D1*
X70280000Y-109213250D02*
X74780000Y-109213250D01*
X70280000Y-116313250D02*
X70280000Y-109213250D01*
X74780000Y-109213250D02*
X74780000Y-116313250D01*
X74780000Y-116313250D02*
X70280000Y-116313250D01*
D10*
G04 #@! TO.C,L2*
X128320000Y-76870000D02*
X131280000Y-76870000D01*
X128320000Y-78330000D02*
X128320000Y-76870000D01*
X131280000Y-76870000D02*
X131280000Y-78330000D01*
X131280000Y-78330000D02*
X128320000Y-78330000D01*
G04 #@! TO.C,R26*
X185720000Y-99270000D02*
X188680000Y-99270000D01*
X185720000Y-100730000D02*
X185720000Y-99270000D01*
X188680000Y-99270000D02*
X188680000Y-100730000D01*
X188680000Y-100730000D02*
X185720000Y-100730000D01*
G04 #@! TO.C,C13*
X128320000Y-75170000D02*
X131280000Y-75170000D01*
X128320000Y-76630000D02*
X128320000Y-75170000D01*
X131280000Y-75170000D02*
X131280000Y-76630000D01*
X131280000Y-76630000D02*
X128320000Y-76630000D01*
G04 #@! TO.C,R45*
X199820000Y-105870000D02*
X202780000Y-105870000D01*
X199820000Y-107330000D02*
X199820000Y-105870000D01*
X202780000Y-105870000D02*
X202780000Y-107330000D01*
X202780000Y-107330000D02*
X199820000Y-107330000D01*
G04 #@! TO.C,C46*
X212320000Y-104670000D02*
X215280000Y-104670000D01*
X212320000Y-106130000D02*
X212320000Y-104670000D01*
X215280000Y-104670000D02*
X215280000Y-106130000D01*
X215280000Y-106130000D02*
X212320000Y-106130000D01*
G04 #@! TD*
M02*
